<?xml version="1.0" encoding="UTF-8" standalone="no"?>
<!-- Created with Inkscape (http://www.inkscape.org/) -->

<svg
   xmlns:dc="http://purl.org/dc/elements/1.1/"
   xmlns:cc="http://creativecommons.org/ns#"
   xmlns:rdf="http://www.w3.org/1999/02/22-rdf-syntax-ns#"
   xmlns:svg="http://www.w3.org/2000/svg"
   xmlns="http://www.w3.org/2000/svg"
   xmlns:xlink="http://www.w3.org/1999/xlink"
   xmlns:sodipodi="http://sodipodi.sourceforge.net/DTD/sodipodi-0.dtd"
   xmlns:inkscape="http://www.inkscape.org/namespaces/inkscape"
   id="svg2"
   version="1.1"
   inkscape:version="0.92.2pre0 (973e216, 2017-07-25)"
   width="2481"
   height="3503"
   sodipodi:docname="Pepper-and-Carrot_by-David-Revoy_E23P01.svg">
  <metadata
     id="metadata8">
    <rdf:RDF>
      <cc:Work
         rdf:about="">
        <dc:format>image/svg+xml</dc:format>
        <dc:type
           rdf:resource="http://purl.org/dc/dcmitype/StillImage" />
        <dc:title />
      </cc:Work>
    </rdf:RDF>
  </metadata>
  <defs
     id="defs6">
    <linearGradient
       inkscape:collect="always"
       id="linearGradient4201">
      <stop
         id="stop4205"
         offset="0"
         style="stop-color:#8c7727;stop-opacity:1" />
      <stop
         id="stop4203"
         offset="1"
         style="stop-color:#e9ddaf;stop-opacity:1;" />
    </linearGradient>
    <filter
       inkscape:collect="always"
       style="color-interpolation-filters:sRGB"
       id="filter4367"
       x="-0.0043557762"
       width="1.0087116"
       y="-0.020747933"
       height="1.0414959"
       inkscape:label="graphic-blending">
      <feGaussianBlur
         inkscape:collect="always"
         stdDeviation="0.59122338"
         id="feGaussianBlur4369" />
    </filter>
    <filter
       inkscape:collect="always"
       style="color-interpolation-filters:sRGB"
       id="filter4367-7"
       x="-0.0043557761"
       width="1.0087116"
       y="-0.020747934"
       height="1.0414959"
       inkscape:label="graphic-blending">
      <feGaussianBlur
         inkscape:collect="always"
         stdDeviation="0.59122338"
         id="feGaussianBlur4369-9" />
    </filter>
    <filter
       inkscape:collect="always"
       style="color-interpolation-filters:sRGB"
       id="filter4367-7-1"
       x="-0.0043557761"
       width="1.0087116"
       y="-0.020747934"
       height="1.0414959"
       inkscape:label="graphic-blending">
      <feGaussianBlur
         inkscape:collect="always"
         stdDeviation="0.59122338"
         id="feGaussianBlur4369-9-2" />
    </filter>
    <filter
       style="color-interpolation-filters:sRGB"
       id="filter4375-4-1-1-1-9"
       inkscape:label="deevad outline effect">
      <feFlood
         id="feFlood4377-7-9-0-8-1"
         flood-opacity="1"
         flood-color="rgb(0,0,0)"
         result="flood" />
      <feComposite
         id="feComposite4379-3-8-8-2-77"
         in2="SourceGraphic"
         in="flood"
         operator="in"
         result="composite1" />
      <feMorphology
         id="feMorphology4393-1-0-49-8-9"
         operator="dilate"
         radius="3"
         result="result3" />
      <feComposite
         id="feComposite4385-9-5-7-0-8"
         in2="result3"
         in="SourceGraphic"
         operator="over"
         result="composite2" />
    </filter>
    <filter
       inkscape:collect="always"
       style="color-interpolation-filters:sRGB"
       id="filter4289"
       x="-0.0076879989"
       width="1.015376"
       y="-0.012777842"
       height="1.0255557">
      <feGaussianBlur
         inkscape:collect="always"
         stdDeviation="0.69527307"
         id="feGaussianBlur4291" />
    </filter>
    <linearGradient
       gradientTransform="translate(-635.87192,-144.07662)"
       inkscape:collect="always"
       xlink:href="#linearGradient4201"
       id="linearGradient4209-3"
       x1="635.87195"
       y1="213.15028"
       x2="669.13959"
       y2="212.33302"
       gradientUnits="userSpaceOnUse" />
    <linearGradient
       gradientTransform="translate(-124.79403,-228.19698)"
       inkscape:collect="always"
       xlink:href="#linearGradient4201"
       id="linearGradient4253-9"
       gradientUnits="userSpaceOnUse"
       x1="126.72245"
       y1="251.56125"
       x2="156.72107"
       y2="266.27182" />
    <filter
       inkscape:collect="always"
       style="color-interpolation-filters:sRGB"
       id="filter4409"
       x="-0.01122263"
       width="1.0224453"
       y="-0.045443319"
       height="1.0908866">
      <feGaussianBlur
         inkscape:collect="always"
         stdDeviation="2.3996645"
         id="feGaussianBlur4411" />
    </filter>
    <linearGradient
       gradientTransform="translate(0,-2.9998079e-5)"
       inkscape:collect="always"
       xlink:href="#linearGradient4201"
       id="linearGradient4209"
       x1="635.87195"
       y1="213.15028"
       x2="669.13959"
       y2="212.33302"
       gradientUnits="userSpaceOnUse" />
    <linearGradient
       inkscape:collect="always"
       xlink:href="#linearGradient4440"
       id="linearGradient4253"
       gradientUnits="userSpaceOnUse"
       x1="126.72245"
       y1="251.56125"
       x2="156.72107"
       y2="266.27182"
       gradientTransform="translate(-0.40403,-0.60607)" />
    <linearGradient
       id="linearGradient4440"
       inkscape:collect="always">
      <stop
         style="stop-color:#300e08;stop-opacity:1"
         offset="0"
         id="stop4442" />
      <stop
         style="stop-color:#e9ddaf;stop-opacity:1;"
         offset="1"
         id="stop4444" />
    </linearGradient>
    <linearGradient
       inkscape:collect="always"
       xlink:href="#linearGradient4446"
       id="linearGradient4438"
       gradientUnits="userSpaceOnUse"
       x1="130.64951"
       y1="265.53693"
       x2="156.72107"
       y2="266.27182"
       gradientTransform="translate(-1.41409,0.20198)" />
    <linearGradient
       id="linearGradient4446"
       inkscape:collect="always">
      <stop
         style="stop-color:#603f17;stop-opacity:1"
         offset="0"
         id="stop4448" />
      <stop
         style="stop-color:#e9ddaf;stop-opacity:1;"
         offset="1"
         id="stop4450" />
    </linearGradient>
    <filter
       inkscape:collect="always"
       style="color-interpolation-filters:sRGB"
       id="filter4744"
       x="-0.0083712086"
       width="1.0167424"
       y="-0.031193376"
       height="1.0623868">
      <feGaussianBlur
         inkscape:collect="always"
         stdDeviation="1.9569632"
         id="feGaussianBlur4746" />
    </filter>
    <filter
       style="color-interpolation-filters:sRGB"
       id="filter4375-4-1-1-1-9-3"
       inkscape:label="deevad outline poster">
      <feFlood
         id="feFlood4377-7-9-0-8-1-6"
         flood-opacity="1"
         flood-color="rgb(0,0,0)"
         result="flood" />
      <feComposite
         id="feComposite4379-3-8-8-2-77-7"
         in2="SourceGraphic"
         in="flood"
         operator="in"
         result="composite1" />
      <feMorphology
         id="feMorphology4393-1-0-49-8-9-5"
         operator="dilate"
         radius="3"
         result="result3" />
      <feComposite
         id="feComposite4385-9-5-7-0-8-3"
         in2="result3"
         in="SourceGraphic"
         operator="over"
         result="composite2" />
    </filter>
  </defs>
  <sodipodi:namedview
     pagecolor="#ffffff"
     bordercolor="#666666"
     borderopacity="1"
     objecttolerance="10"
     gridtolerance="10"
     guidetolerance="10"
     inkscape:pageopacity="0"
     inkscape:pageshadow="2"
     inkscape:window-width="1920"
     inkscape:window-height="1006"
     id="namedview4"
     showgrid="false"
     inkscape:zoom="0.526013"
     inkscape:cx="1429.8669"
     inkscape:cy="1595.0566"
     inkscape:window-x="0"
     inkscape:window-y="25"
     inkscape:window-maximized="1"
     inkscape:current-layer="layer1"
     showguides="true"
     inkscape:guide-bbox="true"
     inkscape:document-rotation="0" />
  <g
     inkscape:groupmode="layer"
     id="layer2"
     inkscape:label="artwork"
     sodipodi:insensitive="true">
    <image
       sodipodi:absref="/home/mc/Downloads/../gfx_Pepper-and-Carrot_by-David-Revoy_E23P01.png"
       xlink:href="../gfx_Pepper-and-Carrot_by-David-Revoy_E23P01.png"
       y="0"
       x="0"
       id="image10"
       height="3503"
       width="2481" />
  </g>
  <g
     inkscape:groupmode="layer"
     id="layer3"
     inkscape:label="speechbubbles"
     style="display:inline">
    <g
       id="g4748"
       transform="matrix(0.78929246,0,0,1,23.8711,-1.2429418)">
      <path
         inkscape:connector-curvature="0"
         id="path4413-0"
         d="m 169.69978,135.83332 c -9.13146,0 -30.90519,4.62722 -30.90519,16.52765 0,0 -2.10781,5.2891 -1.40539,9.25591 0.70241,3.96681 2.95944,42.47553 2.95944,49.08687 0,6.61134 -5.57718,29.12456 -4.42469,35.68451 0.42916,2.44143 0.21219,16.6004 0.0772,23.57042 l -0.19112,3.91932 c 1.9218,0.266 3.44637,0.45533 5.0656,0.66321 -0.10716,1.46088 -0.44476,2.9825 -1.18146,4.60797 0.0428,0.0461 0.0746,0.0758 0.11583,0.11992 -9.9e-4,-2e-4 -0.0386,-0.006 -0.0386,-0.006 l 0.10811,0.0781 c 0.80525,0.8603 1.355,1.34809 2.20847,1.61715 l 0.82818,0.60506 6.98451,0.32888 8.92079,-2.43844 1.95365,-0.40701 0.12549,-1.26647 0.6911,-4.52984 0.68147,-5.50013 c 21.233,0.93786 83.17662,2.77829 91.7175,1.62988 9.83388,-1.32227 160.1525,0.002 167.87911,-0.65959 7.72662,-0.66112 188.24718,1.98341 196.67621,0 7.56041,-1.779 1.82294,-0.89389 25.84924,0.73772 -0.58197,4.37957 0.5397,11.34192 1.32238,14.18913 l 1.70655,0.11447 c -0.0262,0.0567 -0.0531,0.10633 -0.0792,0.16353 0.059,-0.0555 0.12032,-0.10145 0.17954,-0.15626 l 14.74121,0.98664 28.63686,1.64441 c 0,0 3.84167,-1.64367 3.84167,-3.61588 0,-1.9722 -11.49003,-7.33912 -8.38218,-7.88951 3.04515,-0.5393 7.06542,-8.65421 9.79723,-9.16325 3.23188,-0.60222 -6.30593,-4.96956 -8.05206,-4.96956 -1.74614,0 -7.68142,-7.56063 -7.68142,-7.56063 0,0 7.33315,-8.54618 9.42851,-9.86098 2.09536,-1.31481 5.23839,-5.58825 3.49225,-7.23175 -1.74612,-1.64351 -10.12674,-1.64314 -12.57134,-2.62923 -2.44458,-0.98611 -3.14322,-7.55972 -3.84167,-9.20322 -0.69846,-1.64351 1.74457,-8.54691 4.18916,-7.88952 2.44458,0.65742 11.8752,-7.23064 13.27211,-8.54545 1.39691,-1.31481 -3.14284,-5.91623 -3.14284,-5.91623 l -7.33392,-5.91804 3.84167,-5.91623 c 0,0 -4.8909,-8.54527 -6.63702,-8.21657 -1.74614,0.3287 -2.09458,-5.58916 -2.09458,-5.58916 l 10.12734,-6.90288 4.19109,-1.97147 c 0,0 -0.69805,-3.28718 -2.79341,-3.61587 -2.07016,-0.32474 -26.23912,-1.92555 -35.24107,-1.9642 -0.71784,-9.95803 -1.51246,-16.58487 -2.34747,-16.74205 -3.5121,-0.66114 -22.47697,0 -28.09633,0 -5.61936,0 -61.11073,-7.27355 -68.83735,-7.27355 -7.72661,0 -103.95846,1.3228 -108.17298,1.3228 -4.21451,0 -100.44553,-1.32306 -106.06488,-1.98419 -5.61935,-0.66113 -106.76816,2.6e-4 -113.08993,0.66139 -6.32178,0.66114 -49.87199,-1.98237 -59.00344,-1.98237 z"
         style="color:#000000;clip-rule:nonzero;display:inline;overflow:visible;visibility:visible;opacity:0.37700004;isolation:auto;mix-blend-mode:normal;color-interpolation:sRGB;color-interpolation-filters:linearRGB;solid-color:#000000;solid-opacity:1;fill:#000000;fill-opacity:1;fill-rule:evenodd;stroke:none;stroke-width:1.60000002;stroke-linecap:butt;stroke-linejoin:miter;stroke-miterlimit:4;stroke-dasharray:none;stroke-dashoffset:0;stroke-opacity:1;filter:url(#filter4744);color-rendering:auto;image-rendering:auto;shape-rendering:auto;text-rendering:auto;enable-background:accumulate" />
      <path
         sodipodi:nodetypes="ccccccc"
         inkscape:connector-curvature="0"
         id="path4413"
         d="m 129.5391,273.61804 c 2.83704,-6.6506 -0.0722,-11.70499 -0.10868,-17.5574 l 23.44397,-2.6056 -1.38884,13.4491 -0.61801,6.60482 -10.98825,2.436 c -8.201,-0.0115 -8.14527,0.183 -10.34019,-2.32692 z"
         style="color:#000000;clip-rule:nonzero;display:inline;overflow:visible;visibility:visible;opacity:1;isolation:auto;mix-blend-mode:normal;color-interpolation:sRGB;color-interpolation-filters:linearRGB;solid-color:#000000;solid-opacity:1;fill:url(#linearGradient4438);fill-opacity:1;fill-rule:evenodd;stroke:#8c7159;stroke-width:1.56139815;stroke-linecap:butt;stroke-linejoin:miter;stroke-miterlimit:4;stroke-dasharray:none;stroke-dashoffset:0;stroke-opacity:1;color-rendering:auto;image-rendering:auto;shape-rendering:auto;text-rendering:auto;enable-background:accumulate" />
      <path
         sodipodi:nodetypes="csscccccccc"
         inkscape:connector-curvature="0"
         id="path4185"
         d="m 125.60947,267.95172 c 24.02587,3.53321 23.67937,2.03169 23.67937,2.03169 1.4128,0.0371 -5.53764,4.11073 -9.7775,4.46405 -4.23986,0.35332 -9.89301,-0.70664 -9.89301,-0.70664 l 3.1799,2.47325 7.06643,0.35332 10.95297,-3.17989 0.87669,-6.10834 4.06981,-34.87697 -29.16208,14.01619 z"
         style="color:#000000;clip-rule:nonzero;display:inline;overflow:visible;visibility:visible;opacity:0.78500001;isolation:auto;mix-blend-mode:normal;color-interpolation:sRGB;color-interpolation-filters:linearRGB;solid-color:#000000;solid-opacity:1;fill:url(#linearGradient4253);fill-opacity:1;fill-rule:evenodd;stroke:#614025;stroke-width:1.56139815;stroke-linecap:butt;stroke-linejoin:miter;stroke-miterlimit:4;stroke-dasharray:none;stroke-dashoffset:0;stroke-opacity:1;color-rendering:auto;image-rendering:auto;shape-rendering:auto;text-rendering:auto;enable-background:accumulate" />
      <path
         sodipodi:nodetypes="cscccscccsssssscssssccccccc"
         inkscape:connector-curvature="0"
         id="path4183"
         d="m 650.81845,147.50439 c 8.83304,0 33.91888,1.76661 36.03881,2.11993 2.11993,0.35332 2.82657,3.88654 2.82657,3.88654 l -4.23986,2.11993 -10.24632,7.41975 c 0,0 0.35332,6.35979 2.11993,6.00647 1.7666,-0.35332 6.71311,8.83304 6.71311,8.83304 l -3.88654,6.35979 7.41975,6.35979 c 0,0 4.59319,4.9465 3.1799,6.35979 -1.41329,1.41329 -10.95297,9.89301 -13.42622,9.18636 -2.47325,-0.70664 -4.94651,6.71311 -4.23986,8.47972 0.70664,1.76661 1.41328,8.83304 3.88653,9.89301 2.47326,1.05996 10.95298,1.05996 12.71958,2.82657 1.76661,1.76661 -1.41328,6.35979 -3.53321,7.77308 -2.11993,1.41328 -9.53969,10.59965 -9.53969,10.59965 0,0 6.00647,8.12639 7.77308,8.12639 1.76661,0 11.41595,4.69541 8.14617,5.34274 -2.76384,0.54717 -6.83192,9.2704 -9.91278,9.85009 -3.14429,0.59162 8.47972,6.35979 8.47972,8.47972 0,2.11993 -3.88654,3.88654 -3.88654,3.88654 l -28.97237,-1.76661 -16.74159,-1.19279 c -0.84611,-3.27016 -2.08482,-11.59085 -1.1928,-16.17837 l -2.20495,-17.961 -1.41328,-99.28338 z"
         style="fill:url(#linearGradient4209);fill-opacity:1;fill-rule:evenodd;stroke:#8c7159;stroke-width:1.56139815;stroke-linecap:butt;stroke-linejoin:miter;stroke-miterlimit:4;stroke-dasharray:none;stroke-opacity:1" />
      <path
         sodipodi:nodetypes="cssssssssccssssccccsssc"
         inkscape:connector-curvature="0"
         id="path4181"
         d="m 128.62874,137.3331 c 0,-12.79181 22.03033,-17.7664 31.26886,-17.7664 9.23853,0 53.2992,2.84262 59.69511,2.13196 6.3959,-0.71065 108.73037,-1.42131 114.41562,-0.71065 5.68524,0.71065 103.04512,2.13197 107.30905,2.13197 4.26394,0 101.62381,-1.42132 109.44103,-1.42132 7.81722,0 63.95904,7.81722 69.64429,7.81722 5.68525,0 24.87296,-0.71066 28.42624,0 3.55328,0.71066 6.3959,122.23283 5.68525,132.18202 -0.71066,9.94918 -6.39591,12.08115 -11.3705,17.05574 4.26394,-9.94918 9.94919,-12.08115 6.39591,-14.92377 -35.53281,-2.13197 -27.00493,-3.55328 -35.53281,-1.42132 -8.52787,2.13197 -191.16646,-0.71065 -198.98368,0 -7.81721,0.71066 -159.8976,-0.71065 -169.84679,0.71066 -9.94918,1.42131 -91.67462,-1.42131 -99.49184,-2.13197 -7.81721,-0.71065 -21.31968,4.97459 -16.34509,4.97459 4.26394,1.42132 19.99401,4.23193 19.99401,4.23193 l -1.078,0.19967 -22.5333,-2.48329 c 0,0 0.58201,-26.0002 0.002,-29.50588 -1.16601,-7.05131 4.47729,-31.25122 4.47729,-38.35778 0,-7.10656 -2.28362,-48.50026 -2.99427,-52.7642 -0.71066,-4.26394 1.42131,-9.94918 1.42131,-9.94918 z"
         style="fill:#e9ddaf;fill-rule:evenodd;stroke:#2b0000;stroke-width:1.56139815;stroke-linecap:butt;stroke-linejoin:miter;stroke-miterlimit:4;stroke-dasharray:none;stroke-opacity:0.49079757" />
      <path
         sodipodi:nodetypes="csssssssscccssssscscssc"
         inkscape:connector-curvature="0"
         id="path4303"
         d="m 139.71309,136.98919 c 6.98566,-4.83623 22.03168,-10.74716 29.55469,-8.59773 7.52302,2.14943 53.73581,6.98565 58.03467,6.44829 4.29887,-0.53735 53.19845,-4.83622 57.49731,-5.37358 4.29887,-0.53735 87.58936,3.22415 93.5003,4.29887 5.91094,1.07471 71.46862,1.61207 77.91692,1.07471 6.4483,-0.53735 80.06635,-1.61207 84.36521,-2.14943 4.29887,-0.53736 18.27018,-1.07471 23.1064,1.61208 4.83622,2.68679 73.08069,4.83622 76.30484,4.83622 3.22415,0 4.29886,9.13509 4.29886,9.13509 l 10e-6,99.41124 -2.14944,5.37358 c 0,0 -8.06036,0 -17.19545,0 -9.13509,0 -9.13509,-1.07472 -18.27018,-1e-5 -9.13509,1.07472 -284.2624,0.53736 -290.17334,-2.14943 -5.91094,-2.68679 -139.71309,0.53736 -142.93724,0 -3.22415,-0.53736 -22.56904,-4.29886 -29.55469,-2.68679 -6.98566,1.61208 -12.8966,6.4483 -12.8966,6.4483 0,0 3.22415,-42.45129 7.52302,-49.43694 l 4.29886,-6.98566 c 0,0 -4.83622,-15.58338 -4.83622,-20.4196 0,-4.83622 -0.53736,-19.34489 0.53736,-23.64376 1.07471,-4.29886 1.07471,-17.19545 1.07471,-17.19545 z"
         style="fill:#fff6d5;fill-rule:evenodd;stroke:none;stroke-width:1px;stroke-linecap:butt;stroke-linejoin:miter;stroke-opacity:1;filter:url(#filter4409)" />
    </g>
  </g>
  <g
     inkscape:groupmode="layer"
     id="layer1"
     inkscape:label="txt"
     style="display:inline">
    <text
       xml:space="preserve"
       style="font-style:normal;font-variant:normal;font-weight:normal;font-stretch:normal;line-height:0%;font-family:Lavi;-inkscape-font-specification:Lavi;text-align:center;letter-spacing:0px;word-spacing:0px;text-anchor:middle;display:inline;fill:#501616;fill-opacity:1;stroke:none"
       x="158.45808"
       y="177.83876"
       id="text4246"><tspan
         sodipodi:role="line"
         style="font-size:45px;line-height:1.25;text-align:start;text-anchor:start;fill:#501616"
         x="158.45808"
         y="177.83876"
         id="tspan4252">Komona Market,</tspan><tspan
         sodipodi:role="line"
         style="font-size:45px;line-height:1.25;text-align:start;text-anchor:start;fill:#501616"
         x="158.45808"
         y="234.08876"
         id="tspan4144">one week later</tspan></text>
    <text
       xml:space="preserve"
       style="font-style:normal;font-variant:normal;font-weight:normal;font-stretch:normal;line-height:0%;font-family:Lavi;-inkscape-font-specification:Lavi;text-align:center;letter-spacing:0px;word-spacing:0px;text-anchor:middle;opacity:0.7;fill:#784421;fill-opacity:1;stroke:#502d16;stroke-width:3.4000001;stroke-miterlimit:4;stroke-dasharray:none;stroke-opacity:1;filter:url(#filter4367)"
       x="383.74872"
       y="1025.2651"
       id="text4246-3"><tspan
         sodipodi:role="line"
         style="font-style:normal;font-variant:normal;font-weight:normal;font-stretch:normal;font-size:95.64933777px;line-height:1.25;font-family:'Alex Brush';-inkscape-font-specification:'Alex Brush';text-align:start;text-anchor:start;fill:#784421;stroke:#502d16;stroke-width:3.4000001;stroke-miterlimit:4;stroke-dasharray:none;stroke-opacity:1"
         x="383.74872"
         y="1025.2651"
         id="tspan4144-7">Celebrity</tspan></text>
    <text
       xml:space="preserve"
       style="font-style:normal;font-variant:normal;font-weight:normal;font-stretch:normal;font-size:45px;line-height:1.25;font-family:Lavi;-inkscape-font-specification:Lavi;font-variant-ligatures:normal;font-variant-position:normal;font-variant-caps:normal;font-variant-numeric:normal;font-variant-alternates:normal;font-variant-east-asian:normal;font-feature-settings:normal;text-indent:0;text-align:start;text-decoration:none;text-decoration-line:none;text-decoration-style:solid;text-decoration-color:#000000;letter-spacing:0px;word-spacing:0px;text-transform:none;writing-mode:lr-tb;direction:ltr;text-orientation:mixed;dominant-baseline:auto;baseline-shift:baseline;text-anchor:start;white-space:normal;shape-padding:0;opacity:0.5;vector-effect:none;fill:#000000;fill-opacity:1;stroke:#966431;stroke-width:3.78753948;stroke-linecap:butt;stroke-linejoin:miter;stroke-miterlimit:4;stroke-dasharray:none;stroke-dashoffset:0;stroke-opacity:1;filter:url(#filter4289)"
       x="-279.06573"
       y="1481.1207"
       id="text4246-36"
       transform="matrix(0.95403759,-0.58022738,0.54516285,1.0194479,-74.979365,-232.69866)"><tspan
         sodipodi:role="line"
         style="font-style:normal;font-variant:normal;font-weight:normal;font-stretch:normal;font-size:45px;line-height:1.25;font-family:Lavi;-inkscape-font-specification:Lavi;font-variant-ligatures:normal;font-variant-position:normal;font-variant-caps:normal;font-variant-numeric:normal;font-variant-alternates:normal;font-variant-east-asian:normal;font-feature-settings:normal;text-indent:0;text-align:start;text-decoration:none;text-decoration-line:none;text-decoration-style:solid;text-decoration-color:#000000;letter-spacing:0px;word-spacing:0px;text-transform:none;writing-mode:lr-tb;direction:ltr;text-orientation:mixed;dominant-baseline:auto;baseline-shift:baseline;text-anchor:start;white-space:normal;shape-padding:0;vector-effect:none;fill:#000000;fill-opacity:1;stroke:#966431;stroke-width:3.78753948;stroke-linecap:butt;stroke-linejoin:miter;stroke-miterlimit:4;stroke-dasharray:none;stroke-dashoffset:0;stroke-opacity:1;filter:url(#filter4289)"
         x="-279.06573"
         y="1481.1207"
         id="tspan4144-5">50 000 Ko</tspan></text>
    <text
       xml:space="preserve"
       style="font-style:normal;font-variant:normal;font-weight:normal;font-stretch:normal;line-height:80.00000119%;font-family:Lavi;-inkscape-font-specification:Lavi;text-align:center;letter-spacing:0px;word-spacing:0px;text-anchor:middle;opacity:0.5;fill:#ffffff;fill-opacity:1;stroke:#ffffff;stroke-width:2.07299328;stroke-miterlimit:4;stroke-dasharray:none;stroke-opacity:1;filter:url(#filter4375-4-1-1-1-9-3)"
       x="1000.265"
       y="1716.373"
       id="text4246-3-3-6-2"
       transform="matrix(0.72899519,0,0,0.71822761,-201.60085,417.74499)"><tspan
         sodipodi:role="line"
         style="font-style:normal;font-variant:normal;font-weight:normal;font-stretch:normal;font-size:95.64933777px;line-height:80.00000119%;font-family:'Alex Brush';-inkscape-font-specification:'Alex Brush';text-align:center;text-anchor:middle;fill:#ffffff;stroke:#ffffff;stroke-width:2.07299328;stroke-miterlimit:4;stroke-dasharray:none;stroke-opacity:1"
         x="1000.265"
         y="1716.373"
         id="tspan4341">Saffron's </tspan><tspan
         sodipodi:role="line"
         style="font-style:normal;font-variant:normal;font-weight:normal;font-stretch:normal;font-size:95.64933777px;line-height:80.00000119%;font-family:'Alex Brush';-inkscape-font-specification:'Alex Brush';text-align:center;text-anchor:middle;fill:#ffffff;stroke:#ffffff;stroke-width:2.07299328;stroke-miterlimit:4;stroke-dasharray:none;stroke-opacity:1"
         x="1000.265"
         y="1792.8926"
         id="tspan402">Success</tspan></text>
    <text
       xml:space="preserve"
       style="font-style:normal;font-variant:normal;font-weight:normal;font-stretch:normal;line-height:0%;font-family:Lavi;-inkscape-font-specification:Lavi;text-align:center;letter-spacing:0px;word-spacing:0px;text-anchor:middle;opacity:0.7;fill:#784421;fill-opacity:1;stroke:#502d16;stroke-width:3.4000001;stroke-miterlimit:4;stroke-dasharray:none;stroke-opacity:1;filter:url(#filter4367-7)"
       x="1106.7037"
       y="1024.8058"
       id="text4246-3-3"><tspan
         sodipodi:role="line"
         style="font-style:normal;font-variant:normal;font-weight:normal;font-stretch:normal;font-size:95.64933777px;line-height:1.25;font-family:'Alex Brush';-inkscape-font-specification:'Alex Brush';text-align:start;text-anchor:start;fill:#784421;stroke:#502d16;stroke-width:3.4000001;stroke-miterlimit:4;stroke-dasharray:none;stroke-opacity:1"
         x="1106.7037"
         y="1024.8058"
         id="tspan4144-7-6">Fashion</tspan></text>
    <text
       xml:space="preserve"
       style="font-style:normal;font-variant:normal;font-weight:normal;font-stretch:normal;line-height:80.00000119%;font-family:Lavi;-inkscape-font-specification:Lavi;text-align:center;letter-spacing:0px;word-spacing:0px;text-anchor:middle;opacity:0.5;fill:#ffffff;fill-opacity:1;stroke:#ffffff;stroke-width:2.07299328;stroke-miterlimit:4;stroke-dasharray:none;stroke-opacity:1;filter:url(#filter4375-4-1-1-1-9-3)"
       x="1000.265"
       y="1716.373"
       id="text4246-3-3-6-20"
       transform="matrix(0.72899519,0,0,0.71822761,500.1234,417.16559)"><tspan
         sodipodi:role="line"
         style="font-style:normal;font-variant:normal;font-weight:normal;font-stretch:normal;font-size:95.64933777px;line-height:80.00000119%;font-family:'Alex Brush';-inkscape-font-specification:'Alex Brush';text-align:center;text-anchor:middle;fill:#ffffff;stroke:#ffffff;stroke-width:2.07299328;stroke-miterlimit:4;stroke-dasharray:none;stroke-opacity:1"
         x="1000.265"
         y="1716.373"
         id="tspan4430">The Saffron</tspan><tspan
         sodipodi:role="line"
         style="font-style:normal;font-variant:normal;font-weight:normal;font-stretch:normal;font-size:95.64933777px;line-height:80.00000119%;font-family:'Alex Brush';-inkscape-font-specification:'Alex Brush';text-align:center;text-anchor:middle;fill:#ffffff;stroke:#ffffff;stroke-width:2.07299328;stroke-miterlimit:4;stroke-dasharray:none;stroke-opacity:1"
         x="1000.265"
         y="1792.8926"
         id="tspan406">Phenomenon</tspan></text>
    <text
       xml:space="preserve"
       style="font-style:normal;font-variant:normal;font-weight:normal;font-stretch:normal;line-height:0%;font-family:Lavi;-inkscape-font-specification:Lavi;text-align:center;letter-spacing:0px;word-spacing:0px;text-anchor:middle;opacity:0.7;fill:#784421;fill-opacity:1;stroke:#502d16;stroke-width:3.4000001;stroke-miterlimit:4;stroke-dasharray:none;stroke-opacity:1;filter:url(#filter4367-7-1)"
       x="1858.3196"
       y="1029.2672"
       id="text4246-3-3-5"><tspan
         sodipodi:role="line"
         style="font-style:normal;font-variant:normal;font-weight:normal;font-stretch:normal;font-size:95.64933777px;line-height:1.25;font-family:'Alex Brush';-inkscape-font-specification:'Alex Brush';text-align:start;text-anchor:start;fill:#784421;stroke:#502d16;stroke-width:3.4000001;stroke-miterlimit:4;stroke-dasharray:none;stroke-opacity:1"
         x="1858.3196"
         y="1029.2672"
         id="tspan4144-7-6-3">Chic</tspan></text>
    <text
       xml:space="preserve"
       style="font-style:normal;font-variant:normal;font-weight:normal;font-stretch:normal;line-height:80.00000119%;font-family:Lavi;-inkscape-font-specification:Lavi;text-align:center;letter-spacing:0px;word-spacing:0px;text-anchor:middle;opacity:0.5;fill:#ffffff;fill-opacity:1;stroke:#ffffff;stroke-width:2.07299328;stroke-miterlimit:4;stroke-dasharray:none;stroke-opacity:1;filter:url(#filter4375-4-1-1-1-9-3)"
       x="1000.265"
       y="1716.373"
       id="text4246-3-3-6"
       transform="matrix(0.72899519,0,0,0.71822761,1185.6626,417.16559)"><tspan
         sodipodi:role="line"
         style="font-style:normal;font-variant:normal;font-weight:normal;font-stretch:normal;font-size:95.64933777px;line-height:80.00000119%;font-family:'Alex Brush';-inkscape-font-specification:'Alex Brush';text-align:center;text-anchor:middle;fill:#ffffff;stroke:#ffffff;stroke-width:2.07299328;stroke-miterlimit:4;stroke-dasharray:none;stroke-opacity:1"
         x="1000.265"
         y="1716.373"
         id="tspan4395">Saffron</tspan><tspan
         sodipodi:role="line"
         style="font-style:normal;font-variant:normal;font-weight:normal;font-stretch:normal;font-size:95.64933777px;line-height:80.00000119%;font-family:'Alex Brush';-inkscape-font-specification:'Alex Brush';text-align:center;text-anchor:middle;fill:#ffffff;stroke:#ffffff;stroke-width:2.07299328;stroke-miterlimit:4;stroke-dasharray:none;stroke-opacity:1"
         x="1000.265"
         y="1792.8926"
         id="tspan412">Special</tspan></text>
    <text
       xml:space="preserve"
       style="font-style:normal;font-variant:normal;font-weight:normal;font-stretch:normal;line-height:0%;font-family:Lavi;-inkscape-font-specification:Lavi;letter-spacing:0px;word-spacing:0px;fill:#000000;fill-opacity:1;stroke:#ffffff;stroke-width:2.1487186;stroke-miterlimit:4;stroke-dasharray:none;stroke-opacity:1;filter:url(#filter4375-4-1-1-1-9)"
       x="787.65729"
       y="1584.5073"
       id="text4580"
       transform="matrix(0.55131378,-1.1747688,0.21584014,1.4415375,276.92641,1516.4447)"><tspan
         sodipodi:role="line"
         id="tspan4582"
         x="787.65729"
         y="1584.5073"
         style="font-size:70px;line-height:100%;letter-spacing:4.88345098px;fill:#ffffff;stroke:#ffffff;stroke-width:2.1487186;stroke-miterlimit:4;stroke-dasharray:none;stroke-opacity:1"><tspan
           style="font-size:67.55827332px;line-height:100%;letter-spacing:4.88345098px;stroke:#ffffff;stroke-width:2.1487186;stroke-miterlimit:4;stroke-dasharray:none;stroke-opacity:1"
           id="tspan4439"><tspan
   style="font-size:79.76689911px"
   id="tspan4441">P</tspan>A<tspan
   style="font-size:55.34964371px"
   id="tspan4443">F</tspan></tspan><tspan
           style="font-size:80.40014648px;line-height:100%;letter-spacing:4.88345098px;stroke:#ffffff;stroke-width:2.1487186;stroke-miterlimit:4;stroke-dasharray:none;stroke-opacity:1"
           id="tspan4617">!</tspan></tspan></text>
  </g>
</svg>
