<?xml version="1.0" encoding="UTF-8" standalone="no"?>
<!-- Created with Inkscape (http://www.inkscape.org/) -->

<svg
   xmlns:dc="http://purl.org/dc/elements/1.1/"
   xmlns:cc="http://creativecommons.org/ns#"
   xmlns:rdf="http://www.w3.org/1999/02/22-rdf-syntax-ns#"
   xmlns:svg="http://www.w3.org/2000/svg"
   xmlns="http://www.w3.org/2000/svg"
   xmlns:xlink="http://www.w3.org/1999/xlink"
   xmlns:sodipodi="http://sodipodi.sourceforge.net/DTD/sodipodi-0.dtd"
   xmlns:inkscape="http://www.inkscape.org/namespaces/inkscape"
   id="svg2"
   version="1.1"
   inkscape:version="0.92.1 r15371"
   width="2481"
   height="3503"
   sodipodi:docname="Pepper-and-Carrot_by-David-Revoy_E23P04.svg">
  <metadata
     id="metadata8">
    <rdf:RDF>
      <cc:Work
         rdf:about="">
        <dc:format>image/svg+xml</dc:format>
        <dc:type
           rdf:resource="http://purl.org/dc/dcmitype/StillImage" />
        <dc:title></dc:title>
      </cc:Work>
    </rdf:RDF>
  </metadata>
  <defs
     id="defs6" />
  <sodipodi:namedview
     pagecolor="#ffffff"
     bordercolor="#666666"
     borderopacity="1"
     objecttolerance="10"
     gridtolerance="10"
     guidetolerance="10"
     inkscape:pageopacity="0"
     inkscape:pageshadow="2"
     inkscape:window-width="1600"
     inkscape:window-height="836"
     id="namedview4"
     showgrid="false"
     inkscape:zoom="0.43016843"
     inkscape:cx="1185.892"
     inkscape:cy="929.45772"
     inkscape:window-x="0"
     inkscape:window-y="27"
     inkscape:window-maximized="1"
     inkscape:current-layer="layer1" />
  <g
     inkscape:groupmode="layer"
     id="layer2"
     inkscape:label="artwork"
     sodipodi:insensitive="true">
    <image
       sodipodi:absref="/home/alex/Documents/code/PepperCarrot/peppercarrot_ep23_translation/en/../gfx_Pepper-and-Carrot_by-David-Revoy_E23P04.png"
       xlink:href="../gfx_Pepper-and-Carrot_by-David-Revoy_E23P04.png"
       y="0"
       x="0"
       id="image10"
       height="3503"
       width="2481" />
  </g>
  <g
     inkscape:groupmode="layer"
     id="layer3"
     inkscape:label="speechbubbles">
    <path
       style="fill:#ffffff;fill-rule:evenodd;stroke:none;stroke-width:1px;stroke-linecap:butt;stroke-linejoin:miter;stroke-opacity:1"
       d="m 1624.2984,261.8849 c 11.6219,-30.4125 43.9041,-56.67785 54.2347,-63.58978 10.3303,-6.91193 172.1458,-18.90597 196.6807,-18.90597 24.5345,0 169.7564,11.80612 187.0084,28.58267 17.9054,17.41203 41.3648,63.58978 38.7822,84.32558 -2.5827,20.7358 -29.9161,89.85513 -57.0332,100.91422 -27.1174,11.05911 -169.1605,19.35341 -196.2779,19.35341 -27.1171,0 -144.6256,-5.52954 -173.0342,-23.50057 -28.4086,-17.97102 -50.0824,-59.49549 -50.0824,-67.78982 0,-8.2943 -0.2783,-59.38974 -0.2783,-59.38974 z"
       id="path4246"
       inkscape:connector-curvature="0"
       sodipodi:nodetypes="cssssssssc" />
    <path
       style="fill:#ffffff;fill-rule:evenodd;stroke:none;stroke-width:1px;stroke-linecap:butt;stroke-linejoin:miter;stroke-opacity:1"
       d="m 1859.8611,183.53722 c 3.8122,-24.29312 8.2944,-49.93369 -6.7376,-69.58867 12.7474,9.99691 30.4412,33.00886 28.3517,60.17215 -3.2611,42.39294 -20.8306,11.79987 -20.8306,11.79987 z"
       id="path4248"
       inkscape:connector-curvature="0"
       sodipodi:nodetypes="ccscc" />
    <path
       style="fill:#ffffff;stroke:none"
       d="m 715.39201,1248.2057 c -2.34127,-33.9259 39.63745,-118.8559 244.40776,-112.4677 204.77023,6.3882 268.86023,43.7054 274.86083,104.0086 9.4928,95.398 -98.2367,120.8916 -252.92643,127.9576 -159.46838,7.2845 -268.81709,-58.1999 -266.34216,-119.4985 z"
       id="path3280-8"
       inkscape:connector-curvature="0"
       sodipodi:nodetypes="csssc" />
    <path
       style="fill:#ffffff;fill-rule:evenodd;stroke:none;stroke-width:1px;stroke-linecap:butt;stroke-linejoin:miter;stroke-opacity:1"
       d="m 1146.4196,1634.7802 c 69.7815,-61.4635 62.8192,-106.4528 58.6322,-135.0404 -4.1868,-28.5877 -29.9863,-50.7875 -55.1076,-50.7875 -25.1214,0 -64.8772,32.9324 -92.7898,2.9153 -27.9126,-30.017 -17.4966,-77.849 7.6248,-109.2954 25.1213,-31.4464 -34.5409,-32.658 -45.706,14.5117 -11.1651,47.1696 -7.9982,96.1808 22.7056,117.6215 30.7039,21.4408 59.5716,15.6384 71.193,9.9814 13.2388,-6.4443 46.7261,-25.753 64.1517,-5.7094 19.1106,21.9817 37.682,85.763 -30.7039,155.8028 z"
       id="path4256"
       inkscape:connector-curvature="0"
       sodipodi:nodetypes="cssssssssc" />
    <path
       style="color:#000000;display:inline;overflow:visible;visibility:visible;fill:#ffffff;fill-opacity:1;fill-rule:nonzero;stroke:none;stroke-width:1px;marker:none;enable-background:accumulate"
       d="m 1860.7116,1986.4373 c -4.5243,-42.7914 26.7685,-82.8297 66.3588,-91.8378 67.2402,-28.4031 143.6874,-19.9069 212.314,-3.0571 32.9413,9.462 67.1824,37.0094 84.9009,66.3466 20.6697,35.3673 -10.3814,70.7447 -45.2625,77.0323 -67.0165,19.2443 -138.2168,18.217 -207.1836,13.0416 -31.6914,-5.5265 -68.4006,-2.6993 -94.549,-24.2317 -10.6284,-9.1666 -18.1475,-22.9374 -16.5786,-37.2939 z"
       id="path3357"
       inkscape:connector-curvature="0"
       sodipodi:nodetypes="cccccccc" />
    <path
       style="fill:#ffffff;fill-rule:evenodd;stroke:none;stroke-width:1px;stroke-linecap:butt;stroke-linejoin:miter;stroke-opacity:1"
       d="m 1815.7758,2061.2815 c 64.8492,31.0148 134.3976,22.5562 155.0741,-25.3758 23.8742,-55.3449 26.3156,-31.9546 26.3156,-31.9546 0,0 20.7007,14.1323 -2.8196,43.2328 -18.7952,23.2544 -75.4849,87.5238 -178.5701,14.0976 z"
       id="path4281"
       inkscape:connector-curvature="0"
       sodipodi:nodetypes="cscsc" />
    <path
       style="color:#000000;display:inline;overflow:visible;visibility:visible;fill:#ffffff;fill-opacity:1;fill-rule:nonzero;stroke:none;stroke-width:1px;marker:none;enable-background:accumulate"
       d="m 140.73919,2104.6301 c 17.4749,-38.9356 59.65078,-62.0143 101.62493,-69.3099 46.89281,-8.7072 95.31874,-4.5768 141.97822,3.4442 30.74955,6.3727 61.54816,17.1327 85.9471,36.6618 9.21028,11.7795 19.6301,25.8707 22.49857,40.0075 14.14179,33.5054 1.99281,66.1649 -27.80791,110.1942 -32.93384,25.997 -77.43541,26.089 -117.82528,28.7458 -45.75382,5.3421 -93.35325,0.5022 -135.73186,-17.4252 -26.34171,-11.9911 -52.80502,-29.1457 -65.32604,-55.3388 -9.14205,-24.772 -15.92437,-53.2974 -5.35773,-76.9796 z"
       id="path3365"
       inkscape:connector-curvature="0"
       sodipodi:nodetypes="cccccccccc" />
    <path
       style="fill:#ffffff;fill-rule:evenodd;stroke:none;stroke-width:1px;stroke-linecap:butt;stroke-linejoin:miter;stroke-opacity:1"
       d="m 463.97121,2140.9085 c 84.34167,16.1667 252.8523,-49.3553 272.73937,-44.3835 19.88707,4.9717 31.42746,46.6967 63.74394,23.0808 -39.77414,32.3165 -47.23179,-7.4577 -63.39003,-8.7006 -16.15824,-1.243 -197.62775,64.633 -269.71837,62.1471 -72.09063,-2.4859 -3.37491,-32.1438 -3.37491,-32.1438 z"
       id="path4314"
       inkscape:connector-curvature="0"
       sodipodi:nodetypes="cscssc" />
    <path
       style="fill:#ffffff;fill-rule:evenodd;stroke:none;stroke-width:1px;stroke-linecap:butt;stroke-linejoin:miter;stroke-opacity:1"
       d="m 1660.5299,2998.9956 c -36.0453,-51.2804 -41.0171,-112.0072 -26.1018,-137.6474 14.9153,-25.6402 82.0342,-75.5711 0,-143.0453 79.5483,56.6783 49.7177,94.4639 19.8871,147.0937 -29.8306,52.6299 54.6894,144.3948 54.6894,144.3948 z"
       id="path4316"
       inkscape:connector-curvature="0" />
    <path
       style="fill:#ffffff;stroke:none"
       d="m 1482.4222,3067.061 c -1.9683,-26.8142 -29.1406,-93.9409 190.6807,-87.248 172.1458,5.2413 227.3639,9.0236 232.4834,91.2825 4.7474,76.2796 -145.9437,78.2704 -228.1082,79.578 -117.4915,1.8699 -197.1366,-35.1635 -195.0559,-83.6125 z"
       id="path3280-8-9"
       inkscape:connector-curvature="0"
       sodipodi:nodetypes="csssc" />
  </g>
  <g
     inkscape:groupmode="layer"
     id="layer1"
     inkscape:label="txt">
    <text
       xml:space="preserve"
       style="font-style:normal;font-variant:normal;font-weight:normal;font-stretch:normal;line-height:0%;font-family:Lavi;-inkscape-font-specification:Lavi;text-align:center;letter-spacing:0px;word-spacing:0px;text-anchor:middle;fill:#000000;fill-opacity:1;stroke:none"
       x="1856.9244"
       y="238.83353"
       id="text4246"><tspan
         sodipodi:role="line"
         style="font-style:italic;font-variant:normal;font-weight:normal;font-stretch:normal;font-size:35.77793884px;line-height:1.25;font-family:Lavi;-inkscape-font-specification:'Lavi Italic'"
         x="1856.9244"
         y="238.83353"
         id="tspan4179">*Excluding weekends and</tspan><tspan
         sodipodi:role="line"
         style="font-style:italic;font-variant:normal;font-weight:normal;font-stretch:normal;font-size:35.77793884px;line-height:1.25;font-family:Lavi;-inkscape-font-specification:'Lavi Italic'"
         x="1856.9244"
         y="283.55594"
         id="tspan470">public holidays. Offer may</tspan><tspan
         sodipodi:role="line"
         style="font-style:italic;font-variant:normal;font-weight:normal;font-stretch:normal;font-size:35.77793884px;line-height:1.25;font-family:Lavi;-inkscape-font-specification:'Lavi Italic'"
         x="1856.9244"
         y="328.27838"
         id="tspan472">not be combined. Limited to</tspan><tspan
         sodipodi:role="line"
         style="font-style:italic;font-variant:normal;font-weight:normal;font-stretch:normal;font-size:35.77793884px;line-height:1.25;font-family:Lavi;-inkscape-font-specification:'Lavi Italic'"
         x="1856.9244"
         y="373.00079"
         id="tspan474">available stock.</tspan></text>
    <text
       xml:space="preserve"
       style="font-style:normal;font-variant:normal;font-weight:normal;font-stretch:normal;line-height:0%;font-family:Lavi;-inkscape-font-specification:Lavi;text-align:center;letter-spacing:0px;word-spacing:0px;text-anchor:middle;fill:#000000;fill-opacity:1;stroke:none"
       x="976.5672"
       y="1212.2102"
       id="text4246-3"><tspan
         sodipodi:role="line"
         style="font-size:45px;line-height:1.25"
         x="976.5672"
         y="1212.2102"
         id="tspan4167">Instant worldwide</tspan><tspan
         sodipodi:role="line"
         style="font-size:45px;line-height:1.25"
         x="976.5672"
         y="1268.4602"
         id="tspan44">marketing</tspan><tspan
         sodipodi:role="line"
         style="font-size:45px;line-height:1.25"
         x="976.5672"
         y="1324.7102"
         id="tspan46">campaign!</tspan></text>
    <text
       xml:space="preserve"
       style="font-style:normal;font-variant:normal;font-weight:normal;font-stretch:normal;line-height:0%;font-family:Lavi;-inkscape-font-specification:Lavi;text-align:center;letter-spacing:0px;word-spacing:0px;text-anchor:middle;fill:#000000;fill-opacity:1;stroke:none"
       x="2037.5197"
       y="1956.0619"
       id="text4246-3-7"><tspan
         sodipodi:role="line"
         style="font-size:45px;line-height:1.25"
         x="2037.5197"
         y="1956.0619"
         id="tspan4191">International</tspan><tspan
         sodipodi:role="line"
         style="font-size:45px;line-height:1.25"
         x="2037.5197"
         y="2012.3119"
         id="tspan63">renown!</tspan></text>
    <text
       xml:space="preserve"
       style="font-style:normal;font-variant:normal;font-weight:normal;font-stretch:normal;line-height:0%;font-family:Lavi;-inkscape-font-specification:Lavi;text-align:center;letter-spacing:0px;word-spacing:0px;text-anchor:middle;fill:#000000;fill-opacity:1;stroke:none"
       x="317.84491"
       y="2108.1274"
       id="text4246-3-7-6"><tspan
         sodipodi:role="line"
         style="font-size:45px;line-height:1.25"
         x="317.84491"
         y="2108.1274"
         id="tspan4218">Stylists and</tspan><tspan
         sodipodi:role="line"
         style="font-size:45px;line-height:1.25"
         x="317.84491"
         y="2164.3774"
         id="tspan53">hairdressers</tspan><tspan
         sodipodi:role="line"
         style="font-size:45px;line-height:1.25"
         x="317.84491"
         y="2220.6274"
         id="tspan55">included!</tspan></text>
    <text
       xml:space="preserve"
       style="font-style:normal;font-variant:normal;font-weight:normal;font-stretch:normal;line-height:0%;font-family:Lavi;-inkscape-font-specification:Lavi;text-align:center;letter-spacing:0px;word-spacing:0px;text-anchor:middle;fill:#000000;fill-opacity:1;stroke:none"
       x="1692.2446"
       y="3051.1169"
       id="text4246-3-7-6-1"><tspan
         sodipodi:role="line"
         style="font-size:45px;line-height:1.25"
         x="1692.2446"
         y="3051.1169"
         id="tspan4183">Immediate results</tspan><tspan
         sodipodi:role="line"
         style="font-size:45px;line-height:1.25"
         x="1700.1548"
         y="3107.3669"
         id="tspan59">guaranteed! </tspan></text>
  </g>
</svg>
