<?xml version="1.0" encoding="UTF-8" standalone="no"?>
<!-- Created with Inkscape (http://www.inkscape.org/) -->

<svg
   xmlns:dc="http://purl.org/dc/elements/1.1/"
   xmlns:cc="http://creativecommons.org/ns#"
   xmlns:rdf="http://www.w3.org/1999/02/22-rdf-syntax-ns#"
   xmlns:svg="http://www.w3.org/2000/svg"
   xmlns="http://www.w3.org/2000/svg"
   xmlns:xlink="http://www.w3.org/1999/xlink"
   xmlns:sodipodi="http://sodipodi.sourceforge.net/DTD/sodipodi-0.dtd"
   xmlns:inkscape="http://www.inkscape.org/namespaces/inkscape"
   id="svg2"
   version="1.1"
   inkscape:version="0.91 r13725"
   width="2481"
   height="3503"
   sodipodi:docname="Pepper-and-Carrot_by-David-Revoy_E23P05.svg">
  <metadata
     id="metadata8">
    <rdf:RDF>
      <cc:Work
         rdf:about="">
        <dc:format>image/svg+xml</dc:format>
        <dc:type
           rdf:resource="http://purl.org/dc/dcmitype/StillImage" />
        <dc:title />
      </cc:Work>
    </rdf:RDF>
  </metadata>
  <defs
     id="defs6" />
  <sodipodi:namedview
     pagecolor="#ffffff"
     bordercolor="#666666"
     borderopacity="1"
     objecttolerance="10"
     gridtolerance="10"
     guidetolerance="10"
     inkscape:pageopacity="0"
     inkscape:pageshadow="2"
     inkscape:window-width="1360"
     inkscape:window-height="706"
     id="namedview4"
     showgrid="false"
     inkscape:zoom="0.2630065"
     inkscape:cx="1092.4152"
     inkscape:cy="753.75252"
     inkscape:window-x="-8"
     inkscape:window-y="-8"
     inkscape:window-maximized="1"
     inkscape:current-layer="layer3"
     inkscape:document-rotation="0"
     inkscape:snap-global="false" />
  <g
     inkscape:groupmode="layer"
     id="layer2"
     inkscape:label="artwork"
     sodipodi:insensitive="true">
    <image
       sodipodi:absref="C:\Users\Katka\Desktop\Feferonka a Karotka\23\peppercarrot_ep23_translation-master\cs\..\gfx_Pepper-and-Carrot_by-David-Revoy_E23P05.png"
       xlink:href="../gfx_Pepper-and-Carrot_by-David-Revoy_E23P05.png"
       width="2481"
       height="3503"
       id="image10"
       x="0"
       y="0" />
  </g>
  <g
     inkscape:groupmode="layer"
     id="layer3"
     inkscape:label="speechbubbles"
     style="display:inline">
    <path
       style="color:#000000;display:inline;overflow:visible;visibility:visible;fill:#ffffff;fill-opacity:1;fill-rule:nonzero;stroke:none;stroke-width:1px;marker:none;enable-background:accumulate"
       d="M 212.88572,475.06172 C 110.96021,463.01758 79.892206,415.17837 80.060207,330.53848 80.216894,251.59867 72.635432,102.65299 99.803229,89.977376 126.8113,77.376289 201.83212,72.785399 300.11868,73.42594 c 89.42449,0.582787 255.48445,-32.137655 311.10623,119.4421 27.13586,73.95034 19.37863,203.57789 -96.59821,260.61667 -112.58939,55.37279 -301.74098,21.57701 -301.74098,21.57701 z"
       id="path3970"
       inkscape:connector-curvature="0"
       sodipodi:nodetypes="csssssc" />
    <path
       style="fill:#ffffff;fill-rule:evenodd;stroke:none;stroke-width:1px;stroke-linecap:butt;stroke-linejoin:miter;stroke-opacity:1"
       d="M 599.21792,525.82095 C 484.89991,589.88304 333.06159,463.02228 324.3431,413.59379 c -8.7185,-49.42848 29.27876,-67.41517 29.27876,-67.41517 l 26.59028,22.09505 c 0,0 -15.9022,-8.60358 -7.84832,36.35392 8.05389,44.9575 112.77168,159.17272 226.8541,121.19336 z"
       id="path4367"
       inkscape:connector-curvature="0"
       sodipodi:nodetypes="csccsc" />
    <path
       style="fill:#ffffff;stroke:none;stroke-width:1"
       d="m 1195.5604,1195.4759 c -1.5365,-62.4528 57.38,-81.4639 98.7741,-89.4369 41.3945,-7.973 178.5156,1.3969 169.2675,77.601 -9.248,76.2042 -103.5952,84.1192 -155.0624,79.7316 -51.4673,-4.3877 -105.3518,-8.5988 -112.9792,-67.8957 z"
       id="path3938"
       inkscape:connector-curvature="0"
       sodipodi:nodetypes="csssc" />
    <path
       style="fill:#ffffff;fill-rule:evenodd;stroke:none;stroke-width:1px;stroke-linecap:butt;stroke-linejoin:miter;stroke-opacity:1"
       d="m 1319.9169,1430.5563 c -79.6639,-37.1698 -55.9039,-129.7638 14.1457,-180.8499 70.0496,-51.086 29.4921,-47.0022 29.4921,-47.0022 0,0 -17.1327,-11.2383 -67.0329,47.9216 -49.9003,59.16 -82.7104,161.2474 23.3951,179.9305 z"
       id="path4375"
       inkscape:connector-curvature="0"
       sodipodi:nodetypes="cscsc" />
    <path
       style="fill:#ffffff;fill-opacity:1;stroke:none;stroke-width:1.09609663"
       d="m 1675.8741,1211.2496 c 6.3279,-83.3317 52.9454,-127.4459 69.1453,-133.0575 45.2664,-15.6802 524.1694,-31.1861 570.0913,27.4936 28.086,35.8887 83.9071,191.7854 -27.3081,291.4857 -60.7371,54.4484 -470.6419,33.8868 -520.6064,-3.4387 -52.1115,-38.9293 -101.6184,-87.1097 -91.3221,-182.4831 z"
       id="path3659"
       inkscape:connector-curvature="0"
       sodipodi:nodetypes="cssssc" />
    <path
       style="fill:#ffffff;fill-rule:evenodd;stroke:none;stroke-width:1px;stroke-linecap:butt;stroke-linejoin:miter;stroke-opacity:1"
       d="m 1756.031,1518.1378 c 24.2675,-5.1738 2.3375,-12.1848 -4.0584,-24.266 -6.3959,-12.0811 -8.0227,-26.9013 9.033,-30.4546 17.0557,-3.5532 50.4566,10.6599 50.4566,10.6599 0,0 -21.3197,-32.6902 -9.2386,-41.9287 12.0812,-9.2385 54.7206,6.3959 54.7206,6.3959 0,0 -16.3452,-45.482 19.8983,-63.2484 36.2435,-17.7664 81.7255,6.3959 55.4312,15.6344 -26.2943,9.2386 -84.5681,7.1066 -44.7713,77.4615 -62.5378,-29.8475 -60.4058,-23.4516 -64.6697,-19.1877 -4.264,4.264 9.2385,41.9287 14.2131,53.2992 -17.0558,-10.6598 -66.8017,-36.9541 -74.6189,-22.741 -7.8172,14.2132 12.0812,25.5837 11.3705,32.6902 -0.7107,7.1066 -17.7664,5.6853 -17.7664,5.6853 z"
       id="path4394"
       inkscape:connector-curvature="0"
       sodipodi:nodetypes="csscscsscscssc" />
    <path
       style="fill:#ffffff;fill-rule:evenodd;stroke:none;stroke-width:1px;stroke-linecap:butt;stroke-linejoin:miter;stroke-opacity:1"
       d="m 1844.0558,1649.0812 c 24.7762,-32.8604 244.7799,-55.6259 362.7427,-22.239 48.4124,19.2128 110.6766,77.8563 64.6992,125.2802 -61.5439,29.0304 -136.1553,17.8709 -202.9095,31.1587 -77.084,5.7443 -146.3253,9.6804 -220.2369,-15.6583 -52.1764,-29.0231 -33.6957,-85.7728 -4.2955,-118.5416 z"
       id="path4405"
       inkscape:connector-curvature="0"
       sodipodi:nodetypes="cccccc" />
    <path
       style="fill:#ffffff;fill-rule:evenodd;stroke:none;stroke-width:1px;stroke-linecap:butt;stroke-linejoin:miter;stroke-opacity:1"
       d="m 1750.9267,1594.1797 c 19.7367,-19.7367 46.0523,-32.8945 56.3906,-21.6163 10.3382,11.2781 2.8195,39.4733 2.8195,39.4733 0,0 42.2929,-21.6163 90.2249,34.7742 47.932,56.3906 17.857,52.6312 17.857,52.6312 0,0 -10.3383,-3.7594 -34.7742,-32.8945 -24.4359,-29.1351 -45.1124,-46.9921 -72.3679,-35.714 -9.3984,3.7594 -19.7367,-1.8797 -16.9171,-9.3984 12.2179,-30.075 15.9773,-64.8492 -43.2328,-27.2555 z"
       id="path4419"
       inkscape:connector-curvature="0" />
    <path
       style="fill:#ffffff;fill-rule:evenodd;stroke:none;stroke-width:1px;stroke-linecap:butt;stroke-linejoin:miter;stroke-opacity:1"
       d="m 2234.2214,1745.6006 c 60.7667,10.8082 80.3355,43.0076 101.9644,81.0615 15.3363,26.983 21.6,74.8123 -6.1128,116.6581 -25.0648,37.8479 -80.4391,35.9285 -118.7084,42.5356 -57.7099,9.9635 -142.7589,3.9263 -188.2812,-2.475 -42.6306,-5.9947 -86.515,-11.889 -102.9941,-44.3136 -16.479,-32.4245 -11.3294,-92.9504 -5.1497,-110.2435 6.1796,-17.2931 26.7785,-68.0916 43.2576,-72.4149 16.4791,-4.3233 267.7848,-10.8082 267.7848,-10.8082 z"
       id="path4423"
       inkscape:connector-curvature="0"
       sodipodi:nodetypes="cssssssscc" />
    <path
       style="color:#000000;display:inline;overflow:visible;visibility:visible;fill:#ffffff;fill-opacity:1;fill-rule:nonzero;stroke:none;stroke-width:1px;marker:none;enable-background:accumulate"
       d="m 288.9194,2251.5789 c -6.33717,-33.0758 10.56191,-120.9334 140.4743,-113.698 129.91227,7.2352 151.03632,48.58 154.20485,60.9834 3.16865,12.4034 30.62976,82.6895 -70.76519,101.2947 -101.39507,18.6052 -192.228,-1.0337 -223.91396,-48.5801 z"
       id="path3525"
       inkscape:connector-curvature="0" />
    <path
       style="color:#000000;display:inline;overflow:visible;visibility:visible;fill:#ffffff;fill-opacity:1;fill-rule:nonzero;stroke:none;stroke-width:0.92610359px;marker:none;enable-background:accumulate"
       d="m 156.97977,2484.7041 c -3.94298,-81.284 -40.28755,-202.6869 193.92278,-206.0597 192.09405,-2.7663 419.34275,-29.032 418.84096,181.0549 -0.34527,144.5588 -176.45774,144.073 -269.5729,146.8267 -198.84015,5.8802 -340.12532,-39.2089 -343.19084,-121.8219 z"
       id="path3525-0"
       inkscape:connector-curvature="0"
       sodipodi:nodetypes="csssc" />
    <path
       style="fill:#ffffff;fill-rule:evenodd;stroke:none;stroke-width:1px;stroke-linecap:butt;stroke-linejoin:miter;stroke-opacity:1"
       d="m 742.60914,2350.2751 c 102.97849,-126.0799 251.45982,-276.6361 847.08866,1.322 C 1049.11,2056.78 875.57765,2160.7347 719.24197,2320.9166 c -175.12871,179.4373 23.36717,29.3585 23.36717,29.3585 z"
       id="path4446"
       inkscape:connector-curvature="0"
       sodipodi:nodetypes="ccsc" />
  </g>
  <g
     inkscape:groupmode="layer"
     id="layer1"
     inkscape:label="txt">
    <text
       xml:space="preserve"
       style="font-style:normal;font-variant:normal;font-weight:normal;font-stretch:normal;line-height:0%;font-family:Lavi;-inkscape-font-specification:Lavi;text-align:center;letter-spacing:0px;word-spacing:0px;text-anchor:middle;fill:#000000;fill-opacity:1;stroke:none"
       x="343.30722"
       y="192.13994"
       id="text4246"
       sodipodi:linespacing="0%"><tspan
         sodipodi:role="line"
         style="font-size:45px;line-height:1.25"
         x="343.30722"
         y="192.13994"
         id="tspan4205">Stačí jeden malý</tspan><tspan
         sodipodi:role="line"
         style="font-size:45px;line-height:1.25"
         x="343.30722"
         y="248.38994"
         id="tspan3391">podpis na konci této</tspan><tspan
         sodipodi:role="line"
         style="font-size:45px;line-height:1.25"
         x="343.30722"
         y="304.63995"
         id="tspan3395">smlouvy a otevřou se</tspan><tspan
         sodipodi:role="line"
         style="font-size:45px;line-height:1.25"
         x="343.30722"
         y="360.88995"
         id="tspan3397">Vám dveře k úspěchu</tspan><tspan
         sodipodi:role="line"
         style="font-size:45px;line-height:1.25"
         x="343.30722"
         y="417.13995"
         id="tspan68">a slávě!</tspan></text>
    <text
       xml:space="preserve"
       style="font-style:normal;font-variant:normal;font-weight:normal;font-stretch:normal;line-height:0%;font-family:Lavi;-inkscape-font-specification:Lavi;text-align:center;letter-spacing:0px;word-spacing:0px;text-anchor:middle;fill:#000000;fill-opacity:1;stroke:none"
       x="1325.9771"
       y="1175.2607"
       id="text4246-3"
       sodipodi:linespacing="0%"><tspan
         sodipodi:role="line"
         style="font-size:45px;line-height:1.25"
         x="1325.9771"
         y="1175.2607"
         id="tspan4196">Počkejte</tspan><tspan
         sodipodi:role="line"
         style="font-size:45px;line-height:1.25"
         x="1325.9771"
         y="1231.5107"
         id="tspan78">chvilku.</tspan></text>
    <text
       xml:space="preserve"
       style="font-style:normal;font-variant:normal;font-weight:normal;font-stretch:normal;line-height:0%;font-family:Lavi;-inkscape-font-specification:Lavi;text-align:center;letter-spacing:0px;word-spacing:0px;text-anchor:middle;fill:#000000;fill-opacity:1;stroke:none"
       x="2049.8047"
       y="1688.8641"
       id="text4246-3-6"
       sodipodi:linespacing="0%"><tspan
         sodipodi:role="line"
         style="font-size:45px;line-height:1.25"
         x="2049.8047"
         y="1688.8641"
         id="tspan4225">Co to má být?</tspan><tspan
         sodipodi:role="line"
         style="font-size:45px;line-height:1.25"
         x="2049.8047"
         y="1749.7684"
         id="tspan4263"><tspan
   style="font-style:italic;font-variant:normal;font-weight:normal;font-stretch:normal;font-family:Lavi;-inkscape-font-specification:'Lavi Italic'"
   id="tspan4265">Deus ex machina</tspan> ?!</tspan></text>
    <text
       xml:space="preserve"
       style="font-style:normal;font-variant:normal;font-weight:normal;font-stretch:normal;line-height:0%;font-family:Lavi;-inkscape-font-specification:Lavi;text-align:center;letter-spacing:0px;word-spacing:0px;text-anchor:middle;fill:#000000;fill-opacity:1;stroke:none"
       x="2023.913"
       y="1144.9019"
       id="text4246-3-6-1"
       sodipodi:linespacing="0%"><tspan
         sodipodi:role="line"
         style="font-size:45px;line-height:1.25"
         x="2023.913"
         y="1144.9019"
         id="tspan4225-9">Chcete mi říct, že zrovna</tspan><tspan
         sodipodi:role="line"
         style="font-size:45px;line-height:1.25"
         x="2023.913"
         y="1201.1519"
         id="tspan3443">teď, když je mi bídně,</tspan><tspan
         sodipodi:role="line"
         style="font-size:45px;line-height:1.25"
         x="2023.913"
         y="1257.4019"
         id="tspan3445">náhodou spadnete z nebe</tspan><tspan
         sodipodi:role="line"
         style="font-size:45px;line-height:1.25"
         x="2023.913"
         y="1313.6519"
         id="tspan3447">a zázračně vyřešíte všechny</tspan><tspan
         sodipodi:role="line"
         style="font-size:45px;line-height:1.25"
         x="2023.913"
         y="1369.9019"
         id="tspan99">moje problémy?</tspan></text>
    <text
       xml:space="preserve"
       style="font-style:normal;font-variant:normal;font-weight:normal;font-stretch:normal;line-height:0%;font-family:Lavi;-inkscape-font-specification:Lavi;text-align:center;letter-spacing:0px;word-spacing:0px;text-anchor:middle;fill:#000000;fill-opacity:1;stroke:none"
       x="2136.7385"
       y="1831.4176"
       id="text4246-3-6-3"
       sodipodi:linespacing="0%"><tspan
         sodipodi:role="line"
         style="font-size:45px;line-height:1.25"
         x="2144.6487"
         y="1831.4176"
         id="tspan4295">Tohle mi </tspan><tspan
         sodipodi:role="line"
         style="font-size:45px;line-height:1.25"
         x="2136.7385"
         y="1887.6676"
         id="tspan3459">připadá podezřelé,</tspan><tspan
         sodipodi:role="line"
         style="font-size:45px;line-height:1.25"
         x="2136.7385"
         y="1943.9176"
         id="tspan106">moc podezřelé!</tspan></text>
    <text
       xml:space="preserve"
       style="font-style:normal;font-variant:normal;font-weight:normal;font-stretch:normal;line-height:0%;font-family:Lavi;-inkscape-font-specification:Lavi;text-align:center;letter-spacing:0px;word-spacing:0px;text-anchor:middle;fill:#000000;fill-opacity:1;stroke:none"
       x="439.63583"
       y="2202.2944"
       id="text4246-3-6-3-2"
       sodipodi:linespacing="0%"><tspan
         sodipodi:role="line"
         style="font-size:45px;line-height:1.25"
         x="439.63583"
         y="2202.2944"
         id="tspan4295-8">Pojďme,</tspan><tspan
         sodipodi:role="line"
         style="font-size:45px;line-height:1.25"
         x="439.63583"
         y="2258.5444"
         id="tspan4326">Karotko.</tspan></text>
    <text
       xml:space="preserve"
       style="font-style:normal;font-variant:normal;font-weight:normal;font-stretch:normal;line-height:0%;font-family:Lavi;-inkscape-font-specification:Lavi;text-align:center;letter-spacing:0px;word-spacing:0px;text-anchor:middle;fill:#000000;fill-opacity:1;stroke:none"
       x="463.76996"
       y="2373.7214"
       id="text4246-3-6-3-2-7"
       sodipodi:linespacing="0%"><tspan
         sodipodi:role="line"
         style="font-size:45px;line-height:1.25"
         x="471.68011"
         y="2373.7214"
         id="tspan156">Tohle by na nás možná </tspan><tspan
         sodipodi:role="line"
         style="font-size:45px;line-height:1.25"
         x="471.68011"
         y="2429.9714"
         id="tspan3413">dřív zabralo, ale teď už </tspan><tspan
         sodipodi:role="line"
         style="font-size:45px;line-height:1.25"
         x="471.68011"
         y="2486.2214"
         id="tspan3417">nejsme tak hloupí, abychom </tspan><tspan
         sodipodi:role="line"
         style="font-size:45px;line-height:1.25"
         x="463.76996"
         y="2542.4714"
         id="tspan866">mu na tohle skočili!</tspan></text>
    <text
       xml:space="preserve"
       style="font-style:normal;font-weight:normal;font-size:40px;line-height:125%;font-family:sans-serif;letter-spacing:0px;word-spacing:0px;fill:#000000;fill-opacity:1;stroke:none;stroke-width:1px;stroke-linecap:butt;stroke-linejoin:miter;stroke-opacity:1"
       x="1167.2715"
       y="1290.127"
       id="text3385"
       sodipodi:linespacing="125%"><tspan
         sodipodi:role="line"
         id="tspan3387"
         x="1167.2715"
         y="1290.127"></tspan></text>
  </g>
</svg>
