<?xml version="1.0" encoding="UTF-8" standalone="no"?>
<!-- Created with Inkscape (http://www.inkscape.org/) -->

<svg
   xmlns:dc="http://purl.org/dc/elements/1.1/"
   xmlns:cc="http://creativecommons.org/ns#"
   xmlns:rdf="http://www.w3.org/1999/02/22-rdf-syntax-ns#"
   xmlns:svg="http://www.w3.org/2000/svg"
   xmlns="http://www.w3.org/2000/svg"
   xmlns:xlink="http://www.w3.org/1999/xlink"
   xmlns:sodipodi="http://sodipodi.sourceforge.net/DTD/sodipodi-0.dtd"
   xmlns:inkscape="http://www.inkscape.org/namespaces/inkscape"
   id="svg2"
   version="1.1"
   inkscape:version="0.91 r13725"
   width="2481"
   height="3503"
   sodipodi:docname="Pepper-and-Carrot_by-David-Revoy_E23P02.svg">
  <metadata
     id="metadata8">
    <rdf:RDF>
      <cc:Work
         rdf:about="">
        <dc:format>image/svg+xml</dc:format>
        <dc:type
           rdf:resource="http://purl.org/dc/dcmitype/StillImage" />
        <dc:title />
      </cc:Work>
    </rdf:RDF>
  </metadata>
  <defs
     id="defs6" />
  <sodipodi:namedview
     pagecolor="#ffffff"
     bordercolor="#666666"
     borderopacity="1"
     objecttolerance="10"
     gridtolerance="10"
     guidetolerance="10"
     inkscape:pageopacity="0"
     inkscape:pageshadow="2"
     inkscape:window-width="1360"
     inkscape:window-height="706"
     id="namedview4"
     showgrid="false"
     inkscape:zoom="0.40000002"
     inkscape:cx="892.9172"
     inkscape:cy="573.71313"
     inkscape:window-x="-8"
     inkscape:window-y="-8"
     inkscape:window-maximized="1"
     inkscape:current-layer="layer1" />
  <g
     inkscape:groupmode="layer"
     id="layer2"
     inkscape:label="artwork"
     sodipodi:insensitive="true">
    <image
       sodipodi:absref="C:\Users\Katka\Desktop\Feferonka a Karotka\23\peppercarrot_ep23_translation-master\cs\..\gfx_Pepper-and-Carrot_by-David-Revoy_E23P02.png"
       xlink:href="../gfx_Pepper-and-Carrot_by-David-Revoy_E23P02.png"
       y="0"
       x="0"
       id="image10"
       height="3503"
       width="2481" />
  </g>
  <g
     inkscape:groupmode="layer"
     id="layer3"
     inkscape:label="speechbubbles"
     style="opacity:1">
    <path
       style="color:#000000;display:inline;overflow:visible;visibility:visible;fill:#ffffff;fill-opacity:1;fill-rule:nonzero;stroke:none;stroke-width:1px;marker:none;enable-background:accumulate"
       d="m 951.5933,1473.6441 c 42.85201,-30.6327 130.4159,-50.3775 203.3705,7.4307 57.7743,45.7796 38.4694,109.6282 7.6017,128.8691 -30.8676,19.2409 -129.0974,21.0952 -174.2806,10.2268 -34.8811,-8.3903 -73.12038,-28.1676 -75.22816,-78.646 -0.86027,-20.6022 -4.31545,-37.2479 38.53656,-67.8806 z"
       id="path4040"
       inkscape:connector-curvature="0"
       sodipodi:nodetypes="zssssz" />
    <path
       style="fill:#ffffff;fill-rule:evenodd;stroke:none;stroke-width:1px;stroke-linecap:butt;stroke-linejoin:miter;stroke-opacity:1"
       d="m 1054.4405,1765.324 c -12.3953,-22.6257 4.8341,-35.5794 4.6846,-49.2442 -0.1543,-14.1069 -33.2797,-25.9555 -34.0153,-39.0315 -0.7356,-13.0761 20.5032,-26.9572 19.032,-47.3885 -1.4712,-20.4314 -25.011,-24.5177 -22.8041,-0.8173 2.2069,23.7004 -15.6571,27.8387 -11.7699,46.5835 6.483,31.2614 30.8848,30.6379 38.523,39.431 5.057,5.8216 -4.6847,18.5941 -2.4778,32.4874 2.2069,13.8933 8.8275,17.9796 8.8275,17.9796 z"
       id="path4272"
       inkscape:connector-curvature="0"
       sodipodi:nodetypes="csssssssc" />
    <path
       style="fill:#ffffff;stroke:none"
       d="m 1615.0303,1557.094 c 5.1541,-70.0258 48.5361,-85.3576 70.0322,-94.9272 21.4961,-9.5699 112.8367,-22.6894 172.9017,-21.434 60.0651,1.2556 207.1775,5.1763 231.5594,12.4119 49.9033,14.8093 99.4847,47.6933 100.6,92.8026 1.1154,45.1091 -13.8094,79.8197 -49.1883,106.6325 -35.3791,26.8131 -163.7925,39.2217 -259.7148,39.8616 -84.4959,0.5637 -185.1394,-19.1724 -196.6279,-26.9268 -11.4884,-7.7545 -68.6298,-53.2961 -69.5623,-108.4206 z"
       id="path3278"
       inkscape:connector-curvature="0"
       sodipodi:nodetypes="ccssssssc" />
    <path
       style="color:#000000;display:inline;overflow:visible;visibility:visible;fill:#ffffff;fill-opacity:1;fill-rule:nonzero;stroke:none;stroke-width:1px;marker:none;enable-background:accumulate"
       d="m 2309.3519,1491.2431 c -3.3015,17.6285 -6.5251,36.0465 -16.5742,51.0265 -2.9438,4.1952 -6.2726,8.3203 -10.3977,11.2503 -4.952,2.0462 -10.5106,-0.1777 -14.1301,-3.9795 -5.5933,-5.1132 -9.4498,-12.8831 -16.8764,-15.4078 -5.4477,-1.7019 -10.2634,2.1026 -14.5741,4.918 -10.8499,7.4017 -20.7857,16.3852 -32.7316,21.9366 -13.0507,7.1639 -27.2917,13.7117 -42.4274,13.0803 -5.9858,-0.3542 -12.2078,-1.5951 -17.0927,-5.4909 -12.9618,-9.4069 -20.9954,-26.6382 -18.2647,-42.9738 2.6942,-10.2389 14.039,-17.6238 24.0122,-13.9292 5.2919,1.8685 8.551,7.1399 10.0291,12.4759 4.4744,9.2979 13.8589,15.3752 23.6608,16.4167 8.0767,0.9972 16.3468,-0.6515 23.6235,-4.2797 11.1725,-2.2031 18.6721,-11.736 27.1027,-18.7576 3.898,-3.1478 8.252,-6.2192 13.1972,-7.0722 7.3458,0.5316 12.2935,7.0789 15.8693,13.1143 3.8411,6.1272 7.6353,13.6796 14.9853,15.6694 4.9282,2.0936 8.0913,-3.4795 11.3841,-6.2587 9.4666,-10.3996 15.6617,-23.7734 18.8064,-37.6716 0.2044,-1.3481 0.3033,-2.7058 0.3983,-4.067 z"
       id="path4496"
       inkscape:connector-curvature="0" />
    <path
       style="color:#000000;display:inline;overflow:visible;visibility:visible;fill:#ffffff;fill-opacity:1;fill-rule:nonzero;stroke:none;stroke-width:1px;marker:none;enable-background:accumulate"
       d="m 156.62579,2812.9787 c -8.70184,-37.0695 3.16086,-113.5222 181.54918,-105.4132 178.38819,8.109 213.06561,23.6272 224.97789,62.4768 11.91243,32.9791 19.37474,101.479 -119.85507,122.3306 -139.22995,20.8515 -277.18911,-20.2366 -286.672,-79.3942 z"
       id="path3525"
       inkscape:connector-curvature="0"
       sodipodi:nodetypes="cscsc" />
    <path
       style="fill:#ffffff;fill-rule:evenodd;stroke:none;stroke-width:1px;stroke-linecap:butt;stroke-linejoin:miter;stroke-opacity:1"
       d="m 1010.3846,3006.2911 c 64.3595,-20.5055 125.4599,-16.3396 159.0938,-8.4954 0.9399,10.0872 -6.0538,18.1194 2.4887,25.4861 5.3864,4.645 55.4971,24.5806 111.8647,-24.2725 -60.9167,31.4127 -81.1572,20.4407 -93.2206,13.35 0.1589,-20.1238 23.4006,-53.5398 -172.7689,-32.7681 -196.36699,20.7927 -7.4577,26.6999 -7.4577,26.6999 z"
       id="path4316"
       inkscape:connector-curvature="0"
       sodipodi:nodetypes="ccsccsc" />
    <path
       style="color:#000000;display:inline;overflow:visible;visibility:visible;opacity:1;fill:#ffffff;fill-opacity:1;fill-rule:nonzero;stroke:none;stroke-width:1px;marker:none;enable-background:accumulate"
       d="m 368.07597,2954.851 c 7.87971,-50.2951 37.24955,-80.2958 53.72531,-90.8843 16.47574,-10.5885 207.02142,-22.9415 248.56896,-24.7064 41.54754,-1.7646 161.8922,-2.647 214.18481,28.236 52.2926,30.8829 71.63364,72.3544 72.3501,96.1783 0.71635,23.8241 -18.62479,87.3549 -117.47936,106.7671 -98.85448,19.4122 -198.07332,27.2132 -236.03915,23.6836 -37.9659,-3.5294 -167.59868,-10.3559 -203.41548,-51.8272 -35.81695,-41.4715 -31.17885,-57.4465 -31.89519,-87.4471 z"
       id="path5909"
       inkscape:connector-curvature="0"
       sodipodi:nodetypes="csssssssc" />
    <path
       style="opacity:1;fill:#ffffff;stroke:none;stroke-width:0.86392486"
       d="m 2049.4054,3264.063 c -1.1652,-22.8198 19.728,-79.9465 121.6439,-75.6496 101.9162,4.2969 133.8142,29.3977 136.8009,69.9597 4.7245,64.1679 -48.8934,81.3158 -125.8839,86.0687 -79.3689,4.8997 -133.7927,-39.1473 -132.5609,-80.3788 z"
       id="path3280-8"
       inkscape:connector-curvature="0"
       sodipodi:nodetypes="csssc" />
    <path
       style="opacity:1;fill:#ffffff;fill-rule:evenodd;stroke:none;stroke-width:1px;stroke-linecap:butt;stroke-linejoin:miter;stroke-opacity:1"
       d="m 2035.1821,3063.1067 c 62.6875,-14.0507 132.7452,-5.414 131.8599,14.0506 -1.3219,29.0657 -58.7184,68.5728 -54.1912,71.7994 59.553,42.4434 62.2223,48.0386 58.9798,82.6248 -3.2425,34.5862 -26.5527,-14.9887 -37.3609,-31.201 -10.8082,-16.2123 -47.4083,-28.1111 -48.4891,-46.485 -1.0808,-18.3739 69.4777,-55.2769 65.1544,-75.8124 -4.3232,-20.5356 -115.9529,-14.9764 -115.9529,-14.9764 z"
       id="path4324"
       inkscape:connector-curvature="0"
       sodipodi:nodetypes="cssssssc" />
  </g>
  <g
     inkscape:groupmode="layer"
     id="layer1"
     inkscape:label="txt">
    <text
       xml:space="preserve"
       style="font-style:normal;font-variant:normal;font-weight:normal;font-stretch:normal;line-height:0%;font-family:Lavi;-inkscape-font-specification:Lavi;text-align:center;letter-spacing:0px;word-spacing:0px;text-anchor:middle;fill:#000000;fill-opacity:1;stroke:none"
       x="1050.5168"
       y="1521.3531"
       id="text4246"
       sodipodi:linespacing="0%"><tspan
         sodipodi:role="line"
         style="font-size:45px;line-height:1.25"
         x="1050.5168"
         y="1521.3531"
         id="tspan4252">Díky,</tspan><tspan
         sodipodi:role="line"
         style="font-size:45px;line-height:1.25"
         x="1050.5168"
         y="1577.6031"
         id="tspan4144">Karotko…</tspan></text>
    <text
       xml:space="preserve"
       style="font-style:normal;font-variant:normal;font-weight:normal;font-stretch:normal;line-height:0%;font-family:Lavi;-inkscape-font-specification:Lavi;text-align:center;letter-spacing:0px;word-spacing:0px;text-anchor:middle;fill:#000000;fill-opacity:1;stroke:none"
       x="1907.8341"
       y="1523.7719"
       id="text4246-3"
       sodipodi:linespacing="0%"><tspan
         sodipodi:role="line"
         style="font-size:45px;line-height:1.25"
         x="1907.8341"
         y="1523.7719"
         id="tspan4177">To jen… vždyť víš, jak</tspan><tspan
         sodipodi:role="line"
         style="font-size:45px;line-height:1.25"
         x="1907.8341"
         y="1580.0219"
         id="tspan3363">se každý den snažím být</tspan><tspan
         sodipodi:role="line"
         style="font-size:45px;line-height:1.25"
         x="1907.8341"
         y="1636.2719"
         id="tspan427">dobrou čarodějkou…</tspan></text>
    <text
       xml:space="preserve"
       style="font-style:normal;font-variant:normal;font-weight:normal;font-stretch:normal;line-height:0%;font-family:Lavi;-inkscape-font-specification:Lavi;text-align:center;letter-spacing:0px;word-spacing:0px;text-anchor:middle;fill:#000000;fill-opacity:1;stroke:none"
       x="360.50287"
       y="2776.7161"
       id="text4246-3-5"
       sodipodi:linespacing="0%"><tspan
         sodipodi:role="line"
         style="font-size:45px;line-height:1.25"
         x="360.50287"
         y="2776.7161"
         id="tspan4183">…respektuju</tspan><tspan
         sodipodi:role="line"
         style="font-size:45px;line-height:1.25"
         x="360.50287"
         y="2832.9661"
         id="tspan440">tradice a pravidla.</tspan></text>
    <text
       xml:space="preserve"
       style="font-style:normal;font-variant:normal;font-weight:normal;font-stretch:normal;line-height:0%;font-family:Lavi;-inkscape-font-specification:Lavi;text-align:center;letter-spacing:0px;word-spacing:0px;text-anchor:middle;fill:#000000;fill-opacity:1;stroke:none"
       x="659.74036"
       y="2937.6072"
       id="text4246-3-5-2"
       sodipodi:linespacing="0%"><tspan
         sodipodi:role="line"
         style="font-size:45px;line-height:1.25"
         x="659.74036"
         y="2937.6072"
         id="tspan4198">Není fér, že se Šafránka</tspan><tspan
         sodipodi:role="line"
         style="font-size:45px;line-height:1.25"
         x="667.65051"
         y="2993.8572"
         id="tspan3381">s takovou taktikou </tspan><tspan
         sodipodi:role="line"
         style="font-size:45px;line-height:1.25"
         x="659.74036"
         y="3050.1072"
         id="tspan3385">stala slavnou…</tspan><tspan
         sodipodi:role="line"
         style="font-size:45px;line-height:1.25"
         x="659.74036"
         y="3106.3572"
         id="tspan449" /></text>
    <text
       xml:space="preserve"
       style="font-style:normal;font-variant:normal;font-weight:normal;font-stretch:normal;line-height:0%;font-family:Lavi;-inkscape-font-specification:Lavi;text-align:center;letter-spacing:0px;word-spacing:0px;text-anchor:middle;fill:#000000;fill-opacity:1;stroke:none"
       x="2182.7688"
       y="3254.8188"
       id="text4246-3-5-2-2"
       sodipodi:linespacing="0%"><tspan
         sodipodi:role="line"
         style="font-size:45px;line-height:1.25"
         x="2190.679"
         y="3254.8188"
         id="tspan4264">Fakt to </tspan><tspan
         sodipodi:role="line"
         style="font-size:45px;line-height:1.25"
         x="2182.7688"
         y="3311.0688"
         id="tspan455">není fér.</tspan></text>
  </g>
</svg>
