<?xml version="1.0" encoding="UTF-8" standalone="no"?>
<!-- Created with Inkscape (http://www.inkscape.org/) -->

<svg
   xmlns:dc="http://purl.org/dc/elements/1.1/"
   xmlns:cc="http://creativecommons.org/ns#"
   xmlns:rdf="http://www.w3.org/1999/02/22-rdf-syntax-ns#"
   xmlns:svg="http://www.w3.org/2000/svg"
   xmlns="http://www.w3.org/2000/svg"
   xmlns:xlink="http://www.w3.org/1999/xlink"
   xmlns:sodipodi="http://sodipodi.sourceforge.net/DTD/sodipodi-0.dtd"
   xmlns:inkscape="http://www.inkscape.org/namespaces/inkscape"
   id="svg2"
   version="1.1"
   inkscape:version="0.91 r13725"
   width="2481"
   height="3503"
   sodipodi:docname="Pepper-and-Carrot_by-David-Revoy_E23P04.svg">
  <metadata
     id="metadata8">
    <rdf:RDF>
      <cc:Work
         rdf:about="">
        <dc:format>image/svg+xml</dc:format>
        <dc:type
           rdf:resource="http://purl.org/dc/dcmitype/StillImage" />
        <dc:title />
      </cc:Work>
    </rdf:RDF>
  </metadata>
  <defs
     id="defs6" />
  <sodipodi:namedview
     pagecolor="#ffffff"
     bordercolor="#666666"
     borderopacity="1"
     objecttolerance="10"
     gridtolerance="10"
     guidetolerance="10"
     inkscape:pageopacity="0"
     inkscape:pageshadow="2"
     inkscape:window-width="1360"
     inkscape:window-height="706"
     id="namedview4"
     showgrid="false"
     inkscape:zoom="0.34980126"
     inkscape:cx="1009.4747"
     inkscape:cy="2121.6068"
     inkscape:window-x="-8"
     inkscape:window-y="-8"
     inkscape:window-maximized="1"
     inkscape:current-layer="layer3"
     inkscape:document-rotation="0" />
  <g
     inkscape:groupmode="layer"
     id="layer2"
     inkscape:label="artwork"
     sodipodi:insensitive="true">
    <image
       sodipodi:absref="C:\Users\Katka\Desktop\Feferonka a Karotka\23\peppercarrot_ep23_translation-master\cs\..\gfx_Pepper-and-Carrot_by-David-Revoy_E23P04.png"
       xlink:href="../gfx_Pepper-and-Carrot_by-David-Revoy_E23P04.png"
       y="0"
       x="0"
       id="image10"
       height="3503"
       width="2481" />
  </g>
  <g
     inkscape:groupmode="layer"
     id="layer3"
     inkscape:label="speechbubbles">
    <path
       style="fill:#ffffff;fill-rule:evenodd;stroke:none;stroke-width:0.99999994px;stroke-linecap:butt;stroke-linejoin:miter;stroke-opacity:1"
       d="m 1594.6586,254.77092 c 12.8414,-32.93482 48.511,-61.37855 59.9255,-68.86373 11.4144,-7.48519 190.2094,-20.47399 217.3188,-20.47399 27.1089,0 187.5691,12.78529 206.6315,30.95324 19.7842,18.85614 45.7052,68.86375 42.8516,91.31931 -2.8537,22.45557 -33.0552,97.30747 -63.0178,109.28377 -29.9628,11.97632 -186.9107,20.95853 -216.8736,20.95853 -29.9625,0 -159.8014,-5.98814 -191.1909,-25.44965 -31.3896,-19.46148 -55.3376,-64.42988 -55.3376,-73.41211 0,-8.98221 -0.3075,-64.31537 -0.3075,-64.31537 z"
       id="path4246"
       inkscape:connector-curvature="0"
       sodipodi:nodetypes="cssssssssc" />
    <path
       style="fill:#ffffff;fill-rule:evenodd;stroke:none;stroke-width:1px;stroke-linecap:butt;stroke-linejoin:miter;stroke-opacity:1"
       d="m 1857.2028,178.22067 c 3.8122,-24.29312 8.2944,-49.93369 -6.7376,-69.58867 12.7474,9.99691 30.4412,33.00886 28.3517,60.17215 -3.2611,42.39294 -20.8306,11.79987 -20.8306,11.79987 z"
       id="path4248"
       inkscape:connector-curvature="0"
       sodipodi:nodetypes="ccscc" />
    <path
       style="fill:#ffffff;stroke:none;stroke-width:1"
       d="m 630.42351,1279.6521 c -2.37963,-33.9259 40.28689,-118.8559 248.41219,-112.4677 208.1253,6.3882 273.2654,43.7054 279.3642,104.0086 9.6484,95.398 -99.8462,120.8916 -257.07042,127.9576 -162.08114,7.2845 -273.22145,-58.1999 -270.70597,-119.4985 z"
       id="path3280-8"
       inkscape:connector-curvature="0"
       sodipodi:nodetypes="csssc" />
    <path
       style="fill:#ffffff;fill-rule:evenodd;stroke:none;stroke-width:1px;stroke-linecap:butt;stroke-linejoin:miter;stroke-opacity:1"
       d="m 1135.2615,1614.0034 c 62.4372,-68.9117 50.4662,-112.8344 43.0951,-140.7709 -7.3709,-27.9366 -35.5004,-47.0985 -60.4628,-44.2772 -24.9624,2.8213 -60.7682,40.0103 -91.8753,13.3179 -31.10718,-26.6923 -26.12898,-75.3915 -4.6982,-109.4603 21.4307,-34.0687 -37.99012,-28.5721 -43.78706,19.5531 -5.79694,48.1251 2.85426,96.4705 35.77176,114.3273 32.9176,17.8569 60.951,8.8491 71.8636,1.9227 12.4313,-7.8903 43.5382,-30.8378 63.1046,-12.878 21.4584,19.6964 47.0755,80.9884 -13.0117,158.2654 z"
       id="path4256"
       inkscape:connector-curvature="0"
       sodipodi:nodetypes="cssssssssc" />
    <path
       style="color:#000000;display:inline;overflow:visible;visibility:visible;fill:#ffffff;fill-opacity:1;fill-rule:nonzero;stroke:none;stroke-width:1px;marker:none;enable-background:accumulate"
       d="m 1860.7116,1986.4373 c -4.5243,-42.7914 26.7685,-82.8297 66.3588,-91.8378 67.2402,-28.4031 143.6874,-19.9069 212.314,-3.0571 32.9413,9.462 67.1824,37.0094 84.9009,66.3466 20.6697,35.3673 -10.3814,70.7447 -45.2625,77.0323 -67.0165,19.2443 -138.2168,18.217 -207.1836,13.0416 -31.6914,-5.5265 -68.4006,-2.6993 -94.549,-24.2317 -10.6284,-9.1666 -18.1475,-22.9374 -16.5786,-37.2939 z"
       id="path3357"
       inkscape:connector-curvature="0"
       sodipodi:nodetypes="cccccccc" />
    <path
       style="fill:#ffffff;fill-rule:evenodd;stroke:none;stroke-width:1px;stroke-linecap:butt;stroke-linejoin:miter;stroke-opacity:1"
       d="m 1815.7758,2061.2815 c 64.8492,31.0148 134.3976,22.5562 155.0741,-25.3758 23.8742,-55.3449 26.3156,-31.9546 26.3156,-31.9546 0,0 20.7007,14.1323 -2.8196,43.2328 -18.7952,23.2544 -75.4849,87.5238 -178.5701,14.0976 z"
       id="path4281"
       inkscape:connector-curvature="0"
       sodipodi:nodetypes="cscsc" />
    <path
       style="color:#000000;display:inline;overflow:visible;visibility:visible;fill:#ffffff;fill-opacity:1;fill-rule:nonzero;stroke:none;stroke-width:1px;marker:none;enable-background:accumulate"
       d="m 140.73919,2104.6301 c 17.4749,-38.9356 59.65078,-62.0143 101.62493,-69.3099 46.89281,-8.7072 95.31874,-4.5768 141.97822,3.4442 30.74955,6.3727 61.54816,17.1327 85.9471,36.6618 9.21028,11.7795 19.6301,25.8707 22.49857,40.0075 14.14179,33.5054 1.99281,66.1649 -27.80791,110.1942 -32.93384,25.997 -77.43541,26.089 -117.82528,28.7458 -45.75382,5.3421 -93.35325,0.5022 -135.73186,-17.4252 -26.34171,-11.9911 -52.80502,-29.1457 -65.32604,-55.3388 -9.14205,-24.772 -15.92437,-53.2974 -5.35773,-76.9796 z"
       id="path3365"
       inkscape:connector-curvature="0"
       sodipodi:nodetypes="cccccccccc" />
    <path
       style="fill:#ffffff;fill-rule:evenodd;stroke:none;stroke-width:1px;stroke-linecap:butt;stroke-linejoin:miter;stroke-opacity:1"
       d="m 463.97121,2140.9085 c 84.34167,16.1667 252.8523,-49.3553 272.73937,-44.3835 19.88707,4.9717 31.42746,46.6967 63.74394,23.0808 -39.77414,32.3165 -47.23179,-7.4577 -63.39003,-8.7006 -16.15824,-1.243 -197.62775,64.633 -269.71837,62.1471 -72.09063,-2.4859 -3.37491,-32.1438 -3.37491,-32.1438 z"
       id="path4314"
       inkscape:connector-curvature="0"
       sodipodi:nodetypes="cscssc" />
    <path
       style="fill:#ffffff;fill-rule:evenodd;stroke:none;stroke-width:1px;stroke-linecap:butt;stroke-linejoin:miter;stroke-opacity:1"
       d="m 1660.5299,2998.9956 c -36.0453,-51.2804 -41.0171,-112.0072 -26.1018,-137.6474 14.9153,-25.6402 82.0342,-75.5711 0,-143.0453 79.5483,56.6783 49.7177,94.4639 19.8871,147.0937 -29.8306,52.6299 54.6894,144.3948 54.6894,144.3948 z"
       id="path4316"
       inkscape:connector-curvature="0" />
    <path
       style="fill:#ffffff;stroke:none"
       d="m 1471.1672,3061.3435 c -2.1404,-26.8142 -31.6869,-93.9409 207.3415,-87.248 187.1872,5.2413 247.23,9.0236 252.7969,91.2825 5.1622,76.2796 -158.6956,78.2704 -248.0394,79.578 -127.7574,1.8699 -214.3615,-35.1635 -212.099,-83.6125 z"
       id="path3280-8-9"
       inkscape:connector-curvature="0"
       sodipodi:nodetypes="csssc" />
  </g>
  <g
     inkscape:groupmode="layer"
     id="layer1"
     inkscape:label="txt">
    <text
       xml:space="preserve"
       style="font-style:normal;font-variant:normal;font-weight:normal;font-stretch:normal;line-height:0%;font-family:Lavi;-inkscape-font-specification:Lavi;text-align:center;letter-spacing:0px;word-spacing:0px;text-anchor:middle;fill:#000000;fill-opacity:1;stroke:none"
       x="1851.2069"
       y="244.55106"
       id="text4246"
       sodipodi:linespacing="0%"><tspan
         sodipodi:role="line"
         style="font-style:italic;font-variant:normal;font-weight:normal;font-stretch:normal;font-size:35.77793884px;line-height:1.25;font-family:Lavi;-inkscape-font-specification:'Lavi Italic'"
         x="1851.2069"
         y="244.55106"
         id="tspan4179">* Vyjma víkendů a státních</tspan><tspan
         sodipodi:role="line"
         style="font-style:italic;font-variant:normal;font-weight:normal;font-stretch:normal;font-size:35.77793884px;line-height:1.25;font-family:Lavi;-inkscape-font-specification:'Lavi Italic'"
         x="1851.2069"
         y="289.27347"
         id="tspan3367">svátků. Nabídky není možné</tspan><tspan
         sodipodi:role="line"
         style="font-style:italic;font-variant:normal;font-weight:normal;font-stretch:normal;font-size:35.77793884px;line-height:1.25;font-family:Lavi;-inkscape-font-specification:'Lavi Italic'"
         x="1851.2069"
         y="333.99591"
         id="tspan472">kombinovat. Omezeno pouze</tspan><tspan
         sodipodi:role="line"
         style="font-style:italic;font-variant:normal;font-weight:normal;font-stretch:normal;font-size:35.77793884px;line-height:1.25;font-family:Lavi;-inkscape-font-specification:'Lavi Italic'"
         x="1851.2069"
         y="378.71832"
         id="tspan474">na zboží ve skladu.</tspan></text>
    <text
       xml:space="preserve"
       style="font-style:normal;font-variant:normal;font-weight:normal;font-stretch:normal;line-height:0%;font-family:Lavi;-inkscape-font-specification:Lavi;text-align:center;letter-spacing:0px;word-spacing:0px;text-anchor:middle;fill:#000000;fill-opacity:1;stroke:none"
       x="896.52173"
       y="1237.9391"
       id="text4246-3"
       sodipodi:linespacing="0%"><tspan
         sodipodi:role="line"
         style="font-size:45px;line-height:1.25"
         x="904.43188"
         y="1237.9391"
         id="tspan4167">Celosvětová </tspan><tspan
         sodipodi:role="line"
         style="font-size:45px;line-height:1.25"
         x="896.52173"
         y="1294.1891"
         id="tspan3387">reklamní kampaň během</tspan><tspan
         sodipodi:role="line"
         style="font-size:45px;line-height:1.25"
         x="896.52173"
         y="1350.4391"
         id="tspan46">mrknutí oka!</tspan></text>
    <text
       xml:space="preserve"
       style="font-style:normal;font-variant:normal;font-weight:normal;font-stretch:normal;line-height:0%;font-family:Lavi;-inkscape-font-specification:Lavi;text-align:center;letter-spacing:0px;word-spacing:0px;text-anchor:middle;fill:#000000;fill-opacity:1;stroke:none"
       x="2037.5197"
       y="1956.0619"
       id="text4246-3-7"
       sodipodi:linespacing="0%"><tspan
         sodipodi:role="line"
         style="font-size:45px;line-height:1.25"
         x="2037.5197"
         y="1956.0619"
         id="tspan4191">Celovětová</tspan><tspan
         sodipodi:role="line"
         style="font-size:45px;line-height:1.25"
         x="2037.5197"
         y="2012.3119"
         id="tspan63">sláva!</tspan></text>
    <text
       xml:space="preserve"
       style="font-style:normal;font-variant:normal;font-weight:normal;font-stretch:normal;line-height:0%;font-family:Lavi;-inkscape-font-specification:Lavi;text-align:center;letter-spacing:0px;word-spacing:0px;text-anchor:middle;fill:#000000;fill-opacity:1;stroke:none"
       x="317.84491"
       y="2108.1274"
       id="text4246-3-7-6"
       sodipodi:linespacing="0%"><tspan
         sodipodi:role="line"
         style="font-size:45px;line-height:1.25"
         x="325.75507"
         y="2108.1274"
         id="tspan4218">Stylisti </tspan><tspan
         sodipodi:role="line"
         style="font-size:45px;line-height:1.25"
         x="317.84491"
         y="2164.3774"
         id="tspan3397">a kadeřníci</tspan><tspan
         sodipodi:role="line"
         style="font-size:45px;line-height:1.25"
         x="317.84491"
         y="2220.6274"
         id="tspan55">v ceně!</tspan></text>
    <text
       xml:space="preserve"
       style="font-style:normal;font-variant:normal;font-weight:normal;font-stretch:normal;line-height:0%;font-family:Lavi;-inkscape-font-specification:Lavi;text-align:center;letter-spacing:0px;word-spacing:0px;text-anchor:middle;fill:#000000;fill-opacity:1;stroke:none"
       x="1692.2446"
       y="3051.1169"
       id="text4246-3-7-6-1"
       sodipodi:linespacing="0%"><tspan
         sodipodi:role="line"
         style="font-size:45px;line-height:1.25"
         x="1692.2446"
         y="3051.1169"
         id="tspan4183">Garance okamžitých</tspan><tspan
         sodipodi:role="line"
         style="font-size:45px;line-height:1.25"
         x="1692.2446"
         y="3107.3669"
         id="tspan59">výsledků!</tspan></text>
  </g>
</svg>
