<?xml version="1.0" encoding="UTF-8" standalone="no"?>
<!-- Created with Inkscape (http://www.inkscape.org/) -->

<svg
   xmlns:dc="http://purl.org/dc/elements/1.1/"
   xmlns:cc="http://creativecommons.org/ns#"
   xmlns:rdf="http://www.w3.org/1999/02/22-rdf-syntax-ns#"
   xmlns:svg="http://www.w3.org/2000/svg"
   xmlns="http://www.w3.org/2000/svg"
   xmlns:xlink="http://www.w3.org/1999/xlink"
   xmlns:sodipodi="http://sodipodi.sourceforge.net/DTD/sodipodi-0.dtd"
   xmlns:inkscape="http://www.inkscape.org/namespaces/inkscape"
   id="svg2"
   version="1.1"
   inkscape:version="0.91 r13725"
   width="2481"
   height="3503"
   sodipodi:docname="Pepper-and-Carrot_by-David-Revoy_E23P05.svg">
  <metadata
     id="metadata8">
    <rdf:RDF>
      <cc:Work
         rdf:about="">
        <dc:format>image/svg+xml</dc:format>
        <dc:type
           rdf:resource="http://purl.org/dc/dcmitype/StillImage" />
        <dc:title></dc:title>
      </cc:Work>
    </rdf:RDF>
  </metadata>
  <defs
     id="defs6" />
  <sodipodi:namedview
     pagecolor="#ffffff"
     bordercolor="#666666"
     borderopacity="1"
     objecttolerance="10"
     gridtolerance="10"
     guidetolerance="10"
     inkscape:pageopacity="0"
     inkscape:pageshadow="2"
     inkscape:window-width="1855"
     inkscape:window-height="1056"
     id="namedview4"
     showgrid="false"
     inkscape:zoom="0.49005508"
     inkscape:cx="2006.849"
     inkscape:cy="2121.4412"
     inkscape:window-x="65"
     inkscape:window-y="24"
     inkscape:window-maximized="1"
     inkscape:current-layer="layer1"
     inkscape:document-rotation="0"
     inkscape:snap-global="false" />
  <g
     inkscape:groupmode="layer"
     id="layer2"
     inkscape:label="artwork"
     sodipodi:insensitive="true">
    <image
       sodipodi:absref="/home/thomas/Data/Copy/PepperCarrot/Git/peppercarrot/peppercarrot_ep23_translation/no/../gfx_Pepper-and-Carrot_by-David-Revoy_E23P05.png"
       xlink:href="../gfx_Pepper-and-Carrot_by-David-Revoy_E23P05.png"
       width="2481"
       height="3503"
       id="image10"
       x="0"
       y="0" />
  </g>
  <g
     inkscape:groupmode="layer"
     id="layer3"
     inkscape:label="speechbubbles"
     style="display:inline">
    <path
       style="color:#000000;display:inline;overflow:visible;visibility:visible;fill:#ffffff;fill-opacity:1;fill-rule:nonzero;stroke:none;stroke-width:1px;marker:none;enable-background:accumulate"
       d="M 212.88572,475.06172 C 110.96021,463.01758 79.892206,415.17837 80.060207,330.53848 80.216894,251.59867 72.635432,102.65299 99.803229,89.977376 126.8113,77.376289 201.83212,72.785399 300.11868,73.42594 c 89.42449,0.582787 271.80915,-33.157948 327.43093,118.42181 27.13586,73.95034 -0.007,218.88229 -112.92291,261.63696 -117.33938,44.42956 -301.74098,21.57701 -301.74098,21.57701 z"
       id="path3970"
       inkscape:connector-curvature="0"
       sodipodi:nodetypes="csssssc" />
    <path
       style="fill:#ffffff;fill-rule:evenodd;stroke:none;stroke-width:1px;stroke-linecap:butt;stroke-linejoin:miter;stroke-opacity:1"
       d="M 599.21792,525.82095 C 484.89991,589.88304 333.06159,463.02228 324.3431,413.59379 c -8.7185,-49.42848 29.27876,-67.41517 29.27876,-67.41517 l 26.59028,22.09505 c 0,0 -15.9022,-8.60358 -7.84832,36.35392 8.05389,44.9575 112.77168,159.17272 226.8541,121.19336 z"
       id="path4367"
       inkscape:connector-curvature="0"
       sodipodi:nodetypes="csccsc" />
    <path
       style="fill:#ffffff;stroke:none;stroke-width:1"
       d="m 1195.5596,1197.6515 c -1.493,-53.5831 55.755,-69.8942 95.9768,-76.7349 40.2222,-6.8406 173.4601,1.1985 164.4739,66.5799 -8.9861,65.3816 -100.6614,72.1725 -150.6711,68.408 -50.0097,-3.7645 -102.3682,-7.3775 -109.7796,-58.253 z"
       id="path3938"
       inkscape:connector-curvature="0"
       sodipodi:nodetypes="csssc" />
    <path
       style="fill:#ffffff;fill-rule:evenodd;stroke:none;stroke-width:1px;stroke-linecap:butt;stroke-linejoin:miter;stroke-opacity:1"
       d="m 1319.9169,1430.5563 c -79.6639,-37.1698 -55.9039,-129.7638 14.1457,-180.8499 70.0496,-51.086 29.4921,-47.0022 29.4921,-47.0022 0,0 -17.1327,-11.2383 -67.0329,47.9216 -49.9003,59.16 -82.7104,161.2474 23.3951,179.9305 z"
       id="path4375"
       inkscape:connector-curvature="0"
       sodipodi:nodetypes="cscsc" />
    <path
       style="fill:#ffffff;fill-opacity:1;stroke:none;stroke-width:1.09609663"
       d="m 1664.3308,1173.305 c 6.3279,-79.01 64.4887,-90.5352 80.6886,-95.8558 45.2664,-14.867 535.7127,-33.8974 581.6346,21.7391 28.086,34.0274 70.9209,238.1127 27.5226,286.4692 -53.2419,59.3246 -612.0474,49.4443 -662.0119,14.0546 -52.1115,-36.9104 -41.016,-138.8657 -27.8339,-226.4071 z"
       id="path3659"
       inkscape:connector-curvature="0"
       sodipodi:nodetypes="cssssc" />
    <path
       style="fill:#ffffff;fill-rule:evenodd;stroke:none;stroke-width:1px;stroke-linecap:butt;stroke-linejoin:miter;stroke-opacity:1"
       d="m 1756.031,1518.1378 c 24.2675,-5.1738 2.3375,-12.1848 -4.0584,-24.266 -6.3959,-12.0811 -8.0227,-26.9013 9.033,-30.4546 17.0557,-3.5532 50.4566,10.6599 50.4566,10.6599 0,0 -21.3197,-32.6902 -9.2386,-41.9287 12.0812,-9.2385 54.7206,6.3959 54.7206,6.3959 0,0 -16.3452,-45.482 19.8983,-63.2484 36.2435,-17.7664 81.7255,6.3959 55.4312,15.6344 -26.2943,9.2386 -84.5681,7.1066 -44.7713,77.4615 -62.5378,-29.8475 -60.4058,-23.4516 -64.6697,-19.1877 -4.264,4.264 9.2385,41.9287 14.2131,53.2992 -17.0558,-10.6598 -66.8017,-36.9541 -74.6189,-22.741 -7.8172,14.2132 12.0812,25.5837 11.3705,32.6902 -0.7107,7.1066 -17.7664,5.6853 -17.7664,5.6853 z"
       id="path4394"
       inkscape:connector-curvature="0"
       sodipodi:nodetypes="csscscsscscssc" />
    <path
       style="fill:#ffffff;fill-rule:evenodd;stroke:none;stroke-width:1px;stroke-linecap:butt;stroke-linejoin:miter;stroke-opacity:1"
       d="m 1875.5731,1622.3206 c 20.8394,-39.5535 205.8858,-66.9559 305.105,-26.7686 40.7199,23.126 93.0907,93.7142 54.4188,150.7975 -51.7649,34.9433 -114.521,21.5109 -170.6683,37.5052 -64.8358,6.9143 -123.075,11.6521 -185.2425,-18.8477 -43.8859,-34.9346 -28.3416,-103.2432 -3.613,-142.6864 z"
       id="path4405"
       inkscape:connector-curvature="0"
       sodipodi:nodetypes="cccccc" />
    <path
       style="fill:#ffffff;fill-rule:evenodd;stroke:none;stroke-width:1px;stroke-linecap:butt;stroke-linejoin:miter;stroke-opacity:1"
       d="m 1750.9267,1594.1797 c 19.7367,-19.7367 46.0523,-32.8945 56.3906,-21.6163 10.3382,11.2781 2.8195,39.4733 2.8195,39.4733 0,0 42.2929,-21.6163 90.2249,34.7742 47.932,56.3906 17.857,52.6312 17.857,52.6312 0,0 -10.3383,-3.7594 -34.7742,-32.8945 -24.4359,-29.1351 -45.1124,-46.9921 -72.3679,-35.714 -9.3984,3.7594 -19.7367,-1.8797 -16.9171,-9.3984 12.2179,-30.075 15.9773,-64.8492 -43.2328,-27.2555 z"
       id="path4419"
       inkscape:connector-curvature="0" />
    <path
       style="fill:#ffffff;fill-rule:evenodd;stroke:none;stroke-width:1px;stroke-linecap:butt;stroke-linejoin:miter;stroke-opacity:1"
       d="m 2238.1959,1745.6006 c 58.6675,10.8082 77.5603,43.0076 98.442,81.0615 14.8065,26.983 20.8538,74.8123 -5.9016,116.6581 -24.199,37.8479 -77.6603,35.9285 -114.6076,42.5356 -55.7163,9.9635 -137.8273,3.9263 -181.777,-2.475 -41.1579,-5.9947 -83.5263,-11.889 -99.4361,-44.3136 -15.9098,-32.4245 -10.9381,-92.9504 -4.9718,-110.2435 5.9661,-17.2931 25.8534,-68.0916 41.7632,-72.4149 15.9098,-4.3233 258.5341,-10.8082 258.5341,-10.8082 z"
       id="path4423"
       inkscape:connector-curvature="0"
       sodipodi:nodetypes="cssssssscc" />
    <path
       style="color:#000000;display:inline;overflow:visible;visibility:visible;fill:#ffffff;fill-opacity:1;fill-rule:nonzero;stroke:none;stroke-width:1px;marker:none;enable-background:accumulate"
       d="m 288.9194,2251.5789 c -6.33717,-33.0758 10.56191,-120.9334 140.4743,-113.698 129.91227,7.2352 151.03632,48.58 154.20485,60.9834 3.16865,12.4034 30.62976,82.6895 -70.76519,101.2947 -101.39507,18.6052 -192.228,-1.0337 -223.91396,-48.5801 z"
       id="path3525"
       inkscape:connector-curvature="0" />
    <path
       style="color:#000000;display:inline;overflow:visible;visibility:visible;fill:#ffffff;fill-opacity:1;fill-rule:nonzero;stroke:none;stroke-width:0.92610359px;marker:none;enable-background:accumulate"
       d="m 185.23249,2448.1271 c 2.57188,-79.6298 17.40321,-158.1971 181.37668,-158.1971 221.44634,0 358.80325,-68.5347 354.15772,165.2116 -2.94483,148.1739 -81.4698,179.0948 -260.48489,179.0948 -256.97945,0 -277.78512,-101.4102 -275.04951,-186.1093 z"
       id="path3525-0"
       inkscape:connector-curvature="0"
       sodipodi:nodetypes="sssss" />
    <path
       style="fill:#ffffff;fill-rule:evenodd;stroke:none;stroke-width:1px;stroke-linecap:butt;stroke-linejoin:miter;stroke-opacity:1"
       d="m 742.60914,2350.2751 c 102.97849,-126.0799 251.45982,-276.6361 847.08866,1.322 C 1049.11,2056.78 875.57765,2160.7347 719.24197,2320.9166 c -175.12871,179.4373 23.36717,29.3585 23.36717,29.3585 z"
       id="path4446"
       inkscape:connector-curvature="0"
       sodipodi:nodetypes="ccsc" />
  </g>
  <g
     inkscape:groupmode="layer"
     id="layer1"
     inkscape:label="txt">
    <text
       xml:space="preserve"
       style="font-style:normal;font-variant:normal;font-weight:normal;font-stretch:normal;line-height:0%;font-family:Lavi;-inkscape-font-specification:Lavi;text-align:center;letter-spacing:0px;word-spacing:0px;text-anchor:middle;fill:#000000;fill-opacity:1;stroke:none"
       x="347.46445"
       y="184.91849"
       id="text4246"
       sodipodi:linespacing="0%"><tspan
         sodipodi:role="line"
         style="font-size:45px;line-height:1.25"
         x="347.46445"
         y="184.91849"
         id="tspan68">Jeg trenger bare en</tspan><tspan
         sodipodi:role="line"
         style="font-size:45px;line-height:1.25"
         x="347.46445"
         y="241.16849"
         id="tspan4209">bitteliten signatur fra deg</tspan><tspan
         sodipodi:role="line"
         style="font-size:45px;line-height:1.25"
         x="347.46445"
         y="297.41849"
         id="tspan4253">nederst på kontrakten,</tspan><tspan
         sodipodi:role="line"
         style="font-size:45px;line-height:1.25"
         x="347.46445"
         y="353.66849"
         id="tspan4211">så er døren til ære og</tspan><tspan
         sodipodi:role="line"
         style="font-size:45px;line-height:1.25"
         x="347.46445"
         y="409.91849"
         id="tspan4213">berømmelse åpen!</tspan></text>
    <text
       xml:space="preserve"
       style="font-style:normal;font-variant:normal;font-weight:normal;font-stretch:normal;line-height:0%;font-family:Lavi;-inkscape-font-specification:Lavi;text-align:center;letter-spacing:0px;word-spacing:0px;text-anchor:middle;fill:#000000;fill-opacity:1;stroke:none"
       x="1321.3857"
       y="1180.3622"
       id="text4246-3"
       sodipodi:linespacing="0%"><tspan
         sodipodi:role="line"
         style="font-size:45px;line-height:1.25"
         x="1321.3857"
         y="1180.3622"
         id="tspan78">Vent n<tspan
   style="font-size:40px"
   id="tspan4256">å</tspan></tspan><tspan
         sodipodi:role="line"
         style="font-size:45px;line-height:1.25"
         x="1321.3857"
         y="1236.6122"
         id="tspan4217">litt.</tspan></text>
    <text
       xml:space="preserve"
       style="font-style:normal;font-variant:normal;font-weight:normal;font-stretch:normal;line-height:0%;font-family:Lavi;-inkscape-font-specification:Lavi;text-align:center;letter-spacing:0px;word-spacing:0px;text-anchor:middle;fill:#000000;fill-opacity:1;stroke:none"
       x="2048.3618"
       y="1642.6909"
       id="text4246-3-6"
       sodipodi:linespacing="0%"><tspan
         sodipodi:role="line"
         style="font-size:45px;line-height:1.25"
         x="2048.3618"
         y="1642.6909"
         id="tspan4243">Hvem tror du</tspan><tspan
         sodipodi:role="line"
         style="font-size:45px;line-height:1.25"
         x="2056.272"
         y="1698.9409"
         id="tspan4241">at du er, din </tspan><tspan
         sodipodi:role="line"
         style="font-size:45px;line-height:1.25"
         x="2048.3618"
         y="1755.1909"
         id="tspan4237">taskenspiller?!</tspan></text>
    <text
       xml:space="preserve"
       style="font-style:normal;font-variant:normal;font-weight:normal;font-stretch:normal;line-height:0%;font-family:Lavi;-inkscape-font-specification:Lavi;text-align:center;letter-spacing:0px;word-spacing:0px;text-anchor:middle;fill:#000000;fill-opacity:1;stroke:none"
       x="2015.2555"
       y="1139.1302"
       id="text4246-3-6-1"
       sodipodi:linespacing="0%"><tspan
         sodipodi:role="line"
         style="font-size:45px;line-height:1.25"
         x="2015.2555"
         y="1139.1302"
         id="tspan99">Akkurat i det lille øyeblikket</tspan><tspan
         sodipodi:role="line"
         style="font-size:45px;line-height:1.25"
         x="2015.2555"
         y="1195.3802"
         id="tspan4246">n<tspan
   style="font-size:40px"
   id="tspan4259">å</tspan>r jeg er på mitt mest sårbare,</tspan><tspan
         sodipodi:role="line"
         style="font-size:45px;line-height:1.25"
         x="2015.2555"
         y="1251.6302"
         id="tspan4258">ramler du tilfeldigvis ned fra</tspan><tspan
         sodipodi:role="line"
         style="font-size:45px;line-height:1.25"
         x="2023.1656"
         y="1307.8802"
         id="tspan4254">himmelen med en mirakuløs </tspan><tspan
         sodipodi:role="line"
         style="font-size:45px;line-height:1.25"
         x="2015.2555"
         y="1364.1302"
         id="tspan4269">løsning p<tspan
   style="font-size:40px"
   id="tspan4261">å</tspan> alle mine problemer?!</tspan></text>
    <text
       xml:space="preserve"
       style="font-style:normal;font-variant:normal;font-weight:normal;font-stretch:normal;line-height:0%;font-family:Lavi;-inkscape-font-specification:Lavi;text-align:center;letter-spacing:0px;word-spacing:0px;text-anchor:middle;fill:#000000;fill-opacity:1;stroke:none"
       x="2136.7385"
       y="1831.4176"
       id="text4246-3-6-3"
       sodipodi:linespacing="0%"><tspan
         sodipodi:role="line"
         style="font-size:45px;line-height:1.25"
         x="2136.7385"
         y="1831.4176"
         id="tspan106">Det hele virker</tspan><tspan
         sodipodi:role="line"
         style="font-size:45px;line-height:1.25"
         x="2136.7385"
         y="1887.6676"
         id="tspan4210">veldig muffens,</tspan><tspan
         sodipodi:role="line"
         style="font-size:45px;line-height:1.25"
         x="2136.7385"
         y="1943.9176"
         id="tspan4212">spør du meg!</tspan></text>
    <text
       xml:space="preserve"
       style="font-style:normal;font-variant:normal;font-weight:normal;font-stretch:normal;line-height:0%;font-family:Lavi;-inkscape-font-specification:Lavi;text-align:center;letter-spacing:0px;word-spacing:0px;text-anchor:middle;fill:#000000;fill-opacity:1;stroke:none"
       x="439.63583"
       y="2202.2944"
       id="text4246-3-6-3-2"
       sodipodi:linespacing="0%"><tspan
         sodipodi:role="line"
         style="font-size:45px;line-height:1.25"
         x="439.63583"
         y="2202.2944"
         id="tspan4326">Kom igjen</tspan><tspan
         sodipodi:role="line"
         style="font-size:45px;line-height:1.25"
         x="439.63583"
         y="2258.5444"
         id="tspan4203">Gulrot.</tspan></text>
    <text
       xml:space="preserve"
       style="font-style:normal;font-variant:normal;font-weight:normal;font-stretch:normal;line-height:0%;font-family:Lavi;-inkscape-font-specification:Lavi;text-align:center;letter-spacing:0px;word-spacing:0px;text-anchor:middle;fill:#000000;fill-opacity:1;stroke:none"
       x="452.17294"
       y="2369.833"
       id="text4246-3-6-3-2-7"
       sodipodi:linespacing="0%"><tspan
         sodipodi:role="line"
         style="font-size:45px;line-height:1.25"
         x="452.17294"
         y="2369.833"
         id="tspan866">Mulig at vi hadde g<tspan
   style="font-size:40px"
   id="tspan4240">å</tspan>tt</tspan><tspan
         sodipodi:role="line"
         style="font-size:45px;line-height:1.25"
         x="452.17294"
         y="2426.083"
         id="tspan4234">på dette tøyset før i</tspan><tspan
         sodipodi:role="line"
         style="font-size:45px;line-height:1.25"
         x="452.17294"
         y="2482.333"
         id="tspan4236">tiden, men slikt lureri</tspan><tspan
         sodipodi:role="line"
         style="font-size:45px;line-height:1.25"
         x="452.17294"
         y="2538.583"
         id="tspan4238">virker nok ikke på oss</tspan><tspan
         sodipodi:role="line"
         style="font-size:45px;line-height:1.25"
         x="452.17294"
         y="2594.833"
         id="tspan4255">nå lenger!</tspan></text>
  </g>
</svg>
