<?xml version="1.0" encoding="UTF-8" standalone="no"?>
<!-- Created with Inkscape (http://www.inkscape.org/) -->

<svg
   xmlns:dc="http://purl.org/dc/elements/1.1/"
   xmlns:cc="http://creativecommons.org/ns#"
   xmlns:rdf="http://www.w3.org/1999/02/22-rdf-syntax-ns#"
   xmlns:svg="http://www.w3.org/2000/svg"
   xmlns="http://www.w3.org/2000/svg"
   xmlns:xlink="http://www.w3.org/1999/xlink"
   xmlns:sodipodi="http://sodipodi.sourceforge.net/DTD/sodipodi-0.dtd"
   xmlns:inkscape="http://www.inkscape.org/namespaces/inkscape"
   id="svg2"
   version="1.1"
   inkscape:version="0.91 r13725"
   width="2481"
   height="3503"
   sodipodi:docname="Pepper-and-Carrot_by-David-Revoy_E23P04.svg">
  <metadata
     id="metadata8">
    <rdf:RDF>
      <cc:Work
         rdf:about="">
        <dc:format>image/svg+xml</dc:format>
        <dc:type
           rdf:resource="http://purl.org/dc/dcmitype/StillImage" />
        <dc:title />
      </cc:Work>
    </rdf:RDF>
  </metadata>
  <defs
     id="defs6" />
  <sodipodi:namedview
     pagecolor="#ffffff"
     bordercolor="#666666"
     borderopacity="1"
     objecttolerance="10"
     gridtolerance="10"
     guidetolerance="10"
     inkscape:pageopacity="0"
     inkscape:pageshadow="2"
     inkscape:window-width="1366"
     inkscape:window-height="715"
     id="namedview4"
     showgrid="false"
     inkscape:zoom="0.4665165"
     inkscape:cx="1269.2566"
     inkscape:cy="792.3241"
     inkscape:window-x="-8"
     inkscape:window-y="-8"
     inkscape:window-maximized="1"
     inkscape:current-layer="layer3"
     inkscape:document-rotation="0" />
  <g
     inkscape:groupmode="layer"
     id="layer2"
     inkscape:label="artwork"
     sodipodi:insensitive="true">
    <image
       sodipodi:absref="D:\GitHub\peppercarrot_ep23_translation\cn\..\gfx_Pepper-and-Carrot_by-David-Revoy_E23P04.png"
       xlink:href="../gfx_Pepper-and-Carrot_by-David-Revoy_E23P04.png"
       width="2481"
       height="3503"
       id="image10"
       x="0"
       y="0" />
  </g>
  <g
     inkscape:groupmode="layer"
     id="layer3"
     inkscape:label="speechbubbles">
    <path
       style="fill:#ffffff;fill-rule:evenodd;stroke:none;stroke-width:1px;stroke-linecap:butt;stroke-linejoin:miter;stroke-opacity:1"
       d="m 1639.3032,245.95914 c 10.4727,-24.54139 39.5627,-45.73622 48.8717,-51.31381 9.3089,-5.57758 155.1234,-15.25618 177.2321,-15.25618 22.1085,0 152.9703,9.52695 168.5164,23.0648 16.1348,14.05065 37.2744,51.31381 34.9472,68.04657 -2.3274,16.73276 -26.9579,72.50864 -51.3935,81.43278 -24.436,8.92415 -152.4333,15.61724 -176.8692,15.61724 -24.4356,0 -130.3244,-4.46206 -155.9239,-18.96379 -25.5994,-14.50173 -45.13,-48.00992 -45.13,-54.70303 0,-6.69309 -0.2508,-47.92458 -0.2508,-47.92458 z"
       id="path4246"
       inkscape:connector-curvature="0"
       sodipodi:nodetypes="cssssssssc" />
    <path
       style="fill:#ffffff;fill-rule:evenodd;stroke:none;stroke-width:1px;stroke-linecap:butt;stroke-linejoin:miter;stroke-opacity:1"
       d="m 1859.8611,183.53722 c 3.8122,-24.29312 8.2944,-49.93369 -6.7376,-69.58867 12.7474,9.99691 30.4412,33.00886 28.3517,60.17215 -3.2611,42.39294 -20.8306,11.79987 -20.8306,11.79987 z"
       id="path4248"
       inkscape:connector-curvature="0"
       sodipodi:nodetypes="ccscc" />
    <path
       style="fill:#ffffff;stroke:none"
       d="m 715.39201,1286.8472 c -2.34127,-13.3147 39.63745,-46.6464 244.40776,-44.1393 204.77023,2.5071 268.86023,17.1527 274.86083,40.8194 9.4928,37.4401 -98.2367,47.4454 -252.92643,50.2185 -159.46838,2.8589 -268.81709,-22.8412 -266.34216,-46.8986 z"
       id="path3280-8"
       inkscape:connector-curvature="0"
       sodipodi:nodetypes="csssc" />
    <path
       style="fill:#ffffff;fill-rule:evenodd;stroke:none;stroke-width:1px;stroke-linecap:butt;stroke-linejoin:miter;stroke-opacity:1"
       d="m 1146.4196,1630.4931 c 69.7815,-61.4635 62.8192,-106.4528 58.6322,-135.0404 -4.1868,-28.5877 -29.9863,-50.7875 -55.1076,-50.7875 -25.1214,0 -64.8772,32.9324 -92.7898,2.9153 -27.9126,-30.017 -17.4966,-77.849 7.6248,-109.2954 25.1213,-31.4464 -34.5409,-32.658 -45.706,14.5117 -11.1651,47.1696 -7.9982,96.1808 22.7056,117.6215 30.7039,21.4408 59.5716,15.6384 71.193,9.9814 13.2388,-6.4443 46.7261,-25.753 64.1517,-5.7094 19.1106,21.9817 37.682,85.763 -30.7039,155.8028 z"
       id="path4256"
       inkscape:connector-curvature="0"
       sodipodi:nodetypes="cssssssssc" />
    <path
       style="color:#000000;display:inline;overflow:visible;visibility:visible;fill:#ffffff;fill-opacity:1;fill-rule:nonzero;stroke:none;stroke-width:1px;marker:none;enable-background:accumulate"
       d="m 1860.7217,2005.4562 c -4.629,-30.2225 27.3877,-58.5006 67.8938,-64.8628 68.7957,-20.0604 147.0113,-14.0597 217.2254,-2.1591 33.7034,6.6827 68.7365,26.1388 86.8649,46.8589 21.1479,24.9791 -10.6215,49.9653 -46.3095,54.406 -68.5668,13.5918 -141.4142,12.8663 -211.9763,9.211 -32.4245,-3.9032 -69.9829,-1.9064 -96.7362,-17.1143 -10.8743,-6.4741 -18.5673,-16.2001 -16.9621,-26.3397 z"
       id="path3357"
       inkscape:connector-curvature="0"
       sodipodi:nodetypes="cccccccc" />
    <path
       style="fill:#ffffff;fill-rule:evenodd;stroke:none;stroke-width:1px;stroke-linecap:butt;stroke-linejoin:miter;stroke-opacity:1"
       d="m 1815.7758,2061.2815 c 64.8492,31.0148 134.3976,22.5562 155.0741,-25.3758 23.8742,-55.3449 26.3156,-31.9546 26.3156,-31.9546 0,0 20.7007,14.1323 -2.8196,43.2328 -18.7952,23.2544 -75.4849,87.5238 -178.5701,14.0976 z"
       id="path4281"
       inkscape:connector-curvature="0"
       sodipodi:nodetypes="cscsc" />
    <path
       style="color:#000000;display:inline;overflow:visible;visibility:visible;fill:#ffffff;fill-opacity:1;fill-rule:nonzero;stroke:none;stroke-width:1px;marker:none;enable-background:accumulate"
       d="m 126.01931,2102.7815 c 18.40285,-28.9632 62.81834,-46.1308 107.0214,-51.5578 49.38291,-6.4771 100.38034,-3.4046 149.51753,2.562 32.38241,4.7405 64.81648,12.7446 90.51105,27.2718 9.69936,8.7625 20.67249,19.2446 23.69328,29.7606 14.89275,24.9238 2.09864,49.2184 -29.28456,81.9706 -34.68269,19.3385 -81.54737,19.407 -124.08202,21.3833 -48.18343,3.9739 -98.31048,0.3736 -142.93947,-12.9622 -27.74051,-8.9198 -55.60907,-21.6807 -68.79498,-41.1651 -9.62751,-18.4272 -16.76998,-39.6466 -5.64223,-57.2632 z"
       id="path3365"
       inkscape:connector-curvature="0"
       sodipodi:nodetypes="cccccccccc" />
    <path
       style="fill:#ffffff;fill-rule:evenodd;stroke:none;stroke-width:1px;stroke-linecap:butt;stroke-linejoin:miter;stroke-opacity:1"
       d="m 463.97121,2140.9085 c 84.34167,16.1667 252.8523,-49.3553 272.73937,-44.3835 19.88707,4.9717 31.42746,46.6967 63.74394,23.0808 -39.77414,32.3165 -47.23179,-7.4577 -63.39003,-8.7006 -16.15824,-1.243 -197.62775,64.633 -269.71837,62.1471 -72.09063,-2.4859 -3.37491,-32.1438 -3.37491,-32.1438 z"
       id="path4314"
       inkscape:connector-curvature="0"
       sodipodi:nodetypes="cscssc" />
    <path
       style="fill:#ffffff;fill-rule:evenodd;stroke:none;stroke-width:1px;stroke-linecap:butt;stroke-linejoin:miter;stroke-opacity:1"
       d="m 1660.5299,2998.9956 c -36.0453,-51.2804 -41.0171,-112.0072 -26.1018,-137.6474 14.9153,-25.6402 82.0342,-75.5711 0,-143.0453 79.5483,56.6783 49.7177,94.4639 19.8871,147.0937 -29.8306,52.6299 54.6894,144.3948 54.6894,144.3948 z"
       id="path4316"
       inkscape:connector-curvature="0" />
    <path
       style="fill:#ffffff;stroke:none"
       d="m 1427.2777,3038.539 c -3.7783,-18.0951 -40.5253,-63.3942 229.4749,-58.8776 211.4416,3.5369 279.3713,6.0894 289.8351,61.6003 9.7033,51.4757 -175.0516,52.8192 -275.7781,53.7016 -144.0344,1.2619 -243.6203,-23.7294 -243.5319,-56.4243 z"
       id="path3280-8-9"
       inkscape:connector-curvature="0"
       sodipodi:nodetypes="csssc" />
  </g>
  <g
     inkscape:groupmode="layer"
     id="layer1"
     inkscape:label="txt">
    <text
       xml:space="preserve"
       style="font-style:normal;font-variant:normal;font-weight:normal;font-stretch:normal;line-height:0%;font-family:Lavi;-inkscape-font-specification:Lavi;text-align:center;letter-spacing:0px;word-spacing:0px;text-anchor:middle;fill:#000000;fill-opacity:1;stroke:none"
       x="1856.9244"
       y="238.83353"
       id="text4246"
       sodipodi:linespacing="0%"><tspan
         sodipodi:role="line"
         style="font-style:normal;font-variant:normal;font-weight:normal;font-stretch:normal;font-size:35.77793884px;line-height:1.25;font-family:'WenQuanYi Micro Hei';-inkscape-font-specification:'WenQuanYi Micro Hei'"
         x="1856.9244"
         y="238.83353"
         id="tspan4179">*即使周末和节假日</tspan><tspan
         sodipodi:role="line"
         style="font-style:normal;font-variant:normal;font-weight:normal;font-stretch:normal;font-size:35.77793884px;line-height:1.25;font-family:'WenQuanYi Micro Hei';-inkscape-font-specification:'WenQuanYi Micro Hei'"
         x="1856.9244"
         y="283.55594"
         id="tspan3373">也不停歇哦，亲！</tspan><tspan
         sodipodi:role="line"
         style="font-style:normal;font-variant:normal;font-weight:normal;font-stretch:normal;font-size:35.77793884px;line-height:1.25;font-family:'WenQuanYi Micro Hei';-inkscape-font-specification:'WenQuanYi Micro Hei'"
         x="1856.9244"
         y="328.27838"
         id="tspan3371">优惠有限，先到先得。</tspan></text>
    <text
       xml:space="preserve"
       style="font-style:normal;font-variant:normal;font-weight:normal;font-stretch:normal;line-height:0%;font-family:'WenQuanYi Micro Hei';-inkscape-font-specification:'WenQuanYi Micro Hei';text-align:center;letter-spacing:0px;word-spacing:0px;text-anchor:middle;fill:#000000;fill-opacity:1;stroke:none"
       x="998.00269"
       y="1304.3827"
       id="text4246-3"
       sodipodi:linespacing="0%"><tspan
         sodipodi:role="line"
         style="font-style:normal;font-variant:normal;font-weight:normal;font-stretch:normal;font-size:45px;line-height:1.25;font-family:'WenQuanYi Micro Hei';-inkscape-font-specification:'WenQuanYi Micro Hei'"
         x="998.00269"
         y="1304.3827"
         id="tspan4167">开始全球商业巡演！</tspan></text>
    <text
       xml:space="preserve"
       style="font-style:normal;font-variant:normal;font-weight:normal;font-stretch:normal;line-height:0%;font-family:'WenQuanYi Micro Hei';-inkscape-font-specification:'WenQuanYi Micro Hei';text-align:center;letter-spacing:0px;word-spacing:0px;text-anchor:middle;fill:#000000;fill-opacity:1;stroke:none"
       x="2058.3809"
       y="2012.6554"
       id="text4246-3-7"
       sodipodi:linespacing="0%"><tspan
         sodipodi:role="line"
         style="font-style:normal;font-variant:normal;font-weight:normal;font-stretch:normal;font-size:45px;line-height:1.25;font-family:'WenQuanYi Micro Hei';-inkscape-font-specification:'WenQuanYi Micro Hei'"
         x="2058.3809"
         y="2012.6554"
         id="tspan4191">提升国际知名度！</tspan></text>
    <text
       xml:space="preserve"
       style="font-style:normal;font-variant:normal;font-weight:normal;font-stretch:normal;line-height:0%;font-family:'WenQuanYi Micro Hei';-inkscape-font-specification:'WenQuanYi Micro Hei';text-align:center;letter-spacing:0px;word-spacing:0px;text-anchor:middle;fill:#000000;fill-opacity:1;stroke:none"
       x="317.84491"
       y="2108.1274"
       id="text4246-3-7-6"
       sodipodi:linespacing="0%"><tspan
         sodipodi:role="line"
         style="font-style:normal;font-variant:normal;font-weight:normal;font-stretch:normal;font-size:45px;line-height:1.25;font-family:'WenQuanYi Micro Hei';-inkscape-font-specification:'WenQuanYi Micro Hei'"
         x="317.84491"
         y="2108.1274"
         id="tspan4218">还包含</tspan><tspan
         sodipodi:role="line"
         style="font-style:normal;font-variant:normal;font-weight:normal;font-stretch:normal;font-size:45px;line-height:1.25;font-family:'WenQuanYi Micro Hei';-inkscape-font-specification:'WenQuanYi Micro Hei'"
         x="317.84491"
         y="2164.3774"
         id="tspan3385">全新的造型设计！</tspan></text>
    <text
       xml:space="preserve"
       style="font-style:normal;font-variant:normal;font-weight:normal;font-stretch:normal;line-height:0%;font-family:'WenQuanYi Micro Hei';-inkscape-font-specification:'WenQuanYi Micro Hei';text-align:center;letter-spacing:0px;word-spacing:0px;text-anchor:middle;fill:#000000;fill-opacity:1;stroke:none"
       x="1692.2446"
       y="3051.1169"
       id="text4246-3-7-6-1"
       sodipodi:linespacing="0%"><tspan
         sodipodi:role="line"
         style="font-style:normal;font-variant:normal;font-weight:normal;font-stretch:normal;font-size:45px;line-height:1.25;font-family:'WenQuanYi Micro Hei';-inkscape-font-specification:'WenQuanYi Micro Hei'"
         x="1692.2446"
         y="3051.1169"
         id="tspan4183">保证瞬间达到预期效果！</tspan></text>
  </g>
</svg>
