<?xml version="1.0" encoding="UTF-8" standalone="no"?>
<!-- Created with Inkscape (http://www.inkscape.org/) -->

<svg
   xmlns:dc="http://purl.org/dc/elements/1.1/"
   xmlns:cc="http://creativecommons.org/ns#"
   xmlns:rdf="http://www.w3.org/1999/02/22-rdf-syntax-ns#"
   xmlns:svg="http://www.w3.org/2000/svg"
   xmlns="http://www.w3.org/2000/svg"
   xmlns:xlink="http://www.w3.org/1999/xlink"
   xmlns:sodipodi="http://sodipodi.sourceforge.net/DTD/sodipodi-0.dtd"
   xmlns:inkscape="http://www.inkscape.org/namespaces/inkscape"
   id="svg2"
   version="1.1"
   inkscape:version="0.91 r13725"
   width="2481"
   height="3503"
   sodipodi:docname="Pepper-and-Carrot_by-David-Revoy_E23P05.svg">
  <metadata
     id="metadata8">
    <rdf:RDF>
      <cc:Work
         rdf:about="">
        <dc:format>image/svg+xml</dc:format>
        <dc:type
           rdf:resource="http://purl.org/dc/dcmitype/StillImage" />
        <dc:title />
      </cc:Work>
    </rdf:RDF>
  </metadata>
  <defs
     id="defs6" />
  <sodipodi:namedview
     pagecolor="#ffffff"
     bordercolor="#666666"
     borderopacity="1"
     objecttolerance="10"
     gridtolerance="10"
     guidetolerance="10"
     inkscape:pageopacity="0"
     inkscape:pageshadow="2"
     inkscape:window-width="1366"
     inkscape:window-height="715"
     id="namedview4"
     showgrid="false"
     inkscape:zoom="0.4665165"
     inkscape:cx="1143.8249"
     inkscape:cy="882.91245"
     inkscape:window-x="-8"
     inkscape:window-y="-8"
     inkscape:window-maximized="1"
     inkscape:current-layer="layer1"
     inkscape:document-rotation="0" />
  <g
     inkscape:groupmode="layer"
     id="layer2"
     inkscape:label="artwork"
     sodipodi:insensitive="true">
    <image
       sodipodi:absref="D:\GitHub\peppercarrot_ep23_translation\cn\..\gfx_Pepper-and-Carrot_by-David-Revoy_E23P05.png"
       xlink:href="..\gfx_Pepper-and-Carrot_by-David-Revoy_E23P05.png"
       width="2481"
       height="3503"
       id="image10"
       x="0"
       y="0" />
  </g>
  <g
     inkscape:groupmode="layer"
     id="layer3"
     inkscape:label="speechbubbles"
     style="display:inline">
    <path
       style="color:#000000;display:inline;overflow:visible;visibility:visible;fill:#ffffff;fill-opacity:1;fill-rule:nonzero;stroke:none;stroke-width:1px;marker:none;enable-background:accumulate"
       d="M 212.88572,374.41221 C 110.96021,365.37024 79.892206,329.45562 80.060207,265.9134 80.216894,206.65044 72.635432,94.831541 99.803229,85.315501 126.8113,75.85541 201.83212,72.408863 300.11868,72.889741 c 89.42449,0.437519 242.44097,-22.494862 298.06275,91.301529 27.13586,55.51718 15.03081,149.5692 -100.94603,192.39027 -112.58939,41.57035 -284.34968,17.83067 -284.34968,17.83067 z"
       id="path3970"
       inkscape:connector-curvature="0"
       sodipodi:nodetypes="csssssc" />
    <path
       style="fill:#ffffff;fill-rule:evenodd;stroke:none;stroke-width:1px;stroke-linecap:butt;stroke-linejoin:miter;stroke-opacity:1"
       d="M 599.21792,525.82095 C 484.89991,589.88304 333.06159,463.02228 324.3431,413.59379 c -8.7185,-49.42848 29.27876,-67.41517 29.27876,-67.41517 l 26.59028,22.09505 c 0,0 -15.9022,-8.60358 -7.84832,36.35392 8.05389,44.9575 112.77168,159.17272 226.8541,121.19336 z"
       id="path4367"
       inkscape:connector-curvature="0"
       sodipodi:nodetypes="csccsc" />
    <path
       style="fill:#ffffff;stroke:none"
       d="m 1208.5986,1203.4992 c -1.2582,-56.0833 46.9871,-73.1555 80.8835,-80.3154 33.897,-7.1597 146.1819,1.2545 138.6089,69.6866 -7.573,68.4323 -84.8314,75.5401 -126.9766,71.5999 -42.1453,-3.9401 -86.2699,-7.7217 -92.5158,-60.9711 z"
       id="path3938"
       inkscape:connector-curvature="0"
       sodipodi:nodetypes="csssc" />
    <path
       style="fill:#ffffff;fill-rule:evenodd;stroke:none;stroke-width:1px;stroke-linecap:butt;stroke-linejoin:miter;stroke-opacity:1"
       d="m 1314.87,1434.9041 c -83.8015,-37.1698 -58.8074,-129.7638 14.8804,-180.8499 73.6878,-51.086 31.0239,-47.0022 31.0239,-47.0022 0,0 -18.0226,-11.2383 -70.5145,47.9216 -52.492,59.16 -87.0061,161.2474 24.6102,179.9305 z"
       id="path4375"
       inkscape:connector-curvature="0"
       sodipodi:nodetypes="cscsc" />
    <path
       style="fill:#ffffff;fill-opacity:1;stroke:none"
       d="m 1700.0009,1228.4807 c 6.0859,-56.1536 52.7385,-79.1628 68.3188,-82.9442 43.535,-10.5662 504.1212,-21.0149 548.2867,18.5269 27.0118,24.1837 80.6979,129.2359 -26.2636,196.4195 -58.4141,36.6906 -469.0035,18.8044 -517.057,-6.3476 -50.1184,-26.2328 -83.1874,-61.3865 -73.2849,-125.6546 z"
       id="path3659"
       inkscape:connector-curvature="0"
       sodipodi:nodetypes="cssssc" />
    <path
       style="fill:#ffffff;fill-rule:evenodd;stroke:none;stroke-width:1px;stroke-linecap:butt;stroke-linejoin:miter;stroke-opacity:1"
       d="m 1756.031,1507.4201 c 24.2675,-5.1738 2.3375,-12.1848 -4.0584,-24.266 -6.3959,-12.0811 -8.0227,-26.9013 9.033,-30.4546 17.0557,-3.5532 50.4566,10.6599 50.4566,10.6599 0,0 -21.3197,-32.6902 -9.2386,-41.9287 12.0812,-9.2385 54.7206,6.3959 54.7206,6.3959 0,0 -16.3452,-45.482 19.8983,-63.2484 36.2435,-17.7664 81.7255,6.3959 55.4312,15.6344 -26.2943,9.2386 -84.5681,7.1066 -44.7713,77.4615 -62.5378,-29.8475 -60.4058,-23.4516 -64.6697,-19.1877 -4.264,4.264 9.2385,41.9287 14.2131,53.2992 -17.0558,-10.6598 -66.8017,-36.9541 -74.6189,-22.741 -7.8172,14.2132 12.0812,25.5837 11.3705,32.6902 -0.7107,7.1066 -17.7664,5.6853 -17.7664,5.6853 z"
       id="path4394"
       inkscape:connector-curvature="0"
       sodipodi:nodetypes="csscscsscscssc" />
    <path
       style="fill:#ffffff;fill-rule:evenodd;stroke:none;stroke-width:1px;stroke-linecap:butt;stroke-linejoin:miter;stroke-opacity:1"
       d="m 1867.1781,1643.2178 c 23.3995,-24.1105 231.1785,-40.8141 342.5866,-16.3173 45.7222,14.0969 104.5267,57.1251 61.1041,91.9212 -58.1242,21.3004 -128.5898,13.1124 -191.6347,22.862 -72.8007,4.2147 -138.1945,7.1028 -207.9993,-11.4889 -49.277,-21.295 -31.8233,-62.9337 -4.0567,-86.977 z"
       id="path4405"
       inkscape:connector-curvature="0"
       sodipodi:nodetypes="cccccc" />
    <path
       style="fill:#ffffff;fill-rule:evenodd;stroke:none;stroke-width:1px;stroke-linecap:butt;stroke-linejoin:miter;stroke-opacity:1"
       d="m 1750.9267,1594.1797 c 19.7367,-19.7367 46.0523,-32.8945 56.3906,-21.6163 10.3382,11.2781 2.8195,39.4733 2.8195,39.4733 0,0 42.2929,-21.6163 90.2249,34.7742 47.932,56.3906 17.857,52.6312 17.857,52.6312 0,0 -10.3383,-3.7594 -34.7742,-32.8945 -24.4359,-29.1351 -45.1124,-46.9921 -72.3679,-35.714 -9.3984,3.7594 -19.7367,-1.8797 -16.9171,-9.3984 12.2179,-30.075 15.9773,-64.8492 -43.2328,-27.2555 z"
       id="path4419"
       inkscape:connector-curvature="0" />
    <path
       style="fill:#ffffff;fill-rule:evenodd;stroke:none;stroke-width:1px;stroke-linecap:butt;stroke-linejoin:miter;stroke-opacity:1"
       d="m 2264.9378,1687.6945 c 74.1236,8.3549 97.9939,33.2459 124.3768,62.6624 18.7074,20.8584 26.3479,57.8315 -7.4562,90.1792 -30.5745,29.2573 -98.1204,27.7736 -144.8017,32.881 -70.3949,7.702 -174.1385,3.0351 -229.667,-1.9132 -52.0011,-4.6341 -105.5318,-9.1905 -125.633,-34.2555 -20.1014,-25.0648 -13.8198,-71.8527 -6.2817,-85.2206 7.5379,-13.368 32.6646,-52.6364 52.7659,-55.9784 20.1013,-3.3419 326.6462,-8.3549 326.6462,-8.3549 z"
       id="path4423"
       inkscape:connector-curvature="0"
       sodipodi:nodetypes="cssssssscc" />
    <path
       style="color:#000000;display:inline;overflow:visible;visibility:visible;fill:#ffffff;fill-opacity:1;fill-rule:nonzero;stroke:none;stroke-width:1px;marker:none;enable-background:accumulate"
       d="m 286.77586,2264.4402 c -6.33717,-33.0758 10.56191,-120.9334 140.4743,-113.698 129.91227,7.2352 151.03632,48.58 154.20485,60.9834 3.16865,12.4034 30.62976,82.6895 -70.76519,101.2947 -101.39507,18.6052 -192.228,-1.0337 -223.91396,-48.5801 z"
       id="path3525"
       inkscape:connector-curvature="0" />
    <path
       style="color:#000000;display:inline;overflow:visible;visibility:visible;fill:#ffffff;fill-opacity:1;fill-rule:nonzero;stroke:none;stroke-width:1px;marker:none;enable-background:accumulate"
       d="m 100.04507,2455.3997 c -4.77478,-61.1463 -45.503256,-149.5043 246.77552,-160.3352 231.99702,-8.597 515.70494,4.9918 493.26454,128.743 -22.63928,124.8482 -144.4044,117.8006 -256.77162,123.2331 -231.35337,11.185 -461.6412,-22.0388 -483.26844,-91.6409 z"
       id="path3525-0"
       inkscape:connector-curvature="0"
       sodipodi:nodetypes="csssc" />
    <path
       style="fill:#ffffff;fill-rule:evenodd;stroke:none;stroke-width:1px;stroke-linecap:butt;stroke-linejoin:miter;stroke-opacity:1"
       d="m 742.60914,2350.2751 c 102.97849,-126.0799 251.45982,-276.6361 847.08866,1.322 C 1049.11,2056.78 875.57765,2160.7347 719.24197,2320.9166 c -175.12871,179.4373 23.36717,29.3585 23.36717,29.3585 z"
       id="path4446"
       inkscape:connector-curvature="0"
       sodipodi:nodetypes="ccsc" />
  </g>
  <g
     inkscape:groupmode="layer"
     id="layer1"
     inkscape:label="txt">
    <text
       xml:space="preserve"
       style="font-style:normal;font-variant:normal;font-weight:normal;font-stretch:normal;line-height:0%;font-family:'WenQuanYi Micro Hei';-inkscape-font-specification:'WenQuanYi Micro Hei';text-align:center;letter-spacing:0px;word-spacing:0px;text-anchor:middle;fill:#000000;fill-opacity:1;stroke:none"
       x="327.50504"
       y="176.9312"
       id="text4246"
       sodipodi:linespacing="0%"><tspan
         sodipodi:role="line"
         style="font-style:normal;font-variant:normal;font-weight:normal;font-stretch:normal;font-size:45px;line-height:1.25;font-family:'WenQuanYi Micro Hei';-inkscape-font-specification:'WenQuanYi Micro Hei'"
         x="327.50504"
         y="176.9312"
         id="tspan873">只要在这份合同下面</tspan><tspan
         sodipodi:role="line"
         style="font-style:normal;font-variant:normal;font-weight:normal;font-stretch:normal;font-size:45px;line-height:1.25;font-family:'WenQuanYi Micro Hei';-inkscape-font-specification:'WenQuanYi Micro Hei'"
         x="327.50504"
         y="233.1812"
         id="tspan3388">写上一个小小的签名，</tspan><tspan
         sodipodi:role="line"
         style="font-style:normal;font-variant:normal;font-weight:normal;font-stretch:normal;font-size:45px;line-height:1.25;font-family:'WenQuanYi Micro Hei';-inkscape-font-specification:'WenQuanYi Micro Hei'"
         x="327.50504"
         y="289.43121"
         id="tspan3390">名誉的大门就会</tspan><tspan
         sodipodi:role="line"
         style="font-style:normal;font-variant:normal;font-weight:normal;font-stretch:normal;font-size:45px;line-height:1.25;font-family:'WenQuanYi Micro Hei';-inkscape-font-specification:'WenQuanYi Micro Hei'"
         x="327.50504"
         y="345.68121"
         id="tspan3392">对你敞开！</tspan></text>
    <text
       xml:space="preserve"
       style="font-style:normal;font-variant:normal;font-weight:normal;font-stretch:normal;line-height:0%;font-family:'WenQuanYi Micro Hei';-inkscape-font-specification:'WenQuanYi Micro Hei';text-align:center;letter-spacing:0px;word-spacing:0px;text-anchor:middle;fill:#000000;fill-opacity:1;stroke:none"
       x="1325.9771"
       y="1175.2607"
       id="text4246-3"
       sodipodi:linespacing="0%"><tspan
         sodipodi:role="line"
         style="font-style:normal;font-variant:normal;font-weight:normal;font-stretch:normal;font-size:45px;line-height:1.25;font-family:'WenQuanYi Micro Hei';-inkscape-font-specification:'WenQuanYi Micro Hei'"
         x="1325.9771"
         y="1175.2607"
         id="tspan4150-5">呃，</tspan><tspan
         sodipodi:role="line"
         style="font-style:normal;font-variant:normal;font-weight:normal;font-stretch:normal;font-size:45px;line-height:1.25;font-family:'WenQuanYi Micro Hei';-inkscape-font-specification:'WenQuanYi Micro Hei'"
         x="1325.9771"
         y="1231.5107"
         id="tspan4196">等一下。</tspan></text>
    <text
       xml:space="preserve"
       style="font-style:normal;font-variant:normal;font-weight:normal;font-stretch:normal;line-height:0%;font-family:'WenQuanYi Micro Hei';-inkscape-font-specification:'WenQuanYi Micro Hei';text-align:center;letter-spacing:0px;word-spacing:0px;text-anchor:middle;fill:#000000;fill-opacity:1;stroke:none"
       x="2066.0918"
       y="1696.2996"
       id="text4246-3-6"
       sodipodi:linespacing="0%"><tspan
         sodipodi:role="line"
         style="font-style:normal;font-variant:normal;font-weight:normal;font-stretch:normal;font-size:45px;line-height:1.25;font-family:'WenQuanYi Micro Hei';-inkscape-font-specification:'WenQuanYi Micro Hei'"
         x="2066.0918"
         y="1696.2996"
         id="tspan4263">是要来剧情反转嘛 ?!</tspan></text>
    <text
       xml:space="preserve"
       style="font-style:normal;font-variant:normal;font-weight:normal;font-stretch:normal;line-height:0%;font-family:'WenQuanYi Micro Hei';-inkscape-font-specification:'WenQuanYi Micro Hei';text-align:center;letter-spacing:0px;word-spacing:0px;text-anchor:middle;fill:#000000;fill-opacity:1;stroke:none"
       x="2032.4872"
       y="1213.4761"
       id="text4246-3-6-1"
       sodipodi:linespacing="0%"><tspan
         sodipodi:role="line"
         style="font-style:normal;font-variant:normal;font-weight:normal;font-stretch:normal;font-size:45px;line-height:1.25;font-family:'WenQuanYi Micro Hei';-inkscape-font-specification:'WenQuanYi Micro Hei'"
         x="2032.4872"
         y="1213.4761"
         id="tspan4223-0">就在我心情不佳的时候，</tspan><tspan
         sodipodi:role="line"
         style="font-style:normal;font-variant:normal;font-weight:normal;font-stretch:normal;font-size:45px;line-height:1.25;font-family:'WenQuanYi Micro Hei';-inkscape-font-specification:'WenQuanYi Micro Hei'"
         x="2032.4872"
         y="1269.7261"
         id="tspan3402">你突然从天而降，</tspan><tspan
         sodipodi:role="line"
         style="font-style:normal;font-variant:normal;font-weight:normal;font-stretch:normal;font-size:45px;line-height:1.25;font-family:'WenQuanYi Micro Hei';-inkscape-font-specification:'WenQuanYi Micro Hei'"
         x="2032.4872"
         y="1325.9761"
         id="tspan4225-9">要给我一个梦想成真的机会 ?!</tspan></text>
    <text
       xml:space="preserve"
       style="font-style:normal;font-variant:normal;font-weight:normal;font-stretch:normal;line-height:0%;font-family:'WenQuanYi Micro Hei';-inkscape-font-specification:'WenQuanYi Micro Hei';text-align:center;letter-spacing:0px;word-spacing:0px;text-anchor:middle;fill:#000000;fill-opacity:1;stroke:none"
       x="2126.0208"
       y="1770.1161"
       id="text4246-3-6-3"
       sodipodi:linespacing="0%"><tspan
         sodipodi:role="line"
         style="font-style:normal;font-variant:normal;font-weight:normal;font-stretch:normal;font-size:45px;line-height:1.25;font-family:'WenQuanYi Micro Hei';-inkscape-font-specification:'WenQuanYi Micro Hei'"
         x="2126.0208"
         y="1770.1161"
         id="tspan4295">这不太符合逻辑吧，</tspan><tspan
         sodipodi:role="line"
         style="font-style:normal;font-variant:normal;font-weight:normal;font-stretch:normal;font-size:45px;line-height:1.25;font-family:'WenQuanYi Micro Hei';-inkscape-font-specification:'WenQuanYi Micro Hei'"
         x="2126.0208"
         y="1826.3661"
         id="tspan3414">甚至是太不符合逻辑了 !</tspan></text>
    <text
       xml:space="preserve"
       style="font-style:normal;font-variant:normal;font-weight:normal;font-stretch:normal;line-height:0%;font-family:'WenQuanYi Micro Hei';-inkscape-font-specification:'WenQuanYi Micro Hei';text-align:center;letter-spacing:0px;word-spacing:0px;text-anchor:middle;fill:#000000;fill-opacity:1;stroke:none"
       x="452.49713"
       y="2219.4429"
       id="text4246-3-6-3-2"
       sodipodi:linespacing="0%"><tspan
         sodipodi:role="line"
         style="font-style:normal;font-variant:normal;font-weight:normal;font-stretch:normal;font-size:45px;line-height:1.25;font-family:'WenQuanYi Micro Hei';-inkscape-font-specification:'WenQuanYi Micro Hei'"
         x="452.49713"
         y="2219.4429"
         id="tspan4295-8">萝卜头，</tspan><tspan
         sodipodi:role="line"
         style="font-style:normal;font-variant:normal;font-weight:normal;font-stretch:normal;font-size:45px;line-height:1.25;font-family:'WenQuanYi Micro Hei';-inkscape-font-specification:'WenQuanYi Micro Hei'"
         x="452.49713"
         y="2275.6929"
         id="tspan4326">咱们走。</tspan></text>
    <text
       xml:space="preserve"
       style="font-style:normal;font-variant:normal;font-weight:normal;font-stretch:normal;line-height:0%;font-family:'WenQuanYi Micro Hei';-inkscape-font-specification:'WenQuanYi Micro Hei';text-align:center;letter-spacing:0px;word-spacing:0px;text-anchor:middle;fill:#000000;fill-opacity:1;stroke:none"
       x="463.76996"
       y="2373.7214"
       id="text4246-3-6-3-2-7"
       sodipodi:linespacing="0%"><tspan
         sodipodi:role="line"
         style="font-style:normal;font-variant:normal;font-weight:normal;font-stretch:normal;font-size:45px;line-height:1.25;font-family:'WenQuanYi Micro Hei';-inkscape-font-specification:'WenQuanYi Micro Hei'"
         x="463.76996"
         y="2373.7214"
         id="tspan4359">我以前可能会相信这种事情，</tspan><tspan
         sodipodi:role="line"
         style="font-style:normal;font-variant:normal;font-weight:normal;font-stretch:normal;font-size:45px;line-height:1.25;font-family:'WenQuanYi Micro Hei';-inkscape-font-specification:'WenQuanYi Micro Hei'"
         x="463.76996"
         y="2429.9714"
         id="tspan3432">但现在我们已经不会像以前</tspan><tspan
         sodipodi:role="line"
         style="font-style:normal;font-variant:normal;font-weight:normal;font-stretch:normal;font-size:45px;line-height:1.25;font-family:'WenQuanYi Micro Hei';-inkscape-font-specification:'WenQuanYi Micro Hei'"
         x="463.76996"
         y="2486.2214"
         id="tspan3434">那样傻得掉进类似的陷阱里了！</tspan></text>
  </g>
</svg>
