<?xml version="1.0" encoding="UTF-8" standalone="no"?>
<!-- Created with Inkscape (http://www.inkscape.org/) -->

<svg
   xmlns:dc="http://purl.org/dc/elements/1.1/"
   xmlns:cc="http://creativecommons.org/ns#"
   xmlns:rdf="http://www.w3.org/1999/02/22-rdf-syntax-ns#"
   xmlns:svg="http://www.w3.org/2000/svg"
   xmlns="http://www.w3.org/2000/svg"
   xmlns:xlink="http://www.w3.org/1999/xlink"
   xmlns:sodipodi="http://sodipodi.sourceforge.net/DTD/sodipodi-0.dtd"
   xmlns:inkscape="http://www.inkscape.org/namespaces/inkscape"
   id="svg2"
   version="1.1"
   inkscape:version="0.91 r13725"
   width="2481"
   height="3503"
   sodipodi:docname="Pepper-and-Carrot_by-David-Revoy_E23P02.svg">
  <metadata
     id="metadata8">
    <rdf:RDF>
      <cc:Work
         rdf:about="">
        <dc:format>image/svg+xml</dc:format>
        <dc:type
           rdf:resource="http://purl.org/dc/dcmitype/StillImage" />
        <dc:title />
      </cc:Work>
    </rdf:RDF>
  </metadata>
  <defs
     id="defs6" />
  <sodipodi:namedview
     pagecolor="#ffffff"
     bordercolor="#666666"
     borderopacity="1"
     objecttolerance="10"
     gridtolerance="10"
     guidetolerance="10"
     inkscape:pageopacity="0"
     inkscape:pageshadow="2"
     inkscape:window-width="1366"
     inkscape:window-height="715"
     id="namedview4"
     showgrid="false"
     inkscape:zoom="0.40000002"
     inkscape:cx="1163.7512"
     inkscape:cy="525.28378"
     inkscape:window-x="-8"
     inkscape:window-y="-8"
     inkscape:window-maximized="1"
     inkscape:current-layer="layer3"
     inkscape:document-rotation="0" />
  <g
     inkscape:groupmode="layer"
     id="layer2"
     inkscape:label="artwork"
     sodipodi:insensitive="true">
    <image
       sodipodi:absref="D:\GitHub\peppercarrot_ep23_translation\cn\..\gfx_Pepper-and-Carrot_by-David-Revoy_E23P02.png"
       xlink:href="..\gfx_Pepper-and-Carrot_by-David-Revoy_E23P02.png"
       width="2481"
       height="3503"
       id="image10"
       x="0"
       y="0" />
  </g>
  <g
     inkscape:groupmode="layer"
     id="layer3"
     inkscape:label="speechbubbles"
     style="opacity:1">
    <path
       style="color:#000000;display:inline;overflow:visible;visibility:visible;fill:#ffffff;fill-opacity:1;fill-rule:nonzero;stroke:none;stroke-width:1px;marker:none;enable-background:accumulate"
       d="m 951.5933,1472.8341 c 42.85201,-29.7947 130.4159,-48.9993 203.3705,7.2274 57.7743,44.5273 38.4694,106.6292 7.6017,125.3437 -30.8676,18.7146 -129.0974,20.5181 -174.2806,9.9471 -34.8811,-8.1608 -73.12038,-27.3971 -75.22816,-76.4946 -0.86027,-20.0385 -4.31545,-36.2289 38.53656,-66.0236 z"
       id="path4040"
       inkscape:connector-curvature="0"
       sodipodi:nodetypes="zssssz" />
    <path
       style="fill:#ffffff;fill-rule:evenodd;stroke:none;stroke-width:1px;stroke-linecap:butt;stroke-linejoin:miter;stroke-opacity:1"
       d="m 1054.4405,1765.324 c -12.3953,-22.6257 4.8341,-35.5794 4.6846,-49.2442 -0.1543,-14.1069 -33.2797,-25.9555 -34.0153,-39.0315 -0.7356,-13.0761 20.5032,-26.9572 19.032,-47.3885 -1.4712,-20.4314 -25.011,-24.5177 -22.8041,-0.8173 2.2069,23.7004 -15.6571,27.8387 -11.7699,46.5835 6.483,31.2614 30.8848,30.6379 38.523,39.431 5.057,5.8216 -4.6847,18.5941 -2.4778,32.4874 2.2069,13.8933 8.8275,17.9796 8.8275,17.9796 z"
       id="path4272"
       inkscape:connector-curvature="0"
       sodipodi:nodetypes="csssssssc" />
    <path
       style="fill:#ffffff;stroke:none"
       d="m 1615.0303,1552.0646 c 5.1541,-60.9877 48.5361,-74.3406 70.0322,-82.675 21.4961,-8.3348 112.8367,-19.761 172.9017,-18.6676 60.0651,1.0935 207.1775,4.5082 231.5594,10.8099 49.9033,12.8979 99.4847,41.5376 100.6,80.8247 1.1154,39.2869 -13.8094,69.5175 -49.1883,92.8696 -35.3791,23.3524 -163.7925,34.1594 -259.7148,34.7168 -84.4959,0.4909 -185.1394,-16.6979 -196.6279,-23.4515 -11.4884,-6.7536 -68.6298,-46.4172 -69.5623,-94.4269 z"
       id="path3278"
       inkscape:connector-curvature="0"
       sodipodi:nodetypes="ccssssssc" />
    <path
       style="color:#000000;display:inline;overflow:visible;visibility:visible;fill:#ffffff;fill-opacity:1;fill-rule:nonzero;stroke:none;stroke-width:1px;marker:none;enable-background:accumulate"
       d="m 2309.3519,1491.2431 c -3.3015,17.6285 -6.5251,36.0465 -16.5742,51.0265 -2.9438,4.1952 -6.2726,8.3203 -10.3977,11.2503 -4.952,2.0462 -10.5106,-0.1777 -14.1301,-3.9795 -5.5933,-5.1132 -9.4498,-12.8831 -16.8764,-15.4078 -5.4477,-1.7019 -10.2634,2.1026 -14.5741,4.918 -10.8499,7.4017 -20.7857,16.3852 -32.7316,21.9366 -13.0507,7.1639 -27.2917,13.7117 -42.4274,13.0803 -5.9858,-0.3542 -12.2078,-1.5951 -17.0927,-5.4909 -12.9618,-9.4069 -20.9954,-26.6382 -18.2647,-42.9738 2.6942,-10.2389 14.039,-17.6238 24.0122,-13.9292 5.2919,1.8685 8.551,7.1399 10.0291,12.4759 4.4744,9.2979 13.8589,15.3752 23.6608,16.4167 8.0767,0.9972 16.3468,-0.6515 23.6235,-4.2797 11.1725,-2.2031 18.6721,-11.736 27.1027,-18.7576 3.898,-3.1478 8.252,-6.2192 13.1972,-7.0722 7.3458,0.5316 12.2935,7.0789 15.8693,13.1143 3.8411,6.1272 7.6353,13.6796 14.9853,15.6694 4.9282,2.0936 8.0913,-3.4795 11.3841,-6.2587 9.4666,-10.3996 15.6617,-23.7734 18.8064,-37.6716 0.2044,-1.3481 0.3033,-2.7058 0.3983,-4.067 z"
       id="path4496"
       inkscape:connector-curvature="0" />
    <path
       style="color:#000000;display:inline;overflow:visible;visibility:visible;fill:#ffffff;fill-opacity:1;fill-rule:nonzero;stroke:none;stroke-width:1px;marker:none;enable-background:accumulate"
       d="m 156.62579,2780.019 c -8.70184,-28.5365 -5.43169,-80.7934 171.5435,-79.4398 175.07039,1.339 232.95952,2.5033 253.56555,57.492 -2.3814,36.493 0.79276,67.0148 -138.43705,83.0666 -139.22995,16.0518 -277.18911,-15.5784 -286.672,-61.1188 z"
       id="path3525"
       inkscape:connector-curvature="0"
       sodipodi:nodetypes="cscsc" />
    <path
       style="fill:#ffffff;fill-rule:evenodd;stroke:none;stroke-width:1px;stroke-linecap:butt;stroke-linejoin:miter;stroke-opacity:1"
       d="m 872.04353,2966.2911 c 89.27067,-20.5055 174.02067,-16.3396 220.67297,-8.4954 1.3037,10.0872 -8.397,18.1194 3.452,25.4861 7.4713,4.645 76.9779,24.5806 155.1633,-24.2725 -84.4953,31.4127 -112.5701,20.4407 -129.3028,13.35 0.2204,-20.1238 32.4581,-53.5398 -239.64118,-32.7681 -272.37322,20.7927 -10.34429,26.6999 -10.34429,26.6999 z"
       id="path4316"
       inkscape:connector-curvature="0"
       sodipodi:nodetypes="ccsccsc" />
    <path
       style="color:#000000;display:inline;overflow:visible;visibility:visible;opacity:1;fill:#ffffff;fill-opacity:1;fill-rule:nonzero;stroke:none;stroke-width:1px;marker:none;enable-background:accumulate"
       d="m 303.07597,2901.8869 c 7.57861,-52.2566 35.82624,-83.4275 51.67245,-94.4289 15.8462,-11.0015 199.1111,-23.8364 239.0711,-25.67 39.96,-1.8336 155.70626,-2.7503 206.00076,29.3372 50.29451,32.0874 68.89649,75.1764 69.58557,99.9295 0.68901,24.7532 -17.91313,90.7618 -112.99042,110.9312 -95.07723,20.1692 -190.5049,28.2745 -227.02006,24.6072 -36.51521,-3.667 -161.19471,-10.7597 -195.64292,-53.8485 -34.44838,-43.0889 -29.98751,-59.687 -30.67648,-90.8577 z"
       id="path5909"
       inkscape:connector-curvature="0"
       sodipodi:nodetypes="csssssssc" />
    <path
       style="opacity:1;fill:#ffffff;stroke:none"
       d="m 2016.9173,3265.6408 c -1.4692,-22.0913 24.8738,-77.3945 153.3735,-73.2348 128.4999,4.1598 168.7182,28.4594 172.4839,67.7265 5.9569,62.1195 -61.6467,78.7202 -158.7194,83.3212 -100.0714,4.7434 -168.6911,-37.8976 -167.138,-77.8129 z"
       id="path3280-8"
       inkscape:connector-curvature="0"
       sodipodi:nodetypes="csssc" />
    <path
       style="opacity:1;fill:#ffffff;fill-rule:evenodd;stroke:none;stroke-width:1px;stroke-linecap:butt;stroke-linejoin:miter;stroke-opacity:1"
       d="m 2037.6821,3068.1067 c 62.6875,-14.0507 132.7452,-5.414 131.8599,14.0506 -1.3219,29.0657 -58.7184,68.5728 -54.1912,71.7994 59.553,42.4434 62.2223,48.0386 58.9798,82.6248 -3.2425,34.5862 -26.5527,-14.9887 -37.3609,-31.201 -10.8082,-16.2123 -47.4083,-28.1111 -48.4891,-46.485 -1.0808,-18.3739 69.4777,-55.2769 65.1544,-75.8124 -4.3232,-20.5356 -115.9529,-14.9764 -115.9529,-14.9764 z"
       id="path4324"
       inkscape:connector-curvature="0"
       sodipodi:nodetypes="cssssssc" />
  </g>
  <g
     inkscape:groupmode="layer"
     id="layer1"
     inkscape:label="txt">
    <text
       xml:space="preserve"
       style="font-style:normal;font-variant:normal;font-weight:normal;font-stretch:normal;line-height:0%;font-family:'WenQuanYi Micro Hei';-inkscape-font-specification:'WenQuanYi Micro Hei';text-align:center;letter-spacing:0px;word-spacing:0px;text-anchor:middle;fill:#000000;fill-opacity:1;stroke:none"
       x="1050.5168"
       y="1521.3531"
       id="text4246"
       sodipodi:linespacing="0%"><tspan
         sodipodi:role="line"
         style="font-style:normal;font-variant:normal;font-weight:normal;font-stretch:normal;font-size:45px;line-height:1.25;font-family:'WenQuanYi Micro Hei';-inkscape-font-specification:'WenQuanYi Micro Hei'"
         x="1050.5168"
         y="1521.3531"
         id="tspan4252">谢谢</tspan><tspan
         sodipodi:role="line"
         style="font-style:normal;font-variant:normal;font-weight:normal;font-stretch:normal;font-size:45px;line-height:1.25;font-family:'WenQuanYi Micro Hei';-inkscape-font-specification:'WenQuanYi Micro Hei'"
         x="1050.5168"
         y="1577.6031"
         id="tspan4144">萝卜头…</tspan></text>
    <text
       xml:space="preserve"
       style="font-style:normal;font-variant:normal;font-weight:normal;font-stretch:normal;line-height:0%;font-family:'WenQuanYi Micro Hei';-inkscape-font-specification:'WenQuanYi Micro Hei';text-align:center;letter-spacing:0px;word-spacing:0px;text-anchor:middle;fill:#000000;fill-opacity:1;stroke:none"
       x="1907.8341"
       y="1523.7719"
       id="text4246-3"
       sodipodi:linespacing="0%"><tspan
         sodipodi:role="line"
         style="font-style:normal;font-variant:normal;font-weight:normal;font-stretch:normal;font-size:45px;line-height:1.25;font-family:'WenQuanYi Micro Hei';-inkscape-font-specification:'WenQuanYi Micro Hei'"
         x="1907.8341"
         y="1523.7719"
         id="tspan4177">你知道，我一直以来都</tspan><tspan
         sodipodi:role="line"
         style="font-style:normal;font-variant:normal;font-weight:normal;font-stretch:normal;font-size:45px;line-height:1.25;font-family:'WenQuanYi Micro Hei';-inkscape-font-specification:'WenQuanYi Micro Hei'"
         x="1907.8341"
         y="1580.0219"
         id="tspan3371">竭尽全力的要做一个</tspan><tspan
         sodipodi:role="line"
         style="font-style:normal;font-variant:normal;font-weight:normal;font-stretch:normal;font-size:45px;line-height:1.25;font-family:'WenQuanYi Micro Hei';-inkscape-font-specification:'WenQuanYi Micro Hei'"
         x="1907.8341"
         y="1636.2719"
         id="tspan3373">优秀的女巫…</tspan></text>
    <text
       xml:space="preserve"
       style="font-style:normal;font-variant:normal;font-weight:normal;font-stretch:normal;line-height:0%;font-family:'WenQuanYi Micro Hei';-inkscape-font-specification:'WenQuanYi Micro Hei';text-align:center;letter-spacing:0px;word-spacing:0px;text-anchor:middle;fill:#000000;fill-opacity:1;stroke:none"
       x="370.50287"
       y="2756.7161"
       id="text4246-3-5"
       sodipodi:linespacing="0%"><tspan
         sodipodi:role="line"
         style="font-style:normal;font-variant:normal;font-weight:normal;font-stretch:normal;font-size:45px;line-height:1.25;font-family:'WenQuanYi Micro Hei';-inkscape-font-specification:'WenQuanYi Micro Hei'"
         x="370.50287"
         y="2756.7161"
         id="tspan4181">…坚持原则，</tspan><tspan
         sodipodi:role="line"
         style="font-style:normal;font-variant:normal;font-weight:normal;font-stretch:normal;font-size:45px;line-height:1.25;font-family:'WenQuanYi Micro Hei';-inkscape-font-specification:'WenQuanYi Micro Hei'"
         x="370.50287"
         y="2812.9661"
         id="tspan4183">尊重传统…</tspan></text>
    <text
       xml:space="preserve"
       style="font-style:normal;font-variant:normal;font-weight:normal;font-stretch:normal;line-height:0%;font-family:'WenQuanYi Micro Hei';-inkscape-font-specification:'WenQuanYi Micro Hei';text-align:center;letter-spacing:0px;word-spacing:0px;text-anchor:middle;fill:#000000;fill-opacity:1;stroke:none"
       x="577.24036"
       y="2880.1072"
       id="text4246-3-5-2"
       sodipodi:linespacing="0%"><tspan
         sodipodi:role="line"
         style="font-style:normal;font-variant:normal;font-weight:normal;font-stretch:normal;font-size:45px;line-height:1.25;font-family:'WenQuanYi Micro Hei';-inkscape-font-specification:'WenQuanYi Micro Hei'"
         x="577.24036"
         y="2880.1072"
         id="tspan4198">…可是藏红花却用</tspan><tspan
         sodipodi:role="line"
         style="font-style:normal;font-variant:normal;font-weight:normal;font-stretch:normal;font-size:45px;line-height:1.25;font-family:'WenQuanYi Micro Hei';-inkscape-font-specification:'WenQuanYi Micro Hei'"
         x="577.24036"
         y="2936.3572"
         id="tspan3385">旁门左道而大获成功，</tspan><tspan
         sodipodi:role="line"
         style="font-style:normal;font-variant:normal;font-weight:normal;font-stretch:normal;font-size:45px;line-height:1.25;font-family:'WenQuanYi Micro Hei';-inkscape-font-specification:'WenQuanYi Micro Hei'"
         x="577.24036"
         y="2992.6072"
         id="tspan3387">这不公平…</tspan></text>
    <text
       xml:space="preserve"
       style="font-style:normal;font-variant:normal;font-weight:normal;font-stretch:normal;line-height:0%;font-family:'WenQuanYi Micro Hei';-inkscape-font-specification:'WenQuanYi Micro Hei';text-align:center;letter-spacing:0px;word-spacing:0px;text-anchor:middle;fill:#000000;fill-opacity:1;stroke:none"
       x="2182.7688"
       y="3254.8188"
       id="text4246-3-5-2-2"
       sodipodi:linespacing="0%"><tspan
         sodipodi:role="line"
         style="font-style:normal;font-variant:normal;font-weight:normal;font-stretch:normal;font-size:45px;line-height:1.25;font-family:'WenQuanYi Micro Hei';-inkscape-font-specification:'WenQuanYi Micro Hei'"
         x="2182.7688"
         y="3254.8188"
         id="tspan4233-9">…真的</tspan><tspan
         sodipodi:role="line"
         style="font-style:normal;font-variant:normal;font-weight:normal;font-stretch:normal;font-size:45px;line-height:1.25;font-family:'WenQuanYi Micro Hei';-inkscape-font-specification:'WenQuanYi Micro Hei'"
         x="2182.7688"
         y="3311.0688"
         id="tspan4264">不公平。</tspan></text>
  </g>
</svg>
