<?xml version="1.0" encoding="UTF-8" standalone="no"?>
<!-- Created with Inkscape (http://www.inkscape.org/) -->

<svg
   xmlns:dc="http://purl.org/dc/elements/1.1/"
   xmlns:cc="http://creativecommons.org/ns#"
   xmlns:rdf="http://www.w3.org/1999/02/22-rdf-syntax-ns#"
   xmlns:svg="http://www.w3.org/2000/svg"
   xmlns="http://www.w3.org/2000/svg"
   xmlns:xlink="http://www.w3.org/1999/xlink"
   xmlns:sodipodi="http://sodipodi.sourceforge.net/DTD/sodipodi-0.dtd"
   xmlns:inkscape="http://www.inkscape.org/namespaces/inkscape"
   id="svg2"
   version="1.1"
   inkscape:version="0.48.1 r9760"
   width="2481"
   height="3503"
   sodipodi:docname="Pepper-and-Carrot_by-David-Revoy_E23P04.svg">
  <metadata
     id="metadata8">
    <rdf:RDF>
      <cc:Work
         rdf:about="">
        <dc:format>image/svg+xml</dc:format>
        <dc:type
           rdf:resource="http://purl.org/dc/dcmitype/StillImage" />
        <dc:title />
      </cc:Work>
    </rdf:RDF>
  </metadata>
  <defs
     id="defs6" />
  <sodipodi:namedview
     pagecolor="#ffffff"
     bordercolor="#666666"
     borderopacity="1"
     objecttolerance="10"
     gridtolerance="10"
     guidetolerance="10"
     inkscape:pageopacity="0"
     inkscape:pageshadow="2"
     inkscape:window-width="1280"
     inkscape:window-height="752"
     id="namedview4"
     showgrid="false"
     inkscape:zoom="0.37712949"
     inkscape:cx="1615.9331"
     inkscape:cy="2943.0428"
     inkscape:window-x="0"
     inkscape:window-y="0"
     inkscape:window-maximized="0"
     inkscape:current-layer="layer1"
     inkscape:document-rotation="0" />
  <g
     inkscape:groupmode="layer"
     id="layer2"
     inkscape:label="artwork"
     sodipodi:insensitive="true">
    <image
       sodipodi:absref="/Users/su_huynh/Downloads/peppercarrot_ep23_translation/vi/../gfx_Pepper-and-Carrot_by-David-Revoy_E23P04.png"
       xlink:href="../gfx_Pepper-and-Carrot_by-David-Revoy_E23P04.png"
       y="0"
       x="0"
       id="image10"
       height="3503"
       width="2481" />
  </g>
  <g
     inkscape:groupmode="layer"
     id="layer3"
     inkscape:label="speechbubbles">
    <path
       style="fill:#ffffff;fill-rule:evenodd;stroke:none"
       d="m 1536.3232,254.77092 c 15.6852,-32.93482 59.254,-61.37855 73.1964,-68.86373 13.9421,-7.48519 232.3323,-20.47399 265.4453,-20.47399 33.1123,0 229.1073,12.78529 252.3912,30.95324 24.1655,18.85614 55.8268,68.86375 52.3413,91.31931 -3.4856,22.45557 -40.3755,97.30747 -76.9735,109.28377 -36.5982,11.97632 -228.303,20.95853 -264.9015,20.95853 -36.5978,0 -195.1903,-5.98814 -233.5312,-25.44965 -38.341,-19.46148 -67.5924,-64.42988 -67.5924,-73.41211 0,-8.98221 -0.3756,-64.31537 -0.3756,-64.31537 z"
       id="path4246"
       inkscape:connector-curvature="0"
       sodipodi:nodetypes="cssssssssc" />
    <path
       style="fill:#ffffff;fill-rule:evenodd;stroke:none;stroke-width:1px;stroke-linecap:butt;stroke-linejoin:miter;stroke-opacity:1"
       d="m 1857.2028,178.22067 c 3.8122,-24.29312 8.2944,-49.93369 -6.7376,-69.58867 12.7474,9.99691 30.4412,33.00886 28.3517,60.17215 -3.2611,42.39294 -20.8306,11.79987 -20.8306,11.79987 z"
       id="path4248"
       inkscape:connector-curvature="0"
       sodipodi:nodetypes="ccscc" />
    <path
       style="fill:#ffffff;stroke:none;stroke-width:1"
       d="m 727.61608,1248.2057 c -2.23803,-33.9259 37.88958,-118.8559 233.63021,-112.4677 195.74061,6.3882 257.00441,43.7054 262.74041,104.0086 9.0742,95.398 -93.9048,120.8916 -241.77325,127.9576 -152.43636,7.2845 -256.96316,-58.1999 -254.59737,-119.4985 z"
       id="path3280-8"
       inkscape:connector-curvature="0"
       sodipodi:nodetypes="csssc" />
    <path
       style="fill:#ffffff;fill-rule:evenodd;stroke:none;stroke-width:1px;stroke-linecap:butt;stroke-linejoin:miter;stroke-opacity:1"
       d="m 1135.2615,1614.0034 c 62.4372,-68.9117 50.4662,-112.8344 43.0951,-140.7709 -7.3709,-27.9366 -35.5004,-47.0985 -60.4628,-44.2772 -24.9624,2.8213 -60.7682,40.0103 -91.8753,13.3179 -31.10718,-26.6923 -26.12898,-75.3915 -4.6982,-109.4603 21.4307,-34.0687 -37.99012,-28.5721 -43.78706,19.5531 -5.79694,48.1251 2.85426,96.4705 35.77176,114.3273 32.9176,17.8569 60.951,8.8491 71.8636,1.9227 12.4313,-7.8903 43.5382,-30.8378 63.1046,-12.878 21.4584,19.6964 47.0755,80.9884 -13.0117,158.2654 z"
       id="path4256"
       inkscape:connector-curvature="0"
       sodipodi:nodetypes="cssssssssc" />
    <path
       style="color:#000000;fill:#ffffff;fill-opacity:1;fill-rule:nonzero;stroke:none;stroke-width:1px;marker:none;visibility:visible;display:inline;overflow:visible;enable-background:accumulate"
       d="m 1911.2752,1986.4373 c -3.116,-42.7914 18.4363,-82.8297 45.7034,-91.8378 46.3106,-28.4031 98.9623,-19.9069 146.2276,-3.0571 22.6877,9.462 46.2707,37.0094 58.474,66.3466 14.2359,35.3673 -7.15,70.7447 -31.1738,77.0323 -46.1564,19.2443 -95.1943,18.217 -142.694,13.0416 -21.8269,-5.5265 -47.1097,-2.6993 -65.1189,-24.2317 -7.3202,-9.1666 -12.4988,-22.9374 -11.4183,-37.2939 z"
       id="path3357"
       inkscape:connector-curvature="0"
       sodipodi:nodetypes="cccccccc" />
    <path
       style="fill:#ffffff;fill-rule:evenodd;stroke:none;stroke-width:1px;stroke-linecap:butt;stroke-linejoin:miter;stroke-opacity:1"
       d="m 1815.7758,2061.2815 c 64.8492,31.0148 134.3976,22.5562 155.0741,-25.3758 23.8742,-55.3449 26.3156,-31.9546 26.3156,-31.9546 0,0 20.7007,14.1323 -2.8196,43.2328 -18.7952,23.2544 -75.4849,87.5238 -178.5701,14.0976 z"
       id="path4281"
       inkscape:connector-curvature="0"
       sodipodi:nodetypes="cscsc" />
    <path
       style="color:#000000;display:inline;overflow:visible;visibility:visible;fill:#ffffff;fill-opacity:1;fill-rule:nonzero;stroke:none;stroke-width:1px;marker:none;enable-background:accumulate"
       d="m 140.73919,2104.6301 c 17.4749,-38.9356 59.65078,-62.0143 101.62493,-69.3099 46.89281,-8.7072 95.31874,-4.5768 141.97822,3.4442 30.74955,6.3727 61.54816,17.1327 85.9471,36.6618 9.21028,11.7795 19.6301,25.8707 22.49857,40.0075 14.14179,33.5054 1.99281,66.1649 -27.80791,110.1942 -32.93384,25.997 -77.43541,26.089 -117.82528,28.7458 -45.75382,5.3421 -93.35325,0.5022 -135.73186,-17.4252 -26.34171,-11.9911 -52.80502,-29.1457 -65.32604,-55.3388 -9.14205,-24.772 -15.92437,-53.2974 -5.35773,-76.9796 z"
       id="path3365"
       inkscape:connector-curvature="0"
       sodipodi:nodetypes="cccccccccc" />
    <path
       style="fill:#ffffff;fill-rule:evenodd;stroke:none;stroke-width:1px;stroke-linecap:butt;stroke-linejoin:miter;stroke-opacity:1"
       d="m 463.97121,2140.9085 c 84.34167,16.1667 252.8523,-49.3553 272.73937,-44.3835 19.88707,4.9717 31.42746,46.6967 63.74394,23.0808 -39.77414,32.3165 -47.23179,-7.4577 -63.39003,-8.7006 -16.15824,-1.243 -197.62775,64.633 -269.71837,62.1471 -72.09063,-2.4859 -3.37491,-32.1438 -3.37491,-32.1438 z"
       id="path4314"
       inkscape:connector-curvature="0"
       sodipodi:nodetypes="cscssc" />
    <path
       style="fill:#ffffff;fill-rule:evenodd;stroke:none;stroke-width:1px;stroke-linecap:butt;stroke-linejoin:miter;stroke-opacity:1"
       d="m 1660.5299,2998.9956 c -36.0453,-51.2804 -41.0171,-112.0072 -26.1018,-137.6474 14.9153,-25.6402 82.0342,-75.5711 0,-143.0453 79.5483,56.6783 49.7177,94.4639 19.8871,147.0937 -29.8306,52.6299 54.6894,144.3948 54.6894,144.3948 z"
       id="path4316"
       inkscape:connector-curvature="0" />
    <path
       style="fill:#ffffff;stroke:none"
       d="m 1482.4222,3034.5775 c -1.9683,-16.8309 -29.1406,-58.9656 190.6807,-54.7645 172.1458,3.2899 227.3639,5.664 232.4834,57.2969 4.7474,47.8799 -145.9437,49.1295 -228.1082,49.9502 -117.4915,1.1737 -197.1366,-22.0717 -195.0559,-52.4826 z"
       id="path3280-8-9"
       inkscape:connector-curvature="0"
       sodipodi:nodetypes="csssc" />
  </g>
  <g
     inkscape:groupmode="layer"
     id="layer1"
     inkscape:label="txt">
    <text
       xml:space="preserve"
       style="font-style:normal;font-variant:normal;font-weight:500;font-stretch:normal;text-align:center;line-height:0%;letter-spacing:0px;word-spacing:0px;text-anchor:middle;fill:#000000;fill-opacity:1;stroke:none;font-family:'Rounded M+ 1c';-inkscape-font-specification:'Rounded M+ 1c Medium'"
       x="1856.9244"
       y="238.83353"
       id="text4246"
       sodipodi:linespacing="0%"><tspan
         sodipodi:role="line"
         style="font-size:35.77793884px;font-style:normal;font-variant:normal;font-weight:500;font-stretch:normal;line-height:1.25;font-family:'Rounded M+ 1c';-inkscape-font-specification:'Rounded M+ 1c Medium'"
         x="1856.9244"
         y="238.83353"
         id="tspan12206">*<tspan
   style="font-style:italic;-inkscape-font-specification:'Rounded M+ 1c Italic'"
   id="tspan12247">Trừ ngày thứ bảy và chủ</tspan></tspan><tspan
         sodipodi:role="line"
         style="font-size:35.77793884px;font-style:italic;font-variant:normal;font-weight:500;font-stretch:normal;line-height:1.25;font-family:'Rounded M+ 1c';-inkscape-font-specification:'Rounded M+ 1c Italic'"
         x="1856.9244"
         y="283.55594"
         id="tspan472">nhật và ngày lễ quốc gia. Không cho</tspan><tspan
         sodipodi:role="line"
         style="font-size:35.77793884px;font-style:italic;font-variant:normal;font-weight:500;font-stretch:normal;line-height:1.25;font-family:'Rounded M+ 1c';-inkscape-font-specification:'Rounded M+ 1c Italic'"
         x="1856.9244"
         y="328.27838"
         id="tspan12235">phép kết hợp với khuyến mãi khác.</tspan><tspan
         sodipodi:role="line"
         style="font-size:35.77793884px;font-style:italic;font-variant:normal;font-weight:500;font-stretch:normal;line-height:1.25;font-family:'Rounded M+ 1c';-inkscape-font-specification:'Rounded M+ 1c Italic'"
         x="1856.9244"
         y="373.00079"
         id="tspan474">Có thể bị tạm thời hết hàng.</tspan></text>
    <text
       xml:space="preserve"
       style="font-style:normal;font-variant:normal;font-weight:500;font-stretch:normal;text-align:center;line-height:0%;letter-spacing:0px;word-spacing:0px;text-anchor:middle;fill:#000000;fill-opacity:1;stroke:none;font-family:'Rounded M+ 1c';-inkscape-font-specification:'Rounded M+ 1c Medium'"
       x="976.5672"
       y="1212.2102"
       id="text4246-3"
       sodipodi:linespacing="0%"><tspan
         sodipodi:role="line"
         style="font-size:45px;font-style:normal;font-variant:normal;font-weight:500;font-stretch:normal;line-height:1.25;font-family:'Rounded M+ 1c';-inkscape-font-specification:'Rounded M+ 1c Medium'"
         x="976.5672"
         y="1212.2102"
         id="tspan46">Cuộc vận động</tspan><tspan
         sodipodi:role="line"
         style="font-size:45px;font-style:normal;font-variant:normal;font-weight:500;font-stretch:normal;line-height:1.25;font-family:'Rounded M+ 1c';-inkscape-font-specification:'Rounded M+ 1c Medium'"
         x="976.5672"
         y="1268.4602"
         id="tspan12258">tiếp thị toàn địa cầu</tspan><tspan
         sodipodi:role="line"
         style="font-size:45px;font-style:normal;font-variant:normal;font-weight:500;font-stretch:normal;line-height:1.25;font-family:'Rounded M+ 1c';-inkscape-font-specification:'Rounded M+ 1c Medium'"
         x="976.5672"
         y="1324.7102"
         id="tspan12256">ngay lâp tức!</tspan></text>
    <text
       xml:space="preserve"
       style="font-style:normal;font-variant:normal;font-weight:500;font-stretch:normal;text-align:center;line-height:0%;letter-spacing:0px;word-spacing:0px;text-anchor:middle;fill:#000000;fill-opacity:1;stroke:none;font-family:'Rounded M+ 1c';-inkscape-font-specification:'Rounded M+ 1c Medium'"
       x="2037.5197"
       y="1956.0619"
       id="text4246-3-7"
       sodipodi:linespacing="0%"><tspan
         sodipodi:role="line"
         style="font-size:45px;line-height:1.25000000000000000;-inkscape-font-specification:'Rounded M+ 1c Medium';font-family:'Rounded M+ 1c';font-weight:500;font-style:normal;font-stretch:normal;font-variant:normal"
         x="2037.5197"
         y="1956.0619"
         id="tspan63">Danh dự</tspan><tspan
         sodipodi:role="line"
         style="font-size:45px;line-height:1.25000000000000000;-inkscape-font-specification:'Rounded M+ 1c Medium';font-family:'Rounded M+ 1c';font-weight:500;font-style:normal;font-stretch:normal;font-variant:normal"
         x="2037.5197"
         y="2013.9905"
         id="tspan12220">quốc tế!</tspan></text>
    <text
       xml:space="preserve"
       style="font-style:normal;font-variant:normal;font-weight:500;font-stretch:normal;text-align:center;line-height:0%;letter-spacing:0px;word-spacing:0px;text-anchor:middle;fill:#000000;fill-opacity:1;stroke:none;font-family:'Rounded M+ 1c';-inkscape-font-specification:'Rounded M+ 1c Medium'"
       x="317.84491"
       y="2108.1274"
       id="text4246-3-7-6"
       sodipodi:linespacing="0%"><tspan
         sodipodi:role="line"
         style="font-size:45px;line-height:1.25000000000000000;-inkscape-font-specification:'Rounded M+ 1c Medium';font-family:'Rounded M+ 1c';font-weight:500;font-style:normal;font-stretch:normal;font-variant:normal"
         x="317.84491"
         y="2108.1274"
         id="tspan55">Trợ cấp ngừời</tspan><tspan
         sodipodi:role="line"
         style="font-size:45px;line-height:1.25000000000000000;-inkscape-font-specification:'Rounded M+ 1c Medium';font-family:'Rounded M+ 1c';font-weight:500;font-style:normal;font-stretch:normal;font-variant:normal"
         x="317.84491"
         y="2166.0559"
         id="tspan12227">uốn, xoăn, và</tspan><tspan
         sodipodi:role="line"
         style="font-size:45px;line-height:1.25000000000000000;-inkscape-font-specification:'Rounded M+ 1c Medium';font-family:'Rounded M+ 1c';font-weight:500;font-style:normal;font-stretch:normal;font-variant:normal"
         x="317.84491"
         y="2223.9846"
         id="tspan12229">nhuộm tóc!</tspan></text>
    <text
       xml:space="preserve"
       style="font-style:normal;font-variant:normal;font-weight:500;font-stretch:normal;text-align:center;line-height:0%;letter-spacing:0px;word-spacing:0px;text-anchor:middle;fill:#000000;fill-opacity:1;stroke:none;font-family:'Rounded M+ 1c';-inkscape-font-specification:'Rounded M+ 1c Medium'"
       x="1692.2446"
       y="3051.1169"
       id="text4246-3-7-6-1"
       sodipodi:linespacing="0%"><tspan
         sodipodi:role="line"
         style="font-size:45px;line-height:1.25000000000000000;-inkscape-font-specification:'Rounded M+ 1c Medium';font-family:'Rounded M+ 1c';font-weight:500;font-style:normal;font-stretch:normal;font-variant:normal"
         x="1699.4077"
         y="3051.1169"
         id="tspan59">Bảo hạn kết qủa! </tspan></text>
  </g>
</svg>
