<?xml version="1.0" encoding="UTF-8" standalone="no"?>
<!-- Created with Inkscape (http://www.inkscape.org/) -->

<svg
   xmlns:dc="http://purl.org/dc/elements/1.1/"
   xmlns:cc="http://creativecommons.org/ns#"
   xmlns:rdf="http://www.w3.org/1999/02/22-rdf-syntax-ns#"
   xmlns:svg="http://www.w3.org/2000/svg"
   xmlns="http://www.w3.org/2000/svg"
   xmlns:xlink="http://www.w3.org/1999/xlink"
   xmlns:sodipodi="http://sodipodi.sourceforge.net/DTD/sodipodi-0.dtd"
   xmlns:inkscape="http://www.inkscape.org/namespaces/inkscape"
   id="svg2"
   version="1.1"
   inkscape:version="0.92.1 r"
   width="2481"
   height="3503"
   sodipodi:docname="Pepper-and-Carrot_by-David-Revoy_E23P05.svg">
  <metadata
     id="metadata8">
    <rdf:RDF>
      <cc:Work
         rdf:about="">
        <dc:format>image/svg+xml</dc:format>
        <dc:type
           rdf:resource="http://purl.org/dc/dcmitype/StillImage" />
        <dc:title />
      </cc:Work>
    </rdf:RDF>
  </metadata>
  <defs
     id="defs6" />
  <sodipodi:namedview
     pagecolor="#ffffff"
     bordercolor="#666666"
     borderopacity="1"
     objecttolerance="10"
     gridtolerance="10"
     guidetolerance="10"
     inkscape:pageopacity="0"
     inkscape:pageshadow="2"
     inkscape:window-width="1920"
     inkscape:window-height="1048"
     id="namedview4"
     showgrid="false"
     inkscape:zoom="0.37194736"
     inkscape:cx="1418.7088"
     inkscape:cy="1031.1114"
     inkscape:window-x="0"
     inkscape:window-y="32"
     inkscape:window-maximized="0"
     inkscape:current-layer="layer1"
     inkscape:document-rotation="0"
     inkscape:snap-global="false"
     showguides="false" />
  <g
     inkscape:groupmode="layer"
     id="layer2"
     inkscape:label="artwork"
     sodipodi:insensitive="true">
    <image
       sodipodi:absref="/home/brightone/documents/peppercarrot/peppercarrot_ep23_translation/uk/../gfx_Pepper-and-Carrot_by-David-Revoy_E23P05.png"
       xlink:href="../gfx_Pepper-and-Carrot_by-David-Revoy_E23P05.png"
       width="2481"
       height="3503"
       id="image10"
       x="0"
       y="0" />
  </g>
  <g
     inkscape:groupmode="layer"
     id="layer3"
     inkscape:label="speechbubbles"
     style="display:inline">
    <path
       style="color:#000000;display:inline;overflow:visible;visibility:visible;fill:#ffffff;fill-opacity:1;fill-rule:nonzero;stroke:none;stroke-width:0.98662281px;marker:none;enable-background:accumulate"
       d="M 215.5234,456.70556 C 111.58682,445.20835 79.905819,399.54153 80.077134,318.74517 80.236913,243.39004 72.505863,101.20804 100.2097,89.108026 127.75067,77.079159 204.25171,72.696743 304.47754,73.308196 395.66645,73.864519 565.00291,42.629923 621.72216,187.32639 649.39343,257.91862 641.48314,381.65974 523.21798,436.10837 408.40711,488.96666 215.5234,456.70556 215.5234,456.70556 Z"
       id="path3970"
       inkscape:connector-curvature="0"
       sodipodi:nodetypes="csssssc" />
    <path
       style="fill:#ffffff;fill-rule:evenodd;stroke:none;stroke-width:1px;stroke-linecap:butt;stroke-linejoin:miter;stroke-opacity:1"
       d="M 599.21792,525.82095 C 484.89991,589.88304 333.06159,463.02228 324.3431,413.59379 c -8.7185,-49.42848 29.27876,-67.41517 29.27876,-67.41517 l 26.59028,22.09505 c 0,0 -15.9022,-8.60358 -7.84832,36.35392 8.05389,44.9575 112.77168,159.17272 226.8541,121.19336 z"
       id="path4367"
       inkscape:connector-curvature="0"
       sodipodi:nodetypes="csccsc" />
    <path
       style="fill:#ffffff;stroke:none;stroke-width:0.9597075"
       d="m 1179.4323,1209.1773 c -1.7082,-43.1301 63.7985,-56.2592 109.8227,-61.7654 46.0247,-5.5061 198.4836,0.9647 188.2012,53.5915 -10.2823,52.6269 -115.1829,58.093 -172.4073,55.0629 -57.2239,-3.0301 -117.1358,-5.9383 -125.6166,-46.889 z"
       id="path3938"
       inkscape:connector-curvature="0"
       sodipodi:nodetypes="csssc" />
    <path
       style="fill:#ffffff;fill-rule:evenodd;stroke:none;stroke-width:1px;stroke-linecap:butt;stroke-linejoin:miter;stroke-opacity:1"
       d="m 1319.9169,1430.5563 c -79.6639,-37.1698 -55.9039,-129.7638 14.1457,-180.8499 70.0496,-51.086 29.4921,-47.0022 29.4921,-47.0022 0,0 -17.1327,-11.2383 -67.0329,47.9216 -49.9003,59.16 -82.7104,161.2474 23.3951,179.9305 z"
       id="path4375"
       inkscape:connector-curvature="0"
       sodipodi:nodetypes="cscsc" />
    <path
       style="fill:#ffffff;fill-opacity:1;stroke:none;stroke-width:1.04743791"
       d="m 1600.8057,1174.4208 c 7.3041,-62.5083 61.1128,-95.5989 79.8117,-99.8083 52.2495,-11.7619 605.0288,-23.393 658.0346,20.6234 32.4186,26.9206 96.8508,143.8606 -31.5207,218.6471 -70.1065,40.8425 -543.2439,25.4189 -600.916,-2.5793 -60.1503,-29.2014 -117.2941,-65.3422 -105.4096,-136.8829 z"
       id="path3659"
       inkscape:connector-curvature="0"
       sodipodi:nodetypes="cssssc" />
    <path
       style="fill:#ffffff;fill-rule:evenodd;stroke:none;stroke-width:1px;stroke-linecap:butt;stroke-linejoin:miter;stroke-opacity:1"
       d="m 1752.031,1470.1378 c 24.2675,-5.1738 2.3375,-12.1848 -4.0584,-24.266 -6.3959,-12.0811 -8.0227,-26.9013 9.033,-30.4546 17.0557,-3.5532 50.4566,10.6599 50.4566,10.6599 0,0 -21.3197,-32.6902 -9.2386,-41.9287 12.0812,-9.2385 54.7206,6.3959 54.7206,6.3959 0,0 -16.3452,-45.482 19.8983,-63.2484 36.2435,-17.7664 81.7255,6.3959 55.4312,15.6344 -26.2943,9.2386 -84.5681,7.1066 -44.7713,77.4615 -62.5378,-29.8475 -60.4058,-23.4516 -64.6697,-19.1877 -4.264,4.264 9.2385,41.9287 14.2131,53.2992 -17.0558,-10.6598 -66.8017,-36.9541 -74.6189,-22.741 -7.8172,14.2132 12.0812,25.5837 11.3705,32.6902 -0.7107,7.1066 -17.7664,5.6853 -17.7664,5.6853 z"
       id="path4394"
       inkscape:connector-curvature="0"
       sodipodi:nodetypes="csscscsscscssc" />
    <path
       style="fill:#ffffff;fill-rule:evenodd;stroke:none;stroke-width:1.10110486px;stroke-linecap:butt;stroke-linejoin:miter;stroke-opacity:1"
       d="m 1798.9952,1649.6506 c 29.6031,-33.3447 292.4681,-56.4457 433.4127,-22.5667 57.8441,19.496 132.2388,79.0038 77.304,127.1266 -73.534,29.4583 -162.6812,18.1343 -242.4406,31.618 -92.1016,5.8289 -174.8326,9.823 -263.1438,-15.8891 -62.3415,-29.4508 -40.2602,-87.037 -5.1323,-120.2888 z"
       id="path4405"
       inkscape:connector-curvature="0"
       sodipodi:nodetypes="cccccc" />
    <path
       style="fill:#ffffff;fill-rule:evenodd;stroke:none;stroke-width:1px;stroke-linecap:butt;stroke-linejoin:miter;stroke-opacity:1"
       d="m 1750.9267,1594.1797 c 19.7367,-19.7367 46.0523,-32.8945 56.3906,-21.6163 10.3382,11.2781 2.8195,39.4733 2.8195,39.4733 0,0 42.2929,-21.6163 90.2249,34.7742 47.932,56.3906 17.857,52.6312 17.857,52.6312 0,0 -10.3383,-3.7594 -34.7742,-32.8945 -24.4359,-29.1351 -45.1124,-46.9921 -72.3679,-35.714 -9.3984,3.7594 -19.7367,-1.8797 -16.9171,-9.3984 12.2179,-30.075 15.9773,-64.8492 -43.2328,-27.2555 z"
       id="path4419"
       inkscape:connector-curvature="0" />
    <path
       style="fill:#ffffff;fill-rule:evenodd;stroke:none;stroke-width:1px;stroke-linecap:butt;stroke-linejoin:miter;stroke-opacity:1"
       d="m 2238.1959,1753.6006 c 58.6675,10.8082 77.5603,43.0076 98.442,81.0615 14.8065,26.983 20.8538,74.8123 -5.9016,116.6581 -24.199,37.8479 -77.6603,35.9285 -114.6076,42.5356 -55.7163,9.9635 -137.8273,3.9263 -181.777,-2.475 -41.1579,-5.9947 -83.5263,-11.889 -99.4361,-44.3136 -15.9098,-32.4245 -10.9381,-92.9504 -4.9718,-110.2435 5.9661,-17.2931 25.8534,-68.0916 41.7632,-72.4149 15.9098,-4.3233 258.5341,-10.8082 258.5341,-10.8082 z"
       id="path4423"
       inkscape:connector-curvature="0"
       sodipodi:nodetypes="cssssssscc" />
    <path
       style="color:#000000;display:inline;overflow:visible;visibility:visible;fill:#ffffff;fill-opacity:1;fill-rule:nonzero;stroke:none;stroke-width:1px;marker:none;enable-background:accumulate"
       d="m 288.9194,2251.5789 c -6.33717,-33.0758 10.56191,-120.9334 140.4743,-113.698 129.91227,7.2352 151.03632,48.58 154.20485,60.9834 3.16865,12.4034 30.62976,82.6895 -70.76519,101.2947 -101.39507,18.6052 -192.228,-1.0337 -223.91396,-48.5801 z"
       id="path3525"
       inkscape:connector-curvature="0" />
    <path
       style="color:#000000;display:inline;overflow:visible;visibility:visible;fill:#ffffff;fill-opacity:1;fill-rule:nonzero;stroke:none;stroke-width:0.92886829px;marker:none;enable-background:accumulate"
       d="m 152.97062,2516.5591 c -3.99452,-93.7005 -40.81413,-233.6483 196.45745,-237.5364 194.60482,-3.1888 424.82378,-33.4667 424.31543,208.712 -0.34978,166.6409 -178.76413,166.0809 -273.09636,169.2552 -201.43909,6.7785 -344.57093,-45.1982 -347.67652,-140.4308 z"
       id="path3525-0"
       inkscape:connector-curvature="0"
       sodipodi:nodetypes="csssc" />
    <path
       style="fill:#ffffff;fill-rule:evenodd;stroke:none;stroke-width:1px;stroke-linecap:butt;stroke-linejoin:miter;stroke-opacity:1"
       d="m 742.60914,2350.2751 c 102.97849,-126.0799 251.45982,-276.6361 847.08866,1.322 C 1049.11,2056.78 875.57765,2160.7347 719.24197,2320.9166 c -175.12871,179.4373 23.36717,29.3585 23.36717,29.3585 z"
       id="path4446"
       inkscape:connector-curvature="0"
       sodipodi:nodetypes="ccsc" />
  </g>
  <g
     inkscape:groupmode="layer"
     id="layer1"
     inkscape:label="txt">
    <text
       xml:space="preserve"
       style="font-style:normal;font-variant:normal;font-weight:normal;font-stretch:normal;line-height:0%;font-family:Neucha;-inkscape-font-specification:Neucha;text-align:center;letter-spacing:0px;word-spacing:0px;text-anchor:middle;fill:#000000;fill-opacity:1;stroke:none"
       x="326.21478"
       y="163.6683"
       id="text4246"><tspan
         sodipodi:role="line"
         style="font-size:45px;line-height:1.25"
         x="326.21478"
         y="163.6683"
         id="tspan4205">Всього один</tspan><tspan
         sodipodi:role="line"
         style="font-size:45px;line-height:1.25"
         x="326.21478"
         y="219.9183"
         id="tspan52">манюсінький підпис</tspan><tspan
         sodipodi:role="line"
         style="font-size:45px;line-height:1.25"
         x="326.21478"
         y="276.1683"
         id="tspan75">отут внизу, і</tspan><tspan
         sodipodi:role="line"
         style="font-size:45px;line-height:1.25"
         x="326.21478"
         y="332.4183"
         id="tspan79">перед тобою відкриються</tspan><tspan
         sodipodi:role="line"
         style="font-size:45px;line-height:1.25"
         x="326.21478"
         y="388.6683"
         id="tspan6123">двері до слави!</tspan></text>
    <text
       xml:space="preserve"
       style="font-style:normal;font-variant:normal;font-weight:normal;font-stretch:normal;line-height:0%;font-family:Neucha;-inkscape-font-specification:Neucha;text-align:center;letter-spacing:0px;word-spacing:0px;text-anchor:middle;fill:#000000;fill-opacity:1;stroke:none"
       x="1329.9771"
       y="1215.2607"
       id="text4246-3"><tspan
         sodipodi:role="line"
         style="font-size:45px;line-height:1.25"
         x="1329.9771"
         y="1215.2607"
         id="tspan78">Зачекай-но.</tspan></text>
    <text
       xml:space="preserve"
       style="font-style:normal;font-variant:normal;font-weight:normal;font-stretch:normal;line-height:0%;font-family:Neucha;-inkscape-font-specification:Neucha;text-align:center;letter-spacing:0px;word-spacing:0px;text-anchor:middle;fill:#000000;fill-opacity:1;stroke:none"
       x="2049.8047"
       y="1660.8641"
       id="text4246-3-6"><tspan
         sodipodi:role="line"
         style="font-size:45px;line-height:1.25"
         x="2055.6494"
         y="1660.8641"
         id="tspan4225">Що це за </tspan><tspan
         sodipodi:role="line"
         style="font-size:45px;line-height:1.25"
         x="2049.8047"
         y="1717.1141"
         id="tspan107">божественне втручання</tspan><tspan
         sodipodi:role="line"
         style="font-size:45px;line-height:1.25"
         x="2049.8047"
         y="1773.3641"
         id="tspan4263">таке?!</tspan></text>
    <text
       xml:space="preserve"
       style="font-style:normal;font-variant:normal;font-weight:normal;font-stretch:normal;line-height:0%;font-family:Neucha;-inkscape-font-specification:Neucha;text-align:center;letter-spacing:0px;word-spacing:0px;text-anchor:middle;fill:#000000;fill-opacity:1;stroke:none"
       x="1995.9131"
       y="1134.9019"
       id="text4246-3-6-1"><tspan
         sodipodi:role="line"
         style="font-size:45px;line-height:1.25"
         x="1995.9131"
         y="1134.9019"
         id="tspan88">Прямо коли справи йдуть гірше</tspan><tspan
         sodipodi:role="line"
         style="font-size:45px;line-height:1.25"
         x="1995.9131"
         y="1191.1519"
         id="tspan62">нікуди, ти падаєш звідкись</tspan><tspan
         sodipodi:role="line"
         style="font-size:45px;line-height:1.25"
         x="1995.9131"
         y="1247.4019"
         id="tspan99">з небес з чудесним рішенням</tspan><tspan
         sodipodi:role="line"
         style="font-size:45px;line-height:1.25"
         x="1995.9131"
         y="1303.6519"
         id="tspan101">всіх моїх проблем?!</tspan></text>
    <text
       xml:space="preserve"
       style="font-style:normal;font-variant:normal;font-weight:normal;font-stretch:normal;line-height:0%;font-family:Neucha;-inkscape-font-specification:Neucha;text-align:center;letter-spacing:0px;word-spacing:0px;text-anchor:middle;fill:#000000;fill-opacity:1;stroke:none"
       x="2136.7385"
       y="1841.4176"
       id="text4246-3-6-3"><tspan
         sodipodi:role="line"
         style="font-size:45px;line-height:1.25"
         x="2136.7385"
         y="1841.4176"
         id="tspan106">Все це виглядає</tspan><tspan
         sodipodi:role="line"
         style="font-style:normal;font-size:45px;line-height:1.25"
         x="2136.7385"
         y="1897.6676"
         id="tspan116">підозріло,</tspan><tspan
         sodipodi:role="line"
         style="font-size:45px;line-height:1.25"
         x="2136.7385"
         y="1953.9176"
         id="tspan6127"><tspan
   style="font-style:italic"
   id="tspan6131">дуже</tspan> підозріло!</tspan></text>
    <text
       xml:space="preserve"
       style="font-style:normal;font-variant:normal;font-weight:normal;font-stretch:normal;line-height:0%;font-family:Neucha;-inkscape-font-specification:Neucha;text-align:center;letter-spacing:0px;word-spacing:0px;text-anchor:middle;fill:#000000;fill-opacity:1;stroke:none"
       x="439.63583"
       y="2202.2944"
       id="text4246-3-6-3-2"><tspan
         sodipodi:role="line"
         style="font-size:45px;line-height:1.25"
         x="439.63583"
         y="2202.2944"
         id="tspan4326">Ходімо,</tspan><tspan
         sodipodi:role="line"
         style="font-size:45px;line-height:1.25"
         x="439.63583"
         y="2258.5444"
         id="tspan120">Морквик.</tspan></text>
    <text
       xml:space="preserve"
       style="font-style:normal;font-variant:normal;font-weight:normal;font-stretch:normal;line-height:0%;font-family:Neucha;-inkscape-font-specification:Neucha;text-align:center;letter-spacing:0px;word-spacing:0px;text-anchor:middle;fill:#000000;fill-opacity:1;stroke:none"
       x="463.76996"
       y="2359.7214"
       id="text4246-3-6-3-2-7"><tspan
         sodipodi:role="line"
         style="font-size:45px;line-height:1.25"
         x="463.76996"
         y="2359.7214"
         id="tspan138">Раніше б ми, можливо,</tspan><tspan
         sodipodi:role="line"
         style="font-size:45px;line-height:1.25"
         x="463.76996"
         y="2415.9714"
         id="tspan68">на це і повелись,</tspan><tspan
         sodipodi:role="line"
         style="font-size:45px;line-height:1.25"
         x="463.76996"
         y="2472.2214"
         id="tspan6135">але ми з тобою вже</tspan><tspan
         sodipodi:role="line"
         style="font-size:45px;line-height:1.25"
         x="463.76996"
         y="2528.4714"
         id="tspan6141">не настільки дурні,</tspan><tspan
         sodipodi:role="line"
         style="font-size:45px;line-height:1.25"
         x="463.76996"
         y="2584.7214"
         id="tspan72">щоб влізти в таку аферу!</tspan></text>
  </g>
</svg>
