<?xml version="1.0" encoding="UTF-8" standalone="no"?>
<!-- Created with Inkscape (http://www.inkscape.org/) -->

<svg
   xmlns:dc="http://purl.org/dc/elements/1.1/"
   xmlns:cc="http://creativecommons.org/ns#"
   xmlns:rdf="http://www.w3.org/1999/02/22-rdf-syntax-ns#"
   xmlns:svg="http://www.w3.org/2000/svg"
   xmlns="http://www.w3.org/2000/svg"
   xmlns:xlink="http://www.w3.org/1999/xlink"
   xmlns:sodipodi="http://sodipodi.sourceforge.net/DTD/sodipodi-0.dtd"
   xmlns:inkscape="http://www.inkscape.org/namespaces/inkscape"
   id="svg2"
   version="1.1"
   inkscape:version="0.92.1 r"
   width="2481"
   height="3503"
   sodipodi:docname="Pepper-and-Carrot_by-David-Revoy_E23P02.svg">
  <metadata
     id="metadata8">
    <rdf:RDF>
      <cc:Work
         rdf:about="">
        <dc:format>image/svg+xml</dc:format>
        <dc:type
           rdf:resource="http://purl.org/dc/dcmitype/StillImage" />
        <dc:title />
      </cc:Work>
    </rdf:RDF>
  </metadata>
  <defs
     id="defs6" />
  <sodipodi:namedview
     pagecolor="#ffffff"
     bordercolor="#666666"
     borderopacity="1"
     objecttolerance="10"
     gridtolerance="10"
     guidetolerance="10"
     inkscape:pageopacity="0"
     inkscape:pageshadow="2"
     inkscape:window-width="1920"
     inkscape:window-height="1048"
     id="namedview4"
     showgrid="false"
     inkscape:zoom="0.28284273"
     inkscape:cx="1325.009"
     inkscape:cy="837.68008"
     inkscape:window-x="0"
     inkscape:window-y="32"
     inkscape:window-maximized="0"
     inkscape:current-layer="layer1"
     inkscape:document-rotation="0" />
  <g
     inkscape:groupmode="layer"
     id="layer2"
     inkscape:label="artwork"
     sodipodi:insensitive="true">
    <image
       sodipodi:absref="/home/brightone/documents/peppercarrot/peppercarrot_ep23_translation/uk/../gfx_Pepper-and-Carrot_by-David-Revoy_E23P02.png"
       xlink:href="../gfx_Pepper-and-Carrot_by-David-Revoy_E23P02.png"
       y="0"
       x="0"
       id="image10"
       height="3503"
       width="2481" />
  </g>
  <g
     inkscape:groupmode="layer"
     id="layer3"
     inkscape:label="speechbubbles"
     style="opacity:1">
    <path
       style="color:#000000;display:inline;overflow:visible;visibility:visible;fill:#ffffff;fill-opacity:1;fill-rule:nonzero;stroke:none;stroke-width:1px;marker:none;enable-background:accumulate"
       d="m 951.5933,1473.6441 c 42.85201,-30.6327 130.4159,-50.3775 203.3705,7.4307 57.7743,45.7796 38.4694,109.6282 7.6017,128.8691 -30.8676,19.2409 -129.0974,21.0952 -174.2806,10.2268 -34.8811,-8.3903 -73.12038,-28.1676 -75.22816,-78.646 -0.86027,-20.6022 -4.31545,-37.2479 38.53656,-67.8806 z"
       id="path4040"
       inkscape:connector-curvature="0"
       sodipodi:nodetypes="zssssz" />
    <path
       style="fill:#ffffff;fill-rule:evenodd;stroke:none;stroke-width:1px;stroke-linecap:butt;stroke-linejoin:miter;stroke-opacity:1"
       d="m 1054.4405,1765.324 c -12.3953,-22.6257 4.8341,-35.5794 4.6846,-49.2442 -0.1543,-14.1069 -33.2797,-25.9555 -34.0153,-39.0315 -0.7356,-13.0761 20.5032,-26.9572 19.032,-47.3885 -1.4712,-20.4314 -25.011,-24.5177 -22.8041,-0.8173 2.2069,23.7004 -15.6571,27.8387 -11.7699,46.5835 6.483,31.2614 30.8848,30.6379 38.523,39.431 5.057,5.8216 -4.6847,18.5941 -2.4778,32.4874 2.2069,13.8933 8.8275,17.9796 8.8275,17.9796 z"
       id="path4272"
       inkscape:connector-curvature="0"
       sodipodi:nodetypes="csssssssc" />
    <path
       style="fill:#ffffff;stroke:none;stroke-width:1.01316714"
       d="m 1615.0303,1558.729 c 5.2175,-71.009 49.1328,-86.5561 70.8932,-96.2601 21.7604,-9.7042 114.2239,-23.008 175.0274,-21.7349 60.8036,1.2732 209.7246,5.249 234.4063,12.5861 50.5168,15.0173 100.7077,48.363 101.8368,94.1057 1.1291,45.7424 -13.9792,80.9404 -49.7931,108.1297 -35.814,27.1896 -165.8062,39.7724 -262.9078,40.4213 -85.5347,0.5716 -187.4155,-19.4416 -199.0453,-27.3049 -11.6296,-7.8634 -69.4735,-54.0444 -70.4175,-109.9429 z"
       id="path3278"
       inkscape:connector-curvature="0"
       sodipodi:nodetypes="ccssssssc" />
    <path
       style="color:#000000;display:inline;overflow:visible;visibility:visible;fill:#ffffff;fill-opacity:1;fill-rule:nonzero;stroke:none;stroke-width:1px;marker:none;enable-background:accumulate"
       d="m 2309.3519,1491.2431 c -3.3015,17.6285 -6.5251,36.0465 -16.5742,51.0265 -2.9438,4.1952 -6.2726,8.3203 -10.3977,11.2503 -4.952,2.0462 -10.5106,-0.1777 -14.1301,-3.9795 -5.5933,-5.1132 -9.4498,-12.8831 -16.8764,-15.4078 -5.4477,-1.7019 -10.2634,2.1026 -14.5741,4.918 -10.8499,7.4017 -20.7857,16.3852 -32.7316,21.9366 -13.0507,7.1639 -27.2917,13.7117 -42.4274,13.0803 -5.9858,-0.3542 -12.2078,-1.5951 -17.0927,-5.4909 -12.9618,-9.4069 -20.9954,-26.6382 -18.2647,-42.9738 2.6942,-10.2389 14.039,-17.6238 24.0122,-13.9292 5.2919,1.8685 8.551,7.1399 10.0291,12.4759 4.4744,9.2979 13.8589,15.3752 23.6608,16.4167 8.0767,0.9972 16.3468,-0.6515 23.6235,-4.2797 11.1725,-2.2031 18.6721,-11.736 27.1027,-18.7576 3.898,-3.1478 8.252,-6.2192 13.1972,-7.0722 7.3458,0.5316 12.2935,7.0789 15.8693,13.1143 3.8411,6.1272 7.6353,13.6796 14.9853,15.6694 4.9282,2.0936 8.0913,-3.4795 11.3841,-6.2587 9.4666,-10.3996 15.6617,-23.7734 18.8064,-37.6716 0.2044,-1.3481 0.3033,-2.7058 0.3983,-4.067 z"
       id="path4496"
       inkscape:connector-curvature="0" />
    <path
       style="color:#000000;display:inline;overflow:visible;visibility:visible;fill:#ffffff;fill-opacity:1;fill-rule:nonzero;stroke:none;stroke-width:1.08588171px;marker:none;enable-background:accumulate"
       d="m 121.63683,2820.0213 c -10.26069,-47.7495 3.72709,-146.229 214.07172,-135.7836 210.34447,10.4452 251.23397,30.4344 265.2802,80.4768 14.04641,42.4807 22.84552,130.716 -141.32578,157.5752 -164.17147,26.8591 -326.8445,-26.067 -338.02614,-102.2684 z"
       id="path3525"
       inkscape:connector-curvature="0"
       sodipodi:nodetypes="cscsc" />
    <path
       style="fill:#ffffff;fill-rule:evenodd;stroke:none;stroke-width:1px;stroke-linecap:butt;stroke-linejoin:miter;stroke-opacity:1"
       d="m 1032.8846,3001.2911 c 64.3595,-20.5055 125.4599,-16.3396 159.0938,-8.4954 0.9399,10.0872 -6.0538,18.1194 2.4887,25.4861 5.3864,4.645 55.4971,24.5806 111.8647,-24.2725 -60.9167,31.4127 -81.1572,20.4407 -93.2206,13.35 0.1589,-20.1238 23.4006,-53.5398 -172.7689,-32.7681 -196.36699,20.7927 -7.4577,26.6999 -7.4577,26.6999 z"
       id="path4316"
       inkscape:connector-curvature="0"
       sodipodi:nodetypes="ccsccsc" />
    <path
       style="color:#000000;display:inline;overflow:visible;visibility:visible;opacity:1;fill:#ffffff;fill-opacity:1;fill-rule:nonzero;stroke:none;stroke-width:1px;marker:none;enable-background:accumulate"
       d="m 328.07597,2978.0209 c 9.35167,-52.7471 44.20798,-84.2104 63.76148,-95.3151 19.55351,-11.1047 245.69415,-24.06 295.003,-25.9109 49.30885,-1.8507 192.13453,-2.7761 254.19568,29.6125 62.06117,32.3886 85.01517,75.8819 85.86547,100.8673 0.8502,24.9855 -22.104,91.6136 -139.42511,111.9722 -117.32103,20.3586 -235.07449,28.5399 -280.13254,24.8382 -45.05813,-3.7014 -198.90703,-10.8607 -241.41459,-54.3539 -42.50775,-43.4933 -37.00323,-60.2471 -37.85339,-91.7103 z"
       id="path5909"
       inkscape:connector-curvature="0"
       sodipodi:nodetypes="csssssssc" />
    <path
       style="opacity:1;fill:#ffffff;stroke:none;stroke-width:1.09261096"
       d="m 1958.8848,3273.2764 c -1.8385,-25.5906 31.1282,-89.6537 191.938,-84.8351 160.8101,4.8186 211.1409,32.9672 215.8535,78.4544 7.4546,71.9593 -77.1472,91.1893 -198.6281,96.5193 -125.2336,5.4947 -211.107,-43.9006 -209.1634,-90.1386 z"
       id="path3280-8"
       inkscape:connector-curvature="0"
       sodipodi:nodetypes="csssc" />
    <path
       style="opacity:1;fill:#ffffff;fill-rule:evenodd;stroke:none;stroke-width:1px;stroke-linecap:butt;stroke-linejoin:miter;stroke-opacity:1"
       d="m 2035.1821,3063.1067 c 62.6875,-14.0507 132.7452,-5.414 131.8599,14.0506 -1.3219,29.0657 -58.7184,68.5728 -54.1912,71.7994 59.553,42.4434 62.2223,48.0386 58.9798,82.6248 -3.2425,34.5862 -26.5527,-14.9887 -37.3609,-31.201 -10.8082,-16.2123 -47.4083,-28.1111 -48.4891,-46.485 -1.0808,-18.3739 69.4777,-55.2769 65.1544,-75.8124 -4.3232,-20.5356 -115.9529,-14.9764 -115.9529,-14.9764 z"
       id="path4324"
       inkscape:connector-curvature="0"
       sodipodi:nodetypes="cssssssc" />
  </g>
  <g
     inkscape:groupmode="layer"
     id="layer1"
     inkscape:label="txt">
    <text
       xml:space="preserve"
       style="font-style:normal;font-variant:normal;font-weight:normal;font-stretch:normal;line-height:0%;font-family:Neucha;-inkscape-font-specification:Neucha;text-align:center;letter-spacing:0px;word-spacing:0px;text-anchor:middle;fill:#000000;fill-opacity:1;stroke:none"
       x="1050.5168"
       y="1521.3531"
       id="text4246"><tspan
         sodipodi:role="line"
         style="font-size:45px;line-height:1.25"
         x="1050.5168"
         y="1521.3531"
         id="tspan4252">Дякую,</tspan><tspan
         sodipodi:role="line"
         style="font-size:45px;line-height:1.25"
         x="1050.5168"
         y="1577.6031"
         id="tspan4144">Морквик…</tspan></text>
    <text
       xml:space="preserve"
       style="font-style:normal;font-variant:normal;font-weight:normal;font-stretch:normal;line-height:0%;font-family:Neucha;-inkscape-font-specification:Neucha;text-align:center;letter-spacing:0px;word-spacing:0px;text-anchor:middle;fill:#000000;fill-opacity:1;stroke:none"
       x="1905.8341"
       y="1511.7719"
       id="text4246-3"><tspan
         sodipodi:role="line"
         style="font-size:45px;line-height:1.25"
         x="1905.8341"
         y="1511.7719"
         id="tspan4177">Знаєш, я кожен день</tspan><tspan
         sodipodi:role="line"
         style="font-size:45px;line-height:1.25"
         x="1905.8341"
         y="1568.0219"
         id="tspan52">працюю над тим, щоб</tspan><tspan
         sodipodi:role="line"
         style="font-size:45px;line-height:1.25"
         x="1905.8341"
         y="1624.2719"
         id="tspan56">стати гідною відьмою...</tspan></text>
    <text
       xml:space="preserve"
       style="font-style:normal;font-variant:normal;font-weight:normal;font-stretch:normal;line-height:0%;font-family:Neucha;-inkscape-font-specification:Neucha;text-align:center;letter-spacing:0px;word-spacing:0px;text-anchor:middle;fill:#000000;fill-opacity:1;stroke:none"
       x="358.00287"
       y="2761.7161"
       id="text4246-3-5"><tspan
         sodipodi:role="line"
         style="font-size:45px;line-height:1.25"
         x="358.00287"
         y="2761.7161"
         id="tspan69">...роблю все</tspan><tspan
         sodipodi:role="line"
         style="font-size:45px;line-height:1.25"
         x="358.00287"
         y="2817.9661"
         id="tspan5050">згідно з традиціями,</tspan><tspan
         sodipodi:role="line"
         style="font-size:45px;line-height:1.25"
         x="358.00287"
         y="2874.2161"
         id="tspan440">правилами…</tspan></text>
    <text
       xml:space="preserve"
       style="font-style:normal;font-variant:normal;font-weight:normal;font-stretch:normal;line-height:0%;font-family:Neucha;-inkscape-font-specification:Neucha;text-align:center;letter-spacing:0px;word-spacing:0px;text-anchor:middle;fill:#000000;fill-opacity:1;stroke:none"
       x="674.74036"
       y="2950.1072"
       id="text4246-3-5-2"><tspan
         sodipodi:role="line"
         style="font-size:45px;line-height:1.25"
         x="674.74036"
         y="2950.1072"
         id="tspan451">...це несправедливо, що</tspan><tspan
         sodipodi:role="line"
         style="font-size:45px;line-height:1.25"
         x="674.74036"
         y="3006.3572"
         id="tspan449">Шафран стала такою відомою</tspan><tspan
         sodipodi:role="line"
         style="font-size:45px;line-height:1.25"
         x="674.74036"
         y="3062.6072"
         id="tspan5054">завдяки такій тактиці.</tspan></text>
    <text
       xml:space="preserve"
       style="font-style:normal;font-variant:normal;font-weight:normal;font-stretch:normal;line-height:0%;font-family:Neucha;-inkscape-font-specification:Neucha;text-align:center;letter-spacing:0px;word-spacing:0px;text-anchor:middle;fill:#000000;fill-opacity:1;stroke:none"
       x="2168.7688"
       y="3254.8188"
       id="text4246-3-5-2-2"><tspan
         sodipodi:role="line"
         style="font-size:45px;line-height:1.25"
         x="2168.7688"
         y="3254.8188"
         id="tspan81">Зовсім</tspan><tspan
         sodipodi:role="line"
         style="font-size:45px;line-height:1.25"
         x="2168.7688"
         y="3311.0688"
         id="tspan5062">несправедливо.</tspan></text>
  </g>
</svg>
