<?xml version="1.0" encoding="UTF-8" standalone="no"?>
<!-- Created with Inkscape (http://www.inkscape.org/) -->

<svg
   xmlns:dc="http://purl.org/dc/elements/1.1/"
   xmlns:cc="http://creativecommons.org/ns#"
   xmlns:rdf="http://www.w3.org/1999/02/22-rdf-syntax-ns#"
   xmlns:svg="http://www.w3.org/2000/svg"
   xmlns="http://www.w3.org/2000/svg"
   xmlns:xlink="http://www.w3.org/1999/xlink"
   xmlns:sodipodi="http://sodipodi.sourceforge.net/DTD/sodipodi-0.dtd"
   xmlns:inkscape="http://www.inkscape.org/namespaces/inkscape"
   id="svg2"
   version="1.1"
   inkscape:version="0.92.1 r"
   width="2481"
   height="3503"
   sodipodi:docname="Pepper-and-Carrot_by-David-Revoy_E23P04.svg">
  <metadata
     id="metadata8">
    <rdf:RDF>
      <cc:Work
         rdf:about="">
        <dc:format>image/svg+xml</dc:format>
        <dc:type
           rdf:resource="http://purl.org/dc/dcmitype/StillImage" />
        <dc:title />
      </cc:Work>
    </rdf:RDF>
  </metadata>
  <defs
     id="defs6" />
  <sodipodi:namedview
     pagecolor="#ffffff"
     bordercolor="#666666"
     borderopacity="1"
     objecttolerance="10"
     gridtolerance="10"
     guidetolerance="10"
     inkscape:pageopacity="0"
     inkscape:pageshadow="2"
     inkscape:window-width="1920"
     inkscape:window-height="1048"
     id="namedview4"
     showgrid="false"
     inkscape:zoom="0.33913788"
     inkscape:cx="489.61015"
     inkscape:cy="1075.4542"
     inkscape:window-x="0"
     inkscape:window-y="32"
     inkscape:window-maximized="0"
     inkscape:current-layer="layer1"
     inkscape:document-rotation="0" />
  <g
     inkscape:groupmode="layer"
     id="layer2"
     inkscape:label="artwork"
     sodipodi:insensitive="true">
    <image
       sodipodi:absref="/home/brightone/documents/peppercarrot/peppercarrot_ep23_translation/uk/../gfx_Pepper-and-Carrot_by-David-Revoy_E23P04.png"
       xlink:href="../gfx_Pepper-and-Carrot_by-David-Revoy_E23P04.png"
       y="0"
       x="0"
       id="image10"
       height="3503"
       width="2481" />
  </g>
  <g
     inkscape:groupmode="layer"
     id="layer3"
     inkscape:label="speechbubbles">
    <path
       style="fill:#ffffff;fill-rule:evenodd;stroke:none;stroke-width:1.14175558px;stroke-linecap:butt;stroke-linejoin:miter;stroke-opacity:1"
       d="m 1594.6586,281.89437 c 12.8414,-42.93402 48.511,-80.01343 59.9255,-89.77116 11.4144,-9.75773 190.2094,-26.69001 217.3188,-26.69001 27.1089,0 187.5691,16.66698 206.6315,40.35082 19.7842,24.58098 45.7052,89.77119 42.8516,119.04439 -2.8537,29.27321 -33.0552,126.85059 -63.0178,142.46296 -29.9628,15.6124 -186.9107,27.32166 -216.8736,27.32166 -29.9625,0 -159.8014,-7.80617 -191.1909,-33.17631 -31.3896,-25.3701 -55.3376,-83.99117 -55.3376,-95.70045 0,-11.70927 -0.3075,-83.8419 -0.3075,-83.8419 z"
       id="path4246"
       inkscape:connector-curvature="0"
       sodipodi:nodetypes="cssssssssc" />
    <path
       style="fill:#ffffff;fill-rule:evenodd;stroke:none;stroke-width:1px;stroke-linecap:butt;stroke-linejoin:miter;stroke-opacity:1"
       d="m 1857.2028,178.22067 c 3.8122,-24.29312 8.2944,-49.93369 -6.7376,-69.58867 12.7474,9.99691 30.4412,33.00886 28.3517,60.17215 -3.2611,42.39294 -20.8306,11.79987 -20.8306,11.79987 z"
       id="path4248"
       inkscape:connector-curvature="0"
       sodipodi:nodetypes="ccscc" />
    <path
       style="fill:#ffffff;stroke:none;stroke-width:0.92695421"
       d="m 845.81974,1241.1138 c -1.58239,-41.2293 26.78945,-144.4419 165.18596,-136.6786 138.3966,7.7632 181.7127,53.1141 185.7682,126.3985 6.4157,115.934 -66.3946,146.9158 -170.9436,155.5029 -107.77861,8.8526 -181.68327,-70.7285 -180.01056,-145.2228 z"
       id="path3280-8"
       inkscape:connector-curvature="0"
       sodipodi:nodetypes="csssc" />
    <path
       style="fill:#ffffff;fill-rule:evenodd;stroke:none;stroke-width:1px;stroke-linecap:butt;stroke-linejoin:miter;stroke-opacity:1"
       d="m 1135.2615,1614.0034 c 62.4372,-68.9117 50.4662,-112.8344 43.0951,-140.7709 -7.3709,-27.9366 -35.5004,-47.0985 -60.4628,-44.2772 -24.9624,2.8213 -60.7682,40.0103 -91.8753,13.3179 -31.10718,-26.6923 -26.12898,-75.3915 -4.6982,-109.4603 21.4307,-34.0687 -37.99012,-28.5721 -43.78706,19.5531 -5.79694,48.1251 2.85426,96.4705 35.77176,114.3273 32.9176,17.8569 60.951,8.8491 71.8636,1.9227 12.4313,-7.8903 43.5382,-30.8378 63.1046,-12.878 21.4584,19.6964 47.0755,80.9884 -13.0117,158.2654 z"
       id="path4256"
       inkscape:connector-curvature="0"
       sodipodi:nodetypes="cssssssssc" />
    <path
       style="color:#000000;display:inline;overflow:visible;visibility:visible;fill:#ffffff;fill-opacity:1;fill-rule:nonzero;stroke:none;stroke-width:0.98799497px;marker:none;enable-background:accumulate"
       d="m 1860.7012,1986.4373 c -4.4163,-42.7914 26.1296,-82.8297 64.7751,-91.8378 65.6354,-28.4031 140.2582,-19.9069 207.2469,-3.0571 32.1551,9.462 65.5791,37.0094 82.8747,66.3466 20.1764,35.3673 -10.1337,70.7447 -44.1823,77.0323 -65.4171,19.2443 -134.9181,18.217 -202.239,13.0416 -30.935,-5.5265 -66.7681,-2.6993 -92.2925,-24.2317 -10.3747,-9.1666 -17.7144,-22.9374 -16.1829,-37.2939 z"
       id="path3357"
       inkscape:connector-curvature="0"
       sodipodi:nodetypes="cccccccc" />
    <path
       style="fill:#ffffff;fill-rule:evenodd;stroke:none;stroke-width:1px;stroke-linecap:butt;stroke-linejoin:miter;stroke-opacity:1"
       d="m 1815.7758,2061.2815 c 64.8492,31.0148 134.3976,22.5562 155.0741,-25.3758 23.8742,-55.3449 26.3156,-31.9546 26.3156,-31.9546 0,0 20.7007,14.1323 -2.8196,43.2328 -18.7952,23.2544 -75.4849,87.5238 -178.5701,14.0976 z"
       id="path4281"
       inkscape:connector-curvature="0"
       sodipodi:nodetypes="cscsc" />
    <path
       style="color:#000000;display:inline;overflow:visible;visibility:visible;fill:#ffffff;fill-opacity:1;fill-rule:nonzero;stroke:none;stroke-width:0.950055px;marker:none;enable-background:accumulate"
       d="m 175.6004,2104.6301 c 15.77292,-38.9356 53.84106,-62.0143 91.72711,-69.3099 42.32566,-8.7072 86.03512,-4.5768 128.15017,3.4442 27.75468,6.3727 55.55365,17.1327 77.57623,36.6618 8.31325,11.7795 17.71823,25.8707 20.30731,40.0075 12.76445,33.5054 1.79873,66.1649 -25.09954,110.1942 -29.72623,25.997 -69.89354,26.089 -106.34962,28.7458 -41.2976,5.3421 -84.26106,0.5022 -122.51218,-17.4252 -23.77614,-11.9911 -47.66204,-29.1457 -58.96357,-55.3388 -8.25166,-24.772 -14.37341,-53.2974 -4.83591,-76.9796 z"
       id="path3365"
       inkscape:connector-curvature="0"
       sodipodi:nodetypes="cccccccccc" />
    <path
       style="fill:#ffffff;fill-rule:evenodd;stroke:none;stroke-width:1px;stroke-linecap:butt;stroke-linejoin:miter;stroke-opacity:1"
       d="m 463.97121,2140.9085 c 84.34167,16.1667 252.8523,-49.3553 272.73937,-44.3835 19.88707,4.9717 31.42746,46.6967 63.74394,23.0808 -39.77414,32.3165 -47.23179,-7.4577 -63.39003,-8.7006 -16.15824,-1.243 -197.62775,64.633 -269.71837,62.1471 -72.09063,-2.4859 -3.37491,-32.1438 -3.37491,-32.1438 z"
       id="path4314"
       inkscape:connector-curvature="0"
       sodipodi:nodetypes="cscssc" />
    <path
       style="fill:#ffffff;fill-rule:evenodd;stroke:none;stroke-width:1px;stroke-linecap:butt;stroke-linejoin:miter;stroke-opacity:1"
       d="m 1660.5299,2998.9956 c -36.0453,-51.2804 -41.0171,-112.0072 -26.1018,-137.6474 14.9153,-25.6402 82.0342,-75.5711 0,-143.0453 79.5483,56.6783 49.7177,94.4639 19.8871,147.0937 -29.8306,52.6299 54.6894,144.3948 54.6894,144.3948 z"
       id="path4316"
       inkscape:connector-curvature="0" />
    <path
       style="fill:#ffffff;stroke:none;stroke-width:1.09592164"
       d="m 1397.3255,3067.061 c -2.3639,-26.8142 -34.9992,-93.9409 229.016,-87.248 206.7547,5.2413 273.074,9.0236 279.2228,91.2825 5.7018,76.2796 -175.2848,78.2704 -273.968,79.578 -141.1125,1.8699 -236.7697,-35.1635 -234.2708,-83.6125 z"
       id="path3280-8-9"
       inkscape:connector-curvature="0"
       sodipodi:nodetypes="csssc" />
  </g>
  <g
     inkscape:groupmode="layer"
     id="layer1"
     inkscape:label="txt">
    <text
       xml:space="preserve"
       style="font-style:normal;font-variant:normal;font-weight:normal;font-stretch:normal;line-height:0%;font-family:Neucha;-inkscape-font-specification:Neucha;text-align:center;letter-spacing:0px;word-spacing:0px;text-anchor:middle;fill:#000000;fill-opacity:1;stroke:none"
       x="1856.9244"
       y="256.83353"
       id="text4246"><tspan
         sodipodi:role="line"
         style="font-style:italic;font-variant:normal;font-weight:normal;font-stretch:normal;font-size:35.77793884px;line-height:1.25;font-family:Neucha;-inkscape-font-specification:'Neucha Italic'"
         x="1856.9244"
         y="256.83353"
         id="tspan41">* за виключенням вихідних</tspan><tspan
         sodipodi:role="line"
         style="font-style:italic;font-variant:normal;font-weight:normal;font-stretch:normal;font-size:35.77793884px;line-height:1.25;font-family:Neucha;-inkscape-font-specification:'Neucha Italic'"
         x="1856.9244"
         y="301.55594"
         id="tspan51">та громадських свят.</tspan><tspan
         sodipodi:role="line"
         style="font-style:italic;font-variant:normal;font-weight:normal;font-stretch:normal;font-size:35.77793884px;line-height:1.25;font-family:Neucha;-inkscape-font-specification:'Neucha Italic'"
         x="1856.9244"
         y="346.27838"
         id="tspan5850">Акція обмежена доступними</tspan><tspan
         sodipodi:role="line"
         style="font-style:italic;font-variant:normal;font-weight:normal;font-stretch:normal;font-size:35.77793884px;line-height:1.25;font-family:Neucha;-inkscape-font-specification:'Neucha Italic'"
         x="1856.9244"
         y="391.00079"
         id="tspan62">ресурсами і не діє сумісно</tspan><tspan
         sodipodi:role="line"
         style="font-style:italic;font-variant:normal;font-weight:normal;font-stretch:normal;font-size:35.77793884px;line-height:1.25;font-family:Neucha;-inkscape-font-specification:'Neucha Italic'"
         x="1856.9244"
         y="435.72321"
         id="tspan5858">з іншими пропозиціями.</tspan></text>
    <text
       xml:space="preserve"
       style="font-style:normal;font-variant:normal;font-weight:normal;font-stretch:normal;line-height:0%;font-family:Neucha;-inkscape-font-specification:Neucha;text-align:center;letter-spacing:0px;word-spacing:0px;text-anchor:middle;fill:#000000;fill-opacity:1;stroke:none"
       x="1028.5671"
       y="1172.2102"
       id="text4246-3"><tspan
         sodipodi:role="line"
         style="font-size:45px;line-height:1.25"
         x="1028.5671"
         y="1172.2102"
         id="tspan50">Всесвітня</tspan><tspan
         sodipodi:role="line"
         style="font-size:45px;line-height:1.25"
         x="1028.5671"
         y="1228.4602"
         id="tspan5875">маркетингова</tspan><tspan
         sodipodi:role="line"
         style="font-size:45px;line-height:1.25"
         x="1028.5671"
         y="1284.7102"
         id="tspan5877">кампанія -</tspan><tspan
         sodipodi:role="line"
         style="font-size:45px;line-height:1.25"
         x="1028.5671"
         y="1340.9602"
         id="tspan5879">за секунду!</tspan></text>
    <text
       xml:space="preserve"
       style="font-style:normal;font-variant:normal;font-weight:normal;font-stretch:normal;line-height:0%;font-family:Neucha;-inkscape-font-specification:Neucha;text-align:center;letter-spacing:0px;word-spacing:0px;text-anchor:middle;fill:#000000;fill-opacity:1;stroke:none"
       x="2037.5197"
       y="1956.0619"
       id="text4246-3-7"><tspan
         sodipodi:role="line"
         style="font-size:45px;line-height:1.25"
         x="2037.5197"
         y="1956.0619"
         id="tspan89">Міжнародне</tspan><tspan
         sodipodi:role="line"
         style="font-size:45px;line-height:1.25"
         x="2037.5197"
         y="2012.3119"
         id="tspan5892">визнання!</tspan></text>
    <text
       xml:space="preserve"
       style="font-style:normal;font-variant:normal;font-weight:normal;font-stretch:normal;line-height:0%;font-family:Neucha;-inkscape-font-specification:Neucha;text-align:center;letter-spacing:0px;word-spacing:0px;text-anchor:middle;fill:#000000;fill-opacity:1;stroke:none"
       x="335.84491"
       y="2098.1274"
       id="text4246-3-7-6"><tspan
         sodipodi:role="line"
         style="font-size:45px;line-height:1.25"
         x="335.84491"
         y="2098.1274"
         id="tspan71">Стилісти</tspan><tspan
         sodipodi:role="line"
         style="font-size:45px;line-height:1.25"
         x="335.84491"
         y="2154.3774"
         id="tspan5886">та перукарі</tspan><tspan
         sodipodi:role="line"
         style="font-size:45px;line-height:1.25"
         x="335.84491"
         y="2210.6274"
         id="tspan5888">включені!</tspan></text>
    <text
       xml:space="preserve"
       style="font-style:normal;font-variant:normal;font-weight:normal;font-stretch:normal;line-height:0%;font-family:Neucha;-inkscape-font-specification:Neucha;text-align:center;letter-spacing:0px;word-spacing:0px;text-anchor:middle;fill:#000000;fill-opacity:1;stroke:none"
       x="1648.2446"
       y="3053.1169"
       id="text4246-3-7-6-1"><tspan
         sodipodi:role="line"
         style="font-size:45px;line-height:1.25"
         x="1648.2446"
         y="3053.1169"
         id="tspan4183">Негайний результат</tspan><tspan
         sodipodi:role="line"
         style="font-size:45px;line-height:1.25"
         x="1654.0894"
         y="3109.3669"
         id="tspan59">гарантовано! </tspan></text>
  </g>
</svg>
