<?xml version="1.0" encoding="UTF-8" standalone="no"?>
<!-- Created with Inkscape (http://www.inkscape.org/) -->

<svg
   xmlns:dc="http://purl.org/dc/elements/1.1/"
   xmlns:cc="http://creativecommons.org/ns#"
   xmlns:rdf="http://www.w3.org/1999/02/22-rdf-syntax-ns#"
   xmlns:svg="http://www.w3.org/2000/svg"
   xmlns="http://www.w3.org/2000/svg"
   xmlns:xlink="http://www.w3.org/1999/xlink"
   xmlns:sodipodi="http://sodipodi.sourceforge.net/DTD/sodipodi-0.dtd"
   xmlns:inkscape="http://www.inkscape.org/namespaces/inkscape"
   id="svg2"
   version="1.1"
   inkscape:version="0.91 r13725"
   width="2481"
   height="3503"
   sodipodi:docname="Pepper-and-Carrot_by-David-Revoy_E23P05.svg">
  <metadata
     id="metadata8">
    <rdf:RDF>
      <cc:Work
         rdf:about="">
        <dc:format>image/svg+xml</dc:format>
        <dc:type
           rdf:resource="http://purl.org/dc/dcmitype/StillImage" />
        <dc:title />
      </cc:Work>
    </rdf:RDF>
  </metadata>
  <defs
     id="defs6" />
  <sodipodi:namedview
     pagecolor="#ffffff"
     bordercolor="#666666"
     borderopacity="1"
     objecttolerance="10"
     gridtolerance="10"
     guidetolerance="10"
     inkscape:pageopacity="0"
     inkscape:pageshadow="2"
     inkscape:window-width="1440"
     inkscape:window-height="835"
     id="namedview4"
     showgrid="false"
     inkscape:zoom="0.37405949"
     inkscape:cx="933.76675"
     inkscape:cy="510.844"
     inkscape:window-x="0"
     inkscape:window-y="41"
     inkscape:window-maximized="1"
     inkscape:current-layer="layer3"
     inkscape:document-rotation="0" />
  <g
     inkscape:groupmode="layer"
     id="layer2"
     inkscape:label="artwork"
     sodipodi:insensitive="true">
    <image
       sodipodi:absref="/home/juanjo/Comics/Pepper and Carrot/peppercarrot_ep23_translation-master/es/../gfx_Pepper-and-Carrot_by-David-Revoy_E23P05.png"
       xlink:href="../gfx_Pepper-and-Carrot_by-David-Revoy_E23P05.png"
       width="2481"
       height="3503"
       id="image10"
       x="0"
       y="0" />
  </g>
  <g
     inkscape:groupmode="layer"
     id="layer3"
     inkscape:label="speechbubbles"
     style="display:inline">
    <path
       style="color:#000000;display:inline;overflow:visible;visibility:visible;fill:#ffffff;fill-opacity:1;fill-rule:nonzero;stroke:none;stroke-width:1px;marker:none;enable-background:accumulate"
       d="M 212.88572,446.29507 C 110.96021,435.10897 79.892206,390.67793 80.060207,312.06797 80.216894,238.75201 72.635432,100.41754 99.803229,88.644964 126.8113,76.941606 201.83212,72.677781 300.11868,73.272689 c 89.42449,0.541268 242.44097,-27.82906 298.06275,112.951821 27.13586,68.68196 15.03081,185.03648 -100.94603,238.0117 -112.58939,51.42791 -284.34968,22.05886 -284.34968,22.05886 z"
       id="path3970"
       inkscape:connector-curvature="0"
       sodipodi:nodetypes="csssssc" />
    <path
       style="fill:#ffffff;fill-rule:evenodd;stroke:none;stroke-width:1px;stroke-linecap:butt;stroke-linejoin:miter;stroke-opacity:1"
       d="M 599.21792,503.82095 C 484.89991,567.88304 333.06159,441.02228 324.3431,391.59379 c -8.7185,-49.42848 29.27876,-67.41517 29.27876,-67.41517 l 26.59028,22.09505 c 0,0 -15.9022,-8.60358 -7.84832,36.35392 8.05389,44.9575 112.77168,159.17272 226.8541,121.19336 z"
       id="path4367"
       inkscape:connector-curvature="0"
       sodipodi:nodetypes="csccsc" />
    <path
       style="fill:#ffffff;stroke:none"
       d="m 1208.6019,1208.9892 c -1.4298,-59.8195 53.3947,-78.029 91.9137,-85.6659 38.5194,-7.6367 166.1167,1.338 157.5109,74.329 -8.6057,72.9912 -96.3999,80.5724 -144.2924,76.3698 -47.8927,-4.2026 -98.0346,-8.2361 -105.1322,-65.0329 z"
       id="path3938"
       inkscape:connector-curvature="0"
       sodipodi:nodetypes="csssc" />
    <path
       style="fill:#ffffff;fill-rule:evenodd;stroke:none;stroke-width:1px;stroke-linecap:butt;stroke-linejoin:miter;stroke-opacity:1"
       d="m 1314.87,1434.9041 c -83.8015,-37.1698 -58.8074,-129.7638 14.8804,-180.8499 73.6878,-51.086 31.0239,-47.0022 31.0239,-47.0022 0,0 -18.0226,-11.2383 -70.5145,47.9216 -52.492,59.16 -87.0061,161.2474 24.6102,179.9305 z"
       id="path4375"
       inkscape:connector-curvature="0"
       sodipodi:nodetypes="cscsc" />
    <path
       style="fill:#ffffff;fill-opacity:1;stroke:none"
       d="m 1684.0035,1238.184 c 6.2348,-62.038 54.0281,-87.4583 69.9894,-91.636 44.5996,-11.6734 516.4483,-23.2171 561.6938,20.4683 27.6723,26.718 82.6712,142.7786 -26.9058,217.0025 -59.8425,40.5354 -480.4719,20.7749 -529.7004,-7.0128 -51.344,-28.9818 -85.2216,-67.8192 -75.077,-138.822 z"
       id="path3659"
       inkscape:connector-curvature="0"
       sodipodi:nodetypes="cssssc" />
    <path
       style="fill:#ffffff;fill-rule:evenodd;stroke:none;stroke-width:1px;stroke-linecap:butt;stroke-linejoin:miter;stroke-opacity:1"
       d="m 1756.031,1518.1378 c 24.2675,-5.1738 2.3375,-12.1848 -4.0584,-24.266 -6.3959,-12.0811 -8.0227,-26.9013 9.033,-30.4546 17.0557,-3.5532 50.4566,10.6599 50.4566,10.6599 0,0 -21.3197,-32.6902 -9.2386,-41.9287 12.0812,-9.2385 54.7206,6.3959 54.7206,6.3959 0,0 -16.3452,-45.482 19.8983,-63.2484 36.2435,-17.7664 81.7255,6.3959 55.4312,15.6344 -26.2943,9.2386 -84.5681,7.1066 -44.7713,77.4615 -62.5378,-29.8475 -60.4058,-23.4516 -64.6697,-19.1877 -4.264,4.264 9.2385,41.9287 14.2131,53.2992 -17.0558,-10.6598 -66.8017,-36.9541 -74.6189,-22.741 -7.8172,14.2132 12.0812,25.5837 11.3705,32.6902 -0.7107,7.1066 -17.7664,5.6853 -17.7664,5.6853 z"
       id="path4394"
       inkscape:connector-curvature="0"
       sodipodi:nodetypes="csscscsscscssc" />
    <path
       style="fill:#ffffff;fill-rule:evenodd;stroke:none;stroke-width:1px;stroke-linecap:butt;stroke-linejoin:miter;stroke-opacity:1"
       d="m 1858.5933,1629.2315 c 25.2215,-30.8763 249.1812,-52.2672 369.2651,-20.8961 49.2828,18.0527 112.6666,73.1553 65.8625,117.7157 -62.6505,27.2776 -138.6035,16.7919 -206.558,29.2774 -78.4701,5.3974 -148.9563,9.0958 -224.1971,-14.7129 -53.1144,-27.2706 -34.3014,-80.5938 -4.3725,-111.3841 z"
       id="path4405"
       inkscape:connector-curvature="0"
       sodipodi:nodetypes="cccccc" />
    <path
       style="fill:#ffffff;fill-rule:evenodd;stroke:none;stroke-width:1px;stroke-linecap:butt;stroke-linejoin:miter;stroke-opacity:1"
       d="m 1750.9267,1594.1797 c 19.7367,-19.7367 46.0523,-32.8945 56.3906,-21.6163 10.3382,11.2781 2.8195,39.4733 2.8195,39.4733 0,0 42.2929,-21.6163 90.2249,34.7742 47.932,56.3906 17.857,52.6312 17.857,52.6312 0,0 -10.3383,-3.7594 -34.7742,-32.8945 -24.4359,-29.1351 -45.1124,-46.9921 -72.3679,-35.714 -9.3984,3.7594 -19.7367,-1.8797 -16.9171,-9.3984 12.2179,-30.075 15.9773,-64.8492 -43.2328,-27.2555 z"
       id="path4419"
       inkscape:connector-curvature="0" />
    <path
       style="fill:#ffffff;fill-rule:evenodd;stroke:none;stroke-width:1px;stroke-linecap:butt;stroke-linejoin:miter;stroke-opacity:1"
       d="m 2248.1034,1732.7332 c 63.7684,9.1607 84.3039,36.4521 107.0011,68.7055 16.0939,22.8701 22.667,63.4089 -6.4146,98.8761 -26.3031,32.0788 -84.4127,30.452 -124.5725,36.0521 -60.5606,8.4448 -149.8109,3.3277 -197.5819,-2.0978 -44.7364,-5.081 -90.7887,-10.0769 -108.0818,-37.5589 -17.2931,-27.4821 -11.8891,-78.7822 -5.4041,-93.4394 6.4849,-14.6572 28.1013,-57.7126 45.3944,-61.3769 17.2931,-3.6642 281.0129,-9.1607 281.0129,-9.1607 z"
       id="path4423"
       inkscape:connector-curvature="0"
       sodipodi:nodetypes="cssssssscc" />
    <path
       style="color:#000000;display:inline;overflow:visible;visibility:visible;fill:#ffffff;fill-opacity:1;fill-rule:nonzero;stroke:none;stroke-width:1px;marker:none;enable-background:accumulate"
       d="m 288.9194,2251.5789 c -6.33717,-33.0758 10.56191,-120.9334 140.4743,-113.698 129.91227,7.2352 151.03632,48.58 154.20485,60.9834 3.16865,12.4034 30.62976,82.6895 -70.76519,101.2947 -101.39507,18.6052 -192.228,-1.0337 -223.91396,-48.5801 z"
       id="path3525"
       inkscape:connector-curvature="0" />
    <path
       style="color:#000000;display:inline;overflow:visible;visibility:visible;fill:#ffffff;fill-opacity:1;fill-rule:nonzero;stroke:none;stroke-width:1px;marker:none;enable-background:accumulate"
       d="m 127.54434,2513.0697 c -4.39055,-89.3149 -41.841566,-218.3775 226.91726,-234.198 213.32799,-12.5575 474.20566,7.2914 453.57107,188.0521 -20.81748,182.3629 -132.78404,172.0688 -236.10897,180.0038 -212.73614,16.3377 -424.49248,-32.1915 -444.37936,-133.8579 z"
       id="path3525-0"
       inkscape:connector-curvature="0"
       sodipodi:nodetypes="csssc" />
    <path
       style="fill:#ffffff;fill-rule:evenodd;stroke:none;stroke-width:1px;stroke-linecap:butt;stroke-linejoin:miter;stroke-opacity:1"
       d="m 742.60914,2350.2751 c 102.97849,-126.0799 251.45982,-276.6361 847.08866,1.322 C 1049.11,2056.78 875.57765,2160.7347 719.24197,2320.9166 c -175.12871,179.4373 23.36717,29.3585 23.36717,29.3585 z"
       id="path4446"
       inkscape:connector-curvature="0"
       sodipodi:nodetypes="ccsc" />
  </g>
  <g
     inkscape:groupmode="layer"
     id="layer1"
     inkscape:label="txt">
    <text
       xml:space="preserve"
       style="font-style:normal;font-variant:normal;font-weight:normal;font-stretch:normal;line-height:0%;font-family:Lavi;-inkscape-font-specification:Lavi;text-align:center;letter-spacing:0px;word-spacing:0px;text-anchor:middle;fill:#000000;fill-opacity:1;stroke:none"
       x="339.50504"
       y="186.9312"
       id="text4246"
       sodipodi:linespacing="0%"><tspan
         sodipodi:role="line"
         style="font-size:45px;line-height:1.25"
         x="339.50504"
         y="186.9312"
         id="tspan4194">¡Solo una firmita</tspan><tspan
         sodipodi:role="line"
         style="font-size:45px;line-height:1.25"
         x="339.50504"
         y="243.1812"
         id="tspan3380">al final del documento</tspan><tspan
         sodipodi:role="line"
         style="font-size:45px;line-height:1.25"
         x="347.41519"
         y="299.43121"
         id="tspan3398">y las puertas de la </tspan><tspan
         sodipodi:role="line"
         style="font-size:45px;line-height:1.25"
         x="339.50504"
         y="355.68121"
         id="tspan873">fama se te abrirán</tspan><tspan
         sodipodi:role="line"
         style="font-size:45px;line-height:1.25"
         x="339.50504"
         y="411.93121"
         id="tspan3377">de par en par!</tspan></text>
    <text
       xml:space="preserve"
       style="font-style:normal;font-variant:normal;font-weight:normal;font-stretch:normal;line-height:0%;font-family:Lavi;-inkscape-font-specification:Lavi;text-align:center;letter-spacing:0px;word-spacing:0px;text-anchor:middle;fill:#000000;fill-opacity:1;stroke:none"
       x="1325.9771"
       y="1175.2607"
       id="text4246-3"
       sodipodi:linespacing="0%"><tspan
         sodipodi:role="line"
         style="font-size:45px;line-height:1.25"
         x="1325.9771"
         y="1175.2607"
         id="tspan4150-5">¡Eh,</tspan><tspan
         sodipodi:role="line"
         style="font-size:45px;line-height:1.25"
         x="1325.9771"
         y="1231.5107"
         id="tspan4196">un minuto!</tspan></text>
    <text
       xml:space="preserve"
       style="font-style:normal;font-variant:normal;font-weight:normal;font-stretch:normal;line-height:0%;font-family:Lavi;-inkscape-font-specification:Lavi;text-align:center;letter-spacing:0px;word-spacing:0px;text-anchor:middle;fill:#000000;fill-opacity:1;stroke:none"
       x="2061.8047"
       y="1674.8641"
       id="text4246-3-6"
       sodipodi:linespacing="0%"><tspan
         sodipodi:role="line"
         style="font-size:45px;line-height:1.25"
         x="2061.8047"
         y="1674.8641"
         id="tspan4225">¡¿A qué se debe este</tspan><tspan
         sodipodi:role="line"
         style="font-size:45px;line-height:1.25"
         x="2061.8047"
         y="1731.1141"
         id="tspan4263"><tspan
   style="font-style:italic;font-variant:normal;font-weight:normal;font-stretch:normal;font-family:Lavi;-inkscape-font-specification:'Lavi Italic'"
   id="tspan4265">Deus ex machina</tspan>?!</tspan></text>
    <text
       xml:space="preserve"
       style="font-style:normal;font-variant:normal;font-weight:normal;font-stretch:normal;line-height:0%;font-family:Lavi;-inkscape-font-specification:Lavi;text-align:center;letter-spacing:0px;word-spacing:0px;text-anchor:middle;fill:#000000;fill-opacity:1;stroke:none"
       x="2023.913"
       y="1188.9019"
       id="text4246-3-6-1"
       sodipodi:linespacing="0%"><tspan
         sodipodi:role="line"
         style="font-size:45px;line-height:1.25"
         x="2023.913"
         y="1188.9019"
         id="tspan4196-9-2">¡¿Justo en el momento</tspan><tspan
         sodipodi:role="line"
         style="font-size:45px;line-height:1.25"
         x="2023.913"
         y="1245.1519"
         id="tspan3406">que estoy de bajón usted cae</tspan><tspan
         sodipodi:role="line"
         style="font-size:45px;line-height:1.25"
         x="2023.913"
         y="1301.4019"
         id="tspan3410">del cielo con una solución</tspan><tspan
         sodipodi:role="line"
         style="font-size:45px;line-height:1.25"
         x="2023.913"
         y="1357.6519"
         id="tspan4225-9">milagrosa a mis problemas?!</tspan></text>
    <text
       xml:space="preserve"
       style="font-style:normal;font-variant:normal;font-weight:normal;font-stretch:normal;line-height:0%;font-family:Lavi;-inkscape-font-specification:Lavi;text-align:center;letter-spacing:0px;word-spacing:0px;text-anchor:middle;fill:#000000;fill-opacity:1;stroke:none"
       x="2136.7385"
       y="1821.4176"
       id="text4246-3-6-3"
       sodipodi:linespacing="0%"><tspan
         sodipodi:role="line"
         style="font-size:45px;line-height:1.25"
         x="2136.7385"
         y="1821.4176"
         id="tspan3422">¡Esto me huele mal,</tspan><tspan
         sodipodi:role="line"
         style="font-size:45px;line-height:1.25"
         x="2136.7385"
         y="1877.6676"
         id="tspan4295">es muy sospechoso!</tspan></text>
    <text
       xml:space="preserve"
       style="font-style:normal;font-variant:normal;font-weight:normal;font-stretch:normal;line-height:0%;font-family:Lavi;-inkscape-font-specification:Lavi;text-align:center;letter-spacing:0px;word-spacing:0px;text-anchor:middle;fill:#000000;fill-opacity:1;stroke:none"
       x="439.63583"
       y="2202.2944"
       id="text4246-3-6-3-2"
       sodipodi:linespacing="0%"><tspan
         sodipodi:role="line"
         style="font-size:45px;line-height:1.25"
         x="439.63583"
         y="2202.2944"
         id="tspan4295-8">Vamos,</tspan><tspan
         sodipodi:role="line"
         style="font-size:45px;line-height:1.25"
         x="439.63583"
         y="2258.5444"
         id="tspan4326">Carrot.</tspan></text>
    <text
       xml:space="preserve"
       style="font-style:normal;font-variant:normal;font-weight:normal;font-stretch:normal;line-height:0%;font-family:Lavi;-inkscape-font-specification:Lavi;text-align:center;letter-spacing:0px;word-spacing:0px;text-anchor:middle;fill:#000000;fill-opacity:1;stroke:none"
       x="463.76996"
       y="2373.7214"
       id="text4246-3-6-3-2-7"
       sodipodi:linespacing="0%"><tspan
         sodipodi:role="line"
         style="font-size:45px;line-height:1.25"
         x="463.76996"
         y="2373.7214"
         id="tspan4326-2">¡Esta treta podría haber</tspan><tspan
         sodipodi:role="line"
         style="font-size:45px;line-height:1.25"
         x="463.76996"
         y="2429.9714"
         id="tspan3432">funcionado con nosotros antes,</tspan><tspan
         sodipodi:role="line"
         style="font-size:45px;line-height:1.25"
         x="463.76996"
         y="2486.2214"
         id="tspan3434">pero ya no somos tan</tspan><tspan
         sodipodi:role="line"
         style="font-size:45px;line-height:1.25"
         x="463.76996"
         y="2542.4714"
         id="tspan3436">ingenuos para caer en este</tspan><tspan
         sodipodi:role="line"
         style="font-size:45px;line-height:1.25"
         x="463.76996"
         y="2598.7214"
         id="tspan4359">tipo de trampas!</tspan></text>
  </g>
</svg>
