<?xml version="1.0" encoding="UTF-8" standalone="no"?>
<!-- Created with Inkscape (http://www.inkscape.org/) -->

<svg
   xmlns:dc="http://purl.org/dc/elements/1.1/"
   xmlns:cc="http://creativecommons.org/ns#"
   xmlns:rdf="http://www.w3.org/1999/02/22-rdf-syntax-ns#"
   xmlns:svg="http://www.w3.org/2000/svg"
   xmlns="http://www.w3.org/2000/svg"
   xmlns:xlink="http://www.w3.org/1999/xlink"
   xmlns:sodipodi="http://sodipodi.sourceforge.net/DTD/sodipodi-0.dtd"
   xmlns:inkscape="http://www.inkscape.org/namespaces/inkscape"
   id="svg2"
   version="1.1"
   inkscape:version="0.92.1 r"
   width="2481"
   height="3503"
   sodipodi:docname="Pepper-and-Carrot_by-David-Revoy_E23P05.svg">
  <metadata
     id="metadata8">
    <rdf:RDF>
      <cc:Work
         rdf:about="">
        <dc:format>image/svg+xml</dc:format>
        <dc:type
           rdf:resource="http://purl.org/dc/dcmitype/StillImage" />
        <dc:title />
      </cc:Work>
    </rdf:RDF>
  </metadata>
  <defs
     id="defs6" />
  <sodipodi:namedview
     pagecolor="#ffffff"
     bordercolor="#666666"
     borderopacity="1"
     objecttolerance="10"
     gridtolerance="10"
     guidetolerance="10"
     inkscape:pageopacity="0"
     inkscape:pageshadow="2"
     inkscape:window-width="1920"
     inkscape:window-height="1026"
     id="namedview4"
     showgrid="false"
     inkscape:zoom="0.52900001"
     inkscape:cx="527.94535"
     inkscape:cy="2940.7175"
     inkscape:window-x="0"
     inkscape:window-y="27"
     inkscape:window-maximized="1"
     inkscape:current-layer="layer1"
     inkscape:document-rotation="0" />
  <g
     inkscape:groupmode="layer"
     id="layer2"
     inkscape:label="artwork"
     sodipodi:insensitive="true">
    <image
       sodipodi:absref="/home/deevad/peppercarrot/webcomics/New/lang/fr/../gfx_Pepper-and-Carrot_by-David-Revoy_E23P05.png"
       xlink:href="../gfx_Pepper-and-Carrot_by-David-Revoy_E23P05.png"
       y="0"
       x="0"
       id="image10"
       height="3503"
       width="2481" />
  </g>
  <g
     inkscape:groupmode="layer"
     id="layer3"
     inkscape:label="speechbubbles"
     style="display:inline">
    <path
       style="color:#000000;display:inline;overflow:visible;visibility:visible;fill:#ffffff;fill-opacity:1;fill-rule:nonzero;stroke:none;stroke-width:1px;marker:none;enable-background:accumulate"
       d="M 212.88572,459.02149 C 108.28684,429.60044 79.892206,325.62042 80.060207,240.98053 80.216894,162.04072 72.635432,102.65299 99.803229,89.977376 126.8113,77.376289 201.83212,72.785399 300.11868,73.42594 c 89.42449,0.582787 259.81788,-48.677343 315.43966,102.90241 27.13586,73.95034 -2.3461,217.94367 -118.32294,274.98245 -112.58939,55.37279 -284.34968,7.71069 -284.34968,7.71069 z"
       id="path3970"
       inkscape:connector-curvature="0"
       sodipodi:nodetypes="csssssc" />
    <path
       style="fill:#ffffff;fill-rule:evenodd;stroke:none;stroke-width:1px;stroke-linecap:butt;stroke-linejoin:miter;stroke-opacity:1"
       d="M 599.21792,525.82095 C 484.89991,589.88304 333.06159,463.02228 324.3431,413.59379 c -8.7185,-49.42848 29.27876,-67.41517 29.27876,-67.41517 l 26.59028,22.09505 c 0,0 -15.9022,-8.60358 -7.84832,36.35392 8.05389,44.9575 112.77168,159.17272 226.8541,121.19336 z"
       id="path4367"
       inkscape:connector-curvature="0"
       sodipodi:nodetypes="csccsc" />
    <path
       style="fill:#ffffff;stroke:none"
       d="m 1200.0941,1202.6609 c -1.3686,-53.5831 59.6162,-72.7297 96.4867,-79.5704 36.8709,-6.8406 164.6785,10.6503 156.441,76.0317 -8.2374,65.3816 -107.3971,69.337 -153.24,65.5725 -45.843,-3.7645 -92.8938,-11.1583 -99.6877,-62.0338 z"
       id="path3938"
       inkscape:connector-curvature="0"
       sodipodi:nodetypes="csssc" />
    <path
       style="fill:#ffffff;fill-rule:evenodd;stroke:none;stroke-width:1px;stroke-linecap:butt;stroke-linejoin:miter;stroke-opacity:1"
       d="m 1314.87,1434.9041 c -83.8015,-37.1698 -58.8074,-129.7638 14.8804,-180.8499 73.6878,-51.086 31.0239,-47.0022 31.0239,-47.0022 0,0 -18.0226,-11.2383 -70.5145,47.9216 -52.492,59.16 -87.0061,161.2474 24.6102,179.9305 z"
       id="path4375"
       inkscape:connector-curvature="0"
       sodipodi:nodetypes="cscsc" />
    <path
       style="fill:#ffffff;fill-opacity:1;stroke:none"
       d="m 1700.0009,1238.184 c 6.0859,-62.038 52.7385,-87.4583 68.3188,-91.636 43.535,-11.6734 504.1212,-23.2171 548.2867,20.4683 27.0118,26.718 80.6979,142.7786 -26.2636,217.0025 -58.4141,40.5354 -469.0035,20.7749 -517.057,-7.0128 -50.1184,-28.9818 -83.1874,-67.8192 -73.2849,-138.822 z"
       id="path3659"
       inkscape:connector-curvature="0"
       sodipodi:nodetypes="cssssc" />
    <path
       style="fill:#ffffff;fill-rule:evenodd;stroke:none;stroke-width:1px;stroke-linecap:butt;stroke-linejoin:miter;stroke-opacity:1"
       d="m 1756.031,1518.1378 c 24.2675,-5.1738 2.3375,-12.1848 -4.0584,-24.266 -6.3959,-12.0811 -8.0227,-26.9013 9.033,-30.4546 17.0557,-3.5532 50.4566,10.6599 50.4566,10.6599 0,0 -21.3197,-32.6902 -9.2386,-41.9287 12.0812,-9.2385 54.7206,6.3959 54.7206,6.3959 0,0 -16.3452,-45.482 19.8983,-63.2484 36.2435,-17.7664 81.7255,6.3959 55.4312,15.6344 -26.2943,9.2386 -84.5681,7.1066 -44.7713,77.4615 -62.5378,-29.8475 -60.4058,-23.4516 -64.6697,-19.1877 -4.264,4.264 9.2385,41.9287 14.2131,53.2992 -17.0558,-10.6598 -66.8017,-36.9541 -74.6189,-22.741 -7.8172,14.2132 12.0812,25.5837 11.3705,32.6902 -0.7107,7.1066 -17.7664,5.6853 -17.7664,5.6853 z"
       id="path4394"
       inkscape:connector-curvature="0"
       sodipodi:nodetypes="csscscsscscssc" />
    <path
       style="fill:#ffffff;fill-rule:evenodd;stroke:none;stroke-width:1px;stroke-linecap:butt;stroke-linejoin:miter;stroke-opacity:1"
       d="m 1874.5274,1653.8772 c 22.8371,-43.032 225.6227,-72.8443 334.3534,-29.1228 44.6234,25.1599 102.0147,101.9559 59.6356,164.0593 -56.7273,38.0165 -125.4994,23.4027 -187.0292,40.8036 -71.0512,7.5224 -134.8734,12.6768 -203.0006,-20.5052 -48.0928,-38.0069 -31.0585,-112.3228 -3.9592,-155.2349 z"
       id="path4405"
       inkscape:connector-curvature="0"
       sodipodi:nodetypes="cccccc" />
    <path
       style="fill:#ffffff;fill-rule:evenodd;stroke:none;stroke-width:1px;stroke-linecap:butt;stroke-linejoin:miter;stroke-opacity:1"
       d="m 1750.9267,1594.1797 c 19.7367,-19.7367 46.0523,-32.8945 56.3906,-21.6163 10.3382,11.2781 2.8195,39.4733 2.8195,39.4733 0,0 42.2929,-21.6163 90.2249,34.7742 47.932,56.3906 17.857,52.6312 17.857,52.6312 0,0 -10.3383,-3.7594 -34.7742,-32.8945 -24.4359,-29.1351 -45.1124,-46.9921 -72.3679,-35.714 -9.3984,3.7594 -19.7367,-1.8797 -16.9171,-9.3984 12.2179,-30.075 15.9773,-64.8492 -43.2328,-27.2555 z"
       id="path4419"
       inkscape:connector-curvature="0" />
    <path
       style="fill:#ffffff;fill-rule:evenodd;stroke:none;stroke-width:0.99999994px;stroke-linecap:butt;stroke-linejoin:miter;stroke-opacity:1"
       d="m 2248.1034,1795.2339 c 63.7684,8.0207 84.3039,31.9156 107.0011,60.155 16.0939,20.0239 22.667,55.5176 -6.4146,86.571 -26.3031,28.0866 -84.4127,26.6622 -124.5725,31.5653 -60.5606,7.3938 -149.8109,2.9136 -197.5819,-1.8367 -44.7364,-4.4486 -90.7887,-8.8227 -108.0818,-32.8847 -17.2931,-24.062 -11.8891,-68.9777 -5.4041,-81.8108 6.4849,-12.833 28.1013,-50.5301 45.3944,-53.7384 17.2931,-3.2083 281.0129,-8.0207 281.0129,-8.0207 z"
       id="path4423"
       inkscape:connector-curvature="0"
       sodipodi:nodetypes="cssssssscc" />
    <path
       style="color:#000000;display:inline;overflow:visible;visibility:visible;fill:#ffffff;fill-opacity:1;fill-rule:nonzero;stroke:none;stroke-width:1px;marker:none;enable-background:accumulate"
       d="m 288.9194,2251.5789 c -6.33717,-33.0758 10.56191,-120.9334 140.4743,-113.698 129.91227,7.2352 151.03632,48.58 154.20485,60.9834 3.16865,12.4034 30.62976,82.6895 -70.76519,101.2947 -101.39507,18.6052 -192.228,-1.0337 -223.91396,-48.5801 z"
       id="path3525"
       inkscape:connector-curvature="0" />
    <path
       style="color:#000000;display:inline;overflow:visible;visibility:visible;fill:#ffffff;fill-opacity:1;fill-rule:nonzero;stroke:none;stroke-width:0.99999988px;marker:none;enable-background:accumulate"
       d="m 191.06555,2551.76 c -3.60394,-103.8816 -34.34526,-253.9934 186.26282,-272.3941 175.1082,-14.6056 389.2471,8.4806 372.3094,218.7222 -17.08783,212.1051 -108.99449,200.132 -193.80776,209.3613 -174.62237,19.0022 -348.44052,-37.4419 -364.76446,-155.6894 z"
       id="path3525-0"
       inkscape:connector-curvature="0"
       sodipodi:nodetypes="csssc" />
    <path
       style="fill:#ffffff;fill-rule:evenodd;stroke:none;stroke-width:1px;stroke-linecap:butt;stroke-linejoin:miter;stroke-opacity:1"
       d="M 699.13088,2369.1787 C 802.10937,2243.0988 994.06896,2073.639 1589.6978,2351.5971 1049.11,2056.78 832.09939,2179.6383 675.76371,2339.8202 c -175.12871,179.4373 23.36717,29.3585 23.36717,29.3585 z"
       id="path4446"
       inkscape:connector-curvature="0"
       sodipodi:nodetypes="ccsc" />
  </g>
  <g
     inkscape:groupmode="layer"
     id="layer1"
     inkscape:label="txt">
    <text
       xml:space="preserve"
       style="font-style:normal;font-variant:normal;font-weight:normal;font-stretch:normal;line-height:0%;font-family:Lavi;-inkscape-font-specification:Lavi;text-align:center;letter-spacing:0px;word-spacing:0px;text-anchor:middle;fill:#000000;fill-opacity:1;stroke:none"
       x="350.2287"
       y="183.61462"
       id="text4246"><tspan
         sodipodi:role="line"
         style="font-size:45px;line-height:1.25"
         x="350.2287"
         y="183.61462"
         id="tspan4194">Eén handtekeningetje</tspan><tspan
         sodipodi:role="line"
         style="font-size:45px;line-height:1.25"
         x="350.2287"
         y="239.86462"
         id="tspan4205"> onderaan dit document,</tspan><tspan
         sodipodi:role="line"
         style="font-size:45px;line-height:1.25"
         x="350.2287"
         y="296.11462"
         id="tspan80">en de poorten der</tspan><tspan
         sodipodi:role="line"
         style="font-size:45px;line-height:1.25"
         x="350.2287"
         y="352.36462"
         id="tspan873">glorie zullen zich</tspan><tspan
         sodipodi:role="line"
         style="font-size:45px;line-height:1.25"
         x="350.2287"
         y="408.61462"
         id="tspan88">voor u openen!</tspan></text>
    <text
       xml:space="preserve"
       style="font-style:normal;font-variant:normal;font-weight:normal;font-stretch:normal;line-height:0%;font-family:Lavi;-inkscape-font-specification:Lavi;text-align:center;letter-spacing:0px;word-spacing:0px;text-anchor:middle;fill:#000000;fill-opacity:1;stroke:none"
       x="1325.9771"
       y="1175.2607"
       id="text4246-3"><tspan
         sodipodi:role="line"
         style="font-size:45px;line-height:1.25"
         x="1325.9771"
         y="1175.2607"
         id="tspan4150-5">Euh,</tspan><tspan
         sodipodi:role="line"
         style="font-size:45px;line-height:1.25"
         x="1325.9771"
         y="1231.5107"
         id="tspan4196">minuutje.</tspan></text>
    <text
       xml:space="preserve"
       style="font-style:normal;font-variant:normal;font-weight:normal;font-stretch:normal;line-height:0%;font-family:Lavi;-inkscape-font-specification:Lavi;text-align:center;letter-spacing:0px;word-spacing:0px;text-anchor:middle;fill:#000000;fill-opacity:1;stroke:none"
       x="2061.8047"
       y="1675.6316"
       id="text4246-3-6"><tspan
         sodipodi:role="line"
         style="font-size:45px;line-height:1.25"
         x="2061.8047"
         y="1675.6316"
         id="tspan4225">Wat is dat</tspan><tspan
         sodipodi:role="line"
         style="font-size:45px;line-height:1.25"
         x="2061.8047"
         y="1731.8816"
         id="tspan104">hier voor een</tspan><tspan
         sodipodi:role="line"
         style="font-size:45px;line-height:1.25"
         x="2061.8047"
         y="1788.1316"
         id="tspan4263"><tspan
           style="font-style:italic;font-variant:normal;font-weight:normal;font-stretch:normal;font-family:Lavi;-inkscape-font-specification:'Lavi Italic'"
           id="tspan4265">Deus ex machina?!</tspan></tspan></text>
    <text
       xml:space="preserve"
       style="font-style:normal;font-variant:normal;font-weight:normal;font-stretch:normal;line-height:0%;font-family:Lavi;-inkscape-font-specification:Lavi;text-align:center;letter-spacing:0px;word-spacing:0px;text-anchor:middle;fill:#000000;fill-opacity:1;stroke:none"
       x="2023.913"
       y="1200.9019"
       id="text4246-3-6-1"><tspan
         sodipodi:role="line"
         style="font-size:45px;line-height:1.25"
         x="2023.913"
         y="1200.9019"
         id="tspan4221-7">Net nu het niet meer gaat,</tspan><tspan
         sodipodi:role="line"
         style="font-size:45px;line-height:1.25"
         x="2023.913"
         y="1257.1519"
         id="tspan4223-0">val jij uit de lucht met de</tspan><tspan
         sodipodi:role="line"
         style="font-size:45px;line-height:1.25"
         x="2023.913"
         y="1313.4019"
         id="tspan4225-9">wonderbaarlijke oplossing</tspan><tspan
         sodipodi:role="line"
         style="font-size:45px;line-height:1.25"
         x="2023.913"
         y="1369.6519"
         id="tspan102">voor mijn probleem?!</tspan></text>
    <text
       xml:space="preserve"
       style="font-style:normal;font-variant:normal;font-weight:normal;font-stretch:normal;line-height:0%;font-family:Lavi;-inkscape-font-specification:Lavi;text-align:center;letter-spacing:0px;word-spacing:0px;text-anchor:middle;fill:#000000;fill-opacity:1;stroke:none"
       x="2132.9578"
       y="1870.2795"
       id="text4246-3-6-3"><tspan
         sodipodi:role="line"
         style="font-size:45px;line-height:1.25"
         x="2132.9578"
         y="1870.2795"
         id="tspan4293">Het lijkt me</tspan><tspan
         sodipodi:role="line"
         style="font-size:45px;line-height:1.25"
         x="2132.9578"
         y="1926.5295"
         id="tspan4295">louche, héél louche!</tspan></text>
    <text
       xml:space="preserve"
       style="font-style:normal;font-variant:normal;font-weight:normal;font-stretch:normal;line-height:0%;font-family:Lavi;-inkscape-font-specification:Lavi;text-align:center;letter-spacing:0px;word-spacing:0px;text-anchor:middle;fill:#000000;fill-opacity:1;stroke:none"
       x="439.63583"
       y="2202.2944"
       id="text4246-3-6-3-2"><tspan
         sodipodi:role="line"
         style="font-size:45px;line-height:1.25"
         x="439.63583"
         y="2202.2944"
         id="tspan4295-8">Kom,</tspan><tspan
         sodipodi:role="line"
         style="font-size:45px;line-height:1.25"
         x="439.63583"
         y="2258.5444"
         id="tspan4326">Carrot.</tspan></text>
    <text
       xml:space="preserve"
       style="font-style:normal;font-variant:normal;font-weight:normal;font-stretch:normal;line-height:0%;font-family:Lavi;-inkscape-font-specification:Lavi;text-align:center;letter-spacing:0px;word-spacing:0px;text-anchor:middle;fill:#000000;fill-opacity:1;stroke:none"
       x="463.76996"
       y="2373.7214"
       id="text4246-3-6-3-2-7"><tspan
         sodipodi:role="line"
         style="font-size:45px;line-height:1.25"
         x="463.76996"
         y="2373.7214"
         id="tspan4326-2">Misschien zouden</tspan><tspan
         sodipodi:role="line"
         style="font-size:45px;line-height:1.25"
         x="463.76996"
         y="2429.9714"
         id="tspan4351">we daar vroeger</tspan><tspan
         sodipodi:role="line"
         style="font-size:45px;line-height:1.25"
         x="463.76996"
         y="2486.2214"
         id="tspan4353">ingetrapt zijn, maar</tspan><tspan
         sodipodi:role="line"
         style="font-size:45px;line-height:1.25"
         x="463.76996"
         y="2542.4714"
         id="tspan4355">nu zijn we niet meer</tspan><tspan
         sodipodi:role="line"
         style="font-size:45px;line-height:1.25"
         x="463.76996"
         y="2598.7214"
         id="tspan4357">zo dom om in zo'n</tspan><tspan
         sodipodi:role="line"
         style="font-size:45px;line-height:1.25"
         x="463.76996"
         y="2654.9714"
         id="tspan4359">val te lopen!</tspan></text>
  </g>
</svg>
