<?xml version="1.0" encoding="UTF-8" standalone="no"?>
<!-- Created with Inkscape (http://www.inkscape.org/) -->

<svg
   xmlns:dc="http://purl.org/dc/elements/1.1/"
   xmlns:cc="http://creativecommons.org/ns#"
   xmlns:rdf="http://www.w3.org/1999/02/22-rdf-syntax-ns#"
   xmlns:svg="http://www.w3.org/2000/svg"
   xmlns="http://www.w3.org/2000/svg"
   xmlns:xlink="http://www.w3.org/1999/xlink"
   xmlns:sodipodi="http://sodipodi.sourceforge.net/DTD/sodipodi-0.dtd"
   xmlns:inkscape="http://www.inkscape.org/namespaces/inkscape"
   id="svg2"
   version="1.1"
   inkscape:version="0.91 r13725"
   width="2481"
   height="3503"
   sodipodi:docname="Pepper-and-Carrot_by-David-Revoy_E23P04.svg">
  <metadata
     id="metadata8">
    <rdf:RDF>
      <cc:Work
         rdf:about="">
        <dc:format>image/svg+xml</dc:format>
        <dc:type
           rdf:resource="http://purl.org/dc/dcmitype/StillImage" />
        <dc:title />
      </cc:Work>
    </rdf:RDF>
  </metadata>
  <defs
     id="defs6" />
  <sodipodi:namedview
     pagecolor="#ffffff"
     bordercolor="#666666"
     borderopacity="1"
     objecttolerance="10"
     gridtolerance="10"
     guidetolerance="10"
     inkscape:pageopacity="0"
     inkscape:pageshadow="2"
     inkscape:window-width="1680"
     inkscape:window-height="956"
     id="namedview4"
     showgrid="false"
     inkscape:zoom="0.49469369"
     inkscape:cx="1088.8038"
     inkscape:cy="1851.453"
     inkscape:window-x="0"
     inkscape:window-y="0"
     inkscape:window-maximized="1"
     inkscape:current-layer="layer3"
     inkscape:document-rotation="0" />
  <g
     inkscape:groupmode="layer"
     id="layer2"
     inkscape:label="artwork"
     sodipodi:insensitive="true">
    <image
       sodipodi:absref="/Users/macko/Documents/peppercarrot_ep23_translation-master/sk/../gfx_Pepper-and-Carrot_by-David-Revoy_E23P04.png"
       xlink:href="../gfx_Pepper-and-Carrot_by-David-Revoy_E23P04.png"
       width="2481"
       height="3503"
       id="image10"
       x="0"
       y="0" />
  </g>
  <g
     inkscape:groupmode="layer"
     id="layer3"
     inkscape:label="speechbubbles">
    <path
       style="fill:#ffffff;fill-rule:evenodd;stroke:none;stroke-width:0.99999994px;stroke-linecap:butt;stroke-linejoin:miter;stroke-opacity:1"
       d="m 1580.5084,254.77092 c 13.6789,-32.93482 51.6747,-61.37855 63.8336,-68.86373 12.1587,-7.48519 202.6139,-20.47399 231.4912,-20.47399 28.8768,0 199.8015,12.78529 220.1071,30.95324 21.0743,18.85614 48.6858,68.86375 45.6461,91.31931 -3.0399,22.45557 -35.2109,97.30747 -67.1276,109.28377 -31.9168,11.97632 -199.1,20.95853 -231.0169,20.95853 -31.9165,0 -170.2229,-5.98814 -203.6595,-25.44965 -33.4366,-19.46148 -58.9464,-64.42988 -58.9464,-73.41211 0,-8.98221 -0.3276,-64.31537 -0.3276,-64.31537 z"
       id="path4246"
       inkscape:connector-curvature="0"
       sodipodi:nodetypes="cssssssssc" />
    <path
       style="fill:#ffffff;fill-rule:evenodd;stroke:none;stroke-width:1px;stroke-linecap:butt;stroke-linejoin:miter;stroke-opacity:1"
       d="m 1857.2028,178.22067 c 3.8122,-24.29312 8.2944,-49.93369 -6.7376,-69.58867 12.7474,9.99691 30.4412,33.00886 28.3517,60.17215 -3.2611,42.39294 -20.8306,11.79987 -20.8306,11.79987 z"
       id="path4248"
       inkscape:connector-curvature="0"
       sodipodi:nodetypes="ccscc" />
    <path
       style="fill:#ffffff;stroke:none;stroke-width:1"
       d="m 768.02646,1261.6912 c -1.7556,-30.6864 29.72203,-107.5065 183.26846,-101.7283 153.54638,5.7782 201.60398,39.532 206.10358,94.0769 7.1181,86.2886 -73.6626,109.3478 -189.65611,115.7391 -119.57693,6.5889 -201.57175,-52.6425 -199.71593,-108.0877 z"
       id="path3280-8"
       inkscape:connector-curvature="0"
       sodipodi:nodetypes="csssc" />
    <path
       style="fill:#ffffff;fill-rule:evenodd;stroke:none;stroke-width:1px;stroke-linecap:butt;stroke-linejoin:miter;stroke-opacity:1"
       d="m 1135.2615,1614.0034 c 62.4372,-68.9117 50.4662,-112.8344 43.0951,-140.7709 -7.3709,-27.9366 -35.5004,-47.0985 -60.4628,-44.2772 -24.9624,2.8213 -60.7682,40.0103 -91.8753,13.3179 -31.10718,-26.6923 -26.12898,-75.3915 -4.6982,-109.4603 21.4307,-34.0687 -37.99012,-28.5721 -43.78706,19.5531 -5.79694,48.1251 2.85426,96.4705 35.77176,114.3273 32.9176,17.8569 60.951,8.8491 71.8636,1.9227 12.4313,-7.8903 43.5382,-30.8378 63.1046,-12.878 21.4584,19.6964 47.0755,80.9884 -13.0117,158.2654 z"
       id="path4256"
       inkscape:connector-curvature="0"
       sodipodi:nodetypes="cssssssssc" />
    <path
       style="color:#000000;display:inline;overflow:visible;visibility:visible;fill:#ffffff;fill-opacity:1;fill-rule:nonzero;stroke:none;stroke-width:1px;marker:none;enable-background:accumulate"
       d="m 1858.6901,1982.3944 c -4.5243,-42.7914 26.7685,-82.8297 66.3588,-91.8378 67.2402,-28.4031 143.6874,-19.9069 212.314,-3.0571 32.9413,9.462 67.1824,37.0094 84.9009,66.3466 20.6697,35.3673 -10.3814,70.7447 -45.2625,77.0323 -67.0165,19.2443 -138.2168,18.217 -207.1836,13.0416 -31.6914,-5.5265 -68.4006,-2.6993 -94.549,-24.2317 -10.6284,-9.1666 -18.1475,-22.9374 -16.5786,-37.2939 z"
       id="path3357"
       inkscape:connector-curvature="0"
       sodipodi:nodetypes="cccccccc" />
    <path
       style="fill:#ffffff;fill-rule:evenodd;stroke:none;stroke-width:1px;stroke-linecap:butt;stroke-linejoin:miter;stroke-opacity:1"
       d="m 1815.7758,2061.2815 c 64.8492,31.0148 134.3976,22.5562 155.0741,-25.3758 23.8742,-55.3449 26.3156,-31.9546 26.3156,-31.9546 0,0 20.7007,14.1323 -2.8196,43.2328 -18.7952,23.2544 -75.4849,87.5238 -178.5701,14.0976 z"
       id="path4281"
       inkscape:connector-curvature="0"
       sodipodi:nodetypes="cscsc" />
    <path
       style="color:#000000;display:inline;overflow:visible;visibility:visible;fill:#ffffff;fill-opacity:1;fill-rule:nonzero;stroke:none;stroke-width:1px;marker:none;enable-background:accumulate"
       d="m 140.73919,2107.9477 c 17.4749,-40.6772 59.65078,-64.7882 101.62493,-72.4101 46.89281,-9.0967 95.31874,-4.7815 141.97822,3.5983 30.74955,6.6577 61.54816,17.899 85.9471,38.3016 9.21028,12.3064 19.6301,27.0279 22.49857,41.797 14.14179,35.0041 1.99281,69.1244 -27.80791,115.1231 -32.93384,27.1598 -77.43541,27.2559 -117.82528,30.0316 -45.75382,5.581 -93.35325,0.5246 -135.73186,-18.2046 -26.34171,-12.5275 -52.80502,-30.4494 -65.32604,-57.8141 -9.14205,-25.88 -15.92437,-55.6813 -5.35773,-80.4228 z"
       id="path3365"
       inkscape:connector-curvature="0"
       sodipodi:nodetypes="cccccccccc" />
    <path
       style="fill:#ffffff;fill-rule:evenodd;stroke:none;stroke-width:1px;stroke-linecap:butt;stroke-linejoin:miter;stroke-opacity:1"
       d="m 463.97121,2140.9085 c 84.34167,16.1667 252.8523,-49.3553 272.73937,-44.3835 19.88707,4.9717 31.42746,46.6967 63.74394,23.0808 -39.77414,32.3165 -47.23179,-7.4577 -63.39003,-8.7006 -16.15824,-1.243 -197.62775,64.633 -269.71837,62.1471 -72.09063,-2.4859 -3.37491,-32.1438 -3.37491,-32.1438 z"
       id="path4314"
       inkscape:connector-curvature="0"
       sodipodi:nodetypes="cscssc" />
    <path
       style="fill:#ffffff;fill-rule:evenodd;stroke:none;stroke-width:1px;stroke-linecap:butt;stroke-linejoin:miter;stroke-opacity:1"
       d="m 1660.5299,2998.9956 c -36.0453,-51.2804 -41.0171,-112.0072 -26.1018,-137.6474 14.9153,-25.6402 82.0342,-75.5711 0,-143.0453 79.5483,56.6783 49.7177,94.4639 19.8871,147.0937 -29.8306,52.6299 54.6894,144.3948 54.6894,144.3948 z"
       id="path4316"
       inkscape:connector-curvature="0" />
    <path
       style="fill:#ffffff;stroke:none"
       d="m 1484.4436,3073.1254 c -1.9683,-26.8142 -29.1406,-93.9409 190.6807,-87.248 172.1458,5.2413 227.3639,9.0236 232.4834,91.2825 4.7474,76.2796 -145.9437,78.2704 -228.1082,79.578 -117.4915,1.8699 -197.1366,-35.1635 -195.0559,-83.6125 z"
       id="path3280-8-9"
       inkscape:connector-curvature="0"
       sodipodi:nodetypes="csssc" />
  </g>
  <g
     inkscape:groupmode="layer"
     id="layer1"
     inkscape:label="txt">
    <text
       xml:space="preserve"
       style="font-style:normal;font-variant:normal;font-weight:normal;font-stretch:normal;line-height:0%;font-family:Lavi;-inkscape-font-specification:Lavi;text-align:center;letter-spacing:0px;word-spacing:0px;text-anchor:middle;fill:#000000;fill-opacity:1;stroke:none"
       x="1858.9459"
       y="246.91934"
       id="text4246"
       sodipodi:linespacing="0%"><tspan
         sodipodi:role="line"
         style="font-style:italic;font-variant:normal;font-weight:normal;font-stretch:normal;font-size:35.77793884px;line-height:1.25;font-family:Lavi;-inkscape-font-specification:'Lavi Italic'"
         x="1865.235"
         y="246.91934"
         id="tspan470">*Okrem víkendov a sviatkov. </tspan><tspan
         sodipodi:role="line"
         style="font-style:italic;font-variant:normal;font-weight:normal;font-stretch:normal;font-size:35.77793884px;line-height:1.25;font-family:Lavi;-inkscape-font-specification:'Lavi Italic'"
         x="1865.235"
         y="291.64175"
         id="tspan472">Ponuka nemôže byť kombinovaná. </tspan><tspan
         sodipodi:role="line"
         style="font-style:italic;font-variant:normal;font-weight:normal;font-stretch:normal;font-size:35.77793884px;line-height:1.25;font-family:Lavi;-inkscape-font-specification:'Lavi Italic'"
         x="1858.9459"
         y="336.3642"
         id="tspan474">Limitované skladovými</tspan><tspan
         sodipodi:role="line"
         style="font-style:italic;font-variant:normal;font-weight:normal;font-stretch:normal;font-size:35.77793884px;line-height:1.25;font-family:Lavi;-inkscape-font-specification:'Lavi Italic'"
         x="1858.9459"
         y="381.08661"
         id="tspan8107">zásobami.</tspan></text>
    <text
       xml:space="preserve"
       style="font-style:normal;font-variant:normal;font-weight:normal;font-stretch:normal;line-height:0%;font-family:Lavi;-inkscape-font-specification:Lavi;text-align:center;letter-spacing:0px;word-spacing:0px;text-anchor:middle;fill:#000000;fill-opacity:1;stroke:none"
       x="964.43848"
       y="1228.3818"
       id="text4246-3"
       sodipodi:linespacing="0%"><tspan
         sodipodi:role="line"
         style="font-size:45px;line-height:1.25"
         x="964.43848"
         y="1228.3818"
         id="tspan4167">Celosvetová</tspan><tspan
         sodipodi:role="line"
         style="font-size:45px;line-height:1.25"
         x="964.43848"
         y="1284.6318"
         id="tspan8109">marketingová</tspan><tspan
         sodipodi:role="line"
         style="font-size:45px;line-height:1.25"
         x="964.43848"
         y="1340.8818"
         id="tspan46">kampaň!</tspan></text>
    <text
       xml:space="preserve"
       style="font-style:normal;font-variant:normal;font-weight:normal;font-stretch:normal;line-height:0%;font-family:Lavi;-inkscape-font-specification:Lavi;text-align:center;letter-spacing:0px;word-spacing:0px;text-anchor:middle;fill:#000000;fill-opacity:1;stroke:none"
       x="2037.5197"
       y="1958.0834"
       id="text4246-3-7"
       sodipodi:linespacing="0%"><tspan
         sodipodi:role="line"
         style="font-size:45px;line-height:1.25"
         x="2037.5197"
         y="1958.0834"
         id="tspan4191">Medzinárodné</tspan><tspan
         sodipodi:role="line"
         style="font-size:45px;line-height:1.25"
         x="2037.5197"
         y="2014.3334"
         id="tspan63">renomé!</tspan></text>
    <text
       xml:space="preserve"
       style="font-style:normal;font-variant:normal;font-weight:normal;font-stretch:normal;line-height:0%;font-family:Lavi;-inkscape-font-specification:Lavi;text-align:center;letter-spacing:0px;word-spacing:0px;text-anchor:middle;fill:#000000;fill-opacity:1;stroke:none"
       x="315.84491"
       y="2104.1274"
       id="text4246-3-7-6"
       sodipodi:linespacing="0%"><tspan
         sodipodi:role="line"
         style="font-size:45px;line-height:1.25"
         x="315.84491"
         y="2104.1274"
         id="tspan4218">Vrátane</tspan><tspan
         sodipodi:role="line"
         style="font-size:45px;line-height:1.25"
         x="323.75507"
         y="2160.3774"
         id="tspan53">osobného stylistu </tspan><tspan
         sodipodi:role="line"
         style="font-size:45px;line-height:1.25"
         x="315.84491"
         y="2216.6274"
         id="tspan55">a kaderníka!</tspan></text>
    <text
       xml:space="preserve"
       style="font-style:normal;font-variant:normal;font-weight:normal;font-stretch:normal;line-height:0%;font-family:Lavi;-inkscape-font-specification:Lavi;text-align:center;letter-spacing:0px;word-spacing:0px;text-anchor:middle;fill:#000000;fill-opacity:1;stroke:none"
       x="1692.2446"
       y="3063.2456"
       id="text4246-3-7-6-1"
       sodipodi:linespacing="0%"><tspan
         sodipodi:role="line"
         style="font-size:45px;line-height:1.25"
         x="1700.1548"
         y="3063.2456"
         id="tspan4183">Okamžitý úspech </tspan><tspan
         sodipodi:role="line"
         style="font-size:45px;line-height:1.25"
         x="1700.1548"
         y="3119.4956"
         id="tspan59">zaručený! </tspan></text>
  </g>
</svg>
