<?xml version="1.0" encoding="UTF-8" standalone="no"?>
<!-- Created with Inkscape (http://www.inkscape.org/) -->

<svg
   xmlns:dc="http://purl.org/dc/elements/1.1/"
   xmlns:cc="http://creativecommons.org/ns#"
   xmlns:rdf="http://www.w3.org/1999/02/22-rdf-syntax-ns#"
   xmlns:svg="http://www.w3.org/2000/svg"
   xmlns="http://www.w3.org/2000/svg"
   xmlns:xlink="http://www.w3.org/1999/xlink"
   xmlns:sodipodi="http://sodipodi.sourceforge.net/DTD/sodipodi-0.dtd"
   xmlns:inkscape="http://www.inkscape.org/namespaces/inkscape"
   id="svg2"
   version="1.1"
   inkscape:version="0.91 r13725"
   width="2481"
   height="3503"
   sodipodi:docname="Pepper-and-Carrot_by-David-Revoy_E23P05.svg">
  <metadata
     id="metadata8">
    <rdf:RDF>
      <cc:Work
         rdf:about="">
        <dc:format>image/svg+xml</dc:format>
        <dc:type
           rdf:resource="http://purl.org/dc/dcmitype/StillImage" />
        <dc:title />
      </cc:Work>
    </rdf:RDF>
  </metadata>
  <defs
     id="defs6" />
  <sodipodi:namedview
     pagecolor="#ffffff"
     bordercolor="#666666"
     borderopacity="1"
     objecttolerance="10"
     gridtolerance="10"
     guidetolerance="10"
     inkscape:pageopacity="0"
     inkscape:pageshadow="2"
     inkscape:window-width="1680"
     inkscape:window-height="956"
     id="namedview4"
     showgrid="false"
     inkscape:zoom="0.37194736"
     inkscape:cx="1087.2557"
     inkscape:cy="2303.8873"
     inkscape:window-x="0"
     inkscape:window-y="0"
     inkscape:window-maximized="1"
     inkscape:current-layer="layer1"
     inkscape:document-rotation="0"
     inkscape:snap-global="false" />
  <g
     inkscape:groupmode="layer"
     id="layer2"
     inkscape:label="artwork"
     sodipodi:insensitive="true">
    <image
       sodipodi:absref="/Users/macko/Documents/peppercarrot_ep23_translation-master/sk/../gfx_Pepper-and-Carrot_by-David-Revoy_E23P05.png"
       xlink:href="../gfx_Pepper-and-Carrot_by-David-Revoy_E23P05.png"
       width="2481"
       height="3503"
       id="image10"
       x="0"
       y="0" />
  </g>
  <g
     inkscape:groupmode="layer"
     id="layer3"
     inkscape:label="speechbubbles"
     style="display:inline">
    <path
       style="color:#000000;display:inline;overflow:visible;visibility:visible;fill:#ffffff;fill-opacity:1;fill-rule:nonzero;stroke:none;stroke-width:1px;marker:none;enable-background:accumulate"
       d="M 216.11372,435.18559 C 110.27759,423.1967 78.017582,375.57693 78.192029,291.3253 78.354728,212.74759 70.482384,64.485154 98.692541,51.867684 126.73685,39.3244 204.63602,34.754569 306.69359,35.392172 399.54907,35.972286 571.98033,3.4019369 629.73617,154.28637 c 28.177,73.61112 20.12214,202.64405 -100.30443,259.42118 -116.90916,55.11879 -313.31802,21.47804 -313.31802,21.47804 z"
       id="path3970"
       inkscape:connector-curvature="0"
       sodipodi:nodetypes="csssssc" />
    <path
       style="fill:#ffffff;fill-rule:evenodd;stroke:none;stroke-width:1px;stroke-linecap:butt;stroke-linejoin:miter;stroke-opacity:1"
       d="M 599.21792,525.82095 C 484.89991,589.88304 333.06159,463.02228 324.3431,413.59379 c -8.7185,-49.42848 29.27876,-67.41517 29.27876,-67.41517 l 26.59028,22.09505 c 0,0 -15.9022,-8.60358 -7.84832,36.35392 8.05389,44.9575 112.77168,159.17272 226.8541,121.19336 z"
       id="path4367"
       inkscape:connector-curvature="0"
       sodipodi:nodetypes="csccsc" />
    <path
       style="fill:#ffffff;stroke:none;stroke-width:1"
       d="m 1195.5596,1197.6515 c -1.493,-53.5831 55.755,-69.8942 95.9768,-76.7349 40.2222,-6.8406 173.4601,1.1985 164.4739,66.5799 -8.9861,65.3816 -100.6614,72.1725 -150.6711,68.408 -50.0097,-3.7645 -102.3682,-7.3775 -109.7796,-58.253 z"
       id="path3938"
       inkscape:connector-curvature="0"
       sodipodi:nodetypes="csssc" />
    <path
       style="fill:#ffffff;fill-rule:evenodd;stroke:none;stroke-width:1px;stroke-linecap:butt;stroke-linejoin:miter;stroke-opacity:1"
       d="m 1319.9169,1430.5563 c -79.6639,-37.1698 -55.9039,-129.7638 14.1457,-180.8499 70.0496,-51.086 29.4921,-47.0022 29.4921,-47.0022 0,0 -17.1327,-11.2383 -67.0329,47.9216 -49.9003,59.16 -82.7104,161.2474 23.3951,179.9305 z"
       id="path4375"
       inkscape:connector-curvature="0"
       sodipodi:nodetypes="cscsc" />
    <path
       style="fill:#ffffff;fill-opacity:1;stroke:none;stroke-width:1.09609663"
       d="m 1683.4785,1216.9139 c 6.3279,-79.01 52.9454,-120.8364 69.1453,-126.157 45.2664,-14.867 524.1694,-29.5687 570.0913,26.0678 28.086,34.0274 83.9071,181.8391 -27.3081,276.3688 -60.7371,51.6247 -470.6419,32.1294 -520.6064,-3.2603 -52.1115,-36.9104 -101.6184,-82.5921 -91.3221,-173.0193 z"
       id="path3659"
       inkscape:connector-curvature="0"
       sodipodi:nodetypes="cssssc" />
    <path
       style="fill:#ffffff;fill-rule:evenodd;stroke:none;stroke-width:1px;stroke-linecap:butt;stroke-linejoin:miter;stroke-opacity:1"
       d="m 1756.031,1518.1378 c 24.2675,-5.1738 2.3375,-12.1848 -4.0584,-24.266 -6.3959,-12.0811 -8.0227,-26.9013 9.033,-30.4546 17.0557,-3.5532 50.4566,10.6599 50.4566,10.6599 0,0 -21.3197,-32.6902 -9.2386,-41.9287 12.0812,-9.2385 54.7206,6.3959 54.7206,6.3959 0,0 -16.3452,-45.482 19.8983,-63.2484 36.2435,-17.7664 81.7255,6.3959 55.4312,15.6344 -26.2943,9.2386 -84.5681,7.1066 -44.7713,77.4615 -62.5378,-29.8475 -60.4058,-23.4516 -64.6697,-19.1877 -4.264,4.264 9.2385,41.9287 14.2131,53.2992 -17.0558,-10.6598 -66.8017,-36.9541 -74.6189,-22.741 -7.8172,14.2132 12.0812,25.5837 11.3705,32.6902 -0.7107,7.1066 -17.7664,5.6853 -17.7664,5.6853 z"
       id="path4394"
       inkscape:connector-curvature="0"
       sodipodi:nodetypes="csscscsscscssc" />
    <path
       style="fill:#ffffff;fill-rule:evenodd;stroke:none;stroke-width:1px;stroke-linecap:butt;stroke-linejoin:miter;stroke-opacity:1"
       d="m 1813.5119,1649.0812 c 28.585,-32.8604 282.4089,-55.6259 418.5057,-22.239 55.8546,19.2128 127.6905,77.8563 74.6452,125.2802 -71.0048,29.0304 -157.0859,17.8709 -234.102,31.1587 -88.9339,5.7443 -168.8194,9.6804 -254.093,-15.6583 -60.1973,-29.0231 -38.8756,-85.7728 -4.9559,-118.5416 z"
       id="path4405"
       inkscape:connector-curvature="0"
       sodipodi:nodetypes="cccccc" />
    <path
       style="fill:#ffffff;fill-rule:evenodd;stroke:none;stroke-width:1px;stroke-linecap:butt;stroke-linejoin:miter;stroke-opacity:1"
       d="m 1750.9267,1594.1797 c 19.7367,-19.7367 46.0523,-32.8945 56.3906,-21.6163 10.3382,11.2781 2.8195,39.4733 2.8195,39.4733 0,0 42.2929,-21.6163 90.2249,34.7742 47.932,56.3906 17.857,52.6312 17.857,52.6312 0,0 -10.3383,-3.7594 -34.7742,-32.8945 -24.4359,-29.1351 -45.1124,-46.9921 -72.3679,-35.714 -9.3984,3.7594 -19.7367,-1.8797 -16.9171,-9.3984 12.2179,-30.075 15.9773,-64.8492 -43.2328,-27.2555 z"
       id="path4419"
       inkscape:connector-curvature="0" />
    <path
       style="fill:#ffffff;fill-rule:evenodd;stroke:none;stroke-width:1px;stroke-linecap:butt;stroke-linejoin:miter;stroke-opacity:1"
       d="m 2238.1959,1745.6006 c 58.6675,10.8082 77.5603,43.0076 98.442,81.0615 14.8065,26.983 20.8538,74.8123 -5.9016,116.6581 -24.199,37.8479 -77.6603,35.9285 -114.6076,42.5356 -55.7163,9.9635 -137.8273,3.9263 -181.777,-2.475 -41.1579,-5.9947 -83.5263,-11.889 -99.4361,-44.3136 -15.9098,-32.4245 -10.9381,-92.9504 -4.9718,-110.2435 5.9661,-17.2931 25.8534,-68.0916 41.7632,-72.4149 15.9098,-4.3233 258.5341,-10.8082 258.5341,-10.8082 z"
       id="path4423"
       inkscape:connector-curvature="0"
       sodipodi:nodetypes="cssssssscc" />
    <path
       style="color:#000000;display:inline;overflow:visible;visibility:visible;fill:#ffffff;fill-opacity:1;fill-rule:nonzero;stroke:none;stroke-width:1px;marker:none;enable-background:accumulate"
       d="m 288.9194,2251.5789 c -6.33717,-33.0758 10.56191,-120.9334 140.4743,-113.698 129.91227,7.2352 151.03632,48.58 154.20485,60.9834 3.16865,12.4034 30.62976,82.6895 -70.76519,101.2947 -101.39507,18.6052 -192.228,-1.0337 -223.91396,-48.5801 z"
       id="path3525"
       inkscape:connector-curvature="0" />
    <path
       style="color:#000000;display:inline;overflow:visible;visibility:visible;fill:#ffffff;fill-opacity:1;fill-rule:nonzero;stroke:none;stroke-width:0.92610359px;marker:none;enable-background:accumulate"
       d="m 156.97977,2518.2536 c -3.94298,-94.361 -40.28755,-235.2953 193.92278,-239.2107 192.09405,-3.2113 419.34275,-33.7027 418.84096,210.1832 -0.34527,167.8155 -176.45774,167.2515 -269.5729,170.4482 -198.84015,6.8263 -340.12532,-45.5168 -343.19084,-141.4207 z"
       id="path3525-0"
       inkscape:connector-curvature="0"
       sodipodi:nodetypes="csssc" />
    <path
       style="fill:#ffffff;fill-rule:evenodd;stroke:none;stroke-width:1px;stroke-linecap:butt;stroke-linejoin:miter;stroke-opacity:1"
       d="m 742.60914,2350.2751 c 102.97849,-126.0799 251.45982,-276.6361 847.08866,1.322 C 1049.11,2056.78 875.57765,2160.7347 719.24197,2320.9166 c -175.12871,179.4373 23.36717,29.3585 23.36717,29.3585 z"
       id="path4446"
       inkscape:connector-curvature="0"
       sodipodi:nodetypes="ccsc" />
  </g>
  <g
     inkscape:groupmode="layer"
     id="layer1"
     inkscape:label="txt">
    <text
       xml:space="preserve"
       style="font-style:normal;font-variant:normal;font-weight:normal;font-stretch:normal;line-height:0%;font-family:Lavi;-inkscape-font-specification:Lavi;text-align:center;letter-spacing:0px;word-spacing:0px;text-anchor:middle;fill:#000000;fill-opacity:1;stroke:none"
       x="366.12036"
       y="184.53557"
       id="text4246"
       sodipodi:linespacing="0%"><tspan
         sodipodi:role="line"
         style="font-size:45px;line-height:1.25"
         x="366.12036"
         y="184.53557"
         id="tspan4205">Len jeden malý podpis</tspan><tspan
         sodipodi:role="line"
         style="font-size:45px;line-height:1.25"
         x="366.12036"
         y="240.78557"
         id="tspan74">tuto na koniec zmluvy</tspan><tspan
         sodipodi:role="line"
         style="font-size:45px;line-height:1.25"
         x="366.12036"
         y="297.03558"
         id="tspan68">a dvere k sláve sa pred</tspan><tspan
         sodipodi:role="line"
         style="font-size:45px;line-height:1.25"
         x="366.12036"
         y="353.28558"
         id="tspan8118">vami v momente</tspan><tspan
         sodipodi:role="line"
         style="font-size:45px;line-height:1.25"
         x="366.12036"
         y="409.53558"
         id="tspan8110">otvoria!</tspan></text>
    <text
       xml:space="preserve"
       style="font-style:normal;font-variant:normal;font-weight:normal;font-stretch:normal;line-height:0%;font-family:Lavi;-inkscape-font-specification:Lavi;text-align:center;letter-spacing:0px;word-spacing:0px;text-anchor:middle;fill:#000000;fill-opacity:1;stroke:none"
       x="1325.9771"
       y="1175.2607"
       id="text4246-3"
       sodipodi:linespacing="0%"><tspan
         sodipodi:role="line"
         style="font-size:45px;line-height:1.25"
         x="1325.9771"
         y="1175.2607"
         id="tspan78">Počkaj</tspan><tspan
         sodipodi:role="line"
         style="font-size:45px;line-height:1.25"
         x="1325.9771"
         y="1231.5107"
         id="tspan8122">chvíľu.</tspan></text>
    <text
       xml:space="preserve"
       style="font-style:normal;font-variant:normal;font-weight:normal;font-stretch:normal;line-height:0%;font-family:Lavi;-inkscape-font-specification:Lavi;text-align:center;letter-spacing:0px;word-spacing:0px;text-anchor:middle;fill:#000000;fill-opacity:1;stroke:none"
       x="2049.8047"
       y="1688.8641"
       id="text4246-3-6"
       sodipodi:linespacing="0%"><tspan
         sodipodi:role="line"
         style="font-size:45px;line-height:1.25"
         x="2049.8047"
         y="1688.8641"
         id="tspan4225">Kde je háčik v tomto</tspan><tspan
         sodipodi:role="line"
         style="font-size:45px;line-height:1.25"
         x="2049.8047"
         y="1745.1141"
         id="tspan4263">zásahu z jasného neba ?!</tspan></text>
    <text
       xml:space="preserve"
       style="font-style:normal;font-variant:normal;font-weight:normal;font-stretch:normal;line-height:0%;font-family:Lavi;-inkscape-font-specification:Lavi;text-align:center;letter-spacing:0px;word-spacing:0px;text-anchor:middle;fill:#000000;fill-opacity:1;stroke:none"
       x="2025.8141"
       y="1139.1986"
       id="text4246-3-6-1"
       sodipodi:linespacing="0%"><tspan
         sodipodi:role="line"
         style="font-size:45px;line-height:1.25"
         x="2025.8141"
         y="1139.1986"
         id="tspan4225-9">Práve teraz, vo chvíli,</tspan><tspan
         sodipodi:role="line"
         style="font-size:45px;line-height:1.25"
         x="2025.8141"
         y="1195.4486"
         id="tspan91">keď sa cítim najhoršie,</tspan><tspan
         sodipodi:role="line"
         style="font-size:45px;line-height:1.25"
         x="2033.7242"
         y="1251.6986"
         id="tspan93">spadneš priamo z neba </tspan><tspan
         sodipodi:role="line"
         style="font-size:45px;line-height:1.25"
         x="2025.8141"
         y="1307.9486"
         id="tspan97">so svojim zázračným riešením</tspan><tspan
         sodipodi:role="line"
         style="font-size:45px;line-height:1.25"
         x="2025.8141"
         y="1364.1986"
         id="tspan99">na všetky moje problémy?!</tspan></text>
    <text
       xml:space="preserve"
       style="font-style:normal;font-variant:normal;font-weight:normal;font-stretch:normal;line-height:0%;font-family:Lavi;-inkscape-font-specification:Lavi;text-align:center;letter-spacing:0px;word-spacing:0px;text-anchor:middle;fill:#000000;fill-opacity:1;stroke:none"
       x="2136.7385"
       y="1831.4176"
       id="text4246-3-6-3"
       sodipodi:linespacing="0%"><tspan
         sodipodi:role="line"
         style="font-size:45px;line-height:1.25"
         x="2136.7385"
         y="1831.4176"
         id="tspan4295">Mne sa to teda</tspan><tspan
         sodipodi:role="line"
         style="font-size:45px;line-height:1.25"
         x="2136.7385"
         y="1887.6676"
         id="tspan108">zdá podozrivé;</tspan><tspan
         sodipodi:role="line"
         style="font-size:45px;line-height:1.25"
         x="2136.7385"
         y="1943.9176"
         id="tspan106">veľmi podozrivé!</tspan></text>
    <text
       xml:space="preserve"
       style="font-style:normal;font-variant:normal;font-weight:normal;font-stretch:normal;line-height:0%;font-family:Lavi;-inkscape-font-specification:Lavi;text-align:center;letter-spacing:0px;word-spacing:0px;text-anchor:middle;fill:#000000;fill-opacity:1;stroke:none"
       x="439.63583"
       y="2202.2944"
       id="text4246-3-6-3-2"
       sodipodi:linespacing="0%"><tspan
         sodipodi:role="line"
         style="font-size:45px;line-height:1.25"
         x="439.63583"
         y="2202.2944"
         id="tspan4295-8">Poď,</tspan><tspan
         sodipodi:role="line"
         style="font-size:45px;line-height:1.25"
         x="439.63583"
         y="2258.5444"
         id="tspan4326">Carrot.</tspan></text>
    <text
       xml:space="preserve"
       style="font-style:normal;font-variant:normal;font-weight:normal;font-stretch:normal;line-height:0%;font-family:Lavi;-inkscape-font-specification:Lavi;text-align:center;letter-spacing:0px;word-spacing:0px;text-anchor:middle;fill:#000000;fill-opacity:1;stroke:none"
       x="463.76996"
       y="2373.7214"
       id="text4246-3-6-3-2-7"
       sodipodi:linespacing="0%"><tspan
         sodipodi:role="line"
         style="font-size:45px;line-height:1.25"
         x="463.76996"
         y="2373.7214"
         id="tspan152">Niekedy by to na nás</tspan><tspan
         sodipodi:role="line"
         style="font-size:45px;line-height:1.25"
         x="463.76996"
         y="2429.9714"
         id="tspan8126">mohlo fungovať, ale my už</tspan><tspan
         sodipodi:role="line"
         style="font-size:45px;line-height:1.25"
         x="463.76996"
         y="2486.2214"
         id="tspan150">viac nie sme takí hlúpi,</tspan><tspan
         sodipodi:role="line"
         style="font-size:45px;line-height:1.25"
         x="463.76996"
         y="2542.4714"
         id="tspan866">aby sme naleteli na takéto</tspan><tspan
         sodipodi:role="line"
         style="font-size:45px;line-height:1.25"
         x="463.76996"
         y="2598.7214"
         id="tspan8134">podvodné praktiky!</tspan></text>
  </g>
</svg>
