<?xml version="1.0" encoding="UTF-8" standalone="no"?>
<!-- Created with Inkscape (http://www.inkscape.org/) -->

<svg
   xmlns:dc="http://purl.org/dc/elements/1.1/"
   xmlns:cc="http://creativecommons.org/ns#"
   xmlns:rdf="http://www.w3.org/1999/02/22-rdf-syntax-ns#"
   xmlns:svg="http://www.w3.org/2000/svg"
   xmlns="http://www.w3.org/2000/svg"
   xmlns:xlink="http://www.w3.org/1999/xlink"
   xmlns:sodipodi="http://sodipodi.sourceforge.net/DTD/sodipodi-0.dtd"
   xmlns:inkscape="http://www.inkscape.org/namespaces/inkscape"
   id="svg2"
   version="1.1"
   inkscape:version="0.92.1 r15371"
   width="2481"
   height="3503"
   sodipodi:docname="Pepper-and-Carrot_by-David-Revoy_E23P01.svg">
  <metadata
     id="metadata8">
    <rdf:RDF>
      <cc:Work
         rdf:about="">
        <dc:format>image/svg+xml</dc:format>
        <dc:type
           rdf:resource="http://purl.org/dc/dcmitype/StillImage" />
        <dc:title />
      </cc:Work>
    </rdf:RDF>
  </metadata>
  <defs
     id="defs6">
    <linearGradient
       inkscape:collect="always"
       id="linearGradient4201">
      <stop
         id="stop4205"
         offset="0"
         style="stop-color:#8c7727;stop-opacity:1" />
      <stop
         id="stop4203"
         offset="1"
         style="stop-color:#e9ddaf;stop-opacity:1;" />
    </linearGradient>
    <filter
       inkscape:collect="always"
       style="color-interpolation-filters:sRGB"
       id="filter4367"
       x="-0.0043557762"
       width="1.0087116"
       y="-0.020747933"
       height="1.0414959"
       inkscape:label="graphic-blending">
      <feGaussianBlur
         inkscape:collect="always"
         stdDeviation="0.59122338"
         id="feGaussianBlur4369" />
    </filter>
    <filter
       inkscape:collect="always"
       style="color-interpolation-filters:sRGB"
       id="filter4367-7"
       x="-0.0043557761"
       width="1.0087116"
       y="-0.020747934"
       height="1.0414959"
       inkscape:label="graphic-blending">
      <feGaussianBlur
         inkscape:collect="always"
         stdDeviation="0.59122338"
         id="feGaussianBlur4369-9" />
    </filter>
    <filter
       inkscape:collect="always"
       style="color-interpolation-filters:sRGB"
       id="filter4367-7-1"
       x="-0.0043557761"
       width="1.0087116"
       y="-0.020747934"
       height="1.0414959"
       inkscape:label="graphic-blending">
      <feGaussianBlur
         inkscape:collect="always"
         stdDeviation="0.59122338"
         id="feGaussianBlur4369-9-2" />
    </filter>
    <filter
       style="color-interpolation-filters:sRGB"
       id="filter4375-4-1-1-1-9"
       inkscape:label="deevad outline effect">
      <feFlood
         id="feFlood4377-7-9-0-8-1"
         flood-opacity="1"
         flood-color="rgb(0,0,0)"
         result="flood" />
      <feComposite
         id="feComposite4379-3-8-8-2-77"
         in2="SourceGraphic"
         in="flood"
         operator="in"
         result="composite1" />
      <feMorphology
         id="feMorphology4393-1-0-49-8-9"
         operator="dilate"
         radius="3"
         result="result3" />
      <feComposite
         id="feComposite4385-9-5-7-0-8"
         in2="result3"
         in="SourceGraphic"
         operator="over"
         result="composite2" />
    </filter>
    <filter
       inkscape:collect="always"
       style="color-interpolation-filters:sRGB"
       id="filter4289"
       x="-0.0076879989"
       width="1.015376"
       y="-0.012777842"
       height="1.0255557">
      <feGaussianBlur
         inkscape:collect="always"
         stdDeviation="0.69527307"
         id="feGaussianBlur4291" />
    </filter>
    <linearGradient
       gradientTransform="translate(-635.87192,-144.07662)"
       inkscape:collect="always"
       xlink:href="#linearGradient4201"
       id="linearGradient4209-3"
       x1="635.87195"
       y1="213.15028"
       x2="669.13959"
       y2="212.33302"
       gradientUnits="userSpaceOnUse" />
    <linearGradient
       gradientTransform="translate(-124.79403,-228.19698)"
       inkscape:collect="always"
       xlink:href="#linearGradient4201"
       id="linearGradient4253-9"
       gradientUnits="userSpaceOnUse"
       x1="126.72245"
       y1="251.56125"
       x2="156.72107"
       y2="266.27182" />
    <filter
       inkscape:collect="always"
       style="color-interpolation-filters:sRGB"
       id="filter4409"
       x="-0.01122263"
       width="1.0224453"
       y="-0.045443319"
       height="1.0908866">
      <feGaussianBlur
         inkscape:collect="always"
         stdDeviation="2.3996645"
         id="feGaussianBlur4411" />
    </filter>
    <linearGradient
       gradientTransform="translate(0,-2.9998079e-5)"
       inkscape:collect="always"
       xlink:href="#linearGradient4201"
       id="linearGradient4209"
       x1="635.87195"
       y1="213.15028"
       x2="669.13959"
       y2="212.33302"
       gradientUnits="userSpaceOnUse" />
    <linearGradient
       inkscape:collect="always"
       xlink:href="#linearGradient4440"
       id="linearGradient4253"
       gradientUnits="userSpaceOnUse"
       x1="126.72245"
       y1="251.56125"
       x2="156.72107"
       y2="266.27182"
       gradientTransform="translate(-0.40403,-0.60607)" />
    <linearGradient
       id="linearGradient4440"
       inkscape:collect="always">
      <stop
         style="stop-color:#300e08;stop-opacity:1"
         offset="0"
         id="stop4442" />
      <stop
         style="stop-color:#e9ddaf;stop-opacity:1;"
         offset="1"
         id="stop4444" />
    </linearGradient>
    <linearGradient
       inkscape:collect="always"
       xlink:href="#linearGradient4446"
       id="linearGradient4438"
       gradientUnits="userSpaceOnUse"
       x1="130.64951"
       y1="265.53693"
       x2="156.72107"
       y2="266.27182"
       gradientTransform="translate(-1.41409,0.20198)" />
    <linearGradient
       id="linearGradient4446"
       inkscape:collect="always">
      <stop
         style="stop-color:#603f17;stop-opacity:1"
         offset="0"
         id="stop4448" />
      <stop
         style="stop-color:#e9ddaf;stop-opacity:1;"
         offset="1"
         id="stop4450" />
    </linearGradient>
    <filter
       inkscape:collect="always"
       style="color-interpolation-filters:sRGB"
       id="filter4744"
       x="-0.0083712086"
       width="1.0167424"
       y="-0.031193376"
       height="1.0623868">
      <feGaussianBlur
         inkscape:collect="always"
         stdDeviation="1.9569632"
         id="feGaussianBlur4746" />
    </filter>
    <filter
       style="color-interpolation-filters:sRGB"
       id="filter4375-4-1-1-1-9-3"
       inkscape:label="deevad outline poster">
      <feFlood
         id="feFlood4377-7-9-0-8-1-6"
         flood-opacity="1"
         flood-color="rgb(0,0,0)"
         result="flood" />
      <feComposite
         id="feComposite4379-3-8-8-2-77-7"
         in2="SourceGraphic"
         in="flood"
         operator="in"
         result="composite1" />
      <feMorphology
         id="feMorphology4393-1-0-49-8-9-5"
         operator="dilate"
         radius="3"
         result="result3" />
      <feComposite
         id="feComposite4385-9-5-7-0-8-3"
         in2="result3"
         in="SourceGraphic"
         operator="over"
         result="composite2" />
    </filter>
  </defs>
  <sodipodi:namedview
     pagecolor="#ffffff"
     bordercolor="#666666"
     borderopacity="1"
     objecttolerance="10"
     gridtolerance="10"
     guidetolerance="10"
     inkscape:pageopacity="0"
     inkscape:pageshadow="2"
     inkscape:window-width="1920"
     inkscape:window-height="1137"
     id="namedview4"
     showgrid="false"
     inkscape:zoom="0.526013"
     inkscape:cx="1472.9158"
     inkscape:cy="2291.7358"
     inkscape:window-x="-8"
     inkscape:window-y="-8"
     inkscape:window-maximized="1"
     inkscape:current-layer="layer1"
     showguides="true"
     inkscape:guide-bbox="true"
     inkscape:document-rotation="0" />
  <g
     inkscape:groupmode="layer"
     id="layer2"
     inkscape:label="artwork"
     sodipodi:insensitive="true">
    <image
       sodipodi:absref="C:\Users\Alexandre\GitHub\peppercarrot_ep23_translation\pt\../gfx_Pepper-and-Carrot_by-David-Revoy_E23P01.png"
       xlink:href="../gfx_Pepper-and-Carrot_by-David-Revoy_E23P01.png"
       width="2481"
       height="3503"
       id="image10"
       x="0"
       y="0" />
  </g>
  <g
     inkscape:groupmode="layer"
     id="layer3"
     inkscape:label="speechbubbles"
     style="display:inline">
    <g
       id="g4748"
       transform="matrix(0.78929246,0,0,1,23.8711,-1.2429418)">
      <path
         inkscape:connector-curvature="0"
         id="path4413-0"
         d="m 169.69978,135.83332 c -9.13146,0 -30.90519,4.62722 -30.90519,16.52765 0,0 -2.10781,5.2891 -1.40539,9.25591 0.70241,3.96681 2.95944,42.47553 2.95944,49.08687 0,6.61134 -5.57718,29.12456 -4.42469,35.68451 0.42916,2.44143 0.21219,16.6004 0.0772,23.57042 l -0.19112,3.91932 c 1.9218,0.266 3.44637,0.45533 5.0656,0.66321 -0.10716,1.46088 -0.44476,2.9825 -1.18146,4.60797 0.0428,0.0461 0.0746,0.0758 0.11583,0.11992 -9.9e-4,-2e-4 -0.0386,-0.006 -0.0386,-0.006 l 0.10811,0.0781 c 0.80525,0.8603 1.355,1.34809 2.20847,1.61715 l 0.82818,0.60506 6.98451,0.32888 8.92079,-2.43844 1.95365,-0.40701 0.12549,-1.26647 0.6911,-4.52984 0.68147,-5.50013 c 21.233,0.93786 83.17662,2.77829 91.7175,1.62988 9.83388,-1.32227 160.1525,0.002 167.87911,-0.65959 7.72662,-0.66112 188.24718,1.98341 196.67621,0 7.56041,-1.779 1.82294,-0.89389 25.84924,0.73772 -0.58197,4.37957 0.5397,11.34192 1.32238,14.18913 l 1.70655,0.11447 c -0.0262,0.0567 -0.0531,0.10633 -0.0792,0.16353 0.059,-0.0555 0.12032,-0.10145 0.17954,-0.15626 l 14.74121,0.98664 28.63686,1.64441 c 0,0 3.84167,-1.64367 3.84167,-3.61588 0,-1.9722 -11.49003,-7.33912 -8.38218,-7.88951 3.04515,-0.5393 7.06542,-8.65421 9.79723,-9.16325 3.23188,-0.60222 -6.30593,-4.96956 -8.05206,-4.96956 -1.74614,0 -7.68142,-7.56063 -7.68142,-7.56063 0,0 7.33315,-8.54618 9.42851,-9.86098 2.09536,-1.31481 5.23839,-5.58825 3.49225,-7.23175 -1.74612,-1.64351 -10.12674,-1.64314 -12.57134,-2.62923 -2.44458,-0.98611 -3.14322,-7.55972 -3.84167,-9.20322 -0.69846,-1.64351 1.74457,-8.54691 4.18916,-7.88952 2.44458,0.65742 11.8752,-7.23064 13.27211,-8.54545 1.39691,-1.31481 -3.14284,-5.91623 -3.14284,-5.91623 l -7.33392,-5.91804 3.84167,-5.91623 c 0,0 -4.8909,-8.54527 -6.63702,-8.21657 -1.74614,0.3287 -2.09458,-5.58916 -2.09458,-5.58916 l 10.12734,-6.90288 4.19109,-1.97147 c 0,0 -0.69805,-3.28718 -2.79341,-3.61587 -2.07016,-0.32474 -26.23912,-1.92555 -35.24107,-1.9642 -0.71784,-9.95803 -1.51246,-16.58487 -2.34747,-16.74205 -3.5121,-0.66114 -22.47697,0 -28.09633,0 -5.61936,0 -61.11073,-7.27355 -68.83735,-7.27355 -7.72661,0 -103.95846,1.3228 -108.17298,1.3228 -4.21451,0 -100.44553,-1.32306 -106.06488,-1.98419 -5.61935,-0.66113 -106.76816,2.6e-4 -113.08993,0.66139 -6.32178,0.66114 -49.87199,-1.98237 -59.00344,-1.98237 z"
         style="color:#000000;clip-rule:nonzero;display:inline;overflow:visible;visibility:visible;opacity:0.37700004;isolation:auto;mix-blend-mode:normal;color-interpolation:sRGB;color-interpolation-filters:linearRGB;solid-color:#000000;solid-opacity:1;fill:#000000;fill-opacity:1;fill-rule:evenodd;stroke:none;stroke-width:1.60000002;stroke-linecap:butt;stroke-linejoin:miter;stroke-miterlimit:4;stroke-dasharray:none;stroke-dashoffset:0;stroke-opacity:1;filter:url(#filter4744);color-rendering:auto;image-rendering:auto;shape-rendering:auto;text-rendering:auto;enable-background:accumulate" />
      <path
         sodipodi:nodetypes="ccccccc"
         inkscape:connector-curvature="0"
         id="path4413"
         d="m 129.5391,273.61804 c 2.83704,-6.6506 -0.0722,-11.70499 -0.10868,-17.5574 l 23.44397,-2.6056 -1.38884,13.4491 -0.61801,6.60482 -10.98825,2.436 c -8.201,-0.0115 -8.14527,0.183 -10.34019,-2.32692 z"
         style="color:#000000;clip-rule:nonzero;display:inline;overflow:visible;visibility:visible;opacity:1;isolation:auto;mix-blend-mode:normal;color-interpolation:sRGB;color-interpolation-filters:linearRGB;solid-color:#000000;solid-opacity:1;fill:url(#linearGradient4438);fill-opacity:1;fill-rule:evenodd;stroke:#8c7159;stroke-width:1.56139815;stroke-linecap:butt;stroke-linejoin:miter;stroke-miterlimit:4;stroke-dasharray:none;stroke-dashoffset:0;stroke-opacity:1;color-rendering:auto;image-rendering:auto;shape-rendering:auto;text-rendering:auto;enable-background:accumulate" />
      <path
         sodipodi:nodetypes="csscccccccc"
         inkscape:connector-curvature="0"
         id="path4185"
         d="m 125.60947,267.95172 c 24.02587,3.53321 23.67937,2.03169 23.67937,2.03169 1.4128,0.0371 -5.53764,4.11073 -9.7775,4.46405 -4.23986,0.35332 -9.89301,-0.70664 -9.89301,-0.70664 l 3.1799,2.47325 7.06643,0.35332 10.95297,-3.17989 0.87669,-6.10834 4.06981,-34.87697 -29.16208,14.01619 z"
         style="color:#000000;clip-rule:nonzero;display:inline;overflow:visible;visibility:visible;opacity:0.78500001;isolation:auto;mix-blend-mode:normal;color-interpolation:sRGB;color-interpolation-filters:linearRGB;solid-color:#000000;solid-opacity:1;fill:url(#linearGradient4253);fill-opacity:1;fill-rule:evenodd;stroke:#614025;stroke-width:1.56139815;stroke-linecap:butt;stroke-linejoin:miter;stroke-miterlimit:4;stroke-dasharray:none;stroke-dashoffset:0;stroke-opacity:1;color-rendering:auto;image-rendering:auto;shape-rendering:auto;text-rendering:auto;enable-background:accumulate" />
      <path
         sodipodi:nodetypes="cscccscccsssssscssssccccccc"
         inkscape:connector-curvature="0"
         id="path4183"
         d="m 650.81845,147.50439 c 8.83304,0 33.91888,1.76661 36.03881,2.11993 2.11993,0.35332 2.82657,3.88654 2.82657,3.88654 l -4.23986,2.11993 -10.24632,7.41975 c 0,0 0.35332,6.35979 2.11993,6.00647 1.7666,-0.35332 6.71311,8.83304 6.71311,8.83304 l -3.88654,6.35979 7.41975,6.35979 c 0,0 4.59319,4.9465 3.1799,6.35979 -1.41329,1.41329 -10.95297,9.89301 -13.42622,9.18636 -2.47325,-0.70664 -4.94651,6.71311 -4.23986,8.47972 0.70664,1.76661 1.41328,8.83304 3.88653,9.89301 2.47326,1.05996 10.95298,1.05996 12.71958,2.82657 1.76661,1.76661 -1.41328,6.35979 -3.53321,7.77308 -2.11993,1.41328 -9.53969,10.59965 -9.53969,10.59965 0,0 6.00647,8.12639 7.77308,8.12639 1.76661,0 11.41595,4.69541 8.14617,5.34274 -2.76384,0.54717 -6.83192,9.2704 -9.91278,9.85009 -3.14429,0.59162 8.47972,6.35979 8.47972,8.47972 0,2.11993 -3.88654,3.88654 -3.88654,3.88654 l -28.97237,-1.76661 -16.74159,-1.19279 c -0.84611,-3.27016 -2.08482,-11.59085 -1.1928,-16.17837 l -2.20495,-17.961 -1.41328,-99.28338 z"
         style="fill:url(#linearGradient4209);fill-opacity:1;fill-rule:evenodd;stroke:#8c7159;stroke-width:1.56139815;stroke-linecap:butt;stroke-linejoin:miter;stroke-miterlimit:4;stroke-dasharray:none;stroke-opacity:1" />
      <path
         sodipodi:nodetypes="cssssssssccssssccccsssc"
         inkscape:connector-curvature="0"
         id="path4181"
         d="m 128.62874,137.3331 c 0,-12.79181 22.03033,-17.7664 31.26886,-17.7664 9.23853,0 53.2992,2.84262 59.69511,2.13196 6.3959,-0.71065 108.73037,-1.42131 114.41562,-0.71065 5.68524,0.71065 103.04512,2.13197 107.30905,2.13197 4.26394,0 101.62381,-1.42132 109.44103,-1.42132 7.81722,0 63.95904,7.81722 69.64429,7.81722 5.68525,0 24.87296,-0.71066 28.42624,0 3.55328,0.71066 6.3959,122.23283 5.68525,132.18202 -0.71066,9.94918 -6.39591,12.08115 -11.3705,17.05574 4.26394,-9.94918 9.94919,-12.08115 6.39591,-14.92377 -35.53281,-2.13197 -27.00493,-3.55328 -35.53281,-1.42132 -8.52787,2.13197 -191.16646,-0.71065 -198.98368,0 -7.81721,0.71066 -159.8976,-0.71065 -169.84679,0.71066 -9.94918,1.42131 -91.67462,-1.42131 -99.49184,-2.13197 -7.81721,-0.71065 -21.31968,4.97459 -16.34509,4.97459 4.26394,1.42132 19.99401,4.23193 19.99401,4.23193 l -1.078,0.19967 -22.5333,-2.48329 c 0,0 0.58201,-26.0002 0.002,-29.50588 -1.16601,-7.05131 4.47729,-31.25122 4.47729,-38.35778 0,-7.10656 -2.28362,-48.50026 -2.99427,-52.7642 -0.71066,-4.26394 1.42131,-9.94918 1.42131,-9.94918 z"
         style="fill:#e9ddaf;fill-rule:evenodd;stroke:#2b0000;stroke-width:1.56139815;stroke-linecap:butt;stroke-linejoin:miter;stroke-miterlimit:4;stroke-dasharray:none;stroke-opacity:0.49079757" />
      <path
         sodipodi:nodetypes="csssssssscccssssscscssc"
         inkscape:connector-curvature="0"
         id="path4303"
         d="m 139.71309,136.98919 c 6.98566,-4.83623 22.03168,-10.74716 29.55469,-8.59773 7.52302,2.14943 53.73581,6.98565 58.03467,6.44829 4.29887,-0.53735 53.19845,-4.83622 57.49731,-5.37358 4.29887,-0.53735 87.58936,3.22415 93.5003,4.29887 5.91094,1.07471 71.46862,1.61207 77.91692,1.07471 6.4483,-0.53735 80.06635,-1.61207 84.36521,-2.14943 4.29887,-0.53736 18.27018,-1.07471 23.1064,1.61208 4.83622,2.68679 73.08069,4.83622 76.30484,4.83622 3.22415,0 4.29886,9.13509 4.29886,9.13509 l 10e-6,99.41124 -2.14944,5.37358 c 0,0 -8.06036,0 -17.19545,0 -9.13509,0 -9.13509,-1.07472 -18.27018,-1e-5 -9.13509,1.07472 -284.2624,0.53736 -290.17334,-2.14943 -5.91094,-2.68679 -139.71309,0.53736 -142.93724,0 -3.22415,-0.53736 -22.56904,-4.29886 -29.55469,-2.68679 -6.98566,1.61208 -12.8966,6.4483 -12.8966,6.4483 0,0 3.22415,-42.45129 7.52302,-49.43694 l 4.29886,-6.98566 c 0,0 -4.83622,-15.58338 -4.83622,-20.4196 0,-4.83622 -0.53736,-19.34489 0.53736,-23.64376 1.07471,-4.29886 1.07471,-17.19545 1.07471,-17.19545 z"
         style="fill:#fff6d5;fill-rule:evenodd;stroke:none;stroke-width:1px;stroke-linecap:butt;stroke-linejoin:miter;stroke-opacity:1;filter:url(#filter4409)" />
    </g>
  </g>
  <g
     inkscape:groupmode="layer"
     id="layer1"
     inkscape:label="txt"
     style="display:inline">
    <text
       xml:space="preserve"
       style="font-style:normal;font-variant:normal;font-weight:normal;font-stretch:normal;font-size:10.86241245px;line-height:0%;font-family:Lavi;-inkscape-font-specification:Lavi;text-align:center;letter-spacing:0px;word-spacing:0px;text-anchor:middle;display:inline;fill:#501616;fill-opacity:1;stroke:none;stroke-width:0.90520108"
       x="158.65179"
       y="176.5289"
       id="text4246"><tspan
         sodipodi:role="line"
         style="font-size:40.73404694px;line-height:1.25;text-align:start;text-anchor:start;fill:#501616;stroke-width:0.90520108"
         x="158.65179"
         y="176.5289"
         id="tspan4252">Mercado Komona,</tspan><tspan
         sodipodi:role="line"
         style="font-size:40.73404694px;line-height:1.25;text-align:start;text-anchor:start;fill:#501616;stroke-width:0.90520108"
         x="158.65179"
         y="227.44646"
         id="tspan4144">uma semana depois</tspan></text>
    <text
       xml:space="preserve"
       style="font-style:normal;font-variant:normal;font-weight:normal;font-stretch:normal;line-height:0%;font-family:Lavi;-inkscape-font-specification:Lavi;text-align:center;letter-spacing:0px;word-spacing:0px;text-anchor:middle;opacity:0.7;fill:#784421;fill-opacity:1;stroke:#502d16;stroke-width:3.4000001;stroke-miterlimit:4;stroke-dasharray:none;stroke-opacity:1;filter:url(#filter4367)"
       x="343.74872"
       y="1025.2651"
       id="text4246-3"><tspan
         sodipodi:role="line"
         style="font-style:normal;font-variant:normal;font-weight:normal;font-stretch:normal;font-size:95.64933777px;line-height:1.25;font-family:'Alex Brush';-inkscape-font-specification:'Alex Brush';text-align:start;text-anchor:start;fill:#784421;stroke:#502d16;stroke-width:3.4000001;stroke-miterlimit:4;stroke-dasharray:none;stroke-opacity:1"
         x="343.74872"
         y="1025.2651"
         id="tspan4144-7">Celebridade</tspan></text>
    <text
       xml:space="preserve"
       style="font-style:normal;font-variant:normal;font-weight:normal;font-stretch:normal;font-size:45px;line-height:1.25;font-family:Lavi;-inkscape-font-specification:Lavi;font-variant-ligatures:normal;font-variant-position:normal;font-variant-caps:normal;font-variant-numeric:normal;font-variant-alternates:normal;font-feature-settings:normal;text-indent:0;text-align:start;text-decoration:none;text-decoration-line:none;text-decoration-style:solid;text-decoration-color:#000000;letter-spacing:0px;word-spacing:0px;text-transform:none;writing-mode:lr-tb;direction:ltr;text-orientation:mixed;dominant-baseline:auto;baseline-shift:baseline;text-anchor:start;white-space:normal;shape-padding:0;opacity:0.5;vector-effect:none;fill:#000000;fill-opacity:1;stroke:#966431;stroke-width:3.78753948;stroke-linecap:butt;stroke-linejoin:miter;stroke-miterlimit:4;stroke-dasharray:none;stroke-dashoffset:0;stroke-opacity:1;filter:url(#filter4289)"
       x="-279.06573"
       y="1481.1207"
       id="text4246-36"
       transform="matrix(0.95403759,-0.58022738,0.54516285,1.0194479,-74.979365,-232.69866)"><tspan
         sodipodi:role="line"
         style="font-style:normal;font-variant:normal;font-weight:normal;font-stretch:normal;font-size:45px;line-height:1.25;font-family:Lavi;-inkscape-font-specification:Lavi;font-variant-ligatures:normal;font-variant-position:normal;font-variant-caps:normal;font-variant-numeric:normal;font-variant-alternates:normal;font-feature-settings:normal;text-indent:0;text-align:start;text-decoration:none;text-decoration-line:none;text-decoration-style:solid;text-decoration-color:#000000;letter-spacing:0px;word-spacing:0px;text-transform:none;writing-mode:lr-tb;direction:ltr;text-orientation:mixed;dominant-baseline:auto;baseline-shift:baseline;text-anchor:start;white-space:normal;shape-padding:0;vector-effect:none;fill:#000000;fill-opacity:1;stroke:#966431;stroke-width:3.78753948;stroke-linecap:butt;stroke-linejoin:miter;stroke-miterlimit:4;stroke-dasharray:none;stroke-dashoffset:0;stroke-opacity:1;filter:url(#filter4289)"
         x="-279.06573"
         y="1481.1207"
         id="tspan4144-5">50 000 Ko</tspan></text>
    <text
       xml:space="preserve"
       style="font-style:normal;font-variant:normal;font-weight:normal;font-stretch:normal;line-height:80.00000119%;font-family:Lavi;-inkscape-font-specification:Lavi;text-align:center;letter-spacing:0px;word-spacing:0px;text-anchor:middle;opacity:0.5;fill:#ffffff;fill-opacity:1;stroke:#ffffff;stroke-width:2.07299328;stroke-miterlimit:4;stroke-dasharray:none;stroke-opacity:1;filter:url(#filter4375-4-1-1-1-9-3)"
       x="1000.265"
       y="1716.373"
       id="text4246-3-3-6-2"
       transform="matrix(0.72899519,0,0,0.71822761,-201.60085,417.74499)"><tspan
         sodipodi:role="line"
         style="font-style:normal;font-variant:normal;font-weight:normal;font-stretch:normal;font-size:95.64933777px;line-height:80.00000119%;font-family:'Alex Brush';-inkscape-font-specification:'Alex Brush';text-align:center;text-anchor:middle;fill:#ffffff;stroke:#ffffff;stroke-width:2.07299328;stroke-miterlimit:4;stroke-dasharray:none;stroke-opacity:1"
         x="1000.265"
         y="1716.373"
         id="tspan4341">Sucesso da</tspan><tspan
         sodipodi:role="line"
         style="font-style:normal;font-variant:normal;font-weight:normal;font-stretch:normal;font-size:95.64933777px;line-height:80.00000119%;font-family:'Alex Brush';-inkscape-font-specification:'Alex Brush';text-align:center;text-anchor:middle;fill:#ffffff;stroke:#ffffff;stroke-width:2.07299328;stroke-miterlimit:4;stroke-dasharray:none;stroke-opacity:1"
         x="1000.265"
         y="1792.8926"
         id="tspan402">Saffron</tspan></text>
    <g
       aria-label="Moda"
       style="font-style:normal;font-variant:normal;font-weight:normal;font-stretch:normal;line-height:0%;font-family:Lavi;-inkscape-font-specification:Lavi;text-align:center;letter-spacing:0px;word-spacing:0px;text-anchor:middle;opacity:0.7;fill:#784421;fill-opacity:1;stroke:#502d16;stroke-width:3.4000001;stroke-miterlimit:4;stroke-dasharray:none;stroke-opacity:1;filter:url(#filter4367-7)"
       id="text4246-3-3">
      <path
         d="m 1240.3783,971.14651 c -0.5739,-2.19994 -0.9565,-3.44338 -1.0521,-3.63468 -0.4783,-1.33909 -1.2435,-2.00863 -2.1999,-2.00863 -0.8609,0 -2.0087,0.47824 -3.2521,1.53039 l -15.3039,12.62571 c -7.7476,6.69545 -13.7735,12.43441 -18.0777,17.31253 -3.5391,4.11297 -5.5477,6.40847 -6.026,7.07807 0.287,-0.3826 0.7652,-3.539 2.9652,-7.46067 3.4434,-6.4085 6.3128,-12.05182 8.6084,-16.92993 1.7217,-3.63468 2.5825,-6.50416 2.5825,-8.60844 0,-2.39124 -1.1477,-3.63468 -3.4433,-3.63468 -3.3478,0 -8.6085,2.96513 -12.3388,6.50416 -8.6084,8.41714 -14.8256,15.01694 -18.556,19.89506 l -7.365,9.3736 c 4.0173,-6.21717 6.5998,-10.52139 7.7476,-12.91262 3.6347,-7.5563 5.452,-13.58221 5.452,-18.07773 0,-2.96513 -0.7651,-5.16506 -2.3912,-6.69545 -2.1043,-2.00864 -5.7389,-2.96513 -10.904,-2.96513 -4.8781,0 -10.0432,0.86084 -15.5909,2.58253 -5.5476,1.72169 -9.9475,3.92162 -13.2952,6.5998 -13.104,10.52143 -19.7038,20.85156 -19.7038,30.8947 0,8.8954 5.6433,14.9213 14.3474,14.9213 4.3999,0 8.5128,-1.1478 12.2431,-3.4433 2.9652,-1.8174 5.1651,-4.0173 6.5998,-6.5042 1.1478,-2.0086 1.7217,-3.6347 1.7217,-5.0694 0,-2.1999 -0.8608,-3.25209 -2.4868,-3.25209 -0.3826,0 -0.5739,0.0956 -0.5739,0.3826 0,0.0957 0,0.1913 0.096,0.28695 0.6695,0.38264 0.9565,1.14784 0.9565,2.19994 0,1.8173 -0.7652,3.826 -2.2956,5.9303 -4.1129,5.452 -10.0432,8.1301 -17.7908,7.9388 -5.7389,-0.096 -8.6084,-3.4433 -8.6084,-9.9475 0,-4.4955 1.626,-9.56492 4.7825,-15.01693 3.539,-6.02591 8.5128,-11.66922 14.9213,-16.83428 7.9389,-6.40851 15.6865,-9.66059 23.1471,-9.66059 4.8781,0 7.8432,1.33909 9.0867,3.92163 0.6695,1.43474 0.9565,3.06077 0.9565,4.87811 0,4.59117 -2.1043,10.71273 -6.4085,18.46032 -2.0087,3.63468 -6.3129,10.33014 -12.817,19.99074 -5.0695,7.5563 -8.0346,12.817 -8.8954,15.5908 -0.3826,1.2435 0.7652,1.8174 3.3477,1.8174 1.3391,0 2.4869,-0.287 3.4434,-0.7652 1.1478,-0.8609 1.7217,-1.3391 1.7217,-1.4348 0,0 -0.8609,-0.2869 -0.8609,-1.0521 0,-0.9565 0.7652,-2.6782 2.2956,-5.0694 3.826,-6.0259 9.3736,-13.4866 16.7386,-22.28633 8.8954,-10.71273 16.8343,-18.93857 23.8167,-24.77318 2.0087,-1.72169 3.539,-2.58253 4.4955,-2.58253 0.6696,0 1.0522,0.47824 1.0522,1.53039 0,1.33909 -0.5739,3.25207 -1.6261,5.83461 -3.0607,7.1737 -8.0345,16.73863 -14.8256,28.59914 -4.6868,7.9389 -8.1302,13.5822 -10.3301,17.0256 -0.1913,0.2869 -0.287,0.4782 -0.287,0.7652 0,0.7652 0.5739,1.1478 1.6261,1.1478 2.3912,0 4.3998,-1.5304 6.0259,-4.4955 3.1564,-5.6434 10.5214,-14.2518 22.095,-25.63406 8.8954,-8.70409 16.643,-15.87779 23.3384,-21.32981 -7.7476,10.80838 -13.5822,19.51247 -17.4082,26.01667 -5.8346,10.2344 -8.7997,18.0777 -8.7997,23.6253 0,2.3913 0.5739,4.3999 1.7217,6.0259 0.3826,0.5739 1.1478,0.8609 2.2956,0.8609 2.1999,0 4.9737,-0.8609 8.3215,-2.5825 3.3477,-1.7217 5.0694,-3.0608 5.0694,-4.0173 0,-0.1913 -0.1913,-0.3826 -0.4783,-0.4783 -0.7652,0.1913 -2.4869,0.8609 -5.2607,2.1043 -2.4869,1.0522 -4.2086,1.7217 -5.1651,1.913 -1.626,0.287 -2.3912,-0.5739 -2.3912,-2.6782 0,-4.2085 2.6782,-10.904 7.9389,-20.182 5.8346,-10.13881 12.7214,-19.2255 20.6603,-27.35569 3.3477,-3.44338 4.8781,-5.73896 4.5911,-6.7911 z"
         style="font-style:normal;font-variant:normal;font-weight:normal;font-stretch:normal;font-size:95.64933777px;line-height:1.25;font-family:'Alex Brush';-inkscape-font-specification:'Alex Brush';text-align:start;text-anchor:start;fill:#784421;stroke:#502d16;stroke-width:3.4000001;stroke-miterlimit:4;stroke-dasharray:none;stroke-opacity:1"
         id="path5695"
         inkscape:connector-curvature="0" />
      <path
         d="m 1257.8553,998.98046 c -2.3913,1.24344 -4.4956,1.81734 -6.1216,1.81734 -0.4782,0 -0.8608,-0.096 -0.9565,-0.2869 0.287,-1.24349 0.4783,-2.39128 0.4783,-3.44342 0,-3.44338 -1.6261,-5.16507 -4.8782,-5.16507 -3.4433,0 -7.9389,3.44338 -13.5822,10.42579 -5.5476,6.8867 -8.3215,12.2431 -8.3215,16.0691 0,1.4347 0.3826,2.7738 1.1478,4.0173 0.9565,1.7216 2.2956,2.5825 3.9217,2.5825 h 1.5303 c 3.5391,0 7.8433,-3.0608 12.9127,-9.278 4.8781,-5.9303 6.9824,-9.9475 6.3129,-12.0518 4.8781,-2.0087 7.4606,-3.539 7.5563,-4.68684 z m -9.8519,4.97374 c 0,2.2 -2.1043,5.739 -6.2172,10.6171 -4.3043,5.0694 -7.8433,7.5563 -10.5215,7.5563 -1.4347,0 -2.1999,-0.9565 -2.2955,-2.9651 -0.096,-2.6782 1.8173,-6.5998 5.8346,-11.7649 4.1129,-5.2607 7.1737,-7.84324 9.3736,-7.84324 1.5304,2.39124 2.7738,3.82594 3.826,4.39984 z"
         style="font-style:normal;font-variant:normal;font-weight:normal;font-stretch:normal;font-size:95.64933777px;line-height:1.25;font-family:'Alex Brush';-inkscape-font-specification:'Alex Brush';text-align:start;text-anchor:start;fill:#784421;stroke:#502d16;stroke-width:3.4000001;stroke-miterlimit:4;stroke-dasharray:none;stroke-opacity:1"
         id="path5697"
         inkscape:connector-curvature="0" />
      <path
         d="m 1301.2083,981.38099 c 0.287,-0.47825 0.4783,-0.86085 0.4783,-1.24344 0,-1.24345 -2.6782,-2.00864 -3.826,-1.62604 -2.7738,0.86084 -7.5563,6.5998 -14.1561,17.31253 -0.3826,-1.24344 -0.6696,-1.91299 -0.8608,-2.19994 -0.6696,-0.95649 -1.913,-1.43474 -3.7304,-1.43474 -5.3563,0 -11.4779,3.34773 -18.269,10.13884 -6.7911,6.6954 -9.9475,12.5301 -9.278,17.5038 0.3826,3.0608 3.3477,5.452 7.1737,5.452 2.0087,0 4.8781,-1.626 8.4172,-4.8781 l 7.7476,-7.7476 c -2.0087,4.7825 -1.5304,12.4344 4.8781,12.4344 0.4782,0 0.8608,0 1.3391,-0.096 2.1999,-0.3826 5.5476,-1.7217 9.9475,-5.0694 4.1129,-3.1565 7.365,-6.8868 9.7562,-9.7563 0.3826,-0.4782 0.5739,-0.7652 0.5739,-1.0521 0,-0.287 -0.2869,-0.4783 -0.8608,-0.3826 -0.4783,0.096 -0.9565,0.5739 -1.4348,1.0521 -8.1302,9.3737 -14.2517,13.104 -18.4603,13.104 -4.8781,0 -3.6347,-6.8868 -2.4869,-9.6606 1.6261,-4.0173 5.3564,-9.8519 11.6693,-17.79076 3.7303,-4.68682 7.5563,-9.37364 11.3822,-14.06045 z m -18.1734,15.49519 c -7.078,9.46932 -10.8083,14.25172 -11.4779,15.01692 -6.4085,7.5563 -10.904,11.2866 -13.6778,11.2866 -1.2435,0 -2.0087,-0.7651 -2.2956,-2.2955 -0.6696,-4.113 2.3912,-9.3737 9.278,-15.7822 6.5998,-6.21718 11.9561,-9.37361 15.8778,-9.37361 1.0521,0 1.8173,0.38259 2.2955,1.14779 z"
         style="font-style:normal;font-variant:normal;font-weight:normal;font-stretch:normal;font-size:95.64933777px;line-height:1.25;font-family:'Alex Brush';-inkscape-font-specification:'Alex Brush';text-align:start;text-anchor:start;fill:#784421;stroke:#502d16;stroke-width:3.4000001;stroke-miterlimit:4;stroke-dasharray:none;stroke-opacity:1"
         id="path5699"
         inkscape:connector-curvature="0" />
      <path
         d="m 1341.7442,1008.0672 c 0.5739,-0.7652 0.8609,-1.4348 0.8609,-1.913 0,-0.4783 -0.1913,-0.6696 -0.4783,-0.6696 -0.1913,0 -0.3826,0.096 -0.5739,0.3826 -8.7997,10.9997 -14.8256,16.4517 -18.1734,16.4517 -1.1478,0 -1.8173,-0.7652 -2.1043,-2.1999 -0.3825,-2.2 1.5304,-6.3129 5.6434,-12.3388 4.1129,-6.1216 6.2172,-9.27798 6.1215,-9.46928 -0.096,-0.86084 -1.4347,-2.39123 -2.9651,-2.39123 -0.4783,0 -0.8609,0.28694 -1.3391,0.28694 -0.287,0 -0.6695,-2.10428 -1.5304,-2.96513 -0.7652,-0.66954 -1.913,-1.05214 -3.4434,-1.05214 -5.3563,0 -11.4779,3.34773 -18.269,10.13884 -6.7911,6.6954 -9.9475,12.5301 -9.278,17.5038 0.3826,2.9652 4.1129,5.452 7.1737,5.452 1.7217,0 4.4955,-1.626 8.3215,-4.9737 l 5.9303,-5.739 c -0.287,1.2434 -0.3826,2.2956 -0.3826,3.2521 0,3.1564 1.4347,5.2607 4.2085,6.3128 0.4783,0.1913 1.0522,0.287 1.6261,0.287 4.3042,0 10.5214,-5.452 18.6516,-16.356 z m -13.9648,-10.99972 -10.1388,13.96482 c -6.4085,8.1302 -11.4779,12.1474 -15.1126,12.1474 -1.2435,0 -2.0087,-0.7651 -2.2956,-2.2955 -0.6696,-4.113 2.3912,-9.3737 9.278,-15.7822 6.5998,-6.21718 11.8605,-9.37361 15.7821,-9.37361 1.2435,0 2.0087,0.47824 2.4869,1.33909 z"
         style="font-style:normal;font-variant:normal;font-weight:normal;font-stretch:normal;font-size:95.64933777px;line-height:1.25;font-family:'Alex Brush';-inkscape-font-specification:'Alex Brush';text-align:start;text-anchor:start;fill:#784421;stroke:#502d16;stroke-width:3.4000001;stroke-miterlimit:4;stroke-dasharray:none;stroke-opacity:1"
         id="path5701"
         inkscape:connector-curvature="0" />
    </g>
    <text
       xml:space="preserve"
       style="font-style:normal;font-variant:normal;font-weight:normal;font-stretch:normal;line-height:80.00000119%;font-family:Lavi;-inkscape-font-specification:Lavi;text-align:center;letter-spacing:0px;word-spacing:0px;text-anchor:middle;opacity:0.5;fill:#ffffff;fill-opacity:1;stroke:#ffffff;stroke-width:2.07299328;stroke-miterlimit:4;stroke-dasharray:none;stroke-opacity:1;filter:url(#filter4375-4-1-1-1-9-3)"
       x="1000.265"
       y="1716.373"
       id="text4246-3-3-6-20"
       transform="matrix(0.72899519,0,0,0.71822761,500.1234,417.16559)"><tspan
         sodipodi:role="line"
         style="font-style:normal;font-variant:normal;font-weight:normal;font-stretch:normal;font-size:95.64933777px;line-height:80.00000119%;font-family:'Alex Brush';-inkscape-font-specification:'Alex Brush';text-align:center;text-anchor:middle;fill:#ffffff;stroke:#ffffff;stroke-width:2.07299328;stroke-miterlimit:4;stroke-dasharray:none;stroke-opacity:1"
         x="1000.265"
         y="1716.373"
         id="tspan4430">A Fenomenal</tspan><tspan
         sodipodi:role="line"
         style="font-style:normal;font-variant:normal;font-weight:normal;font-stretch:normal;font-size:95.64933777px;line-height:80.00000119%;font-family:'Alex Brush';-inkscape-font-specification:'Alex Brush';text-align:center;text-anchor:middle;fill:#ffffff;stroke:#ffffff;stroke-width:2.07299328;stroke-miterlimit:4;stroke-dasharray:none;stroke-opacity:1"
         x="1000.265"
         y="1792.8926"
         id="tspan406">Saffron</tspan></text>
    <text
       xml:space="preserve"
       style="font-style:normal;font-variant:normal;font-weight:normal;font-stretch:normal;line-height:0%;font-family:Lavi;-inkscape-font-specification:Lavi;text-align:center;letter-spacing:0px;word-spacing:0px;text-anchor:middle;opacity:0.7;fill:#784421;fill-opacity:1;stroke:#502d16;stroke-width:3.4000001;stroke-miterlimit:4;stroke-dasharray:none;stroke-opacity:1;filter:url(#filter4367-7-1)"
       x="1816.3196"
       y="1029.2672"
       id="text4246-3-3-5"><tspan
         sodipodi:role="line"
         style="font-style:normal;font-variant:normal;font-weight:normal;font-stretch:normal;font-size:95.64933777px;line-height:1.25;font-family:'Alex Brush';-inkscape-font-specification:'Alex Brush';text-align:start;text-anchor:start;fill:#784421;stroke:#502d16;stroke-width:3.4000001;stroke-miterlimit:4;stroke-dasharray:none;stroke-opacity:1"
         x="1816.3196"
         y="1029.2672"
         id="tspan4144-7-6-3">Chique</tspan></text>
    <text
       xml:space="preserve"
       style="font-style:normal;font-variant:normal;font-weight:normal;font-stretch:normal;line-height:80.00000119%;font-family:Lavi;-inkscape-font-specification:Lavi;text-align:center;letter-spacing:0px;word-spacing:0px;text-anchor:middle;opacity:0.5;fill:#ffffff;fill-opacity:1;stroke:#ffffff;stroke-width:2.07299328;stroke-miterlimit:4;stroke-dasharray:none;stroke-opacity:1;filter:url(#filter4375-4-1-1-1-9-3)"
       x="1000.265"
       y="1716.373"
       id="text4246-3-3-6"
       transform="matrix(0.72899519,0,0,0.71822761,1185.6626,417.16559)"><tspan
         sodipodi:role="line"
         style="font-style:normal;font-variant:normal;font-weight:normal;font-stretch:normal;font-size:95.64933777px;line-height:80.00000119%;font-family:'Alex Brush';-inkscape-font-specification:'Alex Brush';text-align:center;text-anchor:middle;fill:#ffffff;stroke:#ffffff;stroke-width:2.07299328;stroke-miterlimit:4;stroke-dasharray:none;stroke-opacity:1"
         x="1000.265"
         y="1716.373"
         id="tspan5721">Especial da</tspan><tspan
         sodipodi:role="line"
         style="font-style:normal;font-variant:normal;font-weight:normal;font-stretch:normal;font-size:95.64933777px;line-height:80.00000119%;font-family:'Alex Brush';-inkscape-font-specification:'Alex Brush';text-align:center;text-anchor:middle;fill:#ffffff;stroke:#ffffff;stroke-width:2.07299328;stroke-miterlimit:4;stroke-dasharray:none;stroke-opacity:1"
         x="1000.265"
         y="1792.8926"
         id="tspan412">Saffron</tspan></text>
    <text
       xml:space="preserve"
       style="font-style:normal;font-variant:normal;font-weight:normal;font-stretch:normal;line-height:0%;font-family:Lavi;-inkscape-font-specification:Lavi;letter-spacing:0px;word-spacing:0px;fill:#000000;fill-opacity:1;stroke:#ffffff;stroke-width:2.1487186;stroke-miterlimit:4;stroke-dasharray:none;stroke-opacity:1;filter:url(#filter4375-4-1-1-1-9)"
       x="787.65729"
       y="1584.5073"
       id="text4580"
       transform="matrix(0.55131378,-1.1747688,0.21584014,1.4415375,276.92641,1516.4447)"><tspan
         sodipodi:role="line"
         id="tspan4582"
         x="787.65729"
         y="1584.5073"
         style="font-size:70px;line-height:100%;letter-spacing:4.88345098px;fill:#ffffff;stroke:#ffffff;stroke-width:2.1487186;stroke-miterlimit:4;stroke-dasharray:none;stroke-opacity:1"><tspan
           style="font-size:67.55827332px;line-height:100%;letter-spacing:4.88345098px;stroke:#ffffff;stroke-width:2.1487186;stroke-miterlimit:4;stroke-dasharray:none;stroke-opacity:1"
           id="tspan4439"><tspan
   style="font-size:79.76689911px"
   id="tspan4441">P</tspan>A<tspan
   style="font-size:55.34964371px"
   id="tspan4443">F</tspan></tspan><tspan
           style="font-size:80.40014648px;line-height:100%;letter-spacing:4.88345098px;stroke:#ffffff;stroke-width:2.1487186;stroke-miterlimit:4;stroke-dasharray:none;stroke-opacity:1"
           id="tspan4617">!</tspan></tspan></text>
    <text
       xml:space="preserve"
       style="font-style:normal;font-weight:normal;font-size:40px;line-height:125%;font-family:sans-serif;letter-spacing:0px;word-spacing:0px;fill:#000000;fill-opacity:1;stroke:none;stroke-width:1px;stroke-linecap:butt;stroke-linejoin:miter;stroke-opacity:1"
       x="600.74561"
       y="968.8421"
       id="text5693"><tspan
         sodipodi:role="line"
         id="tspan5691"
         x="600.74561"
         y="1005.3353"></tspan></text>
  </g>
</svg>
