<?xml version="1.0" encoding="UTF-8" standalone="no"?>
<!-- Created with Inkscape (http://www.inkscape.org/) -->

<svg
   xmlns:dc="http://purl.org/dc/elements/1.1/"
   xmlns:cc="http://creativecommons.org/ns#"
   xmlns:rdf="http://www.w3.org/1999/02/22-rdf-syntax-ns#"
   xmlns:svg="http://www.w3.org/2000/svg"
   xmlns="http://www.w3.org/2000/svg"
   xmlns:xlink="http://www.w3.org/1999/xlink"
   xmlns:sodipodi="http://sodipodi.sourceforge.net/DTD/sodipodi-0.dtd"
   xmlns:inkscape="http://www.inkscape.org/namespaces/inkscape"
   id="svg2"
   version="1.1"
   inkscape:version="0.91 r13725"
   width="2481"
   height="3503"
   sodipodi:docname="Pepper-and-Carrot_by-David-Revoy_E23P02.svg">
  <metadata
     id="metadata8">
    <rdf:RDF>
      <cc:Work
         rdf:about="">
        <dc:format>image/svg+xml</dc:format>
        <dc:type
           rdf:resource="http://purl.org/dc/dcmitype/StillImage" />
        <dc:title />
      </cc:Work>
    </rdf:RDF>
  </metadata>
  <defs
     id="defs6" />
  <sodipodi:namedview
     pagecolor="#ffffff"
     bordercolor="#666666"
     borderopacity="1"
     objecttolerance="10"
     gridtolerance="10"
     guidetolerance="10"
     inkscape:pageopacity="0"
     inkscape:pageshadow="2"
     inkscape:window-width="1920"
     inkscape:window-height="1026"
     id="namedview4"
     showgrid="false"
     inkscape:zoom="0.3478261"
     inkscape:cx="1151.3451"
     inkscape:cy="635.69506"
     inkscape:window-x="0"
     inkscape:window-y="27"
     inkscape:window-maximized="1"
     inkscape:current-layer="layer3" />
  <g
     inkscape:groupmode="layer"
     id="layer2"
     inkscape:label="artwork"
     sodipodi:insensitive="true">
    <image
       sodipodi:absref="/home/deevad/peppercarrot/webcomics/New/lang/fr/../gfx_Pepper-and-Carrot_by-David-Revoy_E23P02.png"
       xlink:href="../gfx_Pepper-and-Carrot_by-David-Revoy_E23P02.png"
       y="0"
       x="0"
       id="image10"
       height="3503"
       width="2481" />
  </g>
  <g
     inkscape:groupmode="layer"
     id="layer3"
     inkscape:label="speechbubbles"
     style="opacity:1">
    <path
       style="color:#000000;display:inline;overflow:visible;visibility:visible;fill:#ffffff;fill-opacity:1;fill-rule:nonzero;stroke:none;stroke-width:1px;marker:none;enable-background:accumulate"
       d="m 951.5933,1473.6441 c 42.85201,-30.6327 130.4159,-50.3775 203.3705,7.4307 57.7743,45.7796 38.4694,109.6282 7.6017,128.8691 -30.8676,19.2409 -129.0974,21.0952 -174.2806,10.2268 -34.8811,-8.3903 -73.12038,-28.1676 -75.22816,-78.646 -0.86027,-20.6022 -4.31545,-37.2479 38.53656,-67.8806 z"
       id="path4040"
       inkscape:connector-curvature="0"
       sodipodi:nodetypes="zssssz" />
    <path
       style="fill:#ffffff;fill-rule:evenodd;stroke:none;stroke-width:1px;stroke-linecap:butt;stroke-linejoin:miter;stroke-opacity:1"
       d="m 1054.4405,1765.324 c -12.3953,-22.6257 4.8341,-35.5794 4.6846,-49.2442 -0.1543,-14.1069 -33.2797,-25.9555 -34.0153,-39.0315 -0.7356,-13.0761 20.5032,-26.9572 19.032,-47.3885 -1.4712,-20.4314 -25.011,-24.5177 -22.8041,-0.8173 2.2069,23.7004 -15.6571,27.8387 -11.7699,46.5835 6.483,31.2614 30.8848,30.6379 38.523,39.431 5.057,5.8216 -4.6847,18.5941 -2.4778,32.4874 2.2069,13.8933 8.8275,17.9796 8.8275,17.9796 z"
       id="path4272"
       inkscape:connector-curvature="0"
       sodipodi:nodetypes="csssssssc" />
    <path
       style="fill:#ffffff;stroke:none"
       d="m 1622.5303,1563.0329 c 5.1541,-63.0734 48.5361,-76.883 70.0322,-85.5025 21.4961,-8.6197 112.8367,-20.4367 172.9017,-19.3059 60.0651,1.1309 207.1775,4.6624 231.5594,11.1796 49.9033,13.339 99.4847,42.9581 100.6,83.5888 1.1154,40.6305 -13.8094,71.8949 -49.1883,96.0457 -35.3791,24.151 -163.7925,35.3276 -259.7148,35.904 -84.4959,0.5077 -185.1394,-17.2689 -196.6279,-24.2534 -11.4884,-6.9846 -68.6298,-48.0047 -69.5623,-97.6563 z"
       id="path3278"
       inkscape:connector-curvature="0"
       sodipodi:nodetypes="ccssssssc" />
    <path
       style="color:#000000;display:inline;overflow:visible;visibility:visible;fill:#ffffff;fill-opacity:1;fill-rule:nonzero;stroke:none;stroke-width:1px;marker:none;enable-background:accumulate"
       d="m 2306.8519,1501.2431 c -3.3015,17.6285 -6.5251,36.0465 -16.5742,51.0265 -2.9438,4.1952 -6.2726,8.3203 -10.3977,11.2503 -4.952,2.0462 -10.5106,-0.1777 -14.1301,-3.9795 -5.5933,-5.1132 -9.4498,-12.8831 -16.8764,-15.4078 -5.4477,-1.7019 -10.2634,2.1026 -14.5741,4.918 -10.8499,7.4017 -20.7857,16.3852 -32.7316,21.9366 -13.0507,7.1639 -27.2917,13.7117 -42.4274,13.0803 -5.9858,-0.3542 -12.2078,-1.5951 -17.0927,-5.4909 -12.9618,-9.4069 -20.9954,-26.6382 -18.2647,-42.9738 2.6942,-10.2389 14.039,-17.6238 24.0122,-13.9292 5.2919,1.8685 8.551,7.1399 10.0291,12.4759 4.4744,9.2979 13.8589,15.3752 23.6608,16.4167 8.0767,0.9972 16.3468,-0.6515 23.6235,-4.2797 11.1725,-2.2031 18.6721,-11.736 27.1027,-18.7576 3.898,-3.1478 8.252,-6.2192 13.1972,-7.0722 7.3458,0.5316 12.2935,7.0789 15.8693,13.1143 3.8411,6.1272 7.6353,13.6796 14.9853,15.6694 4.9282,2.0936 8.0913,-3.4795 11.3841,-6.2587 9.4666,-10.3996 15.6617,-23.7734 18.8064,-37.6716 0.2044,-1.3481 0.3033,-2.7058 0.3983,-4.067 z"
       id="path4496"
       inkscape:connector-curvature="0" />
    <path
       style="color:#000000;display:inline;overflow:visible;visibility:visible;fill:#ffffff;fill-opacity:1;fill-rule:nonzero;stroke:none;stroke-width:1px;marker:none;enable-background:accumulate"
       d="m 185.13943,2836.0913 c -8.90048,-37.4297 14.83408,-136.8525 197.29444,-128.6646 182.46023,8.1877 212.12869,54.9747 216.57885,69.011 4.45032,14.0361 43.01912,93.5742 -99.38886,114.6285 -142.40813,21.0542 -269.98189,-1.1698 -314.48443,-54.9749 z"
       id="path3525"
       inkscape:connector-curvature="0" />
    <path
       style="color:#000000;display:inline;overflow:visible;visibility:visible;fill:#ffffff;fill-opacity:1;fill-rule:nonzero;stroke:none;stroke-width:1px;marker:none;enable-background:accumulate"
       d="m 349.20099,2975.8959 c 9.35167,-52.7471 44.20798,-84.2104 63.76148,-95.3151 19.55351,-11.1047 245.69415,-24.06 295.003,-25.9109 49.30885,-1.8507 192.13453,-2.7761 254.19568,29.6125 62.06115,32.3886 85.01515,75.8819 85.86545,100.8673 0.8502,24.9855 -22.104,91.6136 -139.42509,111.9722 -117.32103,20.3586 -235.07449,28.5399 -280.13254,24.8382 -45.05813,-3.7014 -198.90703,-10.8607 -241.41459,-54.3539 -42.50775,-43.4933 -37.00323,-60.2471 -37.85339,-91.7103 z"
       id="path5909"
       inkscape:connector-curvature="0"
       sodipodi:nodetypes="csssssssc" />
    <path
       style="fill:#ffffff;fill-rule:evenodd;stroke:none;stroke-width:1px;stroke-linecap:butt;stroke-linejoin:miter;stroke-opacity:1"
       d="m 1032.8846,3001.2911 c 64.3595,-20.5055 125.4599,-16.3396 159.0938,-8.4954 0.9399,10.0872 -6.0538,18.1194 2.4887,25.4861 5.3864,4.645 55.4971,24.5806 111.8647,-24.2725 -60.9167,31.4127 -81.1572,20.4407 -93.2206,13.35 0.1589,-20.1238 23.4006,-53.5398 -172.7689,-32.7681 -196.36699,20.7927 -7.4577,26.6999 -7.4577,26.6999 z"
       id="path4316"
       inkscape:connector-curvature="0"
       sodipodi:nodetypes="ccsccsc" />
    <path
       style="fill:#ffffff;stroke:none"
       d="m 2016.9173,3271.3851 c -1.4692,-26.8262 24.8738,-93.9827 153.3735,-88.9314 128.4999,5.0514 168.7182,34.5591 172.4839,82.2426 5.9569,75.4338 -61.6467,95.5924 -158.7194,101.1797 -100.0714,5.76 -168.6911,-46.0204 -167.138,-94.4909 z"
       id="path3280-8"
       inkscape:connector-curvature="0"
       sodipodi:nodetypes="csssc" />
    <path
       style="fill:#ffffff;fill-rule:evenodd;stroke:none;stroke-width:1px;stroke-linecap:butt;stroke-linejoin:miter;stroke-opacity:1"
       d="m 2035.1821,3063.1067 c 62.6875,-14.0507 132.7452,-5.414 131.8599,14.0506 -1.3219,29.0657 -58.7184,68.5728 -54.1912,71.7994 59.553,42.4434 62.2223,48.0386 58.9798,82.6248 -3.2425,34.5862 -26.5527,-14.9887 -37.3609,-31.201 -10.8082,-16.2123 -47.4083,-28.1111 -48.4891,-46.485 -1.0808,-18.3739 69.4777,-55.2769 65.1544,-75.8124 -4.3232,-20.5356 -115.9529,-14.9764 -115.9529,-14.9764 z"
       id="path4324"
       inkscape:connector-curvature="0"
       sodipodi:nodetypes="cssssssc" />
  </g>
  <g
     inkscape:groupmode="layer"
     id="layer1"
     inkscape:label="txt">
    <text
       xml:space="preserve"
       style="font-style:normal;font-variant:normal;font-weight:normal;font-stretch:normal;font-size:12px;line-height:125%;font-family:Lavi;-inkscape-font-specification:Lavi;text-align:center;letter-spacing:0px;word-spacing:0px;text-anchor:middle;fill:#000000;fill-opacity:1;stroke:none"
       x="1050.5168"
       y="1521.3531"
       id="text4246"
       sodipodi:linespacing="125%"><tspan
         sodipodi:role="line"
         style="font-size:45px"
         x="1050.5168"
         y="1521.3531"
         id="tspan4252">Merci</tspan><tspan
         sodipodi:role="line"
         style="font-size:45px"
         x="1050.5168"
         y="1577.6031"
         id="tspan4144">Carrot...</tspan></text>
    <text
       xml:space="preserve"
       style="font-style:normal;font-variant:normal;font-weight:normal;font-stretch:normal;font-size:12px;line-height:125%;font-family:Lavi;-inkscape-font-specification:Lavi;text-align:center;letter-spacing:0px;word-spacing:0px;text-anchor:middle;fill:#000000;fill-opacity:1;stroke:none"
       x="1917.8341"
       y="1531.2719"
       id="text4246-3"
       sodipodi:linespacing="125%"><tspan
         sodipodi:role="line"
         style="font-size:45px"
         x="1917.8341"
         y="1531.2719"
         id="tspan4144-7">Tu sais, je fais tant</tspan><tspan
         sodipodi:role="line"
         style="font-size:45px"
         x="1917.8341"
         y="1587.5219"
         id="tspan4171">d'effort pour être une</tspan><tspan
         sodipodi:role="line"
         style="font-size:45px"
         x="1917.8341"
         y="1643.7719"
         id="tspan4175">bonne sorcière...</tspan></text>
    <text
       xml:space="preserve"
       style="font-style:normal;font-variant:normal;font-weight:normal;font-stretch:normal;font-size:12px;line-height:125%;font-family:Lavi;-inkscape-font-specification:Lavi;text-align:center;letter-spacing:0px;word-spacing:0px;text-anchor:middle;fill:#000000;fill-opacity:1;stroke:none"
       x="382.70041"
       y="2798.4883"
       id="text4246-3-5"
       sodipodi:linespacing="125%"><tspan
         sodipodi:role="line"
         style="font-size:45px"
         x="382.70041"
         y="2798.4883"
         id="tspan4175-6">...dans les règles</tspan><tspan
         sodipodi:role="line"
         style="font-size:45px"
         x="382.70041"
         y="2854.7383"
         id="tspan4206">et tout...</tspan></text>
    <text
       xml:space="preserve"
       style="font-style:normal;font-variant:normal;font-weight:normal;font-stretch:normal;font-size:12px;line-height:125%;font-family:Lavi;-inkscape-font-specification:Lavi;text-align:center;letter-spacing:0px;word-spacing:0px;text-anchor:middle;fill:#000000;fill-opacity:1;stroke:none"
       x="698.92749"
       y="2956.8984"
       id="text4246-3-5-2"
       sodipodi:linespacing="125%"><tspan
         sodipodi:role="line"
         style="font-size:45px"
         x="698.92749"
         y="2956.8984"
         id="tspan4206-1">...c'est pas juste que Saffron</tspan><tspan
         sodipodi:role="line"
         style="font-size:45px"
         x="698.92749"
         y="3013.1484"
         id="tspan4231">devienne aussi populaire avec</tspan><tspan
         sodipodi:role="line"
         style="font-size:45px"
         x="698.92749"
         y="3069.3984"
         id="tspan4233">ce genre de pratique...</tspan></text>
    <text
       xml:space="preserve"
       style="font-style:normal;font-variant:normal;font-weight:normal;font-stretch:normal;font-size:12px;line-height:125%;font-family:Lavi;-inkscape-font-specification:Lavi;text-align:center;letter-spacing:0px;word-spacing:0px;text-anchor:middle;fill:#000000;fill-opacity:1;stroke:none"
       x="2182.7688"
       y="3254.8188"
       id="text4246-3-5-2-2"
       sodipodi:linespacing="125%"><tspan
         sodipodi:role="line"
         style="font-size:45px"
         x="2182.7688"
         y="3254.8188"
         id="tspan4233-9">...Vraiment</tspan><tspan
         sodipodi:role="line"
         style="font-size:45px"
         x="2182.7688"
         y="3311.0688"
         id="tspan4264">pas juste.</tspan></text>
  </g>
</svg>
