<?xml version="1.0" encoding="UTF-8" standalone="no"?>
<!-- Created with Inkscape (http://www.inkscape.org/) -->

<svg
   xmlns:dc="http://purl.org/dc/elements/1.1/"
   xmlns:cc="http://creativecommons.org/ns#"
   xmlns:rdf="http://www.w3.org/1999/02/22-rdf-syntax-ns#"
   xmlns:svg="http://www.w3.org/2000/svg"
   xmlns="http://www.w3.org/2000/svg"
   xmlns:xlink="http://www.w3.org/1999/xlink"
   xmlns:sodipodi="http://sodipodi.sourceforge.net/DTD/sodipodi-0.dtd"
   xmlns:inkscape="http://www.inkscape.org/namespaces/inkscape"
   id="svg2"
   version="1.1"
   inkscape:version="0.91 r13725"
   width="2481"
   height="3503"
   sodipodi:docname="Pepper-and-Carrot_by-David-Revoy_E23P02.svg">
  <metadata
     id="metadata8">
    <rdf:RDF>
      <cc:Work
         rdf:about="">
        <dc:format>image/svg+xml</dc:format>
        <dc:type
           rdf:resource="http://purl.org/dc/dcmitype/StillImage" />
        <dc:title />
      </cc:Work>
    </rdf:RDF>
  </metadata>
  <defs
     id="defs6" />
  <sodipodi:namedview
     pagecolor="#ffffff"
     bordercolor="#666666"
     borderopacity="1"
     objecttolerance="10"
     gridtolerance="10"
     guidetolerance="10"
     inkscape:pageopacity="0"
     inkscape:pageshadow="2"
     inkscape:window-width="1920"
     inkscape:window-height="1026"
     id="namedview4"
     showgrid="false"
     inkscape:zoom="0.3478261"
     inkscape:cx="896.68886"
     inkscape:cy="839.17005"
     inkscape:window-x="0"
     inkscape:window-y="27"
     inkscape:window-maximized="1"
     inkscape:current-layer="layer3" />
  <g
     inkscape:groupmode="layer"
     id="layer2"
     inkscape:label="artwork"
     sodipodi:insensitive="true">
    <image
       sodipodi:absref="/home/deevad/peppercarrot/webcomics/New/lang/fr/../gfx_Pepper-and-Carrot_by-David-Revoy_E23P02.png"
       xlink:href="../gfx_Pepper-and-Carrot_by-David-Revoy_E23P02.png"
       width="2481"
       height="3503"
       id="image10"
       x="0"
       y="0" />
  </g>
  <g
     inkscape:groupmode="layer"
     id="layer3"
     inkscape:label="speechbubbles"
     style="opacity:1">
    <path
       style="color:#000000;display:inline;overflow:visible;visibility:visible;fill:#ffffff;fill-opacity:1;fill-rule:nonzero;stroke:none;stroke-width:1px;marker:none;enable-background:accumulate"
       d="m 951.5933,1473.6441 c 42.85201,-30.6327 130.4159,-50.3775 203.3705,7.4307 57.7743,45.7796 38.4694,109.6282 7.6017,128.8691 -30.8676,19.2409 -129.0974,21.0952 -174.2806,10.2268 -34.8811,-8.3903 -73.12038,-28.1676 -75.22816,-78.646 -0.86027,-20.6022 -4.31545,-37.2479 38.53656,-67.8806 z"
       id="path4040"
       inkscape:connector-curvature="0"
       sodipodi:nodetypes="zssssz" />
    <path
       style="fill:#ffffff;fill-rule:evenodd;stroke:none;stroke-width:1px;stroke-linecap:butt;stroke-linejoin:miter;stroke-opacity:1"
       d="m 1054.4405,1765.324 c -12.3953,-22.6257 4.8341,-35.5794 4.6846,-49.2442 -0.1543,-14.1069 -33.2797,-25.9555 -34.0153,-39.0315 -0.7356,-13.0761 20.5032,-26.9572 19.032,-47.3885 -1.4712,-20.4314 -25.011,-24.5177 -22.8041,-0.8173 2.2069,23.7004 -15.6571,27.8387 -11.7699,46.5835 6.483,31.2614 30.8848,30.6379 38.523,39.431 5.057,5.8216 -4.6847,18.5941 -2.4778,32.4874 2.2069,13.8933 8.8275,17.9796 8.8275,17.9796 z"
       id="path4272"
       inkscape:connector-curvature="0"
       sodipodi:nodetypes="csssssssc" />
    <path
       style="fill:#ffffff;stroke:none"
       d="m 1615.0303,1557.094 c 5.1541,-70.0258 48.5361,-85.3576 70.0322,-94.9272 21.4961,-9.5699 112.8367,-22.6894 172.9017,-21.434 60.0651,1.2556 207.1775,5.1763 231.5594,12.4119 49.9033,14.8093 99.4847,47.6933 100.6,92.8026 1.1154,45.1091 -13.8094,79.8197 -49.1883,106.6325 -35.3791,26.8131 -163.7925,39.2217 -259.7148,39.8616 -84.4959,0.5637 -185.1394,-19.1724 -196.6279,-26.9268 -11.4884,-7.7545 -68.6298,-53.2961 -69.5623,-108.4206 z"
       id="path3278"
       inkscape:connector-curvature="0"
       sodipodi:nodetypes="ccssssssc" />
    <path
       style="color:#000000;display:inline;overflow:visible;visibility:visible;fill:#ffffff;fill-opacity:1;fill-rule:nonzero;stroke:none;stroke-width:1px;marker:none;enable-background:accumulate"
       d="m 2309.3519,1491.2431 c -3.3015,17.6285 -6.5251,36.0465 -16.5742,51.0265 -2.9438,4.1952 -6.2726,8.3203 -10.3977,11.2503 -4.952,2.0462 -10.5106,-0.1777 -14.1301,-3.9795 -5.5933,-5.1132 -9.4498,-12.8831 -16.8764,-15.4078 -5.4477,-1.7019 -10.2634,2.1026 -14.5741,4.918 -10.8499,7.4017 -20.7857,16.3852 -32.7316,21.9366 -13.0507,7.1639 -27.2917,13.7117 -42.4274,13.0803 -5.9858,-0.3542 -12.2078,-1.5951 -17.0927,-5.4909 -12.9618,-9.4069 -20.9954,-26.6382 -18.2647,-42.9738 2.6942,-10.2389 14.039,-17.6238 24.0122,-13.9292 5.2919,1.8685 8.551,7.1399 10.0291,12.4759 4.4744,9.2979 13.8589,15.3752 23.6608,16.4167 8.0767,0.9972 16.3468,-0.6515 23.6235,-4.2797 11.1725,-2.2031 18.6721,-11.736 27.1027,-18.7576 3.898,-3.1478 8.252,-6.2192 13.1972,-7.0722 7.3458,0.5316 12.2935,7.0789 15.8693,13.1143 3.8411,6.1272 7.6353,13.6796 14.9853,15.6694 4.9282,2.0936 8.0913,-3.4795 11.3841,-6.2587 9.4666,-10.3996 15.6617,-23.7734 18.8064,-37.6716 0.2044,-1.3481 0.3033,-2.7058 0.3983,-4.067 z"
       id="path4496"
       inkscape:connector-curvature="0" />
    <path
       style="color:#000000;display:inline;overflow:visible;visibility:visible;fill:#ffffff;fill-opacity:1;fill-rule:nonzero;stroke:none;stroke-width:1px;marker:none;enable-background:accumulate"
       d="m 141.62579,2788.5213 c -8.70184,-47.7495 3.16086,-146.229 181.54918,-135.7836 178.38819,10.4452 213.06561,30.4344 224.97789,80.4768 11.91243,42.4807 19.37474,130.716 -119.85507,157.5752 -139.22995,26.8591 -277.18911,-26.067 -286.672,-102.2684 z"
       id="path3525"
       inkscape:connector-curvature="0"
       sodipodi:nodetypes="cscsc" />
    <path
       style="color:#000000;display:inline;overflow:visible;visibility:visible;fill:#ffffff;fill-opacity:1;fill-rule:nonzero;stroke:none;stroke-width:1px;marker:none;enable-background:accumulate"
       d="m 354.11977,3019.1759 c 8.91386,-67.6402 29.98453,-108.4146 48.98352,-122.2273 80.55083,-58.5622 220.92469,-41.9339 278.24388,-42.9223 47.0603,-0.8114 186.08777,6.1356 245.24346,47.669 59.15569,41.5336 70.71633,87.6117 71.52673,119.6517 0.8104,32.0402 11.36144,143.797 -100.46722,169.9038 -111.82852,26.1068 -269.76672,13.0521 -312.71533,8.3052 -42.94868,-4.7466 -157.1645,-4.2317 -197.68202,-60.0052 -40.5177,-55.7737 -32.32266,-80.028 -33.13302,-120.3749 z"
       id="path5909"
       inkscape:connector-curvature="0"
       sodipodi:nodetypes="csssssssc" />
    <path
       style="fill:#ffffff;fill-rule:evenodd;stroke:none;stroke-width:1px;stroke-linecap:butt;stroke-linejoin:miter;stroke-opacity:1"
       d="m 1032.8846,3001.2911 c 64.3595,-20.5055 125.4599,-16.3396 159.0938,-8.4954 0.9399,10.0872 -6.0538,18.1194 2.4887,25.4861 5.3864,4.645 55.4971,24.5806 111.8647,-24.2725 -60.9167,31.4127 -81.1572,20.4407 -93.2206,13.35 0.1589,-20.1238 23.4006,-53.5398 -172.7689,-32.7681 -196.36699,20.7927 -7.4577,26.6999 -7.4577,26.6999 z"
       id="path4316"
       inkscape:connector-curvature="0"
       sodipodi:nodetypes="ccsccsc" />
    <path
       style="fill:#ffffff;stroke:none"
       d="m 2072.2733,3310.3738 c -1.5464,-36.296 26.1811,-127.1592 161.4338,-120.3248 135.253,6.8346 177.5848,46.7587 181.5485,111.2748 6.2699,102.0624 -64.8865,129.3371 -167.0606,136.8967 -105.3305,7.7934 -177.5564,-62.2658 -175.9217,-127.8467 z"
       id="path3280-8"
       inkscape:connector-curvature="0"
       sodipodi:nodetypes="csssc" />
    <path
       style="fill:#ffffff;fill-rule:evenodd;stroke:none;stroke-width:1px;stroke-linecap:butt;stroke-linejoin:miter;stroke-opacity:1"
       d="m 1962.1408,3075.8119 c 58.5723,-8.1214 130.5937,7.9418 134.9614,27.956 6.522,29.8863 -39.9231,64.8403 -34.5494,68.6346 70.6867,49.9102 74.8507,55.9614 80.9507,91.354 6.0999,35.3925 -30.4558,-18.1886 -45.579,-36.0357 -15.1232,-17.8472 -54.7409,-33.8686 -60.7703,-52.9567 -6.0294,-19.0881 54.2112,-50.0105 44.3735,-71.6618 -9.8378,-21.6514 -119.3869,-27.2904 -119.3869,-27.2904 z"
       id="path4324"
       inkscape:connector-curvature="0"
       sodipodi:nodetypes="cssssssc" />
  </g>
  <g
     inkscape:groupmode="layer"
     id="layer1"
     inkscape:label="txt">
    <text
       xml:space="preserve"
       style="font-style:normal;font-variant:normal;font-weight:normal;font-stretch:normal;font-size:12px;line-height:125%;font-family:Lavi;-inkscape-font-specification:Lavi;text-align:center;letter-spacing:0px;word-spacing:0px;text-anchor:middle;fill:#000000;fill-opacity:1;stroke:none"
       x="1050.5168"
       y="1521.3531"
       id="text4246"
       sodipodi:linespacing="125%"><tspan
         sodipodi:role="line"
         style="font-size:45px"
         x="1050.5168"
         y="1521.3531"
         id="tspan4252">Merci</tspan><tspan
         sodipodi:role="line"
         style="font-size:45px"
         x="1050.5168"
         y="1577.6031"
         id="tspan4144">Carrot…</tspan></text>
    <text
       xml:space="preserve"
       style="font-style:normal;font-variant:normal;font-weight:normal;font-stretch:normal;font-size:12px;line-height:125%;font-family:Lavi;-inkscape-font-specification:Lavi;text-align:center;letter-spacing:0px;word-spacing:0px;text-anchor:middle;fill:#000000;fill-opacity:1;stroke:none"
       x="1907.8341"
       y="1523.7719"
       id="text4246-3"
       sodipodi:linespacing="125%"><tspan
         sodipodi:role="line"
         style="font-size:45px"
         x="1907.8341"
         y="1523.7719"
         id="tspan4167">Tu sais, je travaille dur</tspan><tspan
         sodipodi:role="line"
         style="font-size:45px"
         x="1915.7443"
         y="1580.0219"
         id="tspan4169">tous les jours pour être </tspan><tspan
         sodipodi:role="line"
         style="font-size:45px"
         x="1907.8341"
         y="1636.2719"
         id="tspan4177">une bonne sorcière...…</tspan></text>
    <text
       xml:space="preserve"
       style="font-style:normal;font-variant:normal;font-weight:normal;font-stretch:normal;font-size:12px;line-height:125%;font-family:Lavi;-inkscape-font-specification:Lavi;text-align:center;letter-spacing:0px;word-spacing:0px;text-anchor:middle;fill:#000000;fill-opacity:1;stroke:none"
       x="343.00287"
       y="2734.2161"
       id="text4246-3-5"
       sodipodi:linespacing="125%"><tspan
         sodipodi:role="line"
         style="font-size:45px"
         x="343.00287"
         y="2734.2161"
         id="tspan4206">…dans le respect</tspan><tspan
         sodipodi:role="line"
         style="font-size:45px"
         x="343.00287"
         y="2790.4661"
         id="tspan4181"> des traditions,</tspan><tspan
         sodipodi:role="line"
         style="font-size:45px"
         x="343.00287"
         y="2846.7161"
         id="tspan4183"> des règles…</tspan></text>
    <text
       xml:space="preserve"
       style="font-style:normal;font-variant:normal;font-weight:normal;font-stretch:normal;font-size:12px;line-height:125%;font-family:Lavi;-inkscape-font-specification:Lavi;text-align:center;letter-spacing:0px;word-spacing:0px;text-anchor:middle;fill:#000000;fill-opacity:1;stroke:none"
       x="679.74036"
       y="2932.6072"
       id="text4246-3-5-2"
       sodipodi:linespacing="125%"><tspan
         sodipodi:role="line"
         style="font-size:45px"
         x="679.74036"
         y="2932.6072"
         id="tspan4233">…et voilà que Safran,</tspan><tspan
         sodipodi:role="line"
         style="font-size:45px"
         x="679.74036"
         y="2988.8572"
         id="tspan4190">d'un claquement de doigt,</tspan><tspan
         sodipodi:role="line"
         style="font-size:45px"
         x="687.65051"
         y="3045.1072"
         id="tspan4194">abuse de sa victoire et de </tspan><tspan
         sodipodi:role="line"
         style="font-size:45px"
         x="687.65051"
         y="3101.3572"
         id="tspan4198">ses charmes, et elle devient </tspan><tspan
         sodipodi:role="line"
         style="font-size:45px"
         x="679.74036"
         y="3157.6072"
         id="tspan4200">tout de suite populaire !</tspan></text>
    <text
       xml:space="preserve"
       style="font-style:normal;font-variant:normal;font-weight:normal;font-stretch:normal;font-size:12px;line-height:125%;font-family:Lavi;-inkscape-font-specification:Lavi;text-align:center;letter-spacing:0px;word-spacing:0px;text-anchor:middle;fill:#000000;fill-opacity:1;stroke:none"
       x="2229.9099"
       y="3258.3894"
       id="text4246-3-5-2-2"
       sodipodi:linespacing="125%"><tspan
         sodipodi:role="line"
         style="font-size:45px"
         x="2237.8201"
         y="3258.3894"
         id="tspan4264">…Ce n'est </tspan><tspan
         sodipodi:role="line"
         style="font-size:45px"
         x="2229.9099"
         y="3314.6394"
         id="tspan4207">vraiment</tspan><tspan
         sodipodi:role="line"
         style="font-size:45px"
         x="2229.9099"
         y="3370.8894"
         id="tspan4204"> pas juste.</tspan></text>
  </g>
</svg>
