<?xml version="1.0" encoding="UTF-8" standalone="no"?>
<!-- Created with Inkscape (http://www.inkscape.org/) -->

<svg
   xmlns:dc="http://purl.org/dc/elements/1.1/"
   xmlns:cc="http://creativecommons.org/ns#"
   xmlns:rdf="http://www.w3.org/1999/02/22-rdf-syntax-ns#"
   xmlns:svg="http://www.w3.org/2000/svg"
   xmlns="http://www.w3.org/2000/svg"
   xmlns:xlink="http://www.w3.org/1999/xlink"
   xmlns:sodipodi="http://sodipodi.sourceforge.net/DTD/sodipodi-0.dtd"
   xmlns:inkscape="http://www.inkscape.org/namespaces/inkscape"
   id="svg2"
   version="1.1"
   inkscape:version="0.91 r13725"
   width="2481"
   height="3503"
   sodipodi:docname="Pepper-and-Carrot_by-David-Revoy_E23P05.svg">
  <metadata
     id="metadata8">
    <rdf:RDF>
      <cc:Work
         rdf:about="">
        <dc:format>image/svg+xml</dc:format>
        <dc:type
           rdf:resource="http://purl.org/dc/dcmitype/StillImage" />
        <dc:title />
      </cc:Work>
    </rdf:RDF>
  </metadata>
  <defs
     id="defs6" />
  <sodipodi:namedview
     pagecolor="#ffffff"
     bordercolor="#666666"
     borderopacity="1"
     objecttolerance="10"
     gridtolerance="10"
     guidetolerance="10"
     inkscape:pageopacity="0"
     inkscape:pageshadow="2"
     inkscape:window-width="1920"
     inkscape:window-height="1026"
     id="namedview4"
     showgrid="false"
     inkscape:zoom="0.60835002"
     inkscape:cx="682.70632"
     inkscape:cy="1325.2819"
     inkscape:window-x="0"
     inkscape:window-y="27"
     inkscape:window-maximized="1"
     inkscape:current-layer="layer3" />
  <g
     inkscape:groupmode="layer"
     id="layer2"
     inkscape:label="artwork"
     sodipodi:insensitive="true">
    <image
       sodipodi:absref="/home/deevad/peppercarrot/webcomics/New/lang/fr/../gfx_Pepper-and-Carrot_by-David-Revoy_E23P05.png"
       xlink:href="../gfx_Pepper-and-Carrot_by-David-Revoy_E23P05.png"
       y="0"
       x="0"
       id="image10"
       height="3503"
       width="2481" />
  </g>
  <g
     inkscape:groupmode="layer"
     id="layer3"
     inkscape:label="speechbubbles">
    <path
       style="color:#000000;display:inline;overflow:visible;visibility:visible;fill:#ffffff;fill-opacity:1;fill-rule:nonzero;stroke:none;stroke-width:1px;marker:none;enable-background:accumulate"
       d="M 197.76755,472.18672 C 98.600683,460.14258 68.373534,412.30337 68.536988,327.66348 68.689434,248.72367 61.313166,99.77799 87.745663,87.102376 114.02275,74.501289 187.01312,69.910399 282.63954,70.55094 c 87.0042,0.582787 235.87926,-29.963742 289.99562,121.61601 26.40143,73.95034 14.624,199.23007 -98.2139,256.26885 -109.54214,55.37279 -276.65371,23.75092 -276.65371,23.75092 z"
       id="path3970"
       inkscape:connector-curvature="0"
       sodipodi:nodetypes="csssssc" />
    <path
       style="fill:#ffffff;fill-rule:evenodd;stroke:none;stroke-width:1px;stroke-linecap:butt;stroke-linejoin:miter;stroke-opacity:1"
       d="m 616.06411,547.0358 c -101.4862,82.90422 -273.01217,-15.72321 -290.16477,-62.89286 -17.1526,-47.16964 17.1526,-71.46915 17.1526,-71.46915 l 30.01704,17.1526 c 0,0 -17.15259,-5.71753 -1.42938,37.16396 15.72322,42.88149 138.65016,137.22077 244.42451,80.04545 z"
       id="path4367"
       inkscape:connector-curvature="0"
       sodipodi:nodetypes="csccsc" />
    <path
       style="fill:#ffffff;stroke:none"
       d="m 1208.6007,1199.8254 c -1.3686,-53.5831 51.1096,-69.8942 87.9801,-76.7349 36.8709,-6.8406 159.0075,1.1985 150.77,66.5799 -8.2374,65.3816 -92.2743,72.1725 -138.1172,68.408 -45.843,-3.7645 -93.839,-7.3775 -100.6329,-58.253 z"
       id="path3938"
       inkscape:connector-curvature="0"
       sodipodi:nodetypes="csssc" />
    <path
       style="fill:#ffffff;fill-rule:evenodd;stroke:none;stroke-width:1px;stroke-linecap:butt;stroke-linejoin:miter;stroke-opacity:1"
       d="m 1314.87,1434.9041 c -83.8015,-37.1698 -58.8074,-129.7638 14.8804,-180.8499 73.6878,-51.086 31.0239,-47.0022 31.0239,-47.0022 0,0 -18.0226,-11.2383 -70.5145,47.9216 -52.492,59.16 -87.0061,161.2474 24.6102,179.9305 z"
       id="path4375"
       inkscape:connector-curvature="0"
       sodipodi:nodetypes="cscsc" />
    <path
       style="fill:#ffffff;fill-opacity:1;stroke:none"
       d="m 1700.0009,1238.184 c 6.0859,-62.038 52.7385,-87.4583 68.3188,-91.636 43.535,-11.6734 504.1212,-23.2171 548.2867,20.4683 27.0118,26.718 80.6979,142.7786 -26.2636,217.0025 -58.4141,40.5354 -469.0035,20.7749 -517.057,-7.0128 -50.1184,-28.9818 -83.1874,-67.8192 -73.2849,-138.822 z"
       id="path3659"
       inkscape:connector-curvature="0"
       sodipodi:nodetypes="cssssc" />
    <path
       style="fill:#ffffff;fill-rule:evenodd;stroke:none;stroke-width:1px;stroke-linecap:butt;stroke-linejoin:miter;stroke-opacity:1"
       d="m 1756.031,1518.1378 c 24.2675,-5.1738 2.3375,-12.1848 -4.0584,-24.266 -6.3959,-12.0811 -8.0227,-26.9013 9.033,-30.4546 17.0557,-3.5532 50.4566,10.6599 50.4566,10.6599 0,0 -21.3197,-32.6902 -9.2386,-41.9287 12.0812,-9.2385 54.7206,6.3959 54.7206,6.3959 0,0 -16.3452,-45.482 19.8983,-63.2484 36.2435,-17.7664 81.7255,6.3959 55.4312,15.6344 -26.2943,9.2386 -84.5681,7.1066 -44.7713,77.4615 -62.5378,-29.8475 -60.4058,-23.4516 -64.6697,-19.1877 -4.264,4.264 9.2385,41.9287 14.2131,53.2992 -17.0558,-10.6598 -66.8017,-36.9541 -74.6189,-22.741 -7.8172,14.2132 12.0812,25.5837 11.3705,32.6902 -0.7107,7.1066 -17.7664,5.6853 -17.7664,5.6853 z"
       id="path4394"
       inkscape:connector-curvature="0"
       sodipodi:nodetypes="csscscsscscssc" />
    <path
       style="fill:#ffffff;fill-rule:evenodd;stroke:none;stroke-width:1px;stroke-linecap:butt;stroke-linejoin:miter;stroke-opacity:1"
       d="m 1866.5274,1644.9312 c 22.8371,-32.8604 225.6227,-55.6259 334.3534,-22.239 44.6234,19.2128 102.0147,77.8563 59.6356,125.2802 -56.7273,29.0304 -125.4994,17.8709 -187.0292,31.1587 -71.0512,5.7443 -134.8734,9.6804 -203.0006,-15.6583 -48.0928,-29.0231 -31.0585,-85.7728 -3.9592,-118.5416 z"
       id="path4405"
       inkscape:connector-curvature="0"
       sodipodi:nodetypes="cccccc" />
    <path
       style="fill:#ffffff;fill-rule:evenodd;stroke:none;stroke-width:1px;stroke-linecap:butt;stroke-linejoin:miter;stroke-opacity:1"
       d="m 1750.9267,1594.1797 c 19.7367,-19.7367 46.0523,-32.8945 56.3906,-21.6163 10.3382,11.2781 2.8195,39.4733 2.8195,39.4733 0,0 42.2929,-21.6163 90.2249,34.7742 47.932,56.3906 17.857,52.6312 17.857,52.6312 0,0 -10.3383,-3.7594 -34.7742,-32.8945 -24.4359,-29.1351 -45.1124,-46.9921 -72.3679,-35.714 -9.3984,3.7594 -19.7367,-1.8797 -16.9171,-9.3984 12.2179,-30.075 15.9773,-64.8492 -43.2328,-27.2555 z"
       id="path4419"
       inkscape:connector-curvature="0" />
    <path
       style="fill:#ffffff;fill-rule:evenodd;stroke:none;stroke-width:1px;stroke-linecap:butt;stroke-linejoin:miter;stroke-opacity:1"
       d="m 2248.1034,1743.4267 c 63.7684,10.8082 84.3039,43.0076 107.0011,81.0615 16.0939,26.983 12.9698,87.5463 2.1617,108.0818 -10.8082,20.5356 -74.407,38.7873 -114.5668,45.3944 -60.5606,9.9635 -168.3929,9.6438 -216.1639,3.2425 -44.7364,-5.9947 -90.7887,-11.889 -108.0818,-44.3136 -17.2931,-32.4245 -11.8891,-92.9504 -5.4041,-110.2435 6.4849,-17.2931 28.1013,-68.0916 45.3944,-72.4149 17.2931,-4.3233 281.0129,-10.8082 281.0129,-10.8082 z"
       id="path4423"
       inkscape:connector-curvature="0"
       sodipodi:nodetypes="cssssssscc" />
    <path
       style="color:#000000;display:inline;overflow:visible;visibility:visible;fill:#ffffff;fill-opacity:1;fill-rule:nonzero;stroke:none;stroke-width:1px;marker:none;enable-background:accumulate"
       d="m 288.9194,2251.5789 c -6.33717,-33.0758 10.56191,-120.9334 140.4743,-113.698 129.91227,7.2352 151.03632,48.58 154.20485,60.9834 3.16865,12.4034 30.62976,82.6895 -70.76519,101.2947 -101.39507,18.6052 -192.228,-1.0337 -223.91396,-48.5801 z"
       id="path3525"
       inkscape:connector-curvature="0" />
    <path
       style="color:#000000;display:inline;overflow:visible;visibility:visible;fill:#ffffff;fill-opacity:1;fill-rule:nonzero;stroke:none;stroke-width:1px;marker:none;enable-background:accumulate"
       d="m 127.54434,2546.9663 c -4.39055,-102.0768 -39.450077,-227.5784 226.91726,-267.6617 213.32799,-32.1018 483.93303,-29.5918 463.29844,184.6593 -20.07996,208.4923 -93.87456,189.0892 -217.73505,218.6937 -207.70355,49.6442 -452.59377,-19.4982 -472.48065,-135.6913 z"
       id="path3525-0"
       inkscape:connector-curvature="0"
       sodipodi:nodetypes="csssc" />
    <path
       style="fill:#ffffff;fill-rule:evenodd;stroke:none;stroke-width:1px;stroke-linecap:butt;stroke-linejoin:miter;stroke-opacity:1"
       d="m 742.60914,2350.2751 c 102.97849,-126.0799 251.45982,-276.6361 847.08866,1.322 C 1049.11,2056.78 875.57765,2160.7347 719.24197,2320.9166 c -175.12871,179.4373 23.36717,29.3585 23.36717,29.3585 z"
       id="path4446"
       inkscape:connector-curvature="0"
       sodipodi:nodetypes="ccsc" />
  </g>
  <g
     inkscape:groupmode="layer"
     id="layer1"
     inkscape:label="txt">
    <text
       xml:space="preserve"
       style="font-style:normal;font-variant:normal;font-weight:normal;font-stretch:normal;font-size:12px;line-height:125%;font-family:Lavi;-inkscape-font-specification:Lavi;text-align:center;letter-spacing:0px;word-spacing:0px;text-anchor:middle;fill:#000000;fill-opacity:1;stroke:none"
       x="307.38004"
       y="185.5562"
       id="text4246"
       sodipodi:linespacing="125%"><tspan
         sodipodi:role="line"
         style="font-size:45px"
         x="307.38004"
         y="185.5562"
         id="tspan4252">Il me faudra</tspan><tspan
         sodipodi:role="line"
         style="font-size:45px"
         x="307.38004"
         y="241.8062"
         id="tspan4144">juste une toute</tspan><tspan
         sodipodi:role="line"
         style="font-size:45px"
         x="307.38004"
         y="298.05621"
         id="tspan4146">petite signature</tspan><tspan
         sodipodi:role="line"
         style="font-size:45px"
         x="307.38004"
         y="354.30621"
         id="tspan4148">en bas de ce</tspan><tspan
         sodipodi:role="line"
         style="font-size:45px"
         x="307.38004"
         y="410.55621"
         id="tspan4150">document.</tspan></text>
    <text
       xml:space="preserve"
       style="font-style:normal;font-variant:normal;font-weight:normal;font-stretch:normal;font-size:12px;line-height:125%;font-family:Lavi;-inkscape-font-specification:Lavi;text-align:center;letter-spacing:0px;word-spacing:0px;text-anchor:middle;fill:#000000;fill-opacity:1;stroke:none"
       x="1325.9771"
       y="1175.2607"
       id="text4246-3"
       sodipodi:linespacing="125%"><tspan
         sodipodi:role="line"
         style="font-size:45px"
         x="1325.9771"
         y="1175.2607"
         id="tspan4150-5">Eh,</tspan><tspan
         sodipodi:role="line"
         style="font-size:45px"
         x="1325.9771"
         y="1231.5107"
         id="tspan4196">minute.</tspan></text>
    <text
       xml:space="preserve"
       style="font-style:normal;font-variant:normal;font-weight:normal;font-stretch:normal;font-size:12px;line-height:125%;font-family:Lavi;-inkscape-font-specification:Lavi;text-align:center;letter-spacing:0px;word-spacing:0px;text-anchor:middle;fill:#000000;fill-opacity:1;stroke:none"
       x="2061.8047"
       y="1674.8641"
       id="text4246-3-6"
       sodipodi:linespacing="125%"><tspan
         sodipodi:role="line"
         style="font-size:45px"
         x="2061.8047"
         y="1674.8641"
         id="tspan4225">Comme un</tspan><tspan
         sodipodi:role="line"
         style="font-size:45px"
         x="2061.8047"
         y="1731.1141"
         id="tspan4263"><tspan
   style="font-style:italic;font-variant:normal;font-weight:normal;font-stretch:normal;font-family:Lavi;-inkscape-font-specification:'Lavi Italic'"
   id="tspan4265">Deus ex machina</tspan> ?!</tspan></text>
    <text
       xml:space="preserve"
       style="font-style:normal;font-variant:normal;font-weight:normal;font-stretch:normal;font-size:12px;line-height:125%;font-family:Lavi;-inkscape-font-specification:Lavi;text-align:center;letter-spacing:0px;word-spacing:0px;text-anchor:middle;fill:#000000;fill-opacity:1;stroke:none"
       x="2023.913"
       y="1204.9019"
       id="text4246-3-6-1"
       sodipodi:linespacing="125%"><tspan
         sodipodi:role="line"
         style="font-size:45px"
         x="2023.913"
         y="1204.9019"
         id="tspan4196-9-2">Juste au moment où ça ne</tspan><tspan
         sodipodi:role="line"
         style="font-size:45px"
         x="2023.913"
         y="1261.1519"
         id="tspan4221-7">va pas, vous tombez du ciel</tspan><tspan
         sodipodi:role="line"
         style="font-size:45px"
         x="2031.8231"
         y="1317.4019"
         id="tspan4223-0">avec la solution miracle à </tspan><tspan
         sodipodi:role="line"
         style="font-size:45px"
         x="2023.913"
         y="1373.6519"
         id="tspan4225-9">tout ?!</tspan></text>
    <text
       xml:space="preserve"
       style="font-style:normal;font-variant:normal;font-weight:normal;font-stretch:normal;font-size:12px;line-height:125%;font-family:Lavi;-inkscape-font-specification:Lavi;text-align:center;letter-spacing:0px;word-spacing:0px;text-anchor:middle;fill:#000000;fill-opacity:1;stroke:none"
       x="2136.7385"
       y="1819.4176"
       id="text4246-3-6-3"
       sodipodi:linespacing="125%"><tspan
         sodipodi:role="line"
         style="font-size:45px"
         x="2136.7385"
         y="1819.4176"
         id="tspan4263-0">Ça paraît</tspan><tspan
         sodipodi:role="line"
         style="font-size:45px"
         x="2136.7385"
         y="1875.6676"
         id="tspan4293">louche tout ça,</tspan><tspan
         sodipodi:role="line"
         style="font-size:45px"
         x="2136.7385"
         y="1931.9176"
         id="tspan4295">même très louche !</tspan></text>
    <text
       xml:space="preserve"
       style="font-style:normal;font-variant:normal;font-weight:normal;font-stretch:normal;font-size:12px;line-height:125%;font-family:Lavi;-inkscape-font-specification:Lavi;text-align:center;letter-spacing:0px;word-spacing:0px;text-anchor:middle;fill:#000000;fill-opacity:1;stroke:none"
       x="439.63583"
       y="2202.2944"
       id="text4246-3-6-3-2"
       sodipodi:linespacing="125%"><tspan
         sodipodi:role="line"
         style="font-size:45px"
         x="439.63583"
         y="2202.2944"
         id="tspan4295-8">Viens</tspan><tspan
         sodipodi:role="line"
         style="font-size:45px"
         x="439.63583"
         y="2258.5444"
         id="tspan4326">Carrot.</tspan></text>
    <text
       xml:space="preserve"
       style="font-style:normal;font-variant:normal;font-weight:normal;font-stretch:normal;font-size:12px;line-height:125%;font-family:Lavi;-inkscape-font-specification:Lavi;text-align:center;letter-spacing:0px;word-spacing:0px;text-anchor:middle;fill:#000000;fill-opacity:1;stroke:none"
       x="463.76996"
       y="2373.7214"
       id="text4246-3-6-3-2-7"
       sodipodi:linespacing="125%"><tspan
         sodipodi:role="line"
         style="font-size:45px"
         x="463.76996"
         y="2373.7214"
         id="tspan4326-2">Ce genre de truc aurait</tspan><tspan
         sodipodi:role="line"
         style="font-size:45px"
         x="463.76996"
         y="2429.9714"
         id="tspan4351">peut-être marché sur nous</tspan><tspan
         sodipodi:role="line"
         style="font-size:45px"
         x="463.76996"
         y="2486.2214"
         id="tspan4353">avant, mais maintenant on</tspan><tspan
         sodipodi:role="line"
         style="font-size:45px"
         x="463.76996"
         y="2542.4714"
         id="tspan4355">n'est plus assez idiots pour</tspan><tspan
         sodipodi:role="line"
         style="font-size:45px"
         x="463.76996"
         y="2598.7214"
         id="tspan4357">tomber dans ce genre de</tspan><tspan
         sodipodi:role="line"
         style="font-size:45px"
         x="463.76996"
         y="2654.9714"
         id="tspan4359">piège !</tspan></text>
  </g>
</svg>
