<?xml version="1.0" encoding="UTF-8" standalone="no"?>
<!-- Created with Inkscape (http://www.inkscape.org/) -->

<svg
   xmlns:dc="http://purl.org/dc/elements/1.1/"
   xmlns:cc="http://creativecommons.org/ns#"
   xmlns:rdf="http://www.w3.org/1999/02/22-rdf-syntax-ns#"
   xmlns:svg="http://www.w3.org/2000/svg"
   xmlns="http://www.w3.org/2000/svg"
   xmlns:xlink="http://www.w3.org/1999/xlink"
   xmlns:sodipodi="http://sodipodi.sourceforge.net/DTD/sodipodi-0.dtd"
   xmlns:inkscape="http://www.inkscape.org/namespaces/inkscape"
   id="svg2"
   version="1.1"
   inkscape:version="0.91 r13725"
   width="2481"
   height="3503"
   sodipodi:docname="Pepper-and-Carrot_by-David-Revoy_E23P04.svg">
  <metadata
     id="metadata8">
    <rdf:RDF>
      <cc:Work
         rdf:about="">
        <dc:format>image/svg+xml</dc:format>
        <dc:type
           rdf:resource="http://purl.org/dc/dcmitype/StillImage" />
        <dc:title />
      </cc:Work>
    </rdf:RDF>
  </metadata>
  <defs
     id="defs6" />
  <sodipodi:namedview
     pagecolor="#ffffff"
     bordercolor="#666666"
     borderopacity="1"
     objecttolerance="10"
     gridtolerance="10"
     guidetolerance="10"
     inkscape:pageopacity="0"
     inkscape:pageshadow="2"
     inkscape:window-width="1920"
     inkscape:window-height="1026"
     id="namedview4"
     showgrid="false"
     inkscape:zoom="0.22870131"
     inkscape:cx="-590.78167"
     inkscape:cy="1005.0627"
     inkscape:window-x="0"
     inkscape:window-y="27"
     inkscape:window-maximized="1"
     inkscape:current-layer="layer3" />
  <g
     inkscape:groupmode="layer"
     id="layer2"
     inkscape:label="artwork"
     sodipodi:insensitive="true">
    <image
       sodipodi:absref="/home/deevad/peppercarrot/webcomics/New/lang/fr/../gfx_Pepper-and-Carrot_by-David-Revoy_E23P04.png"
       xlink:href="../gfx_Pepper-and-Carrot_by-David-Revoy_E23P04.png"
       width="2481"
       height="3503"
       id="image10"
       x="0"
       y="0" />
  </g>
  <g
     inkscape:groupmode="layer"
     id="layer3"
     inkscape:label="speechbubbles">
    <path
       style="fill:#ffffff;fill-rule:evenodd;stroke:none;stroke-width:1px;stroke-linecap:butt;stroke-linejoin:miter;stroke-opacity:1"
       d="m 1621.0823,264.27286 c 11.5086,-28.27166 43.4766,-52.68809 53.7064,-59.11347 10.2297,-6.42538 176.4635,-28.27166 200.7593,-28.27166 24.2957,0 162.1083,21.67159 179.1922,37.26718 17.731,16.18633 40.9619,59.11348 38.4045,78.3896 -2.5575,19.27614 -29.6246,83.52991 -56.4777,93.81051 -26.8532,10.28061 -167.5126,17.99106 -194.3658,17.99106 -26.8531,0 -143.2169,-5.1403 -171.3487,-21.84628 -28.1319,-16.70598 -49.5946,-55.3074 -49.5946,-63.01785 0,-7.71045 -0.2756,-55.20909 -0.2756,-55.20909 z"
       id="path4246"
       inkscape:connector-curvature="0"
       sodipodi:nodetypes="cssssssssc" />
    <path
       style="fill:#ffffff;fill-rule:evenodd;stroke:none;stroke-width:1px;stroke-linecap:butt;stroke-linejoin:miter;stroke-opacity:1"
       d="m 1859.8611,183.53722 c 3.8122,-24.29312 8.2944,-49.93369 -6.7376,-69.58867 12.7474,9.99691 30.4412,33.00886 28.3517,60.17215 -3.2611,42.39294 -20.8306,11.79987 -20.8306,11.79987 z"
       id="path4248"
       inkscape:connector-curvature="0"
       sodipodi:nodetypes="ccscc" />
    <path
       style="fill:#ffffff;stroke:none"
       d="m 715.39201,1248.2057 c -2.34127,-33.9259 39.63745,-118.8559 244.40776,-112.4677 204.77023,6.3882 268.86023,43.7054 274.86083,104.0086 9.4928,95.398 -98.2367,120.8916 -252.92643,127.9576 -159.46838,7.2845 -268.81709,-58.1999 -266.34216,-119.4985 z"
       id="path3280-8"
       inkscape:connector-curvature="0"
       sodipodi:nodetypes="csssc" />
    <path
       style="fill:#ffffff;fill-rule:evenodd;stroke:none;stroke-width:1px;stroke-linecap:butt;stroke-linejoin:miter;stroke-opacity:1"
       d="m 1146.4196,1634.7802 c 69.7815,-61.4635 62.8192,-106.4528 58.6322,-135.0404 -4.1868,-28.5877 -29.9863,-50.7875 -55.1076,-50.7875 -25.1214,0 -64.8772,32.9324 -92.7898,2.9153 -27.9126,-30.017 -17.4966,-77.849 7.6248,-109.2954 25.1213,-31.4464 -34.5409,-32.658 -45.706,14.5117 -11.1651,47.1696 -7.9982,96.1808 22.7056,117.6215 30.7039,21.4408 59.5716,15.6384 71.193,9.9814 13.2388,-6.4443 46.7261,-25.753 64.1517,-5.7094 19.1106,21.9817 37.682,85.763 -30.7039,155.8028 z"
       id="path4256"
       inkscape:connector-curvature="0"
       sodipodi:nodetypes="cssssssssc" />
    <path
       style="color:#000000;display:inline;overflow:visible;visibility:visible;fill:#ffffff;fill-opacity:1;fill-rule:nonzero;stroke:none;stroke-width:1px;marker:none;enable-background:accumulate"
       d="m 1860.7116,1986.4373 c -4.5243,-42.7914 26.7685,-82.8297 66.3588,-91.8378 67.2402,-28.4031 143.6874,-19.9069 212.314,-3.0571 32.9413,9.462 67.1824,37.0094 84.9009,66.3466 20.6697,35.3673 -10.3814,70.7447 -45.2625,77.0323 -67.0165,19.2443 -138.2168,18.217 -207.1836,13.0416 -31.6914,-5.5265 -68.4006,-2.6993 -94.549,-24.2317 -10.6284,-9.1666 -18.1475,-22.9374 -16.5786,-37.2939 z"
       id="path3357"
       inkscape:connector-curvature="0"
       sodipodi:nodetypes="cccccccc" />
    <path
       style="fill:#ffffff;fill-rule:evenodd;stroke:none;stroke-width:1px;stroke-linecap:butt;stroke-linejoin:miter;stroke-opacity:1"
       d="m 1815.7758,2061.2815 c 64.8492,31.0148 134.3976,22.5562 155.0741,-25.3758 23.8742,-55.3449 26.3156,-31.9546 26.3156,-31.9546 0,0 20.7007,14.1323 -2.8196,43.2328 -18.7952,23.2544 -75.4849,87.5238 -178.5701,14.0976 z"
       id="path4281"
       inkscape:connector-curvature="0"
       sodipodi:nodetypes="cscsc" />
    <path
       style="color:#000000;display:inline;overflow:visible;visibility:visible;fill:#ffffff;fill-opacity:1;fill-rule:nonzero;stroke:none;stroke-width:1px;marker:none;enable-background:accumulate"
       d="m 140.73919,2104.6301 c 17.4749,-38.9356 59.65078,-62.0143 101.62493,-69.3099 46.89281,-8.7072 95.31874,-4.5768 141.97822,3.4442 30.74955,6.3727 61.54816,17.1327 85.9471,36.6618 9.21028,11.7795 19.6301,25.8707 22.49857,40.0075 14.14179,33.5054 1.99281,66.1649 -27.80791,110.1942 -32.93384,25.997 -77.43541,26.089 -117.82528,28.7458 -45.75382,5.3421 -93.35325,0.5022 -135.73186,-17.4252 -26.34171,-11.9911 -52.80502,-29.1457 -65.32604,-55.3388 -9.14205,-24.772 -15.92437,-53.2974 -5.35773,-76.9796 z"
       id="path3365"
       inkscape:connector-curvature="0"
       sodipodi:nodetypes="cccccccccc" />
    <path
       style="fill:#ffffff;fill-rule:evenodd;stroke:none;stroke-width:1px;stroke-linecap:butt;stroke-linejoin:miter;stroke-opacity:1"
       d="m 463.97121,2140.9085 c 84.34167,16.1667 252.8523,-49.3553 272.73937,-44.3835 19.88707,4.9717 31.42746,46.6967 63.74394,23.0808 -39.77414,32.3165 -47.23179,-7.4577 -63.39003,-8.7006 -16.15824,-1.243 -197.62775,64.633 -269.71837,62.1471 -72.09063,-2.4859 -3.37491,-32.1438 -3.37491,-32.1438 z"
       id="path4314"
       inkscape:connector-curvature="0"
       sodipodi:nodetypes="cscssc" />
    <path
       style="fill:#ffffff;fill-rule:evenodd;stroke:none;stroke-width:1px;stroke-linecap:butt;stroke-linejoin:miter;stroke-opacity:1"
       d="m 1655.5985,2978.4786 c -36.0453,-47.2318 -41.0171,-103.1642 -26.1018,-126.7801 14.9153,-23.6159 82.0342,-69.6047 0,-131.7518 79.5483,52.2035 49.7177,87.0059 19.8871,135.4806 -29.8306,48.4748 54.6894,132.9948 54.6894,132.9948 z"
       id="path4316"
       inkscape:connector-curvature="0" />
    <path
       style="fill:#ffffff;stroke:none"
       d="m 1482.4134,3072.2908 c -1.7394,-29.3757 29.4478,-102.9148 181.5776,-97.3834 152.1299,5.5314 202.3736,27.8938 205.4451,100.0024 3.5615,83.6116 -88.4554,91.8622 -201.5788,87.1799 -118.54,-4.9065 -187.2826,-36.7217 -185.4439,-89.7989 z"
       id="path3280-8-9"
       inkscape:connector-curvature="0"
       sodipodi:nodetypes="csssc" />
  </g>
  <g
     inkscape:groupmode="layer"
     id="layer1"
     inkscape:label="txt">
    <text
       xml:space="preserve"
       style="font-style:normal;font-variant:normal;font-weight:normal;font-stretch:normal;font-size:9.54078388px;line-height:125%;font-family:Lavi;-inkscape-font-specification:Lavi;text-align:center;letter-spacing:0px;word-spacing:0px;text-anchor:middle;fill:#000000;fill-opacity:1;stroke:none"
       x="1856.9244"
       y="237.40414"
       id="text4246"
       sodipodi:linespacing="125%"><tspan
         sodipodi:role="line"
         style="font-size:35.77793884px"
         x="1856.9244"
         y="237.40414"
         id="tspan4252">Hors week-ends et</tspan><tspan
         sodipodi:role="line"
         style="font-size:35.77793884px"
         x="1856.9244"
         y="282.12656"
         id="tspan4144">jours fériés, offre non</tspan><tspan
         sodipodi:role="line"
         style="font-size:35.77793884px"
         x="1856.9244"
         y="326.849"
         id="tspan4146">cumulable dans la limite</tspan><tspan
         sodipodi:role="line"
         style="font-size:35.77793884px"
         x="1856.9244"
         y="371.57141"
         id="tspan4148">des stocks disponibles.</tspan></text>
    <text
       xml:space="preserve"
       style="font-style:normal;font-variant:normal;font-weight:normal;font-stretch:normal;font-size:12px;line-height:125%;font-family:Lavi;-inkscape-font-specification:Lavi;text-align:center;letter-spacing:0px;word-spacing:0px;text-anchor:middle;fill:#000000;fill-opacity:1;stroke:none"
       x="976.5672"
       y="1212.2102"
       id="text4246-3"
       sodipodi:linespacing="125%"><tspan
         sodipodi:role="line"
         style="font-size:45px"
         x="976.5672"
         y="1212.2102"
         id="tspan4252-6">Campagne de</tspan><tspan
         sodipodi:role="line"
         style="font-size:45px"
         x="976.5672"
         y="1268.4602"
         id="tspan4160">communication mondiale</tspan><tspan
         sodipodi:role="line"
         style="font-size:45px"
         x="976.5672"
         y="1324.7102"
         id="tspan4167"> instantanée !</tspan></text>
    <text
       xml:space="preserve"
       style="font-style:normal;font-variant:normal;font-weight:normal;font-stretch:normal;font-size:12px;line-height:125%;font-family:Lavi;-inkscape-font-specification:Lavi;text-align:center;letter-spacing:0px;word-spacing:0px;text-anchor:middle;fill:#000000;fill-opacity:1;stroke:none"
       x="2045.5197"
       y="1944.0619"
       id="text4246-3-7"
       sodipodi:linespacing="125%"><tspan
         sodipodi:role="line"
         style="font-size:45px"
         x="2045.5197"
         y="1944.0619"
         id="tspan4160-5">Renommée</tspan><tspan
         sodipodi:role="line"
         style="font-size:45px"
         x="2045.5197"
         y="2000.312"
         id="tspan4191">internationale !</tspan></text>
    <text
       xml:space="preserve"
       style="font-style:normal;font-variant:normal;font-weight:normal;font-stretch:normal;font-size:12px;line-height:125%;font-family:Lavi;-inkscape-font-specification:Lavi;text-align:center;letter-spacing:0px;word-spacing:0px;text-anchor:middle;fill:#000000;fill-opacity:1;stroke:none"
       x="317.84491"
       y="2108.1274"
       id="text4246-3-7-6"
       sodipodi:linespacing="125%"><tspan
         sodipodi:role="line"
         style="font-size:45px"
         x="317.84491"
         y="2108.1274"
         id="tspan4191-9">Styliste et</tspan><tspan
         sodipodi:role="line"
         style="font-size:45px"
         x="317.84491"
         y="2164.3774"
         id="tspan4216">coiffeur</tspan><tspan
         sodipodi:role="line"
         style="font-size:45px"
         x="317.84491"
         y="2220.6274"
         id="tspan4218">inclus !</tspan></text>
    <text
       xml:space="preserve"
       style="font-style:normal;font-variant:normal;font-weight:normal;font-stretch:normal;font-size:12px;line-height:125%;font-family:Lavi;-inkscape-font-specification:Lavi;text-align:center;letter-spacing:0px;word-spacing:0px;text-anchor:middle;fill:#000000;fill-opacity:1;stroke:none"
       x="1680.738"
       y="3057.6921"
       id="text4246-3-7-6-1"
       sodipodi:linespacing="125%"><tspan
         sodipodi:role="line"
         style="font-size:45px"
         x="1680.738"
         y="3057.6921"
         id="tspan4191-9-2">…et résultats</tspan><tspan
         sodipodi:role="line"
         style="font-size:45px"
         x="1680.738"
         y="3113.9421"
         id="tspan4218-0">garantis !</tspan></text>
  </g>
</svg>
