<?xml version="1.0" encoding="UTF-8" standalone="no"?>
<!-- Created with Inkscape (http://www.inkscape.org/) -->

<svg
   xmlns:dc="http://purl.org/dc/elements/1.1/"
   xmlns:cc="http://creativecommons.org/ns#"
   xmlns:rdf="http://www.w3.org/1999/02/22-rdf-syntax-ns#"
   xmlns:svg="http://www.w3.org/2000/svg"
   xmlns="http://www.w3.org/2000/svg"
   xmlns:xlink="http://www.w3.org/1999/xlink"
   xmlns:sodipodi="http://sodipodi.sourceforge.net/DTD/sodipodi-0.dtd"
   xmlns:inkscape="http://www.inkscape.org/namespaces/inkscape"
   id="svg2"
   version="1.1"
   inkscape:version="0.92.2 5c3e80d, 2017-08-06"
   width="2481"
   height="3503"
   sodipodi:docname="Pepper-and-Carrot_by-David-Revoy_E23P02.svg">
  <metadata
     id="metadata8">
    <rdf:RDF>
      <cc:Work
         rdf:about="">
        <dc:format>image/svg+xml</dc:format>
        <dc:type
           rdf:resource="http://purl.org/dc/dcmitype/StillImage" />
        <dc:title />
      </cc:Work>
    </rdf:RDF>
  </metadata>
  <defs
     id="defs6" />
  <sodipodi:namedview
     pagecolor="#ffffff"
     bordercolor="#666666"
     borderopacity="1"
     objecttolerance="10"
     gridtolerance="10"
     guidetolerance="10"
     inkscape:pageopacity="0"
     inkscape:pageshadow="2"
     inkscape:window-width="1920"
     inkscape:window-height="1048"
     id="namedview4"
     showgrid="false"
     inkscape:zoom="0.43117158"
     inkscape:cx="2011.4011"
     inkscape:cy="1207.8794"
     inkscape:window-x="1280"
     inkscape:window-y="32"
     inkscape:window-maximized="1"
     inkscape:current-layer="layer3"
     inkscape:document-rotation="0" />
  <g
     inkscape:groupmode="layer"
     id="layer2"
     inkscape:label="artwork"
     sodipodi:insensitive="true">
    <image
       sodipodi:absref="/home/ruben/git/peppercarrot/ep23/mx/../gfx_Pepper-and-Carrot_by-David-Revoy_E23P02.png"
       xlink:href="../gfx_Pepper-and-Carrot_by-David-Revoy_E23P02.png"
       width="2481"
       height="3503"
       id="image10"
       x="0"
       y="0" />
  </g>
  <g
     inkscape:groupmode="layer"
     id="layer3"
     inkscape:label="speechbubbles"
     style="opacity:1">
    <path
       style="color:#000000;display:inline;overflow:visible;visibility:visible;fill:#ffffff;fill-opacity:1;fill-rule:nonzero;stroke:none;stroke-width:1px;marker:none;enable-background:accumulate"
       d="m 951.5933,1473.6441 c 42.85201,-30.6327 130.4159,-50.3775 203.3705,7.4307 57.7743,45.7796 38.4694,109.6282 7.6017,128.8691 -30.8676,19.2409 -129.0974,21.0952 -174.2806,10.2268 -34.8811,-8.3903 -73.12038,-28.1676 -75.22816,-78.646 -0.86027,-20.6022 -4.31545,-37.2479 38.53656,-67.8806 z"
       id="path4040"
       inkscape:connector-curvature="0"
       sodipodi:nodetypes="zssssz" />
    <path
       style="fill:#ffffff;fill-rule:evenodd;stroke:none;stroke-width:1px;stroke-linecap:butt;stroke-linejoin:miter;stroke-opacity:1"
       d="m 1054.4405,1765.324 c -12.3953,-22.6257 4.8341,-35.5794 4.6846,-49.2442 -0.1543,-14.1069 -33.2797,-25.9555 -34.0153,-39.0315 -0.7356,-13.0761 20.5032,-26.9572 19.032,-47.3885 -1.4712,-20.4314 -25.011,-24.5177 -22.8041,-0.8173 2.2069,23.7004 -15.6571,27.8387 -11.7699,46.5835 6.483,31.2614 30.8848,30.6379 38.523,39.431 5.057,5.8216 -4.6847,18.5941 -2.4778,32.4874 2.2069,13.8933 8.8275,17.9796 8.8275,17.9796 z"
       id="path4272"
       inkscape:connector-curvature="0"
       sodipodi:nodetypes="csssssssc" />
    <path
       style="fill:#ffffff;stroke:none;stroke-width:0.99999994"
       d="m 1561.6873,1557.094 c 5.6321,-70.0258 53.0376,-85.3577 76.5274,-94.9273 23.4898,-9.5698 123.3019,-22.6893 188.9377,-21.434 65.6359,1.2556 226.3924,5.1764 253.0356,12.4119 54.5317,14.8093 108.7114,47.6933 109.9302,92.8026 1.2189,45.1091 -15.0901,79.8197 -53.7502,106.6326 -38.6604,26.8131 -178.9836,39.2216 -283.8023,39.8615 -92.3327,0.5638 -202.3104,-19.1724 -214.8644,-26.9268 -12.5539,-7.7545 -74.995,-53.2961 -76.014,-108.4205 z"
       id="path3278"
       inkscape:connector-curvature="0"
       sodipodi:nodetypes="ccssssssc" />
    <path
       style="color:#000000;display:inline;overflow:visible;visibility:visible;fill:#ffffff;fill-opacity:1;fill-rule:nonzero;stroke:none;stroke-width:1px;marker:none;enable-background:accumulate"
       d="m 2309.3519,1491.2431 c -3.3015,17.6285 -6.5251,36.0465 -16.5742,51.0265 -2.9438,4.1952 -6.2726,8.3203 -10.3977,11.2503 -4.952,2.0462 -10.5106,-0.1777 -14.1301,-3.9795 -5.5933,-5.1132 -9.4498,-12.8831 -16.8764,-15.4078 -5.4477,-1.7019 -10.2634,2.1026 -14.5741,4.918 -10.8499,7.4017 -20.7857,16.3852 -32.7316,21.9366 -13.0507,7.1639 -27.2917,13.7117 -42.4274,13.0803 -5.9858,-0.3542 -12.2078,-1.5951 -17.0927,-5.4909 -12.9618,-9.4069 -20.9954,-26.6382 -18.2647,-42.9738 2.6942,-10.2389 14.039,-17.6238 24.0122,-13.9292 5.2919,1.8685 8.551,7.1399 10.0291,12.4759 4.4744,9.2979 13.8589,15.3752 23.6608,16.4167 8.0767,0.9972 16.3468,-0.6515 23.6235,-4.2797 11.1725,-2.2031 18.6721,-11.736 27.1027,-18.7576 3.898,-3.1478 8.252,-6.2192 13.1972,-7.0722 7.3458,0.5316 12.2935,7.0789 15.8693,13.1143 3.8411,6.1272 7.6353,13.6796 14.9853,15.6694 4.9282,2.0936 8.0913,-3.4795 11.3841,-6.2587 9.4666,-10.3996 15.6617,-23.7734 18.8064,-37.6716 0.2044,-1.3481 0.3033,-2.7058 0.3983,-4.067 z"
       id="path4496"
       inkscape:connector-curvature="0" />
    <path
       style="color:#000000;display:inline;overflow:visible;visibility:visible;fill:#ffffff;fill-opacity:1;fill-rule:nonzero;stroke:none;stroke-width:1px;marker:none;enable-background:accumulate"
       d="m 156.62579,2805.0635 c -8.70184,-47.7495 -5.43169,-135.1897 171.5435,-132.9248 175.07039,2.2406 232.95952,4.1887 253.56555,96.2 -2.3814,61.0627 0.79276,112.134 -138.43705,138.9932 -139.22995,26.8591 -277.18911,-26.067 -286.672,-102.2684 z"
       id="path3525"
       inkscape:connector-curvature="0"
       sodipodi:nodetypes="cscsc" />
    <path
       style="fill:#ffffff;fill-rule:evenodd;stroke:none;stroke-width:1px;stroke-linecap:butt;stroke-linejoin:miter;stroke-opacity:1"
       d="m 1032.8846,3001.2911 c 64.3595,-20.5055 125.4599,-16.3396 159.0938,-8.4954 0.9399,10.0872 -6.0538,18.1194 2.4887,25.4861 5.3864,4.645 55.4971,24.5806 111.8647,-24.2725 -60.9167,31.4127 -81.1572,20.4407 -93.2206,13.35 0.1589,-20.1238 23.4006,-53.5398 -172.7689,-32.7681 -196.36699,20.7927 -7.4577,26.6999 -7.4577,26.6999 z"
       id="path4316"
       inkscape:connector-curvature="0"
       sodipodi:nodetypes="ccsccsc" />
    <path
       style="color:#000000;display:inline;overflow:visible;visibility:visible;opacity:1;fill:#ffffff;fill-opacity:1;fill-rule:nonzero;stroke:none;stroke-width:1px;marker:none;enable-background:accumulate"
       d="m 307.2026,2980.125 c 9.63098,-53.657 45.52839,-85.663 65.66592,-96.9593 20.13753,-11.2962 253.03259,-24.475 303.8142,-26.3578 50.78162,-1.8827 197.87325,-2.824 261.78805,30.1233 63.91483,32.9473 87.55443,77.1909 88.43013,102.6073 0.8756,25.4165 -22.7642,93.1939 -143.5895,113.9037 -120.8252,20.7098 -242.09574,29.0322 -288.49959,25.2667 -46.40394,-3.7653 -204.84803,-11.0481 -248.62521,-55.2915 -43.77738,-44.2436 -38.10845,-61.2864 -38.984,-93.2924 z"
       id="path5909"
       inkscape:connector-curvature="0"
       sodipodi:nodetypes="csssssssc" />
    <path
       style="opacity:1;fill:#ffffff;stroke:none;stroke-width:1"
       d="m 2009.0792,3270.5906 c -1.5135,-26.5872 25.6239,-93.1456 157.9989,-88.1393 132.3751,5.0064 173.8063,34.2513 177.6856,81.5101 6.1365,74.762 -63.5058,94.741 -163.506,100.2786 -103.0893,5.7087 -173.7784,-45.6106 -172.1785,-93.6494 z"
       id="path3280-8"
       inkscape:connector-curvature="0"
       sodipodi:nodetypes="csssc" />
    <path
       style="opacity:1;fill:#ffffff;fill-rule:evenodd;stroke:none;stroke-width:1px;stroke-linecap:butt;stroke-linejoin:miter;stroke-opacity:1"
       d="m 2035.1821,3063.1067 c 62.6875,-14.0507 132.7452,-5.414 131.8599,14.0506 -1.3219,29.0657 -58.7184,68.5728 -54.1912,71.7994 59.553,42.4434 62.2223,48.0386 58.9798,82.6248 -3.2425,34.5862 -26.5527,-14.9887 -37.3609,-31.201 -10.8082,-16.2123 -47.4083,-28.1111 -48.4891,-46.485 -1.0808,-18.3739 69.4777,-55.2769 65.1544,-75.8124 -4.3232,-20.5356 -115.9529,-14.9764 -115.9529,-14.9764 z"
       id="path4324"
       inkscape:connector-curvature="0"
       sodipodi:nodetypes="cssssssc" />
  </g>
  <g
     inkscape:groupmode="layer"
     id="layer1"
     inkscape:label="txt">
    <text
       xml:space="preserve"
       style="font-style:normal;font-variant:normal;font-weight:normal;font-stretch:normal;line-height:0%;font-family:Lavi;-inkscape-font-specification:Lavi;text-align:center;letter-spacing:0px;word-spacing:0px;text-anchor:middle;fill:#000000;fill-opacity:1;stroke:none"
       x="1050.5168"
       y="1521.3531"
       id="text4246"><tspan
         sodipodi:role="line"
         style="font-size:45px;line-height:1.25"
         x="1050.5168"
         y="1521.3531"
         id="tspan4252">Gracias</tspan><tspan
         sodipodi:role="line"
         style="font-size:45px;line-height:1.25"
         x="1050.5168"
         y="1577.6031"
         id="tspan4144">Carrot…</tspan></text>
    <text
       xml:space="preserve"
       style="font-style:normal;font-variant:normal;font-weight:normal;font-stretch:normal;line-height:0%;font-family:Lavi;-inkscape-font-specification:Lavi;text-align:center;letter-spacing:0px;word-spacing:0px;text-anchor:middle;fill:#000000;fill-opacity:1;stroke:none"
       x="1878.9259"
       y="1515.9669"
       id="text4246-3"><tspan
         sodipodi:role="line"
         style="font-size:45px;line-height:1.25"
         x="1878.9259"
         y="1515.9669"
         id="tspan4167">Bien sabes, que trabajo</tspan><tspan
         sodipodi:role="line"
         style="font-size:45px;line-height:1.25"
         x="1878.9259"
         y="1572.2169"
         id="tspan4177">muy duro cada día para</tspan><tspan
         sodipodi:role="line"
         style="font-size:45px;line-height:1.25"
         x="1878.9259"
         y="1628.4669"
         id="tspan4514">ser una mejor hechicera…</tspan></text>
    <text
       xml:space="preserve"
       style="font-style:normal;font-variant:normal;font-weight:normal;font-stretch:normal;line-height:0%;font-family:Lavi;-inkscape-font-specification:Lavi;text-align:center;letter-spacing:0px;word-spacing:0px;text-anchor:middle;fill:#000000;fill-opacity:1;stroke:none"
       x="364.96066"
       y="2748.439"
       id="text4246-3-5"><tspan
         sodipodi:role="line"
         style="font-size:45px;line-height:1.25"
         x="364.96066"
         y="2748.439"
         id="tspan4183">…Respetando las</tspan><tspan
         sodipodi:role="line"
         style="font-size:45px;line-height:1.25"
         x="364.96066"
         y="2804.689"
         id="tspan4521">tradiciones, las</tspan><tspan
         sodipodi:role="line"
         style="font-size:45px;line-height:1.25"
         x="364.96066"
         y="2860.939"
         id="tspan4523">normas…</tspan></text>
    <text
       xml:space="preserve"
       style="font-style:normal;font-variant:normal;font-weight:normal;font-stretch:normal;line-height:0%;font-family:Lavi;-inkscape-font-specification:Lavi;text-align:center;letter-spacing:0px;word-spacing:0px;text-anchor:middle;fill:#000000;fill-opacity:1;stroke:none"
       x="659.62061"
       y="2928.4275"
       id="text4246-3-5-2"><tspan
         sodipodi:role="line"
         style="font-size:45px;line-height:1.25"
         x="659.62061"
         y="2928.4275"
         id="tspan4198">…No es justo que Azafrán se</tspan><tspan
         sodipodi:role="line"
         style="font-size:45px;line-height:1.25"
         x="659.62061"
         y="2984.6775"
         id="tspan4536">vuelva tan popular entre las</tspan><tspan
         sodipodi:role="line"
         style="font-size:45px;line-height:1.25"
         x="659.62061"
         y="3040.9275"
         id="tspan4515">hechizeras por estilo más que</tspan><tspan
         sodipodi:role="line"
         style="font-size:45px;line-height:1.25"
         x="659.62061"
         y="3097.1775"
         id="tspan4517">por magia…</tspan></text>
    <text
       xml:space="preserve"
       style="font-style:normal;font-variant:normal;font-weight:normal;font-stretch:normal;line-height:0%;font-family:Lavi;-inkscape-font-specification:Lavi;text-align:center;letter-spacing:0px;word-spacing:0px;text-anchor:middle;fill:#000000;fill-opacity:1;stroke:none"
       x="2179.4888"
       y="3264.6587"
       id="text4246-3-5-2-2"><tspan
         sodipodi:role="line"
         style="font-size:45px;line-height:1.25"
         x="2179.4888"
         y="3264.6587"
         id="tspan4264">…Simplemente</tspan><tspan
         sodipodi:role="line"
         style="font-size:45px;line-height:1.25"
         x="2179.4888"
         y="3320.9087"
         id="tspan4540">no es justo.</tspan></text>
  </g>
</svg>
