<?xml version="1.0" encoding="UTF-8" standalone="no"?>
<!-- Created with Inkscape (http://www.inkscape.org/) -->

<svg
   xmlns:dc="http://purl.org/dc/elements/1.1/"
   xmlns:cc="http://creativecommons.org/ns#"
   xmlns:rdf="http://www.w3.org/1999/02/22-rdf-syntax-ns#"
   xmlns:svg="http://www.w3.org/2000/svg"
   xmlns="http://www.w3.org/2000/svg"
   xmlns:xlink="http://www.w3.org/1999/xlink"
   xmlns:sodipodi="http://sodipodi.sourceforge.net/DTD/sodipodi-0.dtd"
   xmlns:inkscape="http://www.inkscape.org/namespaces/inkscape"
   id="svg2"
   version="1.1"
   inkscape:version="0.92.1 r15371"
   width="2481"
   height="3503"
   sodipodi:docname="Pepper-and-Carrot_by-David-Revoy_E23P05.svg">
  <metadata
     id="metadata8">
    <rdf:RDF>
      <cc:Work
         rdf:about="">
        <dc:format>image/svg+xml</dc:format>
        <dc:type
           rdf:resource="http://purl.org/dc/dcmitype/StillImage" />
        <dc:title />
      </cc:Work>
    </rdf:RDF>
  </metadata>
  <defs
     id="defs6" />
  <sodipodi:namedview
     pagecolor="#ffffff"
     bordercolor="#666666"
     borderopacity="1"
     objecttolerance="10"
     gridtolerance="10"
     guidetolerance="10"
     inkscape:pageopacity="0"
     inkscape:pageshadow="2"
     inkscape:window-width="1206"
     inkscape:window-height="777"
     id="namedview4"
     showgrid="false"
     inkscape:zoom="0.37194736"
     inkscape:cx="1840.3213"
     inkscape:cy="816.02723"
     inkscape:window-x="66"
     inkscape:window-y="-8"
     inkscape:window-maximized="1"
     inkscape:current-layer="layer3"
     inkscape:document-rotation="0"
     inkscape:snap-global="false" />
  <g
     inkscape:groupmode="layer"
     id="layer2"
     inkscape:label="artwork"
     sodipodi:insensitive="true">
    <image
       sodipodi:absref="~/user/pepper/ru/gfx_Pepper-and-Carrot_by-David-Revoy_E23P05.png"
       xlink:href="../gfx_Pepper-and-Carrot_by-David-Revoy_E23P05.png"
       width="2481"
       height="3503"
       id="image10"
       x="0"
       y="0" />
  </g>
  <g
     inkscape:groupmode="layer"
     id="layer3"
     inkscape:label="speechbubbles"
     style="display:inline">
    <path
       style="color:#000000;display:inline;overflow:visible;visibility:visible;fill:#ffffff;fill-opacity:1;fill-rule:nonzero;stroke:none;stroke-width:1px;marker:none;enable-background:accumulate"
       d="M 212.88572,475.06172 C 110.96021,463.01758 79.892206,415.17837 80.060207,330.53848 80.216894,251.59867 72.635432,102.65299 99.803229,89.977376 126.8113,77.376289 201.83212,72.785399 300.11868,73.42594 c 89.42449,0.582787 255.48445,-32.137655 311.10623,119.4421 27.13586,73.95034 19.37863,203.57789 -96.59821,260.61667 -112.58939,55.37279 -301.74098,21.57701 -301.74098,21.57701 z"
       id="path3970"
       inkscape:connector-curvature="0"
       sodipodi:nodetypes="csssssc" />
    <path
       style="fill:#ffffff;fill-rule:evenodd;stroke:none;stroke-width:1px;stroke-linecap:butt;stroke-linejoin:miter;stroke-opacity:1"
       d="M 599.21792,525.82095 C 484.89991,589.88304 333.06159,463.02228 324.3431,413.59379 c -8.7185,-49.42848 29.27876,-67.41517 29.27876,-67.41517 l 26.59028,22.09505 c 0,0 -15.9022,-8.60358 -7.84832,36.35392 8.05389,44.9575 112.77168,159.17272 226.8541,121.19336 z"
       id="path4367"
       inkscape:connector-curvature="0"
       sodipodi:nodetypes="csccsc" />
    <path
       style="fill:#ffffff;stroke:none;stroke-width:0.81481153"
       d="m 1219.7515,1209.1773 c -1.2314,-43.1301 45.9882,-56.2592 79.1642,-61.7654 33.1762,-5.5061 143.0741,0.9647 135.6621,53.5915 -7.4119,52.6269 -83.028,58.093 -124.2773,55.0629 -41.2492,-3.0301 -84.4358,-5.9383 -90.549,-46.889 z"
       id="path3938"
       inkscape:connector-curvature="0"
       sodipodi:nodetypes="csssc" />
    <path
       style="fill:#ffffff;fill-rule:evenodd;stroke:none;stroke-width:1px;stroke-linecap:butt;stroke-linejoin:miter;stroke-opacity:1"
       d="m 1319.9169,1430.5563 c -79.6639,-37.1698 -55.9039,-129.7638 14.1457,-180.8499 70.0496,-51.086 29.4921,-47.0022 29.4921,-47.0022 0,0 -17.1327,-11.2383 -67.0329,47.9216 -49.9003,59.16 -82.7104,161.2474 23.3951,179.9305 z"
       id="path4375"
       inkscape:connector-curvature="0"
       sodipodi:nodetypes="cscsc" />
    <path
       style="fill:#ffffff;fill-opacity:1;stroke:none;stroke-width:0.93895334"
       d="m 1742.9526,1242.1888 c 5.7022,-64.3417 47.7098,-98.403 62.3078,-102.7358 40.7902,-12.1069 472.3366,-24.0792 513.7175,21.2283 25.3087,27.7102 75.6099,148.0805 -24.6078,225.0606 -54.731,42.0405 -424.1022,26.1645 -469.1258,-2.655 -46.9585,-30.058 -91.5698,-67.2588 -82.2917,-140.8981 z"
       id="path3659"
       inkscape:connector-curvature="0"
       sodipodi:nodetypes="cssssc" />
    <path
       style="fill:#ffffff;fill-rule:evenodd;stroke:none;stroke-width:1px;stroke-linecap:butt;stroke-linejoin:miter;stroke-opacity:1"
       d="m 1756.031,1518.1378 c 24.2675,-5.1738 2.3375,-12.1848 -4.0584,-24.266 -6.3959,-12.0811 -8.0227,-26.9013 9.033,-30.4546 17.0557,-3.5532 50.4566,10.6599 50.4566,10.6599 0,0 -21.3197,-32.6902 -9.2386,-41.9287 12.0812,-9.2385 54.7206,6.3959 54.7206,6.3959 0,0 -16.3452,-45.482 19.8983,-63.2484 36.2435,-17.7664 81.7255,6.3959 55.4312,15.6344 -26.2943,9.2386 -84.5681,7.1066 -44.7713,77.4615 -62.5378,-29.8475 -60.4058,-23.4516 -64.6697,-19.1877 -4.264,4.264 9.2385,41.9287 14.2131,53.2992 -17.0558,-10.6598 -66.8017,-36.9541 -74.6189,-22.741 -7.8172,14.2132 12.0812,25.5837 11.3705,32.6902 -0.7107,7.1066 -17.7664,5.6853 -17.7664,5.6853 z"
       id="path4394"
       inkscape:connector-curvature="0"
       sodipodi:nodetypes="csscscsscscssc" />
    <path
       style="fill:#ffffff;fill-rule:evenodd;stroke:none;stroke-width:1px;stroke-linecap:butt;stroke-linejoin:miter;stroke-opacity:1"
       d="m 1844.0558,1649.0812 c 24.7762,-32.8604 244.7799,-55.6259 362.7427,-22.239 48.4124,19.2128 110.6766,77.8563 64.6992,125.2802 -61.5439,29.0304 -136.1553,17.8709 -202.9095,31.1587 -77.084,5.7443 -146.3253,9.6804 -220.2369,-15.6583 -52.1764,-29.0231 -33.6957,-85.7728 -4.2955,-118.5416 z"
       id="path4405"
       inkscape:connector-curvature="0"
       sodipodi:nodetypes="cccccc" />
    <path
       style="fill:#ffffff;fill-rule:evenodd;stroke:none;stroke-width:1px;stroke-linecap:butt;stroke-linejoin:miter;stroke-opacity:1"
       d="m 1750.9267,1594.1797 c 19.7367,-19.7367 46.0523,-32.8945 56.3906,-21.6163 10.3382,11.2781 2.8195,39.4733 2.8195,39.4733 0,0 42.2929,-21.6163 90.2249,34.7742 47.932,56.3906 17.857,52.6312 17.857,52.6312 0,0 -10.3383,-3.7594 -34.7742,-32.8945 -24.4359,-29.1351 -45.1124,-46.9921 -72.3679,-35.714 -9.3984,3.7594 -19.7367,-1.8797 -16.9171,-9.3984 12.2179,-30.075 15.9773,-64.8492 -43.2328,-27.2555 z"
       id="path4419"
       inkscape:connector-curvature="0" />
    <path
       style="fill:#ffffff;fill-rule:evenodd;stroke:none;stroke-width:1px;stroke-linecap:butt;stroke-linejoin:miter;stroke-opacity:1"
       d="m 2238.1959,1745.6006 c 58.6675,10.8082 77.5603,43.0076 98.442,81.0615 14.8065,26.983 20.8538,74.8123 -5.9016,116.6581 -24.199,37.8479 -77.6603,35.9285 -114.6076,42.5356 -55.7163,9.9635 -137.8273,3.9263 -181.777,-2.475 -41.1579,-5.9947 -83.5263,-11.889 -99.4361,-44.3136 -15.9098,-32.4245 -10.9381,-92.9504 -4.9718,-110.2435 5.9661,-17.2931 25.8534,-68.0916 41.7632,-72.4149 15.9098,-4.3233 258.5341,-10.8082 258.5341,-10.8082 z"
       id="path4423"
       inkscape:connector-curvature="0"
       sodipodi:nodetypes="cssssssscc" />
    <path
       style="color:#000000;display:inline;overflow:visible;visibility:visible;fill:#ffffff;fill-opacity:1;fill-rule:nonzero;stroke:none;stroke-width:1px;marker:none;enable-background:accumulate"
       d="m 288.9194,2251.5789 c -6.33717,-33.0758 10.56191,-120.9334 140.4743,-113.698 129.91227,7.2352 151.03632,48.58 154.20485,60.9834 3.16865,12.4034 30.62976,82.6895 -70.76519,101.2947 -101.39507,18.6052 -192.228,-1.0337 -223.91396,-48.5801 z"
       id="path3525"
       inkscape:connector-curvature="0" />
    <path
       style="color:#000000;display:inline;overflow:visible;visibility:visible;fill:#ffffff;fill-opacity:1;fill-rule:nonzero;stroke:none;stroke-width:0.88296348px;marker:none;enable-background:accumulate"
       d="m 156.97977,2496.225 c -3.94298,-85.7746 -40.28755,-213.8846 193.92278,-217.4438 192.09405,-2.9191 419.34275,-30.6359 418.84096,191.0576 -0.34527,152.5452 -176.45774,152.0325 -269.5729,154.9383 -198.84015,6.2052 -340.12532,-41.375 -343.19084,-128.5521 z"
       id="path3525-0"
       inkscape:connector-curvature="0"
       sodipodi:nodetypes="csssc" />
    <path
       style="fill:#ffffff;fill-rule:evenodd;stroke:none;stroke-width:1px;stroke-linecap:butt;stroke-linejoin:miter;stroke-opacity:1"
       d="m 742.60914,2350.2751 c 102.97849,-126.0799 251.45982,-276.6361 847.08866,1.322 C 1049.11,2056.78 875.57765,2160.7347 719.24197,2320.9166 c -175.12871,179.4373 23.36717,29.3585 23.36717,29.3585 z"
       id="path4446"
       inkscape:connector-curvature="0"
       sodipodi:nodetypes="ccsc" />
  </g>
  <g
     inkscape:groupmode="layer"
     id="layer1"
     inkscape:label="txt">
    <text
       xml:space="preserve"
       style="font-style:normal;font-variant:normal;font-weight:normal;font-stretch:normal;line-height:0%;font-family:Neucha;-inkscape-font-specification:Neucha;text-align:center;letter-spacing:0px;word-spacing:0px;text-anchor:middle;fill:#000000;fill-opacity:1;stroke:none"
       x="351.50504"
       y="192.9312"
       id="text4246"><tspan
         sodipodi:role="line"
         style="font-size:45px;line-height:1.25"
         x="351.50504"
         y="192.9312"
         id="tspan4205">Всего лишь одна</tspan><tspan
         sodipodi:role="line"
         style="font-size:45px;line-height:1.25"
         x="351.50504"
         y="249.1812"
         id="tspan68">маленькая подпись здесь</tspan><tspan
         sodipodi:role="line"
         style="font-size:45px;line-height:1.25"
         x="351.50504"
         y="305.43121"
         id="tspan75">внизу документа, и</tspan><tspan
         sodipodi:role="line"
         style="font-size:45px;line-height:1.25"
         x="351.50504"
         y="361.68121"
         id="tspan77">перед тобой открыта</tspan><tspan
         sodipodi:role="line"
         style="font-size:45px;line-height:1.25"
         x="351.50504"
         y="417.93121"
         id="tspan79">дорога к славе!</tspan></text>
    <text
       xml:space="preserve"
       style="font-style:normal;font-variant:normal;font-weight:normal;font-stretch:normal;line-height:0%;font-family:Neucha;-inkscape-font-specification:Neucha;text-align:center;letter-spacing:0px;word-spacing:0px;text-anchor:middle;fill:#000000;fill-opacity:1;stroke:none"
       x="1325.9771"
       y="1213.2607"
       id="text4246-3"><tspan
         sodipodi:role="line"
         style="font-size:45px;line-height:1.25"
         x="1325.9771"
         y="1213.2607"
         id="tspan78">Погоди.</tspan></text>
    <text
       xml:space="preserve"
       style="font-style:normal;font-variant:normal;font-weight:normal;font-stretch:normal;line-height:0%;font-family:Neucha;-inkscape-font-specification:Neucha;text-align:center;letter-spacing:0px;word-spacing:0px;text-anchor:middle;fill:#000000;fill-opacity:1;stroke:none"
       x="2049.8047"
       y="1660.8641"
       id="text4246-3-6"><tspan
         sodipodi:role="line"
         style="font-size:45px;line-height:1.25"
         x="2056.0889"
         y="1660.8641"
         id="tspan4225">Что это за </tspan><tspan
         sodipodi:role="line"
         style="font-size:45px;line-height:1.25"
         x="2049.8047"
         y="1717.1141"
         id="tspan107">&quot;неожиданное спасение&quot;</tspan><tspan
         sodipodi:role="line"
         style="font-size:45px;line-height:1.25"
         x="2049.8047"
         y="1773.3641"
         id="tspan4263">такое?!</tspan></text>
    <text
       xml:space="preserve"
       style="font-style:normal;font-variant:normal;font-weight:normal;font-stretch:normal;line-height:0%;font-family:Neucha;-inkscape-font-specification:Neucha;text-align:center;letter-spacing:0px;word-spacing:0px;text-anchor:middle;fill:#000000;fill-opacity:1;stroke:none"
       x="2049.9131"
       y="1194.9019"
       id="text4246-3-6-1"><tspan
         sodipodi:role="line"
         style="font-size:45px;line-height:1.25"
         x="2049.9131"
         y="1194.9019"
         id="tspan93">Сейчас в худшие для меня</tspan><tspan
         sodipodi:role="line"
         style="font-size:45px;line-height:1.25"
         x="2049.9131"
         y="1251.1519"
         id="tspan88">времена ты падаешь откуда-то</tspan><tspan
         sodipodi:role="line"
         style="font-size:45px;line-height:1.25"
         x="2049.9131"
         y="1307.4019"
         id="tspan99">с небес с чудесным решением</tspan><tspan
         sodipodi:role="line"
         style="font-size:45px;line-height:1.25"
         x="2049.9131"
         y="1363.6519"
         id="tspan101">всех моих проблем?!</tspan></text>
    <text
       xml:space="preserve"
       style="font-style:normal;font-variant:normal;font-weight:normal;font-stretch:normal;line-height:0%;font-family:Neucha;-inkscape-font-specification:Neucha;text-align:center;letter-spacing:0px;word-spacing:0px;text-anchor:middle;fill:#000000;fill-opacity:1;stroke:none"
       x="2136.7385"
       y="1831.4176"
       id="text4246-3-6-3"><tspan
         sodipodi:role="line"
         style="font-size:45px;line-height:1.25"
         x="2136.7385"
         y="1831.4176"
         id="tspan106">Всё это выглядит</tspan><tspan
         sodipodi:role="line"
         style="font-size:45px;line-height:1.25"
         x="2136.7385"
         y="1887.6676"
         id="tspan114">подозрительно,</tspan><tspan
         sodipodi:role="line"
         style="font-size:45px;line-height:1.25"
         x="2136.7385"
         y="1943.9176"
         id="tspan116">очень подозрительно!</tspan></text>
    <text
       xml:space="preserve"
       style="font-style:normal;font-variant:normal;font-weight:normal;font-stretch:normal;line-height:0%;font-family:Neucha;-inkscape-font-specification:Neucha;text-align:center;letter-spacing:0px;word-spacing:0px;text-anchor:middle;fill:#000000;fill-opacity:1;stroke:none"
       x="439.63583"
       y="2202.2944"
       id="text4246-3-6-3-2"><tspan
         sodipodi:role="line"
         style="font-size:45px;line-height:1.25"
         x="439.63583"
         y="2202.2944"
         id="tspan4326">Пойдём,</tspan><tspan
         sodipodi:role="line"
         style="font-size:45px;line-height:1.25"
         x="439.63583"
         y="2258.5444"
         id="tspan120">Морквик.</tspan></text>
    <text
       xml:space="preserve"
       style="font-style:normal;font-variant:normal;font-weight:normal;font-stretch:normal;line-height:0%;font-family:Neucha;-inkscape-font-specification:Neucha;text-align:center;letter-spacing:0px;word-spacing:0px;text-anchor:middle;fill:#000000;fill-opacity:1;stroke:none"
       x="463.76996"
       y="2355.7214"
       id="text4246-3-6-3-2-7"><tspan
         sodipodi:role="line"
         style="font-size:45px;line-height:1.25"
         x="463.76996"
         y="2355.7214"
         id="tspan156">Немного раньше это, может,</tspan><tspan
         sodipodi:role="line"
         style="font-size:45px;line-height:1.25"
         x="463.76996"
         y="2411.9714"
         id="tspan138">и сработало бы, но мы с тобой</tspan><tspan
         sodipodi:role="line"
         style="font-size:45px;line-height:1.25"
         x="463.76996"
         y="2468.2214"
         id="tspan866">уже не такие дураки,</tspan><tspan
         sodipodi:role="line"
         style="font-size:45px;line-height:1.25"
         x="463.76996"
         y="2524.4714"
         id="tspan140">чтобы повестись на такое</tspan><tspan
         sodipodi:role="line"
         style="font-size:45px;line-height:1.25"
         x="463.76996"
         y="2580.7214"
         id="tspan142">мошенничество!</tspan></text>
  </g>
</svg>
